<svg xmlns="http://www.w3.org/2000/svg" xmlns:xlink="http://www.w3.org/1999/xlink" version="1.1" x="0px" y="0px"
     viewBox="0 0 100 100" style="enable-background:new 0 0 100 100;" xml:space="preserve"><g><path d="M93.799,50.133v-9.487c0-2.794-1.082-5.419-3.045-7.393c-1.187-1.193-2.612-2.061-4.17-2.563   c1.734-1.691,2.813-4.05,2.813-6.657c0-5.131-4.174-9.306-9.307-9.306c-5.131,0-9.306,4.175-9.306,9.306   c0,2.612,1.083,4.975,2.821,6.667c-4.187,1.367-7.221,5.309-7.221,9.946v9.487h-2.678v-9.487c0-2.794-1.081-5.419-3.044-7.393   c-1.187-1.193-2.612-2.061-4.17-2.563c1.733-1.691,2.813-4.05,2.813-6.657c0-5.131-4.175-9.306-9.307-9.306   c-5.131,0-9.306,4.175-9.306,9.306c0,2.612,1.083,4.975,2.822,6.667c-4.187,1.367-7.222,5.309-7.222,9.946v9.487h-2.677v-9.487   c0-2.794-1.081-5.419-3.044-7.393c-1.187-1.193-2.613-2.061-4.169-2.563c1.733-1.691,2.812-4.05,2.812-6.657   c0-5.131-4.175-9.306-9.306-9.306c-5.132,0-9.307,4.175-9.307,9.306c0,2.612,1.083,4.975,2.822,6.667   c-4.187,1.367-7.221,5.309-7.221,9.946v9.487H0v11.465h2.239v23.677h95.71V61.598H100V50.133H93.799z M80.09,17.687   c3.506,0,6.348,2.841,6.348,6.346c0,3.506-2.842,6.347-6.348,6.347c-3.504,0-6.346-2.841-6.346-6.347   C73.744,20.527,76.586,17.687,80.09,17.687z M69.344,40.646c0-4.144,4.017-7.503,8.16-7.503l2.317,2.831l-2.317,10.715l2.588,2.642   l2.586-2.642l-2.316-10.715l2.316-2.83c4.144,0,8.16,3.358,8.16,7.502v9.487h-4.256V40.114h-1.307c0,0,0,8.732,0,10.019H74.906   V40.114h-1.305v10.019h-4.258V40.646z M49.999,17.687c3.505,0,6.347,2.841,6.347,6.346c0,3.506-2.842,6.347-6.347,6.347   s-6.346-2.841-6.346-6.347C43.653,20.527,46.494,17.687,49.999,17.687z M39.253,40.646c0-4.144,4.016-7.503,8.16-7.503l2.316,2.831   l-2.316,10.715L50,49.33l2.587-2.642l-2.316-10.715l2.315-2.83c4.145,0,8.161,3.358,8.161,7.502v9.487H56.49V40.114h-1.306   c0,0,0,8.732-0.001,10.019H44.815V40.114H43.51v10.019h-4.257V40.646z M19.908,17.687c3.505,0,6.346,2.841,6.346,6.346   c0,3.506-2.841,6.347-6.346,6.347c-3.505,0-6.347-2.841-6.347-6.347C13.562,20.527,16.403,17.687,19.908,17.687z M9.162,40.646   c0-4.144,4.016-7.503,8.16-7.503l2.317,2.831l-2.317,10.715l2.587,2.642l2.587-2.642l-2.317-10.715l2.315-2.83   c4.144,0,8.161,3.358,8.161,7.502v9.487h-4.256V40.114h-1.306c0,0,0,8.732-0.001,10.019H14.724V40.114h-1.306v10.019H9.162V40.646z    M94.189,81.515H5.998V61.598h88.191V81.515z M96.24,57.838H3.759v-3.945H96.24V57.838z"/></g>
</svg>
