<svg xmlns="http://www.w3.org/2000/svg" xmlns:xlink="http://www.w3.org/1999/xlink" version="1.1" x="0px" y="0px"
     viewBox="0 0 100 100" style="enable-background:new 0 0 100 100;" xml:space="preserve"><g><path d="M38.547,66.518c0,0.48-0.39,0.869-0.87,0.869s-0.869-0.389-0.869-0.869c0-0.479,0.389-0.869,0.869-0.869   S38.547,66.038,38.547,66.518z M37.678,69.739c-0.48,0-0.869,0.389-0.869,0.869s0.389,0.87,0.869,0.87s0.87-0.39,0.87-0.87   S38.158,69.739,37.678,69.739z M37.678,73.823c-0.48,0-0.869,0.39-0.869,0.869c0,0.48,0.389,0.87,0.869,0.87s0.87-0.39,0.87-0.87   C38.547,74.213,38.158,73.823,37.678,73.823z M37.678,77.919c-0.48,0-0.869,0.39-0.869,0.869c0,0.481,0.389,0.87,0.869,0.87   s0.87-0.389,0.87-0.87C38.547,78.309,38.158,77.919,37.678,77.919z M41.775,77.919c-0.48,0-0.869,0.39-0.869,0.869   c0,0.481,0.389,0.87,0.869,0.87s0.87-0.389,0.87-0.87C42.645,78.309,42.255,77.919,41.775,77.919z M41.775,73.823   c-0.48,0-0.869,0.39-0.869,0.869c0,0.48,0.389,0.87,0.869,0.87s0.87-0.39,0.87-0.87C42.645,74.213,42.255,73.823,41.775,73.823z    M39.728,63.601c-0.48,0-0.87,0.389-0.87,0.869s0.39,0.87,0.87,0.87s0.87-0.39,0.87-0.87S40.208,63.601,39.728,63.601z    M39.728,67.696c-0.48,0-0.87,0.39-0.87,0.869c0,0.48,0.39,0.87,0.87,0.87s0.87-0.39,0.87-0.87   C40.597,68.086,40.208,67.696,39.728,67.696z M39.728,71.787c-0.48,0-0.87,0.39-0.87,0.869c0,0.48,0.39,0.87,0.87,0.87   s0.87-0.39,0.87-0.87C40.597,72.177,40.208,71.787,39.728,71.787z M39.728,75.871c-0.48,0-0.87,0.39-0.87,0.869   c0,0.48,0.39,0.87,0.87,0.87s0.87-0.39,0.87-0.87C40.597,76.261,40.208,75.871,39.728,75.871z M29.494,65.648   c-0.48,0-0.869,0.389-0.869,0.869s0.389,0.869,0.869,0.869c0.48,0,0.87-0.389,0.87-0.869S29.974,65.648,29.494,65.648z    M31.542,67.696c-0.48,0-0.871,0.39-0.871,0.869c0,0.48,0.39,0.87,0.871,0.87c0.48,0,0.87-0.39,0.87-0.87   C32.412,68.086,32.022,67.696,31.542,67.696z M31.542,63.601c-0.48,0-0.871,0.389-0.871,0.869s0.39,0.87,0.871,0.87   c0.48,0,0.87-0.39,0.87-0.87S32.022,63.601,31.542,63.601z M35.634,67.696c-0.48,0-0.869,0.39-0.869,0.869   c0,0.48,0.389,0.87,0.869,0.87c0.481,0,0.87-0.39,0.87-0.87C36.504,68.086,36.115,67.696,35.634,67.696z M31.542,71.787   c-0.48,0-0.871,0.39-0.871,0.869c0,0.48,0.39,0.87,0.871,0.87c0.48,0,0.87-0.39,0.87-0.87   C32.412,72.177,32.022,71.787,31.542,71.787z M31.542,75.871c-0.48,0-0.871,0.39-0.871,0.869c0,0.48,0.39,0.87,0.871,0.87   c0.48,0,0.87-0.39,0.87-0.87C32.412,76.261,32.022,75.871,31.542,75.871z M41.775,69.739c-0.48,0-0.869,0.389-0.869,0.869   s0.389,0.87,0.869,0.87s0.87-0.39,0.87-0.87S42.255,69.739,41.775,69.739z M33.583,77.919c-0.48,0-0.87,0.39-0.87,0.869   c0,0.481,0.39,0.87,0.87,0.87c0.48,0,0.869-0.389,0.869-0.87C34.451,78.309,34.063,77.919,33.583,77.919z M35.634,71.787   c-0.48,0-0.869,0.39-0.869,0.869c0,0.48,0.389,0.87,0.869,0.87c0.481,0,0.87-0.39,0.87-0.87   C36.504,72.177,36.115,71.787,35.634,71.787z M33.583,73.823c-0.48,0-0.87,0.39-0.87,0.869c0,0.48,0.39,0.87,0.87,0.87   c0.48,0,0.869-0.39,0.869-0.87C34.451,74.213,34.063,73.823,33.583,73.823z M35.634,75.871c-0.48,0-0.869,0.39-0.869,0.869   c0,0.48,0.389,0.87,0.869,0.87c0.481,0,0.87-0.39,0.87-0.87C36.504,76.261,36.115,75.871,35.634,75.871z M33.583,65.648   c-0.48,0-0.87,0.39-0.87,0.869c0,0.48,0.39,0.869,0.87,0.869c0.48,0,0.869-0.389,0.869-0.869   C34.451,66.038,34.063,65.648,33.583,65.648z M33.583,69.739c-0.48,0-0.87,0.389-0.87,0.869s0.39,0.87,0.87,0.87   c0.48,0,0.869-0.39,0.869-0.87S34.063,69.739,33.583,69.739z M35.634,63.601c-0.48,0-0.869,0.389-0.869,0.869   s0.389,0.87,0.869,0.87c0.481,0,0.87-0.39,0.87-0.87S36.115,63.601,35.634,63.601z M49.966,65.648c-0.48,0-0.87,0.39-0.87,0.869   c0,0.48,0.39,0.869,0.87,0.869c0.48,0,0.87-0.389,0.87-0.869C50.836,66.038,50.447,65.648,49.966,65.648z M49.966,69.739   c-0.48,0-0.87,0.389-0.87,0.869s0.39,0.87,0.87,0.87c0.48,0,0.87-0.39,0.87-0.87S50.447,69.739,49.966,69.739z M49.966,73.823   c-0.48,0-0.87,0.39-0.87,0.869c0,0.48,0.39,0.87,0.87,0.87c0.48,0,0.87-0.39,0.87-0.87C50.836,74.213,50.447,73.823,49.966,73.823z    M49.966,77.919c-0.48,0-0.87,0.39-0.87,0.869c0,0.481,0.39,0.87,0.87,0.87c0.48,0,0.87-0.389,0.87-0.87   C50.836,78.309,50.447,77.919,49.966,77.919z M47.917,63.601c-0.479,0-0.869,0.389-0.869,0.869s0.39,0.87,0.869,0.87   c0.48,0,0.87-0.39,0.87-0.87S48.396,63.601,47.917,63.601z M52.015,75.871c-0.48,0-0.87,0.39-0.87,0.869   c0,0.48,0.39,0.87,0.87,0.87c0.479,0,0.869-0.39,0.869-0.87C52.884,76.261,52.494,75.871,52.015,75.871z M54.061,77.919   c-0.48,0-0.869,0.39-0.869,0.869c0,0.481,0.389,0.87,0.869,0.87s0.869-0.389,0.869-0.87C54.93,78.309,54.541,77.919,54.061,77.919z    M54.061,73.823c-0.48,0-0.869,0.39-0.869,0.869c0,0.48,0.389,0.87,0.869,0.87s0.869-0.39,0.869-0.87   C54.93,74.213,54.541,73.823,54.061,73.823z M52.015,67.696c-0.48,0-0.87,0.39-0.87,0.869c0,0.48,0.39,0.87,0.87,0.87   c0.479,0,0.869-0.39,0.869-0.87C52.884,68.086,52.494,67.696,52.015,67.696z M52.015,71.787c-0.48,0-0.87,0.39-0.87,0.869   c0,0.48,0.39,0.87,0.87,0.87c0.479,0,0.869-0.39,0.869-0.87C52.884,72.177,52.494,71.787,52.015,71.787z M52.015,63.601   c-0.48,0-0.87,0.389-0.87,0.869s0.39,0.87,0.87,0.87c0.479,0,0.869-0.39,0.869-0.87S52.494,63.601,52.015,63.601z M54.061,69.739   c-0.48,0-0.869,0.389-0.869,0.869s0.389,0.87,0.869,0.87s0.869-0.39,0.869-0.87S54.541,69.739,54.061,69.739z M43.824,67.696   c-0.48,0-0.87,0.39-0.87,0.869c0,0.48,0.39,0.87,0.87,0.87s0.869-0.39,0.869-0.87C44.693,68.086,44.304,67.696,43.824,67.696z    M43.824,63.601c-0.48,0-0.87,0.389-0.87,0.869s0.39,0.87,0.87,0.87s0.869-0.39,0.869-0.87S44.304,63.601,43.824,63.601z    M45.864,77.919c-0.48,0-0.87,0.39-0.87,0.869c0,0.481,0.39,0.87,0.87,0.87s0.869-0.389,0.869-0.87   C46.733,78.309,46.344,77.919,45.864,77.919z M43.824,71.787c-0.48,0-0.87,0.39-0.87,0.869c0,0.48,0.39,0.87,0.87,0.87   s0.869-0.39,0.869-0.87C44.693,72.177,44.304,71.787,43.824,71.787z M43.824,75.871c-0.48,0-0.87,0.39-0.87,0.869   c0,0.48,0.39,0.87,0.87,0.87s0.869-0.39,0.869-0.87C44.693,76.261,44.304,75.871,43.824,75.871z M45.864,69.739   c-0.48,0-0.87,0.389-0.87,0.869s0.39,0.87,0.87,0.87s0.869-0.39,0.869-0.87S46.344,69.739,45.864,69.739z M47.917,75.871   c-0.479,0-0.869,0.39-0.869,0.869c0,0.48,0.39,0.87,0.869,0.87c0.48,0,0.87-0.39,0.87-0.87   C48.786,76.261,48.396,75.871,47.917,75.871z M41.775,65.648c-0.48,0-0.869,0.389-0.869,0.869s0.389,0.869,0.869,0.869   s0.87-0.389,0.87-0.869S42.255,65.648,41.775,65.648z M47.917,67.696c-0.479,0-0.869,0.39-0.869,0.869c0,0.48,0.39,0.87,0.869,0.87   c0.48,0,0.87-0.39,0.87-0.87C48.786,68.086,48.396,67.696,47.917,67.696z M45.864,65.648c-0.48,0-0.87,0.39-0.87,0.869   c0,0.48,0.39,0.869,0.87,0.869s0.869-0.389,0.869-0.869C46.733,66.038,46.344,65.648,45.864,65.648z M45.864,73.823   c-0.48,0-0.87,0.39-0.87,0.869c0,0.48,0.39,0.87,0.87,0.87s0.869-0.39,0.869-0.87C46.733,74.213,46.344,73.823,45.864,73.823z    M47.917,71.787c-0.479,0-0.869,0.39-0.869,0.869c0,0.48,0.39,0.87,0.869,0.87c0.48,0,0.87-0.39,0.87-0.87   C48.786,72.177,48.396,71.787,47.917,71.787z M13.111,65.648c-0.48,0-0.87,0.39-0.87,0.869c0,0.48,0.39,0.869,0.87,0.869   c0.48,0,0.87-0.389,0.87-0.869C13.981,66.038,13.592,65.648,13.111,65.648z M15.161,75.871c-0.48,0-0.87,0.39-0.87,0.869   c0,0.48,0.389,0.87,0.87,0.87s0.869-0.39,0.869-0.87C16.03,76.261,15.642,75.871,15.161,75.871z M13.111,69.739   c-0.48,0-0.87,0.389-0.87,0.869s0.39,0.87,0.87,0.87c0.48,0,0.87-0.39,0.87-0.87S13.592,69.739,13.111,69.739z M15.161,71.787   c-0.48,0-0.87,0.39-0.87,0.869c0,0.48,0.389,0.87,0.87,0.87s0.869-0.39,0.869-0.87C16.03,72.177,15.642,71.787,15.161,71.787z    M13.111,73.823c-0.48,0-0.87,0.39-0.87,0.869c0,0.48,0.39,0.87,0.87,0.87s0.87-0.39,0.87-0.87   C13.981,74.213,13.591,73.823,13.111,73.823z M15.161,63.601c-0.48,0-0.87,0.389-0.87,0.869s0.389,0.87,0.87,0.87   s0.869-0.39,0.869-0.87S15.642,63.601,15.161,63.601z M17.208,69.739c-0.48,0-0.869,0.389-0.869,0.869s0.389,0.87,0.869,0.87   c0.48,0,0.87-0.39,0.87-0.87S17.688,69.739,17.208,69.739z M17.208,73.823c-0.48,0-0.869,0.39-0.869,0.869   c0,0.48,0.389,0.87,0.869,0.87c0.48,0,0.87-0.39,0.87-0.87C18.078,74.213,17.688,73.823,17.208,73.823z M15.161,67.696   c-0.48,0-0.87,0.39-0.87,0.869c0,0.48,0.389,0.87,0.87,0.87s0.869-0.39,0.869-0.87C16.03,68.086,15.642,67.696,15.161,67.696z    M13.111,77.919c-0.48,0-0.87,0.39-0.87,0.869c0,0.481,0.39,0.87,0.87,0.87c0.48,0,0.87-0.389,0.87-0.87   C13.981,78.309,13.592,77.919,13.111,77.919z M17.208,77.919c-0.48,0-0.869,0.39-0.869,0.869c0,0.481,0.389,0.87,0.869,0.87   c0.48,0,0.87-0.389,0.87-0.87C18.078,78.309,17.688,77.919,17.208,77.919z M9.016,73.823c-0.48,0-0.87,0.39-0.87,0.869   c0,0.48,0.389,0.87,0.87,0.87c0.48,0,0.87-0.39,0.87-0.87C9.885,74.213,9.496,73.823,9.016,73.823z M6.975,63.601   c-0.48,0-0.869,0.389-0.869,0.869s0.389,0.87,0.869,0.87s0.87-0.39,0.87-0.87S7.455,63.601,6.975,63.601z M6.975,67.696   c-0.48,0-0.869,0.39-0.869,0.869c0,0.48,0.389,0.87,0.869,0.87c0.48,0,0.87-0.39,0.87-0.87C7.844,68.086,7.455,67.696,6.975,67.696   z M6.975,71.787c-0.48,0-0.869,0.39-0.869,0.869c0,0.48,0.389,0.87,0.869,0.87c0.48,0,0.87-0.39,0.87-0.87   C7.844,72.177,7.455,71.787,6.975,71.787z M11.068,63.601c-0.48,0-0.87,0.389-0.87,0.869s0.389,0.87,0.87,0.87s0.87-0.39,0.87-0.87   S11.548,63.601,11.068,63.601z M9.016,77.919c-0.48,0-0.87,0.39-0.87,0.869c0,0.481,0.389,0.87,0.87,0.87   c0.48,0,0.87-0.389,0.87-0.87C9.885,78.309,9.496,77.919,9.016,77.919z M29.494,69.739c-0.48,0-0.869,0.389-0.869,0.869   s0.389,0.87,0.869,0.87c0.48,0,0.87-0.39,0.87-0.87S29.974,69.739,29.494,69.739z M11.068,71.787c-0.48,0-0.87,0.39-0.87,0.869   c0,0.48,0.389,0.87,0.87,0.87s0.87-0.39,0.87-0.87C11.938,72.177,11.548,71.787,11.068,71.787z M11.068,75.871   c-0.48,0-0.87,0.39-0.87,0.869c0,0.48,0.389,0.87,0.87,0.87s0.87-0.39,0.87-0.87C11.938,76.261,11.548,75.871,11.068,75.871z    M17.208,65.648c-0.48,0-0.869,0.39-0.869,0.869c0,0.48,0.389,0.869,0.869,0.869c0.48,0,0.87-0.389,0.87-0.869   C18.078,66.038,17.688,65.648,17.208,65.648z M9.016,69.739c-0.48,0-0.87,0.389-0.87,0.869s0.389,0.87,0.87,0.87   c0.48,0,0.87-0.39,0.87-0.87S9.496,69.739,9.016,69.739z M9.016,65.648c-0.48,0-0.87,0.39-0.87,0.869   c0,0.48,0.389,0.869,0.87,0.869c0.48,0,0.87-0.389,0.87-0.869C9.885,66.038,9.496,65.648,9.016,65.648z M6.975,75.871   c-0.48,0-0.869,0.39-0.869,0.869c0,0.48,0.389,0.87,0.869,0.87s0.87-0.39,0.87-0.87C7.844,76.261,7.455,75.871,6.975,75.871z    M25.394,69.739c-0.48,0-0.87,0.389-0.87,0.869s0.389,0.87,0.87,0.87c0.48,0,0.869-0.39,0.869-0.87S25.874,69.739,25.394,69.739z    M25.394,65.648c-0.48,0-0.87,0.39-0.87,0.869c0,0.48,0.389,0.869,0.87,0.869c0.48,0,0.869-0.389,0.869-0.869   C26.263,66.038,25.874,65.648,25.394,65.648z M25.394,73.823c-0.48,0-0.87,0.39-0.87,0.869c0,0.48,0.389,0.87,0.87,0.87   c0.48,0,0.869-0.39,0.869-0.87C26.263,74.213,25.874,73.823,25.394,73.823z M23.35,63.601c-0.48,0-0.87,0.389-0.87,0.869   s0.389,0.87,0.87,0.87s0.869-0.39,0.869-0.87S23.831,63.601,23.35,63.601z M27.446,75.871c-0.481,0-0.869,0.39-0.869,0.869   c0,0.48,0.388,0.87,0.869,0.87c0.48,0,0.869-0.39,0.869-0.87C28.315,76.261,27.926,75.871,27.446,75.871z M25.394,77.919   c-0.48,0-0.87,0.39-0.87,0.869c0,0.481,0.389,0.87,0.87,0.87c0.48,0,0.869-0.389,0.869-0.87   C26.263,78.309,25.874,77.919,25.394,77.919z M27.446,71.787c-0.481,0-0.869,0.39-0.869,0.869c0,0.48,0.388,0.87,0.869,0.87   c0.48,0,0.869-0.39,0.869-0.87C28.315,72.177,27.926,71.787,27.446,71.787z M29.494,77.919c-0.48,0-0.869,0.39-0.869,0.869   c0,0.481,0.389,0.87,0.869,0.87c0.48,0,0.87-0.389,0.87-0.87C30.363,78.309,29.974,77.919,29.494,77.919z M29.494,73.823   c-0.48,0-0.869,0.39-0.869,0.869c0,0.48,0.389,0.87,0.869,0.87c0.48,0,0.87-0.39,0.87-0.87   C30.363,74.213,29.974,73.823,29.494,73.823z M19.257,75.871c-0.48,0-0.869,0.39-0.869,0.869c0,0.48,0.389,0.87,0.869,0.87   c0.48,0,0.87-0.39,0.87-0.87C20.126,76.261,19.737,75.871,19.257,75.871z M27.446,67.696c-0.481,0-0.869,0.39-0.869,0.869   c0,0.48,0.388,0.87,0.869,0.87c0.48,0,0.869-0.39,0.869-0.87C28.315,68.086,27.926,67.696,27.446,67.696z M27.446,63.601   c-0.481,0-0.869,0.389-0.869,0.869s0.388,0.87,0.869,0.87c0.48,0,0.869-0.39,0.869-0.87S27.926,63.601,27.446,63.601z    M19.257,63.601c-0.48,0-0.869,0.389-0.869,0.869s0.389,0.87,0.869,0.87c0.48,0,0.87-0.39,0.87-0.87S19.737,63.601,19.257,63.601z    M21.297,73.823c-0.48,0-0.869,0.39-0.869,0.869c0,0.48,0.389,0.87,0.869,0.87c0.48,0,0.87-0.39,0.87-0.87   C22.167,74.213,21.778,73.823,21.297,73.823z M23.35,67.696c-0.48,0-0.87,0.39-0.87,0.869c0,0.48,0.389,0.87,0.87,0.87   s0.869-0.39,0.869-0.87C24.219,68.086,23.831,67.696,23.35,67.696z M19.257,71.787c-0.48,0-0.869,0.39-0.869,0.869   c0,0.48,0.389,0.87,0.869,0.87c0.48,0,0.87-0.39,0.87-0.87C20.126,72.177,19.737,71.787,19.257,71.787z M19.257,67.696   c-0.48,0-0.869,0.39-0.869,0.869c0,0.48,0.389,0.87,0.869,0.87c0.48,0,0.87-0.39,0.87-0.87   C20.126,68.086,19.737,67.696,19.257,67.696z M21.297,77.919c-0.48,0-0.869,0.39-0.869,0.869c0,0.481,0.389,0.87,0.869,0.87   c0.48,0,0.87-0.389,0.87-0.87C22.167,78.309,21.778,77.919,21.297,77.919z M23.35,71.787c-0.48,0-0.87,0.39-0.87,0.869   c0,0.48,0.389,0.87,0.87,0.87s0.869-0.39,0.869-0.87C24.219,72.177,23.831,71.787,23.35,71.787z M21.297,69.739   c-0.48,0-0.869,0.389-0.869,0.869s0.389,0.87,0.869,0.87c0.48,0,0.87-0.39,0.87-0.87S21.778,69.739,21.297,69.739z M23.35,75.871   c-0.48,0-0.87,0.39-0.87,0.869c0,0.48,0.389,0.87,0.87,0.87s0.869-0.39,0.869-0.87C24.219,76.261,23.831,75.871,23.35,75.871z    M21.297,65.648c-0.48,0-0.869,0.39-0.869,0.869c0,0.48,0.389,0.869,0.869,0.869c0.48,0,0.87-0.389,0.87-0.869   C22.167,66.038,21.778,65.648,21.297,65.648z M11.068,67.696c-0.48,0-0.87,0.39-0.87,0.869c0,0.48,0.389,0.87,0.87,0.87   s0.87-0.39,0.87-0.87C11.938,68.086,11.548,67.696,11.068,67.696z M88.863,67.696c-0.48,0-0.869,0.39-0.869,0.869   c0,0.48,0.389,0.87,0.869,0.87c0.479,0,0.869-0.39,0.869-0.87C89.732,68.086,89.343,67.696,88.863,67.696z M88.863,71.787   c-0.48,0-0.869,0.39-0.869,0.869c0,0.48,0.389,0.87,0.869,0.87c0.479,0,0.869-0.39,0.869-0.87   C89.732,72.177,89.343,71.787,88.863,71.787z M88.863,63.601c-0.48,0-0.869,0.389-0.869,0.869s0.389,0.87,0.869,0.87   c0.479,0,0.869-0.39,0.869-0.87S89.343,63.601,88.863,63.601z M88.863,75.871c-0.48,0-0.869,0.39-0.869,0.869   c0,0.48,0.389,0.87,0.869,0.87c0.479,0,0.869-0.39,0.869-0.87C89.732,76.261,89.343,75.871,88.863,75.871z M86.813,65.648   c-0.479,0-0.869,0.39-0.869,0.869c0,0.48,0.39,0.869,0.869,0.869c0.48,0,0.87-0.389,0.87-0.869   C87.683,66.038,87.293,65.648,86.813,65.648z M90.911,77.919c-0.479,0-0.87,0.39-0.87,0.869c0,0.481,0.391,0.87,0.87,0.87   s0.869-0.389,0.869-0.87C91.78,78.309,91.391,77.919,90.911,77.919z M90.911,73.823c-0.479,0-0.87,0.39-0.87,0.869   c0,0.48,0.391,0.87,0.87,0.87s0.869-0.39,0.869-0.87C91.78,74.213,91.391,73.823,90.911,73.823z M92.959,73.526   c0.48,0,0.869-0.39,0.869-0.87c0-0.479-0.389-0.869-0.869-0.869s-0.869,0.39-0.869,0.869C92.09,73.137,92.479,73.526,92.959,73.526   z M92.959,65.34c0.48,0,0.869-0.39,0.869-0.87s-0.389-0.869-0.869-0.869s-0.869,0.389-0.869,0.869S92.479,65.34,92.959,65.34z    M90.911,65.648c-0.479,0-0.87,0.389-0.87,0.869s0.391,0.869,0.87,0.869s0.869-0.389,0.869-0.869S91.391,65.648,90.911,65.648z    M90.911,69.739c-0.479,0-0.87,0.389-0.87,0.869s0.391,0.87,0.87,0.87s0.869-0.39,0.869-0.87S91.391,69.739,90.911,69.739z    M86.813,69.739c-0.479,0-0.869,0.389-0.869,0.869s0.39,0.87,0.869,0.87c0.48,0,0.87-0.39,0.87-0.87S87.293,69.739,86.813,69.739z    M92.959,69.436c0.48,0,0.869-0.39,0.869-0.87c0-0.479-0.389-0.869-0.869-0.869s-0.869,0.39-0.869,0.869   C92.09,69.046,92.479,69.436,92.959,69.436z M82.718,65.648c-0.48,0-0.87,0.39-0.87,0.869c0,0.48,0.39,0.869,0.87,0.869   c0.479,0,0.868-0.389,0.868-0.869C83.586,66.038,83.197,65.648,82.718,65.648z M82.718,69.739c-0.48,0-0.87,0.389-0.87,0.869   s0.39,0.87,0.87,0.87c0.479,0,0.868-0.39,0.868-0.87S83.197,69.739,82.718,69.739z M82.718,77.919c-0.48,0-0.87,0.39-0.87,0.869   c0,0.481,0.39,0.87,0.87,0.87c0.479,0,0.868-0.389,0.868-0.87C83.586,78.309,83.197,77.919,82.718,77.919z M82.718,73.823   c-0.48,0-0.87,0.39-0.87,0.869c0,0.48,0.39,0.87,0.87,0.87c0.479,0,0.868-0.39,0.868-0.87   C83.586,74.213,83.197,73.823,82.718,73.823z M80.678,63.601c-0.48,0-0.871,0.389-0.871,0.869s0.391,0.87,0.871,0.87   c0.479,0,0.869-0.39,0.869-0.87S81.157,63.601,80.678,63.601z M80.678,67.696c-0.48,0-0.871,0.39-0.871,0.869   c0,0.48,0.391,0.87,0.871,0.87c0.479,0,0.869-0.39,0.869-0.87C81.547,68.086,81.157,67.696,80.678,67.696z M84.77,71.787   c-0.479,0-0.869,0.39-0.869,0.869c0,0.48,0.39,0.87,0.869,0.87c0.48,0,0.869-0.39,0.869-0.87   C85.639,72.177,85.25,71.787,84.77,71.787z M86.813,77.919c-0.479,0-0.869,0.39-0.869,0.869c0,0.481,0.39,0.87,0.869,0.87   c0.48,0,0.87-0.389,0.87-0.87C87.683,78.309,87.293,77.919,86.813,77.919z M84.77,63.601c-0.479,0-0.869,0.389-0.869,0.869   s0.39,0.87,0.869,0.87c0.48,0,0.869-0.39,0.869-0.87S85.25,63.601,84.77,63.601z M84.77,67.696c-0.479,0-0.869,0.39-0.869,0.869   c0,0.48,0.39,0.87,0.869,0.87c0.48,0,0.869-0.39,0.869-0.87C85.639,68.086,85.25,67.696,84.77,67.696z M84.77,75.871   c-0.479,0-0.869,0.39-0.869,0.869c0,0.48,0.39,0.87,0.869,0.87c0.48,0,0.869-0.39,0.869-0.87   C85.639,76.261,85.25,75.871,84.77,75.871z M86.813,73.823c-0.479,0-0.869,0.39-0.869,0.869c0,0.48,0.39,0.87,0.869,0.87   c0.48,0,0.87-0.39,0.87-0.87C87.683,74.213,87.293,73.823,86.813,73.823z M72.485,55.414c-0.479,0-0.87,0.389-0.87,0.869   s0.391,0.869,0.87,0.869c0.48,0,0.87-0.389,0.87-0.869S72.966,55.414,72.485,55.414z M68.393,55.414   c-0.48,0-0.869,0.389-0.869,0.869s0.389,0.869,0.869,0.869s0.869-0.389,0.869-0.869S68.873,55.414,68.393,55.414z M80.678,71.787   c-0.48,0-0.871,0.39-0.871,0.869c0,0.48,0.391,0.87,0.871,0.87c0.479,0,0.869-0.39,0.869-0.87   C81.547,72.177,81.157,71.787,80.678,71.787z M76.581,55.414c-0.48,0-0.869,0.389-0.869,0.869s0.389,0.869,0.869,0.869   c0.479,0,0.87-0.389,0.87-0.869S77.061,55.414,76.581,55.414z M64.297,55.414c-0.48,0-0.87,0.389-0.87,0.869s0.39,0.869,0.87,0.869   s0.869-0.389,0.869-0.869S64.777,55.414,64.297,55.414z M56.11,55.414c-0.48,0-0.87,0.389-0.87,0.869s0.39,0.869,0.87,0.869   c0.479,0,0.87-0.389,0.87-0.869S56.59,55.414,56.11,55.414z M60.203,55.414c-0.48,0-0.869,0.389-0.869,0.869   s0.389,0.869,0.869,0.869s0.869-0.389,0.869-0.869S60.684,55.414,60.203,55.414z M100,50.133v11.465h-2.051v23.677H2.239V61.598H0   V50.133h6.202v-9.487c0-4.638,3.034-8.579,7.221-9.946c-1.739-1.692-2.822-4.055-2.822-6.667c0-5.131,4.175-9.306,9.307-9.306   c5.131,0,9.306,4.175,9.306,9.306c0,2.607-1.079,4.967-2.812,6.657c4.211,1.36,7.213,5.268,7.213,9.956v9.487h2.677v-9.487   c0-4.638,3.035-8.579,7.222-9.946c-1.739-1.692-2.822-4.055-2.822-6.667c0-5.131,4.175-9.306,9.306-9.306   c5.132,0,9.307,4.175,9.307,9.306c0,2.607-1.079,4.967-2.813,6.657c4.356,1.407,7.214,5.486,7.214,9.956v9.487h2.678v-9.487   c0-4.638,3.034-8.579,7.221-9.946c-1.738-1.692-2.821-4.055-2.821-6.667c0-5.131,4.175-9.306,9.306-9.306   c5.133,0,9.307,4.175,9.307,9.306c0,2.607-1.078,4.967-2.813,6.657c4.537,1.465,7.215,5.621,7.215,9.956v9.487H100z M73.744,24.032   c0,3.506,2.842,6.347,6.346,6.347c3.506,0,6.348-2.841,6.348-6.347c0-3.505-2.842-6.346-6.348-6.346   C76.586,17.687,73.744,20.527,73.744,24.032z M69.344,50.133h4.258V40.114h1.305v10.019h10.369c0-1.286,0-10.019,0-10.019h1.307   v10.019h4.256v-9.487c0-4.144-4.017-7.502-8.16-7.502l-2.316,2.83l2.316,10.715l-2.586,2.642l-2.588-2.642l2.317-10.715   l-2.317-2.831c-4.144,0-8.16,3.359-8.16,7.503V50.133z M43.653,24.032c0,3.506,2.842,6.347,6.346,6.347   c3.505,0,6.347-2.841,6.347-6.347c0-3.505-2.842-6.346-6.347-6.346C46.495,17.687,43.653,20.527,43.653,24.032z M39.253,50.133   h4.257V40.114h1.306v10.019h10.368c0.001-1.286,0.001-10.019,0.001-10.019h1.306v10.019h4.257v-9.487   c0-4.144-4.017-7.502-8.161-7.502l-2.315,2.83l2.316,10.715L50,49.33l-2.587-2.642l2.316-10.715l-2.316-2.831   c-4.144,0-8.16,3.359-8.16,7.503V50.133z M13.562,24.032c0,3.506,2.841,6.347,6.347,6.347c3.505,0,6.346-2.841,6.346-6.347   c0-3.505-2.841-6.346-6.346-6.346C16.403,17.687,13.562,20.527,13.562,24.032z M9.162,50.133h4.257V40.114h1.306v10.019h10.368   c0.001-1.286,0.001-10.019,0.001-10.019h1.306v10.019h4.256v-9.487c0-4.144-4.017-7.502-8.161-7.502l-2.315,2.83l2.317,10.715   l-2.587,2.642l-2.587-2.642l2.317-10.715l-2.317-2.831c-4.144,0-8.16,3.359-8.16,7.503V50.133z M94.189,61.598h-3.016   c0.351,0.112,0.606,0.437,0.606,0.824c0,0.48-0.39,0.869-0.869,0.869s-0.87-0.389-0.87-0.869c0-0.388,0.256-0.712,0.606-0.824   h-3.571c0.352,0.112,0.606,0.437,0.606,0.824c0,0.48-0.39,0.869-0.87,0.869c-0.479,0-0.869-0.389-0.869-0.869   c0-0.388,0.256-0.712,0.606-0.824H82.98c0.352,0.112,0.605,0.437,0.605,0.824c0,0.48-0.389,0.869-0.868,0.869   c-0.48,0-0.87-0.389-0.87-0.869c0-0.388,0.256-0.712,0.606-0.824h-3.562c0.35,0.112,0.605,0.437,0.605,0.824   c0,0.48-0.389,0.869-0.869,0.869s-0.869-0.389-0.869-0.869c0-0.388,0.256-0.712,0.605-0.824h-3.573   c0.351,0.112,0.606,0.437,0.606,0.824c0,0.48-0.389,0.869-0.869,0.869s-0.87-0.389-0.87-0.869c0-0.388,0.256-0.712,0.606-0.824   h-3.569c0.351,0.112,0.606,0.437,0.606,0.824c0,0.48-0.39,0.869-0.87,0.869c-0.479,0-0.869-0.389-0.869-0.869   c0-0.388,0.255-0.712,0.606-0.824h-3.563c0.351,0.112,0.606,0.437,0.606,0.824c0,0.48-0.389,0.869-0.869,0.869   s-0.869-0.389-0.869-0.869c0-0.388,0.255-0.712,0.605-0.824h-3.57c0.352,0.112,0.606,0.437,0.606,0.824   c0,0.48-0.39,0.869-0.87,0.869c-0.479,0-0.869-0.389-0.869-0.869c0-0.388,0.256-0.712,0.606-0.824h-3.569   c0.351,0.112,0.606,0.437,0.606,0.824c0,0.48-0.39,0.869-0.87,0.869s-0.869-0.389-0.869-0.869c0-0.388,0.256-0.712,0.606-0.824   h-3.563c0.351,0.112,0.605,0.437,0.605,0.824c0,0.48-0.389,0.869-0.869,0.869s-0.869-0.389-0.869-0.869   c0-0.388,0.256-0.712,0.605-0.824h-3.567c0.351,0.112,0.606,0.437,0.606,0.824c0,0.48-0.389,0.869-0.87,0.869   c-0.48,0-0.87-0.389-0.87-0.869c0-0.388,0.256-0.712,0.606-0.824h-3.576c0.351,0.112,0.606,0.437,0.606,0.824   c0,0.48-0.389,0.869-0.869,0.869s-0.87-0.389-0.87-0.869c0-0.388,0.256-0.712,0.606-0.824h-3.563   c0.351,0.112,0.606,0.437,0.606,0.824c0,0.48-0.39,0.869-0.87,0.869s-0.869-0.389-0.869-0.869c0-0.388,0.255-0.712,0.606-0.824   h-3.571c0.351,0.112,0.606,0.437,0.606,0.824c0,0.48-0.39,0.869-0.87,0.869s-0.869-0.389-0.869-0.869   c0-0.388,0.255-0.712,0.606-0.824h-3.569c0.35,0.112,0.605,0.437,0.605,0.824c0,0.48-0.389,0.869-0.869,0.869   c-0.48,0-0.87-0.389-0.87-0.869c0-0.388,0.256-0.712,0.606-0.824h-3.562c0.351,0.112,0.606,0.437,0.606,0.824   c0,0.48-0.39,0.869-0.87,0.869c-0.48,0-0.869-0.389-0.869-0.869c0-0.388,0.255-0.712,0.606-0.824h-3.574   c0.351,0.112,0.606,0.437,0.606,0.824c0,0.48-0.389,0.869-0.869,0.869c-0.48,0-0.87-0.389-0.87-0.869   c0-0.388,0.255-0.712,0.606-0.824h-3.569c0.351,0.112,0.606,0.437,0.606,0.824c0,0.48-0.389,0.869-0.87,0.869   c-0.48,0-0.869-0.389-0.869-0.869c0-0.388,0.255-0.712,0.606-0.824h-3.563c0.351,0.112,0.606,0.437,0.606,0.824   c0,0.48-0.39,0.869-0.87,0.869c-0.48,0-0.869-0.389-0.869-0.869c0-0.388,0.255-0.712,0.606-0.824h-3.57   c0.351,0.112,0.606,0.437,0.606,0.824c0,0.48-0.389,0.869-0.87,0.869c-0.48,0-0.87-0.389-0.87-0.869   c0-0.388,0.256-0.712,0.606-0.824H9.279c0.351,0.112,0.606,0.437,0.606,0.824c0,0.48-0.39,0.869-0.87,0.869   c-0.48,0-0.87-0.389-0.87-0.869c0-0.388,0.255-0.712,0.606-0.824H5.998v19.917h0.439c-0.201-0.159-0.332-0.402-0.332-0.678   c0-0.48,0.389-0.87,0.869-0.87c0.48,0,0.87,0.39,0.87,0.87c0,0.275-0.131,0.519-0.332,0.678h3.017   c-0.2-0.159-0.332-0.402-0.332-0.678c0-0.48,0.389-0.87,0.87-0.87s0.87,0.39,0.87,0.87c0,0.275-0.131,0.519-0.332,0.678h3.017   c-0.2-0.159-0.332-0.402-0.332-0.678c0-0.48,0.389-0.87,0.87-0.87s0.869,0.39,0.869,0.87c0,0.275-0.131,0.519-0.332,0.678h3.021   c-0.201-0.159-0.332-0.402-0.332-0.678c0-0.48,0.389-0.87,0.869-0.87c0.48,0,0.87,0.39,0.87,0.87c0,0.275-0.131,0.519-0.332,0.678   h3.017c-0.201-0.159-0.332-0.402-0.332-0.678c0-0.48,0.389-0.87,0.87-0.87s0.869,0.39,0.869,0.87c0,0.275-0.131,0.519-0.332,0.678   h3.02c-0.2-0.159-0.331-0.402-0.331-0.678c0-0.48,0.388-0.87,0.869-0.87c0.48,0,0.869,0.39,0.869,0.87   c0,0.275-0.131,0.519-0.332,0.678h3.02c-0.201-0.159-0.332-0.402-0.332-0.678c0-0.48,0.39-0.87,0.871-0.87   c0.48,0,0.87,0.39,0.87,0.87c0,0.275-0.131,0.519-0.332,0.678h3.017c-0.201-0.159-0.332-0.402-0.332-0.678   c0-0.48,0.389-0.87,0.869-0.87c0.481,0,0.87,0.39,0.87,0.87c0,0.275-0.131,0.519-0.332,0.678h3.018   c-0.201-0.159-0.332-0.402-0.332-0.678c0-0.48,0.39-0.87,0.87-0.87s0.87,0.39,0.87,0.87c0,0.275-0.131,0.519-0.332,0.678h3.02   c-0.2-0.159-0.332-0.402-0.332-0.678c0-0.48,0.39-0.87,0.87-0.87s0.869,0.39,0.869,0.87c0,0.275-0.131,0.519-0.332,0.678h3.018   c-0.2-0.159-0.332-0.402-0.332-0.678c0-0.48,0.39-0.87,0.869-0.87c0.48,0,0.87,0.39,0.87,0.87c0,0.275-0.131,0.519-0.332,0.678   h3.022c-0.201-0.159-0.332-0.402-0.332-0.678c0-0.48,0.39-0.87,0.87-0.87c0.479,0,0.869,0.39,0.869,0.87   c0,0.275-0.131,0.519-0.331,0.678h3.02c-0.2-0.159-0.332-0.402-0.332-0.678c0-0.48,0.39-0.87,0.87-0.87   c0.479,0,0.87,0.39,0.87,0.87c0,0.275-0.132,0.519-0.332,0.678h3.018c-0.201-0.159-0.332-0.402-0.332-0.678   c0-0.48,0.389-0.87,0.869-0.87s0.869,0.39,0.869,0.87c0,0.275-0.131,0.519-0.331,0.678h3.018c-0.2-0.159-0.332-0.402-0.332-0.678   c0-0.48,0.39-0.87,0.87-0.87s0.869,0.39,0.869,0.87c0,0.275-0.131,0.519-0.332,0.678h3.021c-0.2-0.159-0.331-0.402-0.331-0.678   c0-0.48,0.389-0.87,0.869-0.87s0.869,0.39,0.869,0.87c0,0.275-0.131,0.519-0.332,0.678h3.018c-0.2-0.159-0.332-0.402-0.332-0.678   c0-0.48,0.391-0.87,0.87-0.87c0.48,0,0.87,0.39,0.87,0.87c0,0.275-0.132,0.519-0.332,0.678h3.02   c-0.2-0.159-0.331-0.402-0.331-0.678c0-0.48,0.389-0.87,0.869-0.87c0.479,0,0.87,0.39,0.87,0.87c0,0.275-0.132,0.519-0.332,0.678   h3.02c-0.201-0.159-0.332-0.402-0.332-0.678c0-0.48,0.391-0.87,0.871-0.87c0.479,0,0.869,0.39,0.869,0.87   c0,0.275-0.131,0.519-0.332,0.678h3.018c-0.201-0.159-0.332-0.402-0.332-0.678c0-0.48,0.39-0.87,0.869-0.87   c0.48,0,0.869,0.39,0.869,0.87c0,0.275-0.131,0.519-0.331,0.678h3.018c-0.2-0.159-0.331-0.402-0.331-0.678   c0-0.48,0.389-0.87,0.869-0.87c0.479,0,0.869,0.39,0.869,0.87c0,0.275-0.131,0.519-0.332,0.678h3.021   c-0.201-0.159-0.332-0.402-0.332-0.678c0-0.48,0.389-0.87,0.869-0.87s0.869,0.39,0.869,0.87c0,0.275-0.131,0.519-0.332,0.678h0.693   V61.598z M96.24,53.893h-0.441c0.045,0.104,0.07,0.221,0.07,0.343c0,0.479-0.39,0.869-0.869,0.869c-0.48,0-0.869-0.39-0.869-0.869   c0-0.122,0.025-0.238,0.07-0.343h-2.492c0.046,0.104,0.071,0.221,0.071,0.343c0,0.479-0.39,0.869-0.869,0.869   s-0.87-0.39-0.87-0.869c0-0.122,0.026-0.238,0.071-0.343h-2.501c0.046,0.104,0.071,0.221,0.071,0.343   c0,0.479-0.39,0.869-0.87,0.869c-0.479,0-0.869-0.39-0.869-0.869c0-0.122,0.025-0.238,0.071-0.343h-2.499   c0.045,0.104,0.07,0.221,0.07,0.343c0,0.479-0.389,0.869-0.868,0.869c-0.48,0-0.87-0.39-0.87-0.869c0-0.122,0.025-0.238,0.07-0.343   h-2.49c0.045,0.104,0.07,0.221,0.07,0.343c0,0.479-0.389,0.869-0.869,0.869s-0.869-0.39-0.869-0.869   c0-0.122,0.025-0.238,0.07-0.343h-2.503c0.046,0.104,0.071,0.221,0.071,0.343c0,0.479-0.389,0.869-0.869,0.869   s-0.87-0.39-0.87-0.869c0-0.122,0.025-0.238,0.071-0.343h-2.498c0.045,0.104,0.07,0.221,0.07,0.343c0,0.479-0.39,0.869-0.87,0.869   c-0.479,0-0.869-0.39-0.869-0.869c0-0.122,0.025-0.238,0.071-0.343h-2.492c0.045,0.104,0.07,0.221,0.07,0.343   c0,0.479-0.389,0.869-0.869,0.869s-0.869-0.39-0.869-0.869c0-0.122,0.025-0.238,0.07-0.343h-2.5   c0.046,0.104,0.071,0.221,0.071,0.343c0,0.479-0.39,0.869-0.87,0.869c-0.479,0-0.869-0.39-0.869-0.869   c0-0.122,0.025-0.238,0.071-0.343h-2.499c0.046,0.104,0.071,0.221,0.071,0.343c0,0.479-0.39,0.869-0.87,0.869   s-0.869-0.39-0.869-0.869c0-0.122,0.025-0.238,0.07-0.343h-2.492c0.045,0.104,0.07,0.221,0.07,0.343   c0,0.479-0.389,0.869-0.869,0.869s-0.869-0.39-0.869-0.869c0-0.122,0.025-0.238,0.07-0.343h-2.497   c0.045,0.104,0.071,0.221,0.071,0.343c0,0.479-0.389,0.869-0.87,0.869c-0.48,0-0.87-0.39-0.87-0.869   c0-0.122,0.025-0.238,0.071-0.343h-2.505c0.045,0.104,0.071,0.221,0.071,0.343c0,0.479-0.389,0.869-0.869,0.869   s-0.87-0.39-0.87-0.869c0-0.122,0.026-0.238,0.071-0.343h-2.491c0.045,0.104,0.071,0.221,0.071,0.343   c0,0.479-0.39,0.869-0.87,0.869s-0.869-0.39-0.869-0.869c0-0.122,0.025-0.238,0.071-0.343h-2.5   c0.045,0.104,0.071,0.221,0.071,0.343c0,0.479-0.39,0.869-0.87,0.869s-0.869-0.39-0.869-0.869c0-0.122,0.025-0.238,0.071-0.343   H34.38c0.045,0.104,0.071,0.221,0.071,0.343c0,0.479-0.389,0.869-0.869,0.869c-0.48,0-0.87-0.39-0.87-0.869   c0-0.122,0.025-0.238,0.071-0.343h-2.491c0.045,0.104,0.071,0.221,0.071,0.343c0,0.479-0.39,0.869-0.87,0.869   c-0.48,0-0.869-0.39-0.869-0.869c0-0.122,0.025-0.238,0.071-0.343h-2.503c0.045,0.104,0.071,0.221,0.071,0.343   c0,0.479-0.389,0.869-0.869,0.869c-0.48,0-0.87-0.39-0.87-0.869c0-0.122,0.025-0.238,0.071-0.343h-2.499   c0.045,0.104,0.071,0.221,0.071,0.343c0,0.479-0.389,0.869-0.87,0.869c-0.48,0-0.869-0.39-0.869-0.869   c0-0.122,0.025-0.238,0.071-0.343h-2.492c0.045,0.104,0.071,0.221,0.071,0.343c0,0.479-0.39,0.869-0.87,0.869   c-0.48,0-0.869-0.39-0.869-0.869c0-0.122,0.025-0.238,0.07-0.343H13.91c0.045,0.104,0.071,0.221,0.071,0.343   c0,0.479-0.389,0.869-0.87,0.869c-0.48,0-0.87-0.39-0.87-0.869c0-0.122,0.025-0.238,0.071-0.343H9.814   c0.045,0.104,0.071,0.221,0.071,0.343c0,0.479-0.39,0.869-0.87,0.869c-0.48,0-0.87-0.39-0.87-0.869   c0-0.122,0.025-0.238,0.071-0.343H5.724c0.045,0.104,0.071,0.221,0.071,0.343c0,0.479-0.39,0.869-0.87,0.869   c-0.48,0-0.87-0.39-0.87-0.869c0-0.122,0.026-0.238,0.071-0.343H3.759v3.945H96.24V53.893z M92.959,55.414   c-0.48,0-0.869,0.389-0.869,0.869s0.389,0.869,0.869,0.869s0.869-0.389,0.869-0.869S93.439,55.414,92.959,55.414z M80.678,55.414   c-0.48,0-0.871,0.389-0.871,0.869s0.391,0.869,0.871,0.869c0.479,0,0.869-0.389,0.869-0.869S81.157,55.414,80.678,55.414z    M52.015,55.414c-0.48,0-0.87,0.389-0.87,0.869s0.39,0.869,0.87,0.869c0.479,0,0.869-0.389,0.869-0.869   S52.494,55.414,52.015,55.414z M88.863,55.414c-0.48,0-0.869,0.389-0.869,0.869s0.389,0.869,0.869,0.869   c0.479,0,0.869-0.389,0.869-0.869S89.343,55.414,88.863,55.414z M84.77,55.414c-0.479,0-0.869,0.389-0.869,0.869   s0.39,0.869,0.869,0.869c0.48,0,0.869-0.389,0.869-0.869S85.25,55.414,84.77,55.414z M35.634,55.414   c-0.48,0-0.869,0.389-0.869,0.869s0.389,0.869,0.869,0.869c0.481,0,0.87-0.389,0.87-0.869S36.115,55.414,35.634,55.414z    M19.257,55.414c-0.48,0-0.869,0.389-0.869,0.869s0.389,0.869,0.869,0.869c0.48,0,0.87-0.389,0.87-0.869   S19.737,55.414,19.257,55.414z M23.35,55.414c-0.48,0-0.87,0.389-0.87,0.869s0.389,0.869,0.87,0.869s0.869-0.389,0.869-0.869   S23.831,55.414,23.35,55.414z M15.161,55.414c-0.48,0-0.87,0.389-0.87,0.869s0.389,0.869,0.87,0.869s0.869-0.389,0.869-0.869   S15.642,55.414,15.161,55.414z M47.917,55.414c-0.479,0-0.869,0.389-0.869,0.869s0.39,0.869,0.869,0.869   c0.48,0,0.87-0.389,0.87-0.869S48.396,55.414,47.917,55.414z M6.975,55.414c-0.48,0-0.869,0.389-0.869,0.869   s0.389,0.869,0.869,0.869c0.48,0,0.87-0.389,0.87-0.869S7.455,55.414,6.975,55.414z M11.068,55.414c-0.48,0-0.87,0.389-0.87,0.869   s0.389,0.869,0.87,0.869s0.87-0.389,0.87-0.869S11.548,55.414,11.068,55.414z M39.728,55.414c-0.48,0-0.87,0.389-0.87,0.869   s0.39,0.869,0.87,0.869s0.87-0.389,0.87-0.869S40.208,55.414,39.728,55.414z M43.824,55.414c-0.48,0-0.87,0.389-0.87,0.869   s0.39,0.869,0.87,0.869s0.869-0.389,0.869-0.869S44.304,55.414,43.824,55.414z M92.959,77.61c0.48,0,0.869-0.39,0.869-0.87   c0-0.479-0.389-0.869-0.869-0.869s-0.869,0.39-0.869,0.869C92.09,77.221,92.479,77.61,92.959,77.61z M31.542,55.414   c-0.48,0-0.871,0.389-0.871,0.869s0.39,0.869,0.871,0.869c0.48,0,0.87-0.389,0.87-0.869S32.022,55.414,31.542,55.414z    M27.446,55.414c-0.481,0-0.869,0.389-0.869,0.869s0.388,0.869,0.869,0.869c0.48,0,0.869-0.389,0.869-0.869   S27.926,55.414,27.446,55.414z M56.11,63.601c-0.48,0-0.87,0.389-0.87,0.869s0.39,0.87,0.87,0.87c0.479,0,0.87-0.39,0.87-0.87   S56.59,63.601,56.11,63.601z M62.246,65.648c-0.479,0-0.869,0.39-0.869,0.869c0,0.48,0.39,0.869,0.869,0.869   c0.48,0,0.87-0.389,0.87-0.869C63.116,66.038,62.727,65.648,62.246,65.648z M64.297,71.787c-0.48,0-0.87,0.39-0.87,0.869   c0,0.48,0.39,0.87,0.87,0.87s0.869-0.39,0.869-0.87C65.166,72.177,64.777,71.787,64.297,71.787z M64.297,75.871   c-0.48,0-0.87,0.39-0.87,0.869c0,0.48,0.39,0.87,0.87,0.87s0.869-0.39,0.869-0.87C65.166,76.261,64.777,75.871,64.297,75.871z    M62.246,69.739c-0.479,0-0.869,0.389-0.869,0.869s0.39,0.87,0.869,0.87c0.48,0,0.87-0.39,0.87-0.87S62.727,69.739,62.246,69.739z    M62.246,73.823c-0.479,0-0.869,0.39-0.869,0.869c0,0.48,0.39,0.87,0.869,0.87c0.48,0,0.87-0.39,0.87-0.87   C63.116,74.213,62.727,73.823,62.246,73.823z M62.246,77.919c-0.479,0-0.869,0.39-0.869,0.869c0,0.481,0.39,0.87,0.869,0.87   c0.48,0,0.87-0.389,0.87-0.87C63.116,78.309,62.727,77.919,62.246,77.919z M64.297,67.696c-0.48,0-0.87,0.39-0.87,0.869   c0,0.48,0.39,0.87,0.87,0.87s0.869-0.39,0.869-0.87C65.166,68.086,64.777,67.696,64.297,67.696z M66.344,69.739   c-0.48,0-0.869,0.389-0.869,0.869s0.389,0.87,0.869,0.87s0.869-0.39,0.869-0.87S66.824,69.739,66.344,69.739z M66.344,73.823   c-0.48,0-0.869,0.39-0.869,0.869c0,0.48,0.389,0.87,0.869,0.87s0.869-0.39,0.869-0.87C67.213,74.213,66.824,73.823,66.344,73.823z    M60.203,63.601c-0.48,0-0.869,0.389-0.869,0.869s0.389,0.87,0.869,0.87s0.869-0.39,0.869-0.87S60.684,63.601,60.203,63.601z    M66.344,77.919c-0.48,0-0.869,0.39-0.869,0.869c0,0.481,0.389,0.87,0.869,0.87s0.869-0.389,0.869-0.87   C67.213,78.309,66.824,77.919,66.344,77.919z M66.344,65.648c-0.48,0-0.869,0.39-0.869,0.869c0,0.48,0.389,0.869,0.869,0.869   s0.869-0.389,0.869-0.869C67.213,66.038,66.824,65.648,66.344,65.648z M64.297,63.601c-0.48,0-0.87,0.389-0.87,0.869   s0.39,0.87,0.87,0.87s0.869-0.39,0.869-0.87S64.777,63.601,64.297,63.601z M80.678,75.871c-0.48,0-0.871,0.39-0.871,0.869   c0,0.48,0.391,0.87,0.871,0.87c0.479,0,0.869-0.39,0.869-0.87C81.547,76.261,81.157,75.871,80.678,75.871z M60.203,67.696   c-0.48,0-0.869,0.39-0.869,0.869c0,0.48,0.389,0.87,0.869,0.87s0.869-0.39,0.869-0.87C61.072,68.086,60.684,67.696,60.203,67.696z    M56.11,67.696c-0.48,0-0.87,0.39-0.87,0.869c0,0.48,0.39,0.87,0.87,0.87c0.479,0,0.87-0.39,0.87-0.87   C56.98,68.086,56.59,67.696,56.11,67.696z M56.11,75.871c-0.48,0-0.87,0.39-0.87,0.869c0,0.48,0.39,0.87,0.87,0.87   c0.479,0,0.87-0.39,0.87-0.87C56.98,76.261,56.59,75.871,56.11,75.871z M56.11,71.787c-0.48,0-0.87,0.39-0.87,0.869   c0,0.48,0.39,0.87,0.87,0.87c0.479,0,0.87-0.39,0.87-0.87C56.98,72.177,56.59,71.787,56.11,71.787z M58.15,77.919   c-0.48,0-0.869,0.39-0.869,0.869c0,0.481,0.389,0.87,0.869,0.87s0.87-0.389,0.87-0.87C59.021,78.309,58.631,77.919,58.15,77.919z    M60.203,75.871c-0.48,0-0.869,0.39-0.869,0.869c0,0.48,0.389,0.87,0.869,0.87s0.869-0.39,0.869-0.87   C61.072,76.261,60.684,75.871,60.203,75.871z M60.203,71.787c-0.48,0-0.869,0.39-0.869,0.869c0,0.48,0.389,0.87,0.869,0.87   s0.869-0.39,0.869-0.87C61.072,72.177,60.684,71.787,60.203,71.787z M58.15,73.823c-0.48,0-0.869,0.39-0.869,0.869   c0,0.48,0.389,0.87,0.869,0.87s0.87-0.39,0.87-0.87C59.021,74.213,58.631,73.823,58.15,73.823z M58.15,69.739   c-0.48,0-0.869,0.389-0.869,0.869s0.389,0.87,0.869,0.87s0.87-0.39,0.87-0.87S58.631,69.739,58.15,69.739z M58.15,65.648   c-0.48,0-0.869,0.39-0.869,0.869c0,0.48,0.389,0.869,0.869,0.869s0.87-0.389,0.87-0.869C59.021,66.038,58.631,65.648,58.15,65.648z    M54.061,65.648c-0.48,0-0.869,0.39-0.869,0.869c0,0.48,0.389,0.869,0.869,0.869s0.869-0.389,0.869-0.869   C54.93,66.038,54.541,65.648,54.061,65.648z M76.581,75.871c-0.48,0-0.869,0.39-0.869,0.869c0,0.48,0.389,0.87,0.869,0.87   c0.479,0,0.87-0.39,0.87-0.87C77.451,76.261,77.061,75.871,76.581,75.871z M76.581,67.696c-0.48,0-0.869,0.39-0.869,0.869   c0,0.48,0.389,0.87,0.869,0.87c0.479,0,0.87-0.39,0.87-0.87C77.451,68.086,77.061,67.696,76.581,67.696z M74.529,65.648   c-0.48,0-0.87,0.39-0.87,0.869c0,0.48,0.39,0.869,0.87,0.869s0.869-0.389,0.869-0.869C75.398,66.038,75.01,65.648,74.529,65.648z    M76.581,71.787c-0.48,0-0.869,0.39-0.869,0.869c0,0.48,0.389,0.87,0.869,0.87c0.479,0,0.87-0.39,0.87-0.87   C77.451,72.177,77.061,71.787,76.581,71.787z M74.529,73.823c-0.48,0-0.87,0.39-0.87,0.869c0,0.48,0.39,0.87,0.87,0.87   c0.479,0,0.869-0.39,0.869-0.87C75.398,74.213,75.009,73.823,74.529,73.823z M74.529,69.739c-0.48,0-0.87,0.389-0.87,0.869   s0.39,0.87,0.87,0.87s0.869-0.39,0.869-0.87S75.01,69.739,74.529,69.739z M78.629,73.823c-0.48,0-0.869,0.39-0.869,0.869   c0,0.48,0.389,0.87,0.869,0.87s0.869-0.39,0.869-0.87C79.498,74.213,79.109,73.823,78.629,73.823z M78.629,65.648   c-0.48,0-0.869,0.389-0.869,0.869s0.389,0.869,0.869,0.869s0.869-0.389,0.869-0.869S79.109,65.648,78.629,65.648z M76.581,63.601   c-0.48,0-0.869,0.389-0.869,0.869s0.389,0.87,0.869,0.87c0.479,0,0.87-0.39,0.87-0.87S77.061,63.601,76.581,63.601z M78.629,69.739   c-0.48,0-0.869,0.389-0.869,0.869s0.389,0.87,0.869,0.87s0.869-0.39,0.869-0.87S79.109,69.739,78.629,69.739z M78.629,77.919   c-0.48,0-0.869,0.39-0.869,0.869c0,0.481,0.389,0.87,0.869,0.87s0.869-0.389,0.869-0.87C79.498,78.309,79.109,77.919,78.629,77.919   z M74.529,77.919c-0.48,0-0.87,0.39-0.87,0.869c0,0.481,0.39,0.87,0.87,0.87s0.869-0.389,0.869-0.87   C75.398,78.309,75.01,77.919,74.529,77.919z M72.485,67.696c-0.479,0-0.87,0.39-0.87,0.869c0,0.48,0.391,0.87,0.87,0.87   c0.48,0,0.87-0.39,0.87-0.87C73.355,68.086,72.966,67.696,72.485,67.696z M70.433,73.823c-0.479,0-0.869,0.39-0.869,0.869   c0,0.48,0.39,0.87,0.869,0.87c0.48,0,0.87-0.39,0.87-0.87C71.303,74.213,70.913,73.823,70.433,73.823z M70.433,77.919   c-0.479,0-0.869,0.39-0.869,0.869c0,0.481,0.39,0.87,0.869,0.87c0.48,0,0.87-0.389,0.87-0.87   C71.303,78.309,70.913,77.919,70.433,77.919z M72.485,63.601c-0.479,0-0.87,0.389-0.87,0.869s0.391,0.87,0.87,0.87   c0.48,0,0.87-0.39,0.87-0.87S72.966,63.601,72.485,63.601z M68.393,67.696c-0.48,0-0.869,0.39-0.869,0.869   c0,0.48,0.389,0.87,0.869,0.87s0.869-0.39,0.869-0.87C69.262,68.086,68.873,67.696,68.393,67.696z M68.393,71.787   c-0.48,0-0.869,0.39-0.869,0.869c0,0.48,0.389,0.87,0.869,0.87s0.869-0.39,0.869-0.87C69.262,72.177,68.873,71.787,68.393,71.787z    M68.393,63.601c-0.48,0-0.869,0.389-0.869,0.869s0.389,0.87,0.869,0.87s0.869-0.39,0.869-0.87S68.873,63.601,68.393,63.601z    M68.393,75.871c-0.48,0-0.869,0.39-0.869,0.869c0,0.48,0.389,0.87,0.869,0.87s0.869-0.39,0.869-0.87   C69.262,76.261,68.873,75.871,68.393,75.871z M70.433,69.739c-0.479,0-0.869,0.389-0.869,0.869s0.39,0.87,0.869,0.87   c0.48,0,0.87-0.39,0.87-0.87S70.913,69.739,70.433,69.739z M72.485,71.787c-0.479,0-0.87,0.39-0.87,0.869   c0,0.48,0.391,0.87,0.87,0.87c0.48,0,0.87-0.39,0.87-0.87C73.355,72.177,72.966,71.787,72.485,71.787z M70.433,65.648   c-0.479,0-0.869,0.39-0.869,0.869c0,0.48,0.39,0.869,0.869,0.869c0.48,0,0.87-0.389,0.87-0.869   C71.303,66.038,70.913,65.648,70.433,65.648z M72.485,75.871c-0.479,0-0.87,0.39-0.87,0.869c0,0.48,0.391,0.87,0.87,0.87   c0.48,0,0.87-0.39,0.87-0.87C73.355,76.261,72.966,75.871,72.485,75.871z"/></g>
</svg>
