<svg width="72" height="72" viewBox="0 0 72 72" fill="none" xmlns="http://www.w3.org/2000/svg">
<path opacity="0.8" d="M71.9999 41.9261L36.1335 62.7793L0.0253906 41.9261L35.8918 21.0857L71.9999 41.9261Z" fill="white"/>
<path d="M35.9083 27.3769L61.738 41.9126L36.0916 56.4514L10.2619 41.9068L35.9083 27.3769Z" stroke="#777C8A" stroke-opacity="0.12" stroke-width="2"/>
<path opacity="0.6" d="M72.0001 41.9261L71.9747 50.2216L36.1083 71.0747L36.1337 62.7793L72.0001 41.9261Z" fill="white"/>
<path opacity="0.4" d="M36.1336 62.7793L36.1081 71.0747L0 50.2216L0.0254462 41.9261L36.1336 62.7793Z" fill="white"/>
<path opacity="0.4" d="M36.1336 66.8936L36.1081 71.0747L0 50.2216L0.0254462 46.0404L36.1336 66.8936Z" fill="url(#paint0_linear)"/>
<path d="M46.8981 26.5207L41.625 23.454L45.9445 20.967L51.2176 24.0337L46.8981 26.5207Z" fill="#04D2C5"/>
<path d="M46.8981 26.5207L41.625 23.454L45.9445 20.967L51.2176 24.0337L46.8981 26.5207Z" fill="black" fill-opacity="0.12"/>
<path d="M41.4565 24.0899L41.4726 24.0993C41.4401 24.2205 41.4043 24.3417 41.3664 24.4629C41.3175 24.6191 41.2655 24.7752 41.2134 24.9313L40.9352 25.7102L40.9142 25.698C40.8643 25.8378 40.8143 25.9724 40.7615 26.1044C40.7155 26.2195 40.6672 26.3327 40.615 26.446L40.6298 26.4545L40.2972 27.1752L45.5704 30.2419L45.9069 29.5126L45.8921 29.504C46.0016 29.2658 46.0934 29.0273 46.185 28.7711L46.2061 28.7833L46.4866 27.998L46.4709 27.9889L46.7484 27.1565L46.7322 27.1471C46.7875 26.9445 46.8426 26.7417 46.8979 26.5208L41.6248 23.4541C41.5967 23.5569 41.5687 23.6645 41.5407 23.772L41.5041 23.9115C41.4883 23.9719 41.4724 24.0316 41.4565 24.0899Z" fill="#04D2C5"/>
<path d="M41.4565 24.0899L41.4726 24.0993C41.4401 24.2205 41.4043 24.3417 41.3664 24.4629C41.3175 24.6191 41.2655 24.7752 41.2134 24.9313L40.9352 25.7102L40.9142 25.698C40.8643 25.8378 40.8143 25.9724 40.7615 26.1044C40.7155 26.2195 40.6672 26.3327 40.615 26.446L40.6298 26.4545L40.2972 27.1752L45.5704 30.2419L45.9069 29.5126L45.8921 29.504C46.0016 29.2658 46.0934 29.0273 46.185 28.7711L46.2061 28.7833L46.4866 27.998L46.4709 27.9889L46.7484 27.1565L46.7322 27.1471C46.7875 26.9445 46.8426 26.7417 46.8979 26.5208L41.6248 23.4541C41.5967 23.5569 41.5687 23.6645 41.5407 23.772L41.5041 23.9115C41.4883 23.9719 41.4724 24.0316 41.4565 24.0899Z" fill="black" fill-opacity="0.16"/>
<path d="M39.9232 27.8858L45.1964 30.9524C45.3272 30.7281 45.4394 30.485 45.5517 30.2419L40.2785 27.1752C40.2333 27.2732 40.1881 27.3682 40.1416 27.4625C40.0729 27.6023 40.0014 27.7407 39.9232 27.8858Z" fill="#04D2C5"/>
<path d="M39.9232 27.8858L45.1964 30.9524C45.3272 30.7281 45.4394 30.485 45.5517 30.2419L40.2785 27.1752C40.2333 27.2732 40.1881 27.3682 40.1416 27.4625C40.0729 27.6023 40.0014 27.7407 39.9232 27.8858Z" fill="black" fill-opacity="0.16"/>
<path d="M44.8037 31.663L39.5369 28.6188L44.8036 31.6817C44.7101 31.85 44.598 32.0183 44.5045 32.1866L39.2313 29.1199C39.2892 29.0331 39.3421 28.9462 39.3926 28.8594C39.4399 28.7779 39.4852 28.6965 39.5305 28.6151C39.5934 28.4983 39.6563 28.3859 39.7191 28.2736L39.7202 28.2716L39.7268 28.2598C39.7923 28.1429 39.8577 28.026 39.9232 27.9045L45.1963 30.9712C45.1309 31.0833 45.0655 31.2002 45 31.3171C44.9345 31.4339 44.8691 31.5508 44.8037 31.663Z" fill="#04D2C5"/>
<path d="M44.8037 31.663L39.5369 28.6188L44.8036 31.6817C44.7101 31.85 44.598 32.0183 44.5045 32.1866L39.2313 29.1199C39.2892 29.0331 39.3421 28.9462 39.3926 28.8594C39.4399 28.7779 39.4852 28.6965 39.5305 28.6151C39.5934 28.4983 39.6563 28.3859 39.7191 28.2736L39.7202 28.2716L39.7268 28.2598C39.7923 28.1429 39.8577 28.026 39.9232 27.9045L45.1963 30.9712C45.1309 31.0833 45.0655 31.2002 45 31.3171C44.9345 31.4339 44.8691 31.5508 44.8037 31.663Z" fill="black" fill-opacity="0.16"/>
<path d="M27.3761 35.5524L32.6493 38.6191C32.6514 38.6191 32.6536 38.6193 32.6557 38.6197L32.6866 38.6378C32.6866 38.6378 32.672 38.6231 32.6557 38.6197L27.4135 35.5711C27.4135 35.5711 27.4077 35.5653 27.3992 35.5601C27.3925 35.556 27.3843 35.5524 27.3761 35.5524Z" fill="#04D2C5"/>
<path d="M27.3761 35.5524L32.6493 38.6191C32.6514 38.6191 32.6536 38.6193 32.6557 38.6197L32.6866 38.6378C32.6866 38.6378 32.672 38.6231 32.6557 38.6197L27.4135 35.5711C27.4135 35.5711 27.4077 35.5653 27.3992 35.5601C27.3925 35.556 27.3843 35.5524 27.3761 35.5524Z" fill="black" fill-opacity="0.16"/>
<path d="M32.7053 38.6378L27.4322 35.5711C27.5631 35.6459 27.7126 35.7207 27.8622 35.7768L27.9519 35.8289C28.0716 35.8732 28.1914 35.9151 28.3111 35.9451L28.3249 35.9532C28.4148 35.9753 28.5104 35.9974 28.6037 36.0195C28.6569 36.0321 28.7094 36.0447 28.7598 36.0573C28.9281 36.0947 29.0964 36.1134 29.2647 36.1134L34.5378 39.18L34.033 39.1239L33.9541 39.1045C33.9036 39.0924 33.8518 39.0802 33.7999 39.068L33.6624 39.0354L33.5655 39.0117L33.5413 38.9976L33.4578 38.9712L33.4324 38.9632L33.3978 38.9523C33.3762 38.9454 33.355 38.9385 33.3338 38.9313C33.2601 38.9065 33.1884 38.8793 33.1168 38.8434L33.0783 38.8212C33.0572 38.8126 33.0362 38.8037 33.0153 38.7946C32.9982 38.7871 32.9812 38.7795 32.9643 38.7717C32.9459 38.7632 32.9277 38.7546 32.9095 38.7458C32.8914 38.737 32.8735 38.7281 32.8558 38.7191C32.8038 38.6926 32.7533 38.6652 32.7053 38.6378Z" fill="#04D2C5"/>
<path d="M32.7053 38.6378L27.4322 35.5711C27.5631 35.6459 27.7126 35.7207 27.8622 35.7768L27.9519 35.8289C28.0716 35.8732 28.1914 35.9151 28.3111 35.9451L28.3249 35.9532C28.4148 35.9753 28.5104 35.9974 28.6037 36.0195C28.6569 36.0321 28.7094 36.0447 28.7598 36.0573C28.9281 36.0947 29.0964 36.1134 29.2647 36.1134L34.5378 39.18L34.033 39.1239L33.9541 39.1045C33.9036 39.0924 33.8518 39.0802 33.7999 39.068L33.6624 39.0354L33.5655 39.0117L33.5413 38.9976L33.4578 38.9712L33.4324 38.9632L33.3978 38.9523C33.3762 38.9454 33.355 38.9385 33.3338 38.9313C33.2601 38.9065 33.1884 38.8793 33.1168 38.8434L33.0783 38.8212C33.0572 38.8126 33.0362 38.8037 33.0153 38.7946C32.9982 38.7871 32.9812 38.7795 32.9643 38.7717C32.9459 38.7632 32.9277 38.7546 32.9095 38.7458C32.8914 38.737 32.8735 38.7281 32.8558 38.7191C32.8038 38.6926 32.7533 38.6652 32.7053 38.6378Z" fill="black" fill-opacity="0.16"/>
<path d="M34.5566 39.18L29.2834 36.1134L29.313 36.1161L29.3404 36.1185C29.361 36.1201 29.3815 36.1215 29.402 36.1227C29.4456 36.1252 29.4892 36.1267 29.5327 36.1272L29.5809 36.1273C29.6002 36.1272 29.6194 36.1269 29.6387 36.1264L29.6875 36.1247C29.7398 36.1224 29.7921 36.1186 29.8444 36.1134C29.9844 36.1134 30.133 36.0961 30.2785 36.0791L30.3759 36.0679L30.4151 36.0637L30.4802 36.0573C30.7232 36.0199 30.9851 35.9638 31.2468 35.889C31.5799 35.7965 31.9132 35.6856 32.2644 35.5383L32.2566 35.5337C32.668 35.3654 33.0793 35.1597 33.4907 34.9166C34.4818 34.3557 35.4729 33.589 36.4078 32.654L36.4196 32.6609C36.7336 32.3465 37.0472 32.0141 37.3427 31.6817L42.6159 34.7483C42.5478 34.825 42.4786 34.9016 42.4088 34.9781C42.3342 35.0596 42.2588 35.1409 42.1828 35.2217C42.0174 35.3977 41.8491 35.5711 41.6809 35.7394L41.6691 35.7325C40.7376 36.662 39.7507 37.4061 38.7638 37.9833C38.3525 38.2264 37.9411 38.4321 37.5298 38.6004C37.1931 38.7499 36.8566 38.8622 36.5199 38.9556C36.2582 39.0304 35.9964 39.0865 35.7533 39.1239C35.5289 39.1426 35.3232 39.18 35.1176 39.18H34.5566Z" fill="#04D2C5"/>
<path d="M34.5566 39.18L29.2834 36.1134L29.313 36.1161L29.3404 36.1185C29.361 36.1201 29.3815 36.1215 29.402 36.1227C29.4456 36.1252 29.4892 36.1267 29.5327 36.1272L29.5809 36.1273C29.6002 36.1272 29.6194 36.1269 29.6387 36.1264L29.6875 36.1247C29.7398 36.1224 29.7921 36.1186 29.8444 36.1134C29.9844 36.1134 30.133 36.0961 30.2785 36.0791L30.3759 36.0679L30.4151 36.0637L30.4802 36.0573C30.7232 36.0199 30.9851 35.9638 31.2468 35.889C31.5799 35.7965 31.9132 35.6856 32.2644 35.5383L32.2566 35.5337C32.668 35.3654 33.0793 35.1597 33.4907 34.9166C34.4818 34.3557 35.4729 33.589 36.4078 32.654L36.4196 32.6609C36.7336 32.3465 37.0472 32.0141 37.3427 31.6817L42.6159 34.7483C42.5478 34.825 42.4786 34.9016 42.4088 34.9781C42.3342 35.0596 42.2588 35.1409 42.1828 35.2217C42.0174 35.3977 41.8491 35.5711 41.6809 35.7394L41.6691 35.7325C40.7376 36.662 39.7507 37.4061 38.7638 37.9833C38.3525 38.2264 37.9411 38.4321 37.5298 38.6004C37.1931 38.7499 36.8566 38.8622 36.5199 38.9556C36.2582 39.0304 35.9964 39.0865 35.7533 39.1239C35.5289 39.1426 35.3232 39.18 35.1176 39.18H34.5566Z" fill="black" fill-opacity="0.16"/>
<path d="M42.6159 34.7296L37.3427 31.663L37.3898 31.6082L37.3917 31.606L37.3966 31.6003C37.6055 31.3565 37.8281 31.0969 38.0346 30.8215L38.0445 30.8273C38.2282 30.5879 38.4119 30.3307 38.5956 30.0736C38.7638 29.8305 38.9321 29.5874 39.0818 29.3256C39.1192 29.2508 39.1752 29.176 39.2127 29.1199L44.4858 32.1866C44.4728 32.206 44.4598 32.2277 44.4461 32.2509C44.4202 32.2946 44.3915 32.3434 44.3548 32.3923C44.2053 32.6353 44.037 32.8971 43.8687 33.1402C43.6817 33.402 43.4948 33.6451 43.3078 33.9069L43.2979 33.9011C43.1557 34.09 43.0061 34.2715 42.8587 34.4454C42.8022 34.5123 42.7459 34.578 42.6906 34.6426L42.6159 34.7296Z" fill="#04D2C5"/>
<path d="M42.6159 34.7296L37.3427 31.663L37.3898 31.6082L37.3917 31.606L37.3966 31.6003C37.6055 31.3565 37.8281 31.0969 38.0346 30.8215L38.0445 30.8273C38.2282 30.5879 38.4119 30.3307 38.5956 30.0736C38.7638 29.8305 38.9321 29.5874 39.0818 29.3256C39.1192 29.2508 39.1752 29.176 39.2127 29.1199L44.4858 32.1866C44.4728 32.206 44.4598 32.2277 44.4461 32.2509C44.4202 32.2946 44.3915 32.3434 44.3548 32.3923C44.2053 32.6353 44.037 32.8971 43.8687 33.1402C43.6817 33.402 43.4948 33.6451 43.3078 33.9069L43.2979 33.9011C43.1557 34.09 43.0061 34.2715 42.8587 34.4454C42.8022 34.5123 42.7459 34.578 42.6906 34.6426L42.6159 34.7296Z" fill="black" fill-opacity="0.16"/>
<path d="M46.8982 26.5207L51.2176 24.0337C50.6941 27.306 49.3477 30.8215 47.3282 34.0564C44.8973 37.9645 41.8307 40.9564 38.7827 42.7328C35.3234 44.7336 31.8828 45.145 29.3771 43.4808C27.769 42.4149 26.7405 40.6385 26.2917 38.432L30.6112 35.945C30.9665 37.0483 31.5836 37.9458 32.4624 38.5068C34.1454 39.61 36.4454 39.3483 38.764 38.0019C40.8209 36.8239 42.8591 34.8044 44.5047 32.1865C45.6453 30.354 46.4494 28.3906 46.8982 26.5207Z" fill="white"/>
<path d="M29.6576 43.6492L24.3844 40.5825C24.2909 40.5265 24.1787 40.4704 24.0852 40.3956C22.4771 39.3297 21.4487 37.5533 20.9999 35.3468L26.2917 38.4135C26.7405 40.6199 27.7689 42.3964 29.3771 43.4622C29.4706 43.537 29.5641 43.5931 29.6576 43.6492Z" fill="#04D2C5"/>
<path d="M29.6576 43.6492L24.3844 40.5825C24.2909 40.5265 24.1787 40.4704 24.0852 40.3956C22.4771 39.3297 21.4487 37.5533 20.9999 35.3468L26.2917 38.4135C26.7405 40.6199 27.7689 42.3964 29.3771 43.4622C29.4706 43.537 29.5641 43.5931 29.6576 43.6492Z" fill="black" fill-opacity="0.16"/>
<path d="M26.2918 38.4134L21.0187 35.3654L25.3382 32.8597L30.6113 35.9264L26.2918 38.4134Z" fill="#04D2C5"/>
<path d="M26.2918 38.4134L21.0187 35.3654L25.3382 32.8597L30.6113 35.9264L26.2918 38.4134Z" fill="black" fill-opacity="0.12"/>
<path d="M44.1117 11.3092L38.8385 8.24254C39.1377 8.22384 39.4182 8.22384 39.6987 8.24254L39.7352 8.26399C39.9848 8.28344 40.2336 8.3191 40.4654 8.35475C40.7083 8.39214 40.9515 8.44824 41.1758 8.52305C41.4003 8.59782 41.6247 8.67262 41.8491 8.76612L47.1222 11.8328C46.8979 11.7206 46.6734 11.6458 46.449 11.571C46.2246 11.5149 45.9815 11.4588 45.7385 11.4214C45.4767 11.3653 45.2337 11.3466 44.9532 11.3279C44.6913 11.3092 44.3922 11.3092 44.1117 11.3092Z" fill="#04D2C5"/>
<path d="M44.1117 11.3092L38.8385 8.24254C39.1377 8.22384 39.4182 8.22384 39.6987 8.24254L39.7352 8.26399C39.9848 8.28344 40.2336 8.3191 40.4654 8.35475C40.7083 8.39214 40.9515 8.44824 41.1758 8.52305C41.4003 8.59782 41.6247 8.67262 41.8491 8.76612L47.1222 11.8328C46.8979 11.7206 46.6734 11.6458 46.449 11.571C46.2246 11.5149 45.9815 11.4588 45.7385 11.4214C45.4767 11.3653 45.2337 11.3466 44.9532 11.3279C44.6913 11.3092 44.3922 11.3092 44.1117 11.3092Z" fill="black" fill-opacity="0.08"/>
<path d="M43.1393 11.4027C43.4759 11.3653 43.7938 11.3279 44.1116 11.3279L38.8385 8.26125L38.8377 8.26132C38.528 8.27954 38.2182 8.29775 37.8912 8.35062L37.8661 8.33603C37.7901 8.3487 37.714 8.36139 37.638 8.37479C37.5888 8.38344 37.5397 8.39241 37.4906 8.40189C37.3914 8.42099 37.2922 8.44213 37.1929 8.46692C37.1368 8.48563 37.076 8.49967 37.0152 8.51369C36.9545 8.5277 36.8937 8.54172 36.8377 8.56041L42.1109 11.6271C42.223 11.5897 42.3352 11.571 42.4661 11.5336C42.6905 11.4775 42.9149 11.4401 43.1393 11.4027Z" fill="#04D2C5"/>
<path d="M43.1393 11.4027C43.4759 11.3653 43.7938 11.3279 44.1116 11.3279L38.8385 8.26125L38.8377 8.26132C38.528 8.27954 38.2182 8.29775 37.8912 8.35062L37.8661 8.33603C37.7901 8.3487 37.714 8.36139 37.638 8.37479C37.5888 8.38344 37.5397 8.39241 37.4906 8.40189C37.3914 8.42099 37.2922 8.44213 37.1929 8.46692C37.1368 8.48563 37.076 8.49967 37.0152 8.51369C36.9545 8.5277 36.8937 8.54172 36.8377 8.56041L42.1109 11.6271C42.223 11.5897 42.3352 11.571 42.4661 11.5336C42.6905 11.4775 42.9149 11.4401 43.1393 11.4027Z" fill="black" fill-opacity="0.08"/>
<path d="M40.5402 12.1694C41.0637 11.945 41.5872 11.758 42.0921 11.6271L36.819 8.56043C36.3141 8.71004 35.7905 8.87831 35.267 9.10271L35.2749 9.1073C34.6614 9.368 34.048 9.66576 33.4344 10.019C31.9385 10.8791 30.4613 12.0385 29.0776 13.4035C28.5914 13.8897 28.1239 14.3946 27.6564 14.9181C27.3011 15.3295 26.9645 15.7409 26.628 16.171C26.3506 16.5407 26.0733 16.9105 25.7959 17.2984L25.7865 17.2929C25.5653 17.5931 25.3709 17.8933 25.1693 18.2047L25.1646 18.2118L25.0573 18.3775L25.0717 18.3859C25.0162 18.4943 24.9437 18.5855 24.889 18.6766C24.7207 18.9384 24.5711 19.1815 24.4215 19.4433C24.2158 19.7799 24.0288 20.1352 23.8418 20.4904L29.0963 23.5571L23.8231 20.4904C23.7676 20.6014 23.7101 20.7145 23.6519 20.8288L23.6492 20.834C23.5317 21.0649 23.4115 21.3012 23.2996 21.5376L23.2908 21.5559L23.2216 21.7022C23.1611 21.8302 23.1012 21.9581 23.0424 22.086C22.963 22.2585 22.8859 22.431 22.8134 22.6035C22.7496 22.7629 22.6858 22.919 22.6221 23.0746L22.4881 23.4013L22.4166 23.5776L22.3646 23.7067C22.3055 23.8617 22.2494 24.0138 22.195 24.1653C22.1745 24.2222 22.1543 24.279 22.1343 24.3358C22.0728 24.511 22.013 24.6866 21.9532 24.866L27.2264 27.9327C27.2843 27.7294 27.3525 27.5312 27.4253 27.3327L27.4664 27.2221L27.5201 27.0803L27.5742 26.9389L27.5751 26.937L27.6378 26.7734C27.7686 26.3994 27.9183 26.0441 28.0865 25.6701C28.2361 25.3148 28.4044 24.9596 28.5727 24.6042C28.741 24.249 28.928 23.9124 29.0963 23.5571C29.1768 23.418 29.2545 23.2788 29.3316 23.1408C29.4513 22.9264 29.5695 22.7147 29.6947 22.51C29.7281 22.4514 29.7615 22.3928 29.7952 22.3344C29.8187 22.2938 29.8421 22.2533 29.8659 22.2131C29.9604 22.0522 30.0577 21.8942 30.1622 21.7433C30.1971 21.6733 30.2393 21.6107 30.2797 21.5507L30.2805 21.5497L30.281 21.5487C30.2938 21.5298 30.3064 21.5112 30.3185 21.4927L30.3315 21.4726C30.3376 21.4631 30.3435 21.4536 30.3492 21.4441L30.3357 21.4363C30.577 21.0834 30.8183 20.7123 31.0597 20.3596C31.1532 20.2349 31.2467 20.1082 31.3402 19.9814C31.4322 19.8567 31.5242 19.7321 31.6163 19.6093C31.7112 19.4826 31.8062 19.358 31.9011 19.2376L26.628 16.171L31.9011 19.2189C32.2377 18.7888 32.5742 18.3775 32.9296 17.9661C33.3971 17.4425 33.8645 16.9376 34.3507 16.4702C35.7345 15.1051 37.1929 13.9458 38.6889 13.0856C39.306 12.7303 39.923 12.4124 40.5402 12.1694Z" fill="#04D2C5"/>
<path d="M40.5402 12.1694C41.0637 11.945 41.5872 11.758 42.0921 11.6271L36.819 8.56043C36.3141 8.71004 35.7905 8.87831 35.267 9.10271L35.2749 9.1073C34.6614 9.368 34.048 9.66576 33.4344 10.019C31.9385 10.8791 30.4613 12.0385 29.0776 13.4035C28.5914 13.8897 28.1239 14.3946 27.6564 14.9181C27.3011 15.3295 26.9645 15.7409 26.628 16.171C26.3506 16.5407 26.0733 16.9105 25.7959 17.2984L25.7865 17.2929C25.5653 17.5931 25.3709 17.8933 25.1693 18.2047L25.1646 18.2118L25.0573 18.3775L25.0717 18.3859C25.0162 18.4943 24.9437 18.5855 24.889 18.6766C24.7207 18.9384 24.5711 19.1815 24.4215 19.4433C24.2158 19.7799 24.0288 20.1352 23.8418 20.4904L29.0963 23.5571L23.8231 20.4904C23.7676 20.6014 23.7101 20.7145 23.6519 20.8288L23.6492 20.834C23.5317 21.0649 23.4115 21.3012 23.2996 21.5376L23.2908 21.5559L23.2216 21.7022C23.1611 21.8302 23.1012 21.9581 23.0424 22.086C22.963 22.2585 22.8859 22.431 22.8134 22.6035C22.7496 22.7629 22.6858 22.919 22.6221 23.0746L22.4881 23.4013L22.4166 23.5776L22.3646 23.7067C22.3055 23.8617 22.2494 24.0138 22.195 24.1653C22.1745 24.2222 22.1543 24.279 22.1343 24.3358C22.0728 24.511 22.013 24.6866 21.9532 24.866L27.2264 27.9327C27.2843 27.7294 27.3525 27.5312 27.4253 27.3327L27.4664 27.2221L27.5201 27.0803L27.5742 26.9389L27.5751 26.937L27.6378 26.7734C27.7686 26.3994 27.9183 26.0441 28.0865 25.6701C28.2361 25.3148 28.4044 24.9596 28.5727 24.6042C28.741 24.249 28.928 23.9124 29.0963 23.5571C29.1768 23.418 29.2545 23.2788 29.3316 23.1408C29.4513 22.9264 29.5695 22.7147 29.6947 22.51C29.7281 22.4514 29.7615 22.3928 29.7952 22.3344C29.8187 22.2938 29.8421 22.2533 29.8659 22.2131C29.9604 22.0522 30.0577 21.8942 30.1622 21.7433C30.1971 21.6733 30.2393 21.6107 30.2797 21.5507L30.2805 21.5497L30.281 21.5487C30.2938 21.5298 30.3064 21.5112 30.3185 21.4927L30.3315 21.4726C30.3376 21.4631 30.3435 21.4536 30.3492 21.4441L30.3357 21.4363C30.577 21.0834 30.8183 20.7123 31.0597 20.3596C31.1532 20.2349 31.2467 20.1082 31.3402 19.9814C31.4322 19.8567 31.5242 19.7321 31.6163 19.6093C31.7112 19.4826 31.8062 19.358 31.9011 19.2376L26.628 16.171L31.9011 19.2189C32.2377 18.7888 32.5742 18.3775 32.9296 17.9661C33.3971 17.4425 33.8645 16.9376 34.3507 16.4702C35.7345 15.1051 37.1929 13.9458 38.6889 13.0856C39.306 12.7303 39.923 12.4124 40.5402 12.1694Z" fill="black" fill-opacity="0.08"/>
<path d="M26.8338 29.1855C26.9459 28.7742 27.0768 28.3441 27.2077 27.9327L21.9346 24.866C21.8036 25.2774 21.6728 25.7075 21.5606 26.1189L21.5766 26.1282L21.5319 26.2944L21.5314 26.2968L21.5308 26.2984C21.4166 26.7207 21.3058 27.1303 21.2239 27.54C21.1656 27.7587 21.13 27.9775 21.0905 28.1962C21.0794 28.2579 21.068 28.3197 21.0557 28.3815L26.3288 31.4294C26.3662 31.1676 26.4223 30.8872 26.4971 30.6067C26.5906 30.1392 26.7027 29.653 26.8338 29.1855Z" fill="#04D2C5"/>
<path d="M26.8338 29.1855C26.9459 28.7742 27.0768 28.3441 27.2077 27.9327L21.9346 24.866C21.8036 25.2774 21.6728 25.7075 21.5606 26.1189L21.5766 26.1282L21.5319 26.2944L21.5314 26.2968L21.5308 26.2984C21.4166 26.7207 21.3058 27.1303 21.2239 27.54C21.1656 27.7587 21.13 27.9775 21.0905 28.1962C21.0794 28.2579 21.068 28.3197 21.0557 28.3815L26.3288 31.4294C26.3662 31.1676 26.4223 30.8872 26.4971 30.6067C26.5906 30.1392 26.7027 29.653 26.8338 29.1855Z" fill="black" fill-opacity="0.08"/>
<path d="M47.1223 11.8141L41.8491 8.74743C42.0735 8.84092 42.2791 8.93442 42.4848 9.0653L42.5205 9.08603L42.5239 9.08735C42.5338 9.09112 42.5454 9.09555 42.5596 9.10269L47.773 12.1346C47.7673 12.1329 47.7622 12.132 47.758 12.132L47.5898 12.0327L47.5562 12.0146C47.4163 11.9402 47.2736 11.8771 47.1223 11.8141Z" fill="#04D2C5"/>
<path d="M47.1223 11.8141L41.8491 8.74743C42.0735 8.84092 42.2791 8.93442 42.4848 9.0653L42.5205 9.08603L42.5239 9.08735C42.5338 9.09112 42.5454 9.09555 42.5596 9.10269L47.773 12.1346C47.7673 12.1329 47.7622 12.132 47.758 12.132L47.5898 12.0327L47.5562 12.0146C47.4163 11.9402 47.2736 11.8771 47.1223 11.8141Z" fill="black" fill-opacity="0.08"/>
<path d="M47.773 12.1346L47.8328 12.1693C47.8183 12.1549 47.7925 12.1404 47.773 12.1346Z" fill="#04D2C5"/>
<path d="M47.773 12.1346L47.8328 12.1693C47.8183 12.1549 47.7925 12.1404 47.773 12.1346Z" fill="black" fill-opacity="0.08"/>
<path d="M32.9859 23.6132C31.9013 25.3709 31.1159 27.1847 30.6859 28.9237L26.329 31.4294C26.8713 28.3253 28.1428 24.9595 30.1623 21.7433C32.481 18.0035 35.5476 14.9181 38.7078 13.0856C39.9793 12.3563 41.2509 11.8328 42.4663 11.5523C46.8232 10.5799 50.1329 12.7116 51.1427 17.1246L46.7858 19.6303C45.8882 17.2929 43.85 16.2083 41.2322 16.7693C40.4094 16.975 39.5492 17.3116 38.7078 17.7978C36.5761 19.0506 34.5379 21.1262 32.9859 23.6132Z" fill="white"/>
<defs>
<linearGradient id="paint0_linear" x1="36" y1="70.9714" x2="-8.22528e-07" y2="70.9714" gradientUnits="userSpaceOnUse">
<stop stop-color="white"/>
<stop offset="1" stop-color="white" stop-opacity="0"/>
</linearGradient>
</defs>
</svg>
