<svg xmlns="http://www.w3.org/2000/svg" xmlns:xlink="http://www.w3.org/1999/xlink" version="1.1" x="0px" y="0px"
     viewBox="0 0 100 100" style="enable-background:new 0 0 100 100;" xml:space="preserve"><path d="M51.8,68.8c0.6-0.4,1-1,1-1.8s-0.4-1.5-1-1.8V68.8z"/>
    <path d="M48.6,60.6c0,0.7,0.4,1.4,1,1.8v-3.5C49,59.2,48.6,59.9,48.6,60.6z" />
    <path d="M50.7,48.4c-8.5,0-15.4,6.9-15.4,15.4c0,8.5,6.9,15.4,15.4,15.4c8.5,0,15.4-6.9,15.4-15.4  C66.1,55.3,59.2,48.4,50.7,48.4z M55.3,60.1c-0.4,0.4-1.1,0.4-1.5,0c-0.3-0.3-1.1-1-1.9-1.3v4.1C53.6,63.3,55,65,55,67  c0,2-1.4,3.7-3.2,4.2v0.6c0,0.6-0.5,1.1-1.1,1.1c-0.6,0-1.1-0.5-1.1-1.1v-0.7c-1.9-0.6-3.4-2.3-3.6-2.5c-0.4-0.5-0.3-1.1,0.1-1.5  c0.5-0.4,1.1-0.3,1.5,0.1c0.3,0.3,1.1,1.1,1.9,1.5v-4c-1.8-0.5-3.2-2.2-3.2-4.1c0-2,1.3-3.6,3.2-4.1v-0.7c0-0.6,0.5-1.1,1.1-1.1  c0.6,0,1.1,0.5,1.1,1.1v0.6c1.9,0.4,3.3,1.9,3.5,2.1C55.7,59,55.7,59.7,55.3,60.1z" />
    <polygon points="52,31.6 47.8,34.9 47,38.5 52.6,34.3 " />
    <path d="M52.9,35.6l-5.2,3.9l2.6,2.5c0,0,0.1,0,0.1,0c0,0,0.1,0,0.1-0.1l3-3.2c0,0,0.1-0.1,0-0.2L52.9,35.6z" />
    <path d="M49.3,28.1l-1.1,4.8l3.5-2.7l-0.5-2.1l1.5-1.8c0-0.1,0.1-0.1,0-0.2l-0.9-2.3c0-0.1-0.1-0.1-0.2-0.1h-2.8  c-0.1,0-0.1,0-0.2,0.1l-0.9,2.3c0,0.1,0,0.2,0,0.2L49.3,28.1z" />
    <path d="M50.3,1.3c-5.6,0-10.1,4.5-10.1,10.1s4.5,10.1,10.1,10.1S60.4,17,60.4,11.4S55.9,1.3,50.3,1.3z M57.9,11.4  c0,4.2-3.4,7.6-7.6,7.6s-7.6-3.4-7.6-7.6c0-0.6,0.1-1.3,0.2-1.9c0.9,0.4,2.5,1.1,4.4,1.1c1.3,0,2.8-0.3,4.1-1.3  c0.1-0.1,3.5-2.5,6.2-0.1C57.8,9.9,57.9,10.7,57.9,11.4z" />
    <path d="M66.6,34.4l0.1-2.6c0-4.5-3.6-8.1-8.1-8.1h-0.2l-3.9,17.5C59.2,40.3,63.4,37.8,66.6,34.4z M63.2,31.6h-3.7v-1.2h3.7V31.6z" />
    <path d="M46.1,41.4l-4.3-17.7h-0.3c-4.5,0-8.1,3.6-8.1,8.1l0.1,3C36.8,38.2,41.2,40.6,46.1,41.4z" />
    <polygon points="84.2,88.5 80,91.7 79.1,95.4 84.8,91.1 " />
    <path d="M85.1,92.5l-5.2,3.9l2.6,2.5c0,0,0.1,0,0.1,0c0,0,0.1,0,0.1-0.1l3-3.2c0,0,0.1-0.1,0-0.2L85.1,92.5z" />
    <path d="M81.5,85l-1.1,4.8l3.5-2.7L83.4,85l1.5-1.8c0-0.1,0.1-0.1,0-0.2L84,80.6c0-0.1-0.1-0.1-0.2-0.1H81  c-0.1,0-0.1,0-0.2,0.1L80,83c0,0.1,0,0.2,0,0.2L81.5,85z" />
    <path d="M82.4,58.2c-5.6,0-10.1,4.5-10.1,10.1s4.5,10.1,10.1,10.1s10.1-4.5,10.1-10.1S88,58.2,82.4,58.2z M90.1,68.3  c0,4.2-3.4,7.6-7.6,7.6c-4.2,0-7.6-3.4-7.6-7.6c0-0.6,0.1-1.3,0.2-1.9c0.9,0.4,2.5,1.1,4.4,1.1c1.3,0,2.8-0.3,4.1-1.3  c0.1-0.1,3.5-2.5,6.2-0.1C89.9,66.8,90.1,67.5,90.1,68.3z" />
    <path d="M98.8,91.3l0.1-2.6c0-4.5-3.6-8.1-8.1-8.1h-0.2l-3.9,17.5C91.3,97.1,95.6,94.7,98.8,91.3z M95.3,88.5h-3.7v-1.2h3.7V88.5z" />
    <path d="M78.2,98.2l-4.3-17.7h-0.3c-4.5,0-8.1,3.6-8.1,8.1l0.1,3C68.9,95,73.3,97.4,78.2,98.2z" />
    <polygon points="19.9,88.5 15.7,91.7 14.9,95.4 20.5,91.1 " />
    <path d="M20.8,92.5l-5.2,3.9l2.6,2.5c0,0,0.1,0,0.1,0c0,0,0.1,0,0.1-0.1l3-3.2c0,0,0.1-0.1,0-0.2L20.8,92.5z" />
    <path d="M17.2,85l-1.1,4.8l3.5-2.7L19.2,85l1.5-1.8c0-0.1,0.1-0.1,0-0.2l-0.9-2.3c0-0.1-0.1-0.1-0.2-0.1h-2.8  c-0.1,0-0.1,0-0.2,0.1L15.7,83c0,0.1,0,0.2,0,0.2L17.2,85z" />
    <path d="M18.2,58.2c-5.6,0-10.1,4.5-10.1,10.1s4.5,10.1,10.1,10.1s10.1-4.5,10.1-10.1S23.8,58.2,18.2,58.2z M25.8,68.3  c0,4.2-3.4,7.6-7.6,7.6s-7.6-3.4-7.6-7.6c0-0.6,0.1-1.3,0.2-1.9c0.9,0.4,2.5,1.1,4.4,1.1c1.3,0,2.8-0.3,4.1-1.3  c0.1-0.1,3.5-2.5,6.2-0.1C25.7,66.8,25.8,67.5,25.8,68.3z" />
    <path d="M34.5,91.3l0.1-2.6c0-4.5-3.6-8.1-8.1-8.1h-0.2l-3.9,17.5C27.1,97.1,31.3,94.7,34.5,91.3z M31.1,88.5h-3.7v-1.2h3.7V88.5z" />
    <path d="M14,98.2L9.7,80.5H9.3c-4.5,0-8.1,3.6-8.1,8.1l0.1,3C4.7,95,9.1,97.4,14,98.2z" />
</svg>
