<svg width="72" height="72" viewBox="0 0 72 72" fill="none" xmlns="http://www.w3.org/2000/svg">
<path opacity="0.8" d="M72.0001 41.9261L36.1337 62.7793L0.0255127 41.9261L35.8919 21.0857L72.0001 41.9261Z" fill="white"/>
<path d="M35.9083 27.3769L61.738 41.9126L36.0916 56.4514L10.2619 41.9068L35.9083 27.3769Z" stroke="#777C8A" stroke-opacity="0.12" stroke-width="2"/>
<path opacity="0.6" d="M72 41.9261L71.9746 50.2216L36.1082 71.0747L36.1336 62.7793L72 41.9261Z" fill="white"/>
<path opacity="0.4" d="M36.1336 62.7793L36.1081 71.0747L0 50.2216L0.0254462 41.9261L36.1336 62.7793Z" fill="white"/>
<path opacity="0.4" d="M36.1336 66.8936L36.1081 71.0747L0 50.2216L0.0254462 46.0404L36.1336 66.8936Z" fill="url(#paint0_linear)"/>
<path d="M29.7205 46.1673L24.8263 43.3024L24.809 38.5858L29.7032 41.4507L29.7205 46.1673Z" fill="#04D2C5"/>
<path d="M29.7205 46.1673L24.8263 43.3024L24.809 38.5858L29.7032 41.4507L29.7205 46.1673Z" fill="black" fill-opacity="0.16"/>
<path d="M44.056 30.5153L39.1792 27.6504L39.1839 27.6028C39.1995 27.4469 39.2139 27.3041 39.2139 27.1612C39.2139 26.3402 38.9188 25.7812 38.4502 25.5017L43.3444 28.3666C43.813 28.6461 44.1081 29.2226 44.1081 30.0261C44.1022 30.0797 44.0983 30.1353 44.0943 30.1915C44.0867 30.3003 44.0789 30.4116 44.056 30.5153Z" fill="#04D2C5"/>
<path d="M44.056 30.5153L39.1792 27.6504L39.1839 27.6028C39.1995 27.4469 39.2139 27.3041 39.2139 27.1612C39.2139 26.3402 38.9188 25.7812 38.4502 25.5017L43.3444 28.3666C43.813 28.6461 44.1081 29.2226 44.1081 30.0261C44.1022 30.0797 44.0983 30.1353 44.0943 30.1915C44.0867 30.3003 44.0789 30.4116 44.056 30.5153Z" fill="black" fill-opacity="0.12"/>
<path d="M44.0733 30.5327L39.1792 27.6678C39.1716 27.7137 39.1607 27.7628 39.1493 27.8139C39.1348 27.8796 39.1195 27.9484 39.1097 28.0172C39.0924 28.122 39.075 28.2094 39.0403 28.3142C39.023 28.3579 39.0099 28.4015 38.9969 28.4452C38.9839 28.4889 38.9709 28.5326 38.9535 28.5762C38.9362 28.6199 38.9232 28.6592 38.9101 28.6985C38.8971 28.7378 38.8841 28.7771 38.8668 28.8208L38.8752 28.8257C38.8435 28.9055 38.8117 28.984 38.78 29.0479L43.6742 31.9128C43.6882 31.8845 43.6995 31.8533 43.7113 31.8204C43.7286 31.7721 43.7473 31.7202 43.7783 31.6682L43.7699 31.6633C43.8015 31.5835 43.8319 31.505 43.8477 31.4411C43.8651 31.3974 43.8781 31.3538 43.8911 31.3101C43.9041 31.2664 43.9172 31.2228 43.9345 31.1791C43.9445 31.1188 43.9602 31.0585 43.9751 31.0015C43.986 30.9595 43.9966 30.9192 44.0039 30.8821C44.0137 30.8133 44.029 30.7445 44.0435 30.6788C44.0549 30.6277 44.0658 30.5786 44.0733 30.5327Z" fill="#04D2C5"/>
<path d="M44.0733 30.5327L39.1792 27.6678C39.1716 27.7137 39.1607 27.7628 39.1493 27.8139C39.1348 27.8796 39.1195 27.9484 39.1097 28.0172C39.0924 28.122 39.075 28.2094 39.0403 28.3142C39.023 28.3579 39.0099 28.4015 38.9969 28.4452C38.9839 28.4889 38.9709 28.5326 38.9535 28.5762C38.9362 28.6199 38.9232 28.6592 38.9101 28.6985C38.8971 28.7378 38.8841 28.7771 38.8668 28.8208L38.8752 28.8257C38.8435 28.9055 38.8117 28.984 38.78 29.0479L43.6742 31.9128C43.6882 31.8845 43.6995 31.8533 43.7113 31.8204C43.7286 31.7721 43.7473 31.7202 43.7783 31.6682L43.7699 31.6633C43.8015 31.5835 43.8319 31.505 43.8477 31.4411C43.8651 31.3974 43.8781 31.3538 43.8911 31.3101C43.9041 31.2664 43.9172 31.2228 43.9345 31.1791C43.9445 31.1188 43.9602 31.0585 43.9751 31.0015C43.986 30.9595 43.9966 30.9192 44.0039 30.8821C44.0137 30.8133 44.029 30.7445 44.0435 30.6788C44.0549 30.6277 44.0658 30.5786 44.0733 30.5327Z" fill="black" fill-opacity="0.12"/>
<path d="M38.6759 29.2924C38.6932 29.2575 38.7106 29.2182 38.7279 29.1789C38.7453 29.1396 38.7626 29.1003 38.78 29.0654L43.6742 31.9302C43.6395 32.0001 43.6048 32.07 43.57 32.1573L38.6759 29.2924Z" fill="#04D2C5"/>
<path d="M38.6759 29.2924C38.6932 29.2575 38.7106 29.2182 38.7279 29.1789C38.7453 29.1396 38.7626 29.1003 38.78 29.0654L43.6742 31.9302C43.6395 32.0001 43.6048 32.07 43.57 32.1573L38.6759 29.2924Z" fill="black" fill-opacity="0.12"/>
<path d="M38.6759 29.2924L43.57 32.1573C43.518 32.2272 43.4833 32.2971 43.4486 32.3844C43.4352 32.4114 43.4193 32.4383 43.4027 32.4662C43.3763 32.5107 43.3484 32.5578 43.3271 32.6115C43.275 32.6814 43.2229 32.7513 43.1882 32.8386L43.1805 32.8341C43.131 32.9171 43.0815 32.9993 43.032 33.0657L38.1378 30.2008C38.1899 30.131 38.2419 30.0436 38.294 29.9563L38.3029 29.9615C38.3251 29.9297 38.3443 29.895 38.3634 29.8602C38.3851 29.8209 38.4068 29.7816 38.4329 29.7466C38.4723 29.6937 38.5018 29.6308 38.5288 29.573C38.5375 29.5545 38.5459 29.5365 38.5544 29.5195C38.5627 29.5027 38.5711 29.4849 38.5797 29.4665C38.6068 29.4087 38.6364 29.3454 38.6759 29.2924Z" fill="#04D2C5"/>
<path d="M38.6759 29.2924L43.57 32.1573C43.518 32.2272 43.4833 32.2971 43.4486 32.3844C43.4352 32.4114 43.4193 32.4383 43.4027 32.4662C43.3763 32.5107 43.3484 32.5578 43.3271 32.6115C43.275 32.6814 43.2229 32.7513 43.1882 32.8386L43.1805 32.8341C43.131 32.9171 43.0815 32.9993 43.032 33.0657L38.1378 30.2008C38.1899 30.131 38.2419 30.0436 38.294 29.9563L38.3029 29.9615C38.3251 29.9297 38.3443 29.895 38.3634 29.8602C38.3851 29.8209 38.4068 29.7816 38.4329 29.7466C38.4723 29.6937 38.5018 29.6308 38.5288 29.573C38.5375 29.5545 38.5459 29.5365 38.5544 29.5195C38.5627 29.5027 38.5711 29.4849 38.5797 29.4665C38.6068 29.4087 38.6364 29.3454 38.6759 29.2924Z" fill="black" fill-opacity="0.12"/>
<path d="M42.8411 33.3277C42.8665 33.2959 42.8895 33.264 42.9119 33.2329C42.9508 33.1791 42.9881 33.1274 43.032 33.0832L38.1378 30.2183C38.1031 30.2619 38.0728 30.3012 38.0424 30.3405C38.0149 30.3762 37.9872 30.412 37.9564 30.4509L37.9469 30.4454C37.9017 30.5137 37.8491 30.5746 37.7987 30.6328C37.7718 30.664 37.7455 30.6945 37.7213 30.7249C37.6172 30.8472 37.5131 30.952 37.4089 31.0568L42.3031 33.9217C42.4072 33.8169 42.5114 33.7121 42.6155 33.5898C42.6988 33.506 42.7661 33.4221 42.8327 33.3228L42.8411 33.3277Z" fill="#04D2C5"/>
<path d="M42.8411 33.3277C42.8665 33.2959 42.8895 33.264 42.9119 33.2329C42.9508 33.1791 42.9881 33.1274 43.032 33.0832L38.1378 30.2183C38.1031 30.2619 38.0728 30.3012 38.0424 30.3405C38.0149 30.3762 37.9872 30.412 37.9564 30.4509L37.9469 30.4454C37.9017 30.5137 37.8491 30.5746 37.7987 30.6328C37.7718 30.664 37.7455 30.6945 37.7213 30.7249C37.6172 30.8472 37.5131 30.952 37.4089 31.0568L42.3031 33.9217C42.4072 33.8169 42.5114 33.7121 42.6155 33.5898C42.6988 33.506 42.7661 33.4221 42.8327 33.3228L42.8411 33.3277Z" fill="black" fill-opacity="0.12"/>
<path d="M37.4089 31.0743C37.1139 31.3538 36.7841 31.6158 36.4544 31.808L24.809 38.5859L29.7032 41.4508L41.3486 34.6729C41.6957 34.4807 42.0081 34.2187 42.3031 33.9392L37.4089 31.0743Z" fill="#04D2C5"/>
<path d="M37.4089 31.0743C37.1139 31.3538 36.7841 31.6158 36.4544 31.808L24.809 38.5859L29.7032 41.4508L41.3486 34.6729C41.6957 34.4807 42.0081 34.2187 42.3031 33.9392L37.4089 31.0743Z" fill="black" fill-opacity="0.12"/>
<path d="M39.4743 19.9816C39.3054 19.9827 39.1214 20.0002 38.9536 20.034C38.7453 20.0689 38.5197 20.1213 38.3114 20.1737C38.0337 20.2436 37.756 20.3484 37.461 20.4707L42.3552 23.3356C42.6329 23.2133 42.9279 23.1085 43.2056 23.0386C43.4139 22.9862 43.6221 22.9338 43.8478 22.8989L43.8454 22.8975C43.9354 22.8892 44.0218 22.8809 44.1081 22.8727C44.1992 22.8639 44.2903 22.8552 44.3858 22.8465H44.837C44.9932 22.8639 45.1321 22.8814 45.2709 22.9163L40.3767 20.0514C40.2853 20.0284 40.1864 20.0206 40.0898 20.0129C40.0526 20.01 40.0158 20.007 39.9799 20.0033L39.9428 19.9816H39.4916L39.4743 19.9816Z" fill="#04D2C5"/>
<path d="M39.4743 19.9816C39.3054 19.9827 39.1214 20.0002 38.9536 20.034C38.7453 20.0689 38.5197 20.1213 38.3114 20.1737C38.0337 20.2436 37.756 20.3484 37.461 20.4707L42.3552 23.3356C42.6329 23.2133 42.9279 23.1085 43.2056 23.0386C43.4139 22.9862 43.6221 22.9338 43.8478 22.8989L43.8454 22.8975C43.9354 22.8892 44.0218 22.8809 44.1081 22.8727C44.1992 22.8639 44.2903 22.8552 44.3858 22.8465H44.837C44.9932 22.8639 45.1321 22.8814 45.2709 22.9163L40.3767 20.0514C40.2853 20.0284 40.1864 20.0206 40.0898 20.0129C40.0526 20.01 40.0158 20.007 39.9799 20.0033L39.9428 19.9816H39.4916L39.4743 19.9816Z" fill="black" fill-opacity="0.12"/>
<path d="M36.437 20.9948C36.7841 20.7851 37.1313 20.6279 37.461 20.4882L42.3552 23.3531C42.0081 23.4753 41.6783 23.65 41.3312 23.8422L35.0486 27.4932L30.1544 24.6283L36.437 20.9948Z" fill="#04D2C5"/>
<path d="M36.437 20.9948C36.7841 20.7851 37.1313 20.6279 37.461 20.4882L42.3552 23.3531C42.0081 23.4753 41.6783 23.65 41.3312 23.8422L35.0486 27.4932L30.1544 24.6283L36.437 20.9948Z" fill="black" fill-opacity="0.12"/>
<path d="M34.6322 27.6927L34.6495 27.7028C34.6847 27.6851 34.7189 27.6684 34.7525 27.6521C34.8511 27.6041 34.9451 27.5583 35.0486 27.4932L30.1544 24.6283C30.0216 24.7118 29.9047 24.7794 29.7733 24.831L29.7553 24.8204C29.6716 24.8626 29.5766 24.8934 29.4885 24.922C29.467 24.929 29.4459 24.9359 29.4255 24.9427L34.3197 27.8076C34.4189 27.7744 34.518 27.7411 34.6322 27.6927Z" fill="#04D2C5"/>
<path d="M34.6322 27.6927L34.6495 27.7028C34.6847 27.6851 34.7189 27.6684 34.7525 27.6521C34.8511 27.6041 34.9451 27.5583 35.0486 27.4932L30.1544 24.6283C30.0216 24.7118 29.9047 24.7794 29.7733 24.831L29.7553 24.8204C29.6716 24.8626 29.5766 24.8934 29.4885 24.922C29.467 24.929 29.4459 24.9359 29.4255 24.9427L34.3197 27.8076C34.4189 27.7744 34.518 27.7411 34.6322 27.6927Z" fill="black" fill-opacity="0.12"/>
<path d="M40.3767 20.034L45.2709 22.8989C45.3403 22.9163 45.4054 22.9294 45.4705 22.9425C45.5356 22.9556 45.6006 22.9687 45.6701 22.9862C45.7308 23.0124 45.7915 23.0343 45.8523 23.0561C45.913 23.0779 45.9738 23.0998 46.0345 23.126L41.1403 20.2611C41.0796 20.2436 41.0188 20.2218 40.9581 20.1999C40.9185 20.1857 40.8788 20.1714 40.8392 20.1584L40.7759 20.1213C40.7524 20.1154 40.7294 20.1095 40.7068 20.1037C40.5955 20.0751 40.4921 20.0485 40.3767 20.034Z" fill="#04D2C5"/>
<path d="M40.3767 20.034L45.2709 22.8989C45.3403 22.9163 45.4054 22.9294 45.4705 22.9425C45.5356 22.9556 45.6006 22.9687 45.6701 22.9862C45.7308 23.0124 45.7915 23.0343 45.8523 23.0561C45.913 23.0779 45.9738 23.0998 46.0345 23.126L41.1403 20.2611C41.0796 20.2436 41.0188 20.2218 40.9581 20.1999C40.9185 20.1857 40.8788 20.1714 40.8392 20.1584L40.7759 20.1213C40.7524 20.1154 40.7294 20.1095 40.7068 20.1037C40.5955 20.0751 40.4921 20.0485 40.3767 20.034Z" fill="black" fill-opacity="0.12"/>
<path d="M28.2931 24.9166L28.1586 24.8379H28.1759L29.3374 25.5202L33.2085 27.7724L28.3148 24.9078C28.3408 24.9165 28.3625 24.9253 28.3842 24.934C28.4059 24.9427 28.4276 24.9515 28.4536 24.9602C28.5057 24.9777 28.5577 24.9951 28.6098 24.9951C28.6619 25.0126 28.7139 25.0126 28.7834 25.0126L28.8132 25.0301H28.9576C28.9921 25.03 29.0266 25.0257 29.0611 25.0213C29.0958 25.017 29.1305 25.0126 29.1652 25.0126L34.0594 27.8775H33.8511L31.8006 26.6845L33.8685 27.895C33.799 27.895 33.7296 27.895 33.6775 27.8775C33.6081 27.8775 33.5561 27.8775 33.504 27.86C33.4519 27.86 33.3999 27.8426 33.3478 27.8251C33.3218 27.8164 33.3001 27.8076 33.2784 27.7989C33.2567 27.7902 33.2346 27.7812 33.2085 27.7724C33.1565 27.755 33.1222 27.7377 33.0701 27.7028L31.2662 26.6533L33.0528 27.7028L30.2236 26.0467L28.1759 24.8554C28.202 24.8641 28.2237 24.8772 28.2453 24.8903C28.2607 24.8996 28.2761 24.9089 28.2931 24.9166Z" fill="#04D2C5"/>
<path d="M28.2931 24.9166L28.1586 24.8379H28.1759L29.3374 25.5202L33.2085 27.7724L28.3148 24.9078C28.3408 24.9165 28.3625 24.9253 28.3842 24.934C28.4059 24.9427 28.4276 24.9515 28.4536 24.9602C28.5057 24.9777 28.5577 24.9951 28.6098 24.9951C28.6619 25.0126 28.7139 25.0126 28.7834 25.0126L28.8132 25.0301H28.9576C28.9921 25.03 29.0266 25.0257 29.0611 25.0213C29.0958 25.017 29.1305 25.0126 29.1652 25.0126L34.0594 27.8775H33.8511L31.8006 26.6845L33.8685 27.895C33.799 27.895 33.7296 27.895 33.6775 27.8775C33.6081 27.8775 33.5561 27.8775 33.504 27.86C33.4519 27.86 33.3999 27.8426 33.3478 27.8251C33.3218 27.8164 33.3001 27.8076 33.2784 27.7989C33.2567 27.7902 33.2346 27.7812 33.2085 27.7724C33.1565 27.755 33.1222 27.7377 33.0701 27.7028L31.2662 26.6533L33.0528 27.7028L30.2236 26.0467L28.1759 24.8554C28.202 24.8641 28.2237 24.8772 28.2453 24.8903C28.2607 24.8996 28.2761 24.9089 28.2931 24.9166Z" fill="black" fill-opacity="0.12"/>
<path d="M29.1652 24.9951L34.0594 27.86C34.1462 27.86 34.2329 27.8426 34.3024 27.8076L29.4082 24.9427C29.3387 24.9602 29.252 24.9777 29.1652 24.9951Z" fill="#04D2C5"/>
<path d="M29.1652 24.9951L34.0594 27.86C34.1462 27.86 34.2329 27.8426 34.3024 27.8076L29.4082 24.9427C29.3387 24.9602 29.252 24.9777 29.1652 24.9951Z" fill="black" fill-opacity="0.12"/>
<path d="M40.2898 13.6054L35.3956 10.7405L41.7824 7.03711L46.6766 9.902L40.2898 13.6054Z" fill="#04D2C5"/>
<path d="M40.2898 13.6054L35.3956 10.7405L41.7824 7.03711L46.6766 9.902L40.2898 13.6054Z" fill="black" fill-opacity="0.12"/>
<path d="M36.0204 13.5355L31.1262 10.6706L35.3956 8.19006L40.2725 11.055L36.0204 13.5355Z" fill="#04D2C5"/>
<path d="M36.0204 13.5355L31.1262 10.6706L35.3956 8.19006L40.2725 11.055L36.0204 13.5355Z" fill="black" fill-opacity="0.08"/>
<path d="M36.0378 16.086L31.1436 13.2211L31.1262 10.6707L36.0204 13.5355L36.0378 16.086Z" fill="#04D2C5"/>
<path d="M36.0378 16.086L31.1436 13.2211L31.1262 10.6707L36.0204 13.5355L36.0378 16.086Z" fill="black" fill-opacity="0.16"/>
<path d="M30.1376 13.8153L35.0139 16.6624L36.0378 16.086L31.1436 13.2211L30.137 13.815C29.2866 14.3041 28.4709 14.9505 27.7073 15.7016C27.4332 15.9775 27.176 16.2534 26.9191 16.5461L26.9089 16.5401C26.721 16.7451 26.5612 16.9501 26.3915 17.1679L26.3362 17.2389L26.3483 17.246C26.2719 17.3486 26.1956 17.4554 26.1193 17.5621C26.0424 17.6695 25.9656 17.7769 25.8887 17.8802L25.8676 17.8678C25.7982 17.9726 25.7331 18.073 25.6681 18.1734C25.603 18.2739 25.5379 18.3744 25.4684 18.4792L25.4811 18.4866C25.4219 18.5804 25.3628 18.6783 25.3036 18.7761C25.2428 18.8766 25.1821 18.9771 25.1213 19.0731C24.9998 19.2653 24.8957 19.4574 24.7916 19.6496L29.6858 22.5145C29.7899 22.3223 29.894 22.1302 30.0155 21.938C30.1197 21.7459 30.2411 21.5362 30.38 21.3441L30.3678 21.3369C30.452 21.2198 30.5299 21.0963 30.6093 20.9704C30.6563 20.8959 30.7038 20.8206 30.7535 20.7453L30.7618 20.7501C30.918 20.523 31.0742 20.3134 31.2478 20.1038L31.2358 20.0968C31.4249 19.8549 31.614 19.63 31.8031 19.4051C32.0634 19.1081 32.3238 18.8286 32.6015 18.5665C33.3477 17.8154 34.1634 17.169 35.0312 16.6799L30.1376 13.8153Z" fill="#04D2C5"/>
<path d="M30.1376 13.8153L35.0139 16.6624L36.0378 16.086L31.1436 13.2211L30.137 13.815C29.2866 14.3041 28.4709 14.9505 27.7073 15.7016C27.4332 15.9775 27.176 16.2534 26.9191 16.5461L26.9089 16.5401C26.721 16.7451 26.5612 16.9501 26.3915 17.1679L26.3362 17.2389L26.3483 17.246C26.2719 17.3486 26.1956 17.4554 26.1193 17.5621C26.0424 17.6695 25.9656 17.7769 25.8887 17.8802L25.8676 17.8678C25.7982 17.9726 25.7331 18.073 25.6681 18.1734C25.603 18.2739 25.5379 18.3744 25.4684 18.4792L25.4811 18.4866C25.4219 18.5804 25.3628 18.6783 25.3036 18.7761C25.2428 18.8766 25.1821 18.9771 25.1213 19.0731C24.9998 19.2653 24.8957 19.4574 24.7916 19.6496L29.6858 22.5145C29.7899 22.3223 29.894 22.1302 30.0155 21.938C30.1197 21.7459 30.2411 21.5362 30.38 21.3441L30.3678 21.3369C30.452 21.2198 30.5299 21.0963 30.6093 20.9704C30.6563 20.8959 30.7038 20.8206 30.7535 20.7453L30.7618 20.7501C30.918 20.523 31.0742 20.3134 31.2478 20.1038L31.2358 20.0968C31.4249 19.8549 31.614 19.63 31.8031 19.4051C32.0634 19.1081 32.3238 18.8286 32.6015 18.5665C33.3477 17.8154 34.1634 17.169 35.0312 16.6799L30.1376 13.8153Z" fill="black" fill-opacity="0.12"/>
<path d="M23.1428 25.6589C23.1428 27.7202 23.8891 29.1876 25.0866 29.8864L29.9731 32.7467C28.7801 32.0462 28.037 30.5807 28.037 28.5238C28.037 28.1045 28.0717 27.6853 28.1238 27.2486C28.1585 26.9516 28.2106 26.6372 28.28 26.3402L28.2937 26.2754C28.3415 26.0498 28.3917 25.8121 28.4709 25.589L28.4562 25.5804L28.6618 24.9077C28.7312 24.6981 28.8006 24.4885 28.8874 24.2789L23.9932 21.414C23.9064 21.6236 23.837 21.8332 23.7676 22.0428C23.7098 22.1942 23.6673 22.3456 23.6249 22.497C23.6037 22.5727 23.5825 22.6484 23.5593 22.7241L23.5742 22.7328C23.5056 22.9749 23.4372 23.2336 23.3858 23.4753C23.3164 23.7723 23.2643 24.0867 23.2296 24.3837C23.1775 24.8204 23.1428 25.2396 23.1428 25.6589Z" fill="#04D2C5"/>
<path d="M23.1428 25.6589C23.1428 27.7202 23.8891 29.1876 25.0866 29.8864L29.9731 32.7467C28.7801 32.0462 28.037 30.5807 28.037 28.5238C28.037 28.1045 28.0717 27.6853 28.1238 27.2486C28.1585 26.9516 28.2106 26.6372 28.28 26.3402L28.2937 26.2754C28.3415 26.0498 28.3917 25.8121 28.4709 25.589L28.4562 25.5804L28.6618 24.9077C28.7312 24.6981 28.8006 24.4885 28.8874 24.2789L23.9932 21.414C23.9064 21.6236 23.837 21.8332 23.7676 22.0428C23.7098 22.1942 23.6673 22.3456 23.6249 22.497C23.6037 22.5727 23.5825 22.6484 23.5593 22.7241L23.5742 22.7328C23.5056 22.9749 23.4372 23.2336 23.3858 23.4753C23.3164 23.7723 23.2643 24.0867 23.2296 24.3837C23.1775 24.8204 23.1428 25.2396 23.1428 25.6589Z" fill="black" fill-opacity="0.12"/>
<path d="M29.1304 23.6849C29.0436 23.8771 28.9568 24.0867 28.8874 24.2789L23.9932 21.414C24.0626 21.2043 24.1494 21.0122 24.2362 20.82C24.323 20.6279 24.4098 20.4357 24.4965 20.2261L24.5028 20.2297C24.5883 20.0422 24.6899 19.8546 24.7916 19.6671L29.6858 22.532C29.6231 22.637 29.5668 22.7484 29.5092 22.8623C29.471 22.9378 29.4322 23.0144 29.3907 23.091C29.3473 23.187 29.304 23.2875 29.2606 23.3879C29.2172 23.4884 29.1738 23.5888 29.1304 23.6849Z" fill="#04D2C5"/>
<path d="M29.1304 23.6849C29.0436 23.8771 28.9568 24.0867 28.8874 24.2789L23.9932 21.414C24.0626 21.2043 24.1494 21.0122 24.2362 20.82C24.323 20.6279 24.4098 20.4357 24.4965 20.2261L24.5028 20.2297C24.5883 20.0422 24.6899 19.8546 24.7916 19.6671L29.6858 22.532C29.6231 22.637 29.5668 22.7484 29.5092 22.8623C29.471 22.9378 29.4322 23.0144 29.3907 23.091C29.3473 23.187 29.304 23.2875 29.2606 23.3879C29.2172 23.4884 29.1738 23.5888 29.1304 23.6849Z" fill="black" fill-opacity="0.12"/>
<path d="M40.2725 11.0549V13.6054L46.6593 9.90198L46.6767 14.6186L35.0312 21.3965C33.504 22.2874 32.2891 24.3662 32.2891 26.0432C32.2891 27.7202 33.5213 28.384 35.0486 27.4931L41.3139 23.8421C45.1841 21.5886 48.3254 23.2482 48.3428 27.5455C48.3601 31.8429 45.2188 37.1359 41.3486 39.3894L40.342 39.9659V42.5163L36.0899 44.9969V42.4464L29.7205 46.1673L29.7032 41.4507L41.3486 34.6728C42.8758 33.7819 44.0907 31.7031 44.0907 30.0261C44.0907 28.3491 42.8585 27.6853 41.3312 28.5762L35.066 32.2272C31.1957 34.4632 28.0544 32.8036 28.0371 28.5238C28.0197 24.2264 31.161 18.9334 35.0312 16.6799L36.0379 16.086V13.5355L40.2725 11.0549Z" fill="white"/>
<defs>
<linearGradient id="paint0_linear" x1="36" y1="70.9714" x2="-8.22528e-07" y2="70.9714" gradientUnits="userSpaceOnUse">
<stop stop-color="white"/>
<stop offset="1" stop-color="white" stop-opacity="0"/>
</linearGradient>
</defs>
</svg>
