<svg width="72" height="72" viewBox="0 0 72 72" fill="none" xmlns="http://www.w3.org/2000/svg">
<path opacity="0.8" d="M71.9999 41.9261L36.1335 62.7793L0.0253906 41.9261L35.8918 21.0857L71.9999 41.9261Z" fill="white"/>
<path d="M35.9083 27.3769L61.738 41.9126L36.0916 56.4514L10.2619 41.9068L35.9083 27.3769Z" stroke="#777C8A" stroke-opacity="0.12" stroke-width="2"/>
<path opacity="0.6" d="M72.0001 41.9261L71.9747 50.2216L36.1083 71.0747L36.1337 62.7793L72.0001 41.9261Z" fill="white"/>
<path opacity="0.4" d="M36.1336 62.7793L36.1081 71.0747L0 50.2216L0.0254462 41.9261L36.1336 62.7793Z" fill="white"/>
<path opacity="0.4" d="M36.1336 66.8936L36.1081 71.0747L0 50.2216L0.0254462 46.0404L36.1336 66.8936Z" fill="url(#paint0_linear)"/>
<path d="M29.1617 45.7852L23.6438 42.5762L16.9714 34.0841L22.4893 37.2931L29.1617 45.7852Z" fill="#04D2C5"/>
<path d="M29.1617 45.7852L23.6438 42.5762L16.9714 34.0841L22.4893 37.2931L29.1617 45.7852Z" fill="black" fill-opacity="0.16"/>
<path d="M34.2883 18.1566L27.6747 34.2994L34.347 42.772L29.1617 45.7853L22.4894 37.2932L29.0835 21.1699L34.2883 18.1566Z" fill="white"/>
<path d="M22.4894 37.2932L16.9714 34.0842L23.5655 17.9609L29.0835 21.1699L22.4894 37.2932Z" fill="#04D2C5"/>
<path d="M22.4894 37.2932L16.9714 34.0842L23.5655 17.9609L29.0835 21.1699L22.4894 37.2932Z" fill="black" fill-opacity="0.12"/>
<path d="M29.0835 21.17L23.5656 17.961L28.7704 14.9476L34.2883 18.1566L29.0835 21.17Z" fill="#04D2C5"/>
<path d="M29.0835 21.17L23.5656 17.961L28.7704 14.9476L34.2883 18.1566L29.0835 21.17Z" fill="black" fill-opacity="0.08"/>
<path d="M40.5853 39.5609L35.0674 36.3519L41.6615 20.2286L47.1794 23.4181L40.5853 39.5609Z" fill="#04D2C5"/>
<path d="M40.5853 39.5609L35.0674 36.3519L41.6615 20.2286L47.1794 23.4181L40.5853 39.5609Z" fill="black" fill-opacity="0.12"/>
<path d="M45.6924 11.9518L52.3647 20.4243L45.7706 36.5672L40.5853 39.5609L47.1794 23.4181L40.5071 14.9455L45.6924 11.9518Z" fill="white"/>
<path d="M47.1793 23.4181L41.6614 20.2287L34.989 11.7366L40.5069 14.9456L47.1793 23.4181Z" fill="#04D2C5"/>
<path d="M47.1793 23.4181L41.6614 20.2287L34.989 11.7366L40.5069 14.9456L47.1793 23.4181Z" fill="black" fill-opacity="0.16"/>
<path d="M40.5069 14.9456L34.989 11.7366L40.1743 8.7428L45.6922 11.9518L40.5069 14.9456Z" fill="#04D2C5"/>
<path d="M40.5069 14.9456L34.989 11.7366L40.1743 8.7428L45.6922 11.9518L40.5069 14.9456Z" fill="black" fill-opacity="0.08"/>
<defs>
<linearGradient id="paint0_linear" x1="36" y1="70.9714" x2="-8.22528e-07" y2="70.9714" gradientUnits="userSpaceOnUse">
<stop stop-color="white"/>
<stop offset="1" stop-color="white" stop-opacity="0"/>
</linearGradient>
</defs>
</svg>
