<svg xmlns="http://www.w3.org/2000/svg" xmlns:xlink="http://www.w3.org/1999/xlink" version="1.1" x="0px" y="0px"
     viewBox="0 0 65 65" enable-background="new 0 0 65 65" xml:space="preserve"><g><polygon points="38.4,46 41.4,48.9 38.4,51.8 39.4,52.9 43.6,48.9 39.4,44.9  "/><polygon
        points="28.1,44.9 23.9,48.9 28.1,52.9 29.2,51.8 26.1,48.9 29.2,46  " /><rect x="33" y="41.3"
                                                                                     transform="matrix(-0.8964 -0.4433 0.4433 -0.8964 42.355 107.7489)"
                                                                                     width="1.5" height="15.2" /><path
        d="M65.3,40.8l0-0.8c-0.2-5.2-0.8-10.6-0.8-10.6l0,0c0-1.3-0.4-2.7-1.2-4.1c-0.8-1.4-2.1-2.5-3.7-3.1l-5.8-2.1L48.5,30h-1.9   l-5.3-9.8l-5.8,2.1c-1.2,0.4-2.2,1.2-3,2.1c-0.8-0.9-1.8-1.7-3-2.1l-5.8-2.1L18.4,30h-1.9l-5.2-9.8l-5.8,2.1   c-1.6,0.6-2.9,1.7-3.7,3.1c-0.8,1.4-1.2,2.8-1.2,4c0,0.1-0.6,5.4-0.8,10.7l0,0.8h22.6c-1.6,2.3-2.6,5.1-2.6,8.1   C19.7,56.7,26,63,33.8,63c7.8,0,14.1-6.3,14.1-14.1c0-3-1-5.8-2.6-8.1H65.3z M36,23.7l4.6-1.6l5.1,9.4h3.7l5.1-9.4l4.6,1.6   c1.3,0.5,2.3,1.3,2.9,2.4c0.7,1.2,1,2.3,1,3.5c0,0.1,0.5,4.9,0.8,9.8H44c-2.3-2.5-5.5-4.1-9.1-4.4c-0.2-3.1-0.5-5.4-0.5-5.4   c0,0,0,0,0,0c0-0.3,0-0.6-0.1-1c0-0.1-0.1-0.3-0.1-0.4c0-0.2-0.1-0.4-0.1-0.6c0-0.2-0.1-0.3-0.2-0.5c-0.1-0.2-0.1-0.3-0.2-0.5   c-0.1-0.2-0.1-0.3-0.2-0.5c-0.1-0.1-0.1-0.3-0.2-0.4C34,24.8,34.9,24.1,36,23.7z M1.3,39.3c0.2-4.9,0.8-9.7,0.8-9.9   c0-1.1,0.3-2.2,1-3.4C3.7,25,4.7,24.1,6,23.7l4.6-1.6l5.1,9.4h3.7l5.1-9.4l4.6,1.6c1.2,0.5,2.3,1.3,2.9,2.3l0,0.1   c0.7,1.2,1,2.3,1,3.5c0,0,0.3,2.3,0.5,5.3c-3.9,0.1-7.4,1.8-9.9,4.5H1.3z M33.8,61.5c-6.9,0-12.6-5.6-12.6-12.6s5.6-12.6,12.6-12.6   c6.9,0,12.6,5.6,12.6,12.6S40.7,61.5,33.8,61.5z" /><path
        d="M47.5,18.4c4.5,0,8.2-3.7,8.2-8.2C55.7,5.7,52,2,47.5,2c-4.5,0-8.2,3.7-8.2,8.2C39.3,14.7,43,18.4,47.5,18.4z M47.5,3.5   c3.7,0,6.7,3,6.7,6.7c0,3.7-3,6.7-6.7,6.7c-3.7,0-6.7-3-6.7-6.7C40.8,6.5,43.8,3.5,47.5,3.5z" /><path
        d="M17.5,18.4c4.5,0,8.2-3.7,8.2-8.2C25.7,5.7,22,2,17.5,2s-8.2,3.7-8.2,8.2C9.3,14.7,13,18.4,17.5,18.4z M17.5,3.5   c3.7,0,6.7,3,6.7,6.7c0,3.7-3,6.7-6.7,6.7s-6.7-3-6.7-6.7C10.8,6.5,13.8,3.5,17.5,3.5z" /></g>
</svg>
