<svg xmlns:dc="http://purl.org/dc/elements/1.1/" xmlns:cc="http://creativecommons.org/ns#"
     xmlns:rdf="http://www.w3.org/1999/02/22-rdf-syntax-ns#" xmlns:svg="http://www.w3.org/2000/svg"
     xmlns="http://www.w3.org/2000/svg" xmlns:sodipodi="http://sodipodi.sourceforge.net/DTD/sodipodi-0.dtd"
     xmlns:inkscape="http://www.inkscape.org/namespaces/inkscape" viewBox="0 0 17 17" version="1.1"
     x="0px" y="0px">
    <g transform="translate(0,-280.06665)">
        <path style="color:#000000;font-style:normal;font-variant:normal;font-weight:normal;font-stretch:normal;font-size:medium;line-height:normal;font-family:sans-serif;font-variant-ligatures:normal;font-variant-position:normal;font-variant-caps:normal;font-variant-numeric:normal;font-variant-alternates:normal;font-feature-settings:normal;text-indent:0;text-align:start;text-decoration:none;text-decoration-line:none;text-decoration-style:solid;text-decoration-color:#000000;letter-spacing:normal;word-spacing:normal;text-transform:none;writing-mode:lr-tb;direction:ltr;text-orientation:mixed;dominant-baseline:auto;baseline-shift:baseline;text-anchor:start;white-space:normal;shape-padding:0;clip-rule:nonzero;display:inline;overflow:visible;visibility:visible;opacity:1;isolation:auto;mix-blend-mode:normal;color-interpolation:sRGB;color-interpolation-filters:linearRGB;solid-color:#000000;solid-opacity:1;vector-effect:none;fill:#000000;fill-opacity:1;fill-rule:nonzero;stroke:none;stroke-width:0.5291667;stroke-linecap:butt;stroke-linejoin:round;stroke-miterlimit:4;stroke-dasharray:none;stroke-dashoffset:0;stroke-opacity:1;color-rendering:auto;image-rendering:auto;shape-rendering:auto;text-rendering:auto;enable-background:accumulate"
              d="m 5.8213595,280.59632 c -1.1680601,0 -2.1171801,0.94913 -2.1171801,2.11719 v 0.99366 c -0.1609201,0.14573 -0.2645801,0.36096 -0.2645801,0.5928 0,0.48331 0.3887002,0.80271 0.8118401,0.79272 0.0572,0.39761 0.24281,0.75558 0.51108,1.02991 v 1.08779 c -0.93398,0 -1.7384601,0.53894 -2.12804,1.32292 h -0.5178 c -0.43516,0 -0.79375,0.35859 -0.79375,0.79375 v 1.05833 c -0.005,0.3578 0.53423,0.3578 0.52917,0 v -1.05833 c 0,-0.15116 0.11342,-0.26459 0.26458,-0.26459 h 7.9374996 c 0.15116,0 0.26458,0.11343 0.26458,0.26459 v 4.4974 H 1.8520994 v -1.05782 c 0.002,-0.14916 -0.11956,-0.27053 -0.26872,-0.2682 -0.14592,0.002 -0.26245,0.12228 -0.26045,0.2682 v 1.5875 c 0,0.19326 0.0562,0.37274 0.14779,0.52917 H 0.79375937 c -0.14612,-5.3e-4 -0.26503,0.11743 -0.26561,0.26355 v 1.05885 c -5.292e-4,0.14693 0.11868,0.26618 0.26561,0.26561 H 16.1396 c 0.14612,-5.3e-4 0.2641,-0.11949 0.26355,-0.26561 v -1.05885 c -5.82e-4,-0.14531 -0.11824,-0.26297 -0.26355,-0.26355 h -1.85932 c 0.11722,-0.15471 0.20483,-0.3324 0.24495,-0.52917 h 0.29248 c 0.43516,0 0.79272,-0.35807 0.79272,-0.79323 v -0.52917 c 5.29e-4,-0.14612 -0.11743,-0.26503 -0.26355,-0.26561 H 14.5521 v -0.26356 c 5.29e-4,-0.14632 -0.11775,-0.26531 -0.26407,-0.26561 h -2.646351 c -0.14612,5.3e-4 -0.2641,0.1195 -0.26355,0.26561 v 1.58802 c 0,0.29864 0.10378,0.57095 0.27182,0.79272 h -0.94981 c 0.0916,-0.15643 0.14779,-0.33591 0.14779,-0.52917 v -5.02708 c 0,-0.43516 -0.35858,-0.79375 -0.79375,-0.79375 H 9.5363794 c -0.3895701,-0.78398 -1.1940601,-1.32292 -2.12803,-1.32292 v -1.08779 c 0.2404899,-0.22609 0.4513699,-0.60977 0.51004,-1.02784 0.5099801,-1.5e-4 0.8128701,-0.39774 0.8128701,-0.79479 0,-0.23235 -0.0999,-0.4511 -0.2645802,-0.59169 l -0.00101,-0.99477 c -9.946e-4,-1.16806 -0.9470446,-2.11719 -2.1151046,-2.11719 z m 0,0.52917 h 0.5291699 c 0.8840499,0 1.5859501,0.70397 1.5859501,1.58802 v 0.79271 h -0.154 l -0.7167502,-0.71675 c -0.1032099,-0.10259 -0.2698898,-0.10259 -0.3730998,0 0,0 -0.7400102,0.71675 -1.6660501,0.71675 H 4.2333493 v -0.79271 c 0,-0.88405 0.7039502,-1.58802 1.5880102,-1.58802 z m 1.04325,2.21165 0.5437399,0.54322 v 0.94878 c 0,0.73748 -0.5854499,1.32292 -1.3229201,1.32292 -0.73748,0 -1.32292,-0.58544 -1.32292,-1.32292 v -0.79323 h 0.2640701 c 0.9061001,0 1.5612399,-0.4876 1.8380301,-0.69877 z m -2.6312602,1.22742 c -0.1511599,0 -0.26459,-0.12267 -0.26459,-0.26459 0,-0.14191 0.1122501,-0.26267 0.2632901,-0.26406 z m 3.9687501,-0.26459 c 0,0.14496 -0.11343,0.26459 -0.2645899,0.26459 l 0.00101,-0.52865 c 0.1510199,10e-4 0.2632602,0.12005 0.2632602,0.26406 z m -2.9104201,2.19987 c 0.2409801,0.11495 0.5093801,0.18138 0.79375,0.18138 0.2843702,0 0.5527601,-0.0664 0.79375,-0.18138 v 0.71055 c 0,0 -0.00201,0.52917 -0.79375,0.52917 -0.7921998,0 -0.79375,-0.52917 -0.79375,-0.52917 z m -0.3601901,1.23972 c 0,0 0.25645,0.52916 1.1539401,0.52916 0.8974902,0 1.15394,-0.52916 1.15394,-0.52916 h 0.1689801 c 0.63353,0 1.18334,0.31517 1.5166999,0.79375 H 3.2458095 c 0.3333699,-0.47858 0.8831598,-0.79375 1.5166998,-0.79375 z m 7.4992898,2.37815 c -0.14552,0.003 -0.26165,0.12216 -0.25993,0.26768 v 1.05833 c -0.008,0.36048 0.53695,0.36048 0.52916,0 v -1.05833 c 0.002,-0.14917 -0.12008,-0.2703 -0.26923,-0.26768 z m 1.05833,0 c -0.14531,0.003 -0.26113,0.12235 -0.25941,0.26768 v 1.05833 c -0.008,0.36079 0.53726,0.36079 0.52916,0 v -1.05833 c 0.002,-0.14937 -0.12039,-0.2706 -0.26975,-0.26768 z m -7.4041996,0.5333 c -0.4352399,0 -0.7927099,0.35954 -0.7927099,0.79478 0,0.43524 0.35747,0.79324 0.7927099,0.79324 0.4352401,0 0.7952999,-0.358 0.7952999,-0.79324 0,-0.43524 -0.3600598,-0.79478 -0.7952999,-0.79478 z m -4.50153,0.52451 c -0.14592,0.002 -0.26245,0.12228 -0.26045,0.2682 v 0.26459 c -0.005,0.3578 0.53423,0.3578 0.52917,0 v -0.26459 c 0.002,-0.14916 -0.11956,-0.27052 -0.26872,-0.2682 z m 4.50153,0.005 c 0.1492599,0 0.26562,0.11636 0.26562,0.26562 0,0.14926 -0.1163601,0.26355 -0.26562,0.26355 -0.1492599,0 -0.2635499,-0.11429 -0.2635499,-0.26355 0,-0.14926 0.11429,-0.26562 0.2635499,-0.26562 z m 5.8203196,1.58595 h 2.11718 v 1.32447 c 0,0.44431 -0.34839,0.79271 -0.79271,0.79271 h -0.52969 c -0.44431,0 -0.79478,-0.3484 -0.79478,-0.79271 z m 2.646871,0.52917 h 0.52916 v 0.26561 c 0,0.15116 -0.11239,0.26356 -0.26355,0.26356 H 14.5521 Z m -12.7000006,1.05884 h 8.4666596 c 0,0.29774 -0.23142,0.52917 -0.5291596,0.52917 h -7.40834 c -0.29774,0 -0.52916,-0.23143 -0.52916,-0.52917 z m -0.7942699,1.05834 H 15.87398 v 0.52968 H 1.0578295 Z" />
    </g>
</svg>
