<svg width="149" height="2" viewBox="0 0 149 2" fill="none" xmlns="http://www.w3.org/2000/svg">
<path fill-rule="evenodd" clip-rule="evenodd" d="M23.8356 1.99999L15.9643 1.99999L15.9643 1.15577e-05L23.8356 1.18961e-05L23.8356 1.99999ZM40.3542 1.99999L32.5938 1.99999L32.5938 1.25744e-05L40.3542 1.32528e-05L40.3542 1.99999ZM55.8751 1.99999L48.1147 1.99999L48.1147 1.39313e-05L55.8751 1.46097e-05L55.8751 1.99999ZM71.3958 1.99999L63.6354 1.99999L63.6354 1.52881e-05L71.3958 1.59666e-05L71.3958 1.99999ZM86.9166 1.99999L79.1562 1.99999L79.1562 1.6645e-05L86.9166 1.73234e-05L86.9166 1.99999ZM102.437 2L94.677 2L94.677 1.80019e-05L102.437 1.86803e-05L102.437 2ZM117.958 2L110.198 2L110.198 1.93587e-05L117.958 2.00372e-05L117.958 2ZM133.479 2L125.719 2L125.719 2.07156e-05L133.479 2.1394e-05L133.479 2ZM149 2L141.239 2L141.239 2.20725e-05L149 2.27509e-05L149 2Z" fill="white"/>
<path d="M7.87115 1.99998L-0.000122245 1.99998L-0.00012207 0L7.87115 6.88129e-07L7.87115 1.99998Z" fill="white"/>
</svg>
