<svg width="1440" height="480" viewBox="0 0 1440 480" fill="none" xmlns="http://www.w3.org/2000/svg">
    <path d="M720 230L516 100H276L71 230L276 360H516M720 230L923 100H1164L1368 230M720 230L516 360M516 360H923H1164V181.5"
          stroke="black" stroke-opacity="0.24" stroke-width="2" />
    <path d="M882 83.1456L924 56.3718L966 83.1456V116.854L924 143.628L882 116.854V83.1456Z" fill="black" />
    <path d="M882 83.1456L924 56.3718L966 83.1456V116.854L924 143.628L882 116.854V83.1456Z" fill="white"
          fill-opacity="0.96" />
    <path d="M882 83.1456L924 56.3718L966 83.1456V116.854L924 143.628L882 116.854V83.1456Z" stroke="white"
          stroke-width="4" />
    <path d="M882 83.1456L924 56.3718L966 83.1456V116.854L924 143.628L882 116.854V83.1456Z" stroke="black"
          stroke-opacity="0.08" stroke-width="4" />
    <path d="M929.208 107.505C927.649 106.507 927.383 105.193 927.443 104.256C927.488 103.514 927.709 102.862 928.1 102.315C927.383 101.909 926.851 101.643 926.641 101.538C926.576 101.508 926.536 101.443 926.536 101.373V97.3914C927.037 97.0605 927.368 96.4889 927.368 95.8421V91.7154C927.368 89.6647 925.703 88 923.652 88H923.206H922.765C920.714 88 919.049 89.6647 919.049 91.7154V95.8421C919.049 96.4889 919.38 97.0555 919.882 97.3914V101.373C919.882 101.443 919.842 101.508 919.777 101.538C919.215 101.814 916.462 103.208 913.905 105.304C913.444 105.685 913.178 106.251 913.178 106.848V109.676H921.892L922.755 105.735C921.015 103.308 922.885 103.193 923.211 103.188C923.537 103.193 925.407 103.308 923.667 105.735L924.53 109.676H927.423C927.438 109.616 927.453 109.561 927.463 109.516C927.548 109.205 927.629 108.919 927.719 108.628C927.769 108.463 927.849 108.247 928.005 108.041C928.265 107.695 928.662 107.495 929.088 107.495C929.123 107.495 929.168 107.5 929.208 107.505Z"
          fill="black" fill-opacity="0.8" />
    <path d="M933.244 105.885C932.783 105.63 932.292 105.434 931.8 105.233C931.519 105.118 931.249 104.978 931.008 104.787C930.537 104.411 930.627 103.804 931.179 103.564C931.334 103.499 931.494 103.474 931.665 103.463C932.302 103.428 932.908 103.544 933.485 103.825C933.771 103.965 933.866 103.92 933.966 103.619C934.067 103.303 934.157 102.982 934.247 102.661C934.307 102.446 934.232 102.305 934.032 102.215C933.661 102.055 933.279 101.934 932.883 101.874C932.362 101.794 932.362 101.789 932.362 101.267C932.357 100.525 932.357 100.525 931.62 100.53C931.514 100.53 931.404 100.525 931.299 100.53C930.953 100.54 930.893 100.6 930.883 100.946C930.878 101.102 930.883 101.257 930.883 101.418C930.883 101.879 930.878 101.874 930.436 102.034C929.363 102.426 928.702 103.153 928.631 104.326C928.566 105.359 929.108 106.061 929.96 106.567C930.487 106.883 931.063 107.069 931.62 107.309C931.835 107.405 932.041 107.515 932.226 107.665C932.763 108.107 932.663 108.839 932.031 109.114C931.69 109.265 931.334 109.3 930.968 109.255C930.401 109.185 929.855 109.034 929.348 108.768C929.048 108.613 928.962 108.653 928.862 108.979C928.772 109.26 928.697 109.541 928.621 109.826C928.516 110.207 928.556 110.298 928.917 110.473C929.378 110.699 929.875 110.814 930.376 110.894C930.772 110.955 930.782 110.975 930.787 111.386C930.787 111.571 930.792 111.757 930.792 111.942C930.797 112.178 930.908 112.313 931.148 112.318C931.424 112.323 931.695 112.323 931.971 112.318C932.196 112.313 932.312 112.193 932.312 111.962C932.312 111.707 932.327 111.451 932.312 111.2C932.302 110.94 932.412 110.809 932.663 110.744C933.234 110.589 933.721 110.283 934.097 109.821C935.12 108.558 934.724 106.703 933.244 105.885Z"
          fill="black" fill-opacity="0.8" />
    <path d="M899.008 165H897.846V155.006H903.417V156.038H899.008V159.695H903.15V160.728H899.008V165ZM911.374 161.247C911.374 162.468 911.066 163.423 910.451 164.111C909.836 164.795 908.986 165.137 907.901 165.137C907.231 165.137 906.637 164.979 906.117 164.665C905.598 164.351 905.197 163.899 904.914 163.312C904.632 162.724 904.49 162.035 904.49 161.247C904.49 160.026 904.796 159.076 905.406 158.396C906.017 157.713 906.865 157.371 907.949 157.371C908.997 157.371 909.829 157.72 910.444 158.417C911.064 159.114 911.374 160.058 911.374 161.247ZM905.666 161.247C905.666 162.204 905.857 162.933 906.24 163.435C906.623 163.936 907.186 164.187 907.929 164.187C908.672 164.187 909.234 163.938 909.617 163.441C910.005 162.94 910.198 162.209 910.198 161.247C910.198 160.295 910.005 159.572 909.617 159.08C909.234 158.583 908.667 158.335 907.915 158.335C907.172 158.335 906.612 158.579 906.233 159.066C905.855 159.554 905.666 160.281 905.666 161.247ZM914.437 157.508V162.368C914.437 162.979 914.576 163.435 914.854 163.735C915.132 164.036 915.567 164.187 916.159 164.187C916.943 164.187 917.515 163.972 917.875 163.544C918.24 163.116 918.422 162.416 918.422 161.445V157.508H919.557V165H918.62L918.456 163.995H918.395C918.162 164.364 917.839 164.647 917.424 164.843C917.014 165.039 916.544 165.137 916.016 165.137C915.104 165.137 914.421 164.92 913.965 164.487C913.514 164.054 913.288 163.362 913.288 162.409V157.508H914.437ZM927.097 165V160.153C927.097 159.543 926.958 159.087 926.68 158.786C926.402 158.485 925.966 158.335 925.374 158.335C924.59 158.335 924.016 158.547 923.651 158.971C923.287 159.395 923.104 160.094 923.104 161.069V165H921.97V157.508H922.893L923.077 158.533H923.132C923.364 158.164 923.69 157.879 924.109 157.679C924.529 157.474 924.996 157.371 925.511 157.371C926.413 157.371 927.092 157.59 927.548 158.027C928.004 158.46 928.231 159.155 928.231 160.112V165H927.097ZM935.669 163.995H935.607C935.083 164.756 934.299 165.137 933.256 165.137C932.276 165.137 931.513 164.802 930.966 164.132C930.424 163.462 930.152 162.509 930.152 161.274C930.152 160.039 930.426 159.08 930.973 158.396C931.52 157.713 932.281 157.371 933.256 157.371C934.272 157.371 935.051 157.74 935.594 158.479H935.683L935.635 157.938L935.607 157.412V154.363H936.742V165H935.819L935.669 163.995ZM933.399 164.187C934.174 164.187 934.735 163.977 935.081 163.558C935.432 163.134 935.607 162.452 935.607 161.514V161.274C935.607 160.213 935.43 159.456 935.074 159.005C934.723 158.549 934.16 158.321 933.386 158.321C932.72 158.321 932.21 158.581 931.854 159.101C931.504 159.616 931.328 160.345 931.328 161.288C931.328 162.245 931.504 162.967 931.854 163.455C932.205 163.943 932.72 164.187 933.399 164.187ZM942.32 165.137C941.213 165.137 940.338 164.799 939.695 164.125C939.057 163.451 938.738 162.514 938.738 161.315C938.738 160.108 939.035 159.148 939.627 158.438C940.224 157.727 941.024 157.371 942.026 157.371C942.965 157.371 943.708 157.681 944.255 158.301C944.802 158.916 945.075 159.729 945.075 160.741V161.459H939.914C939.937 162.339 940.158 163.006 940.577 163.462C941.001 163.918 941.596 164.146 942.361 164.146C943.168 164.146 943.965 163.977 944.754 163.64V164.651C944.353 164.825 943.972 164.948 943.612 165.021C943.257 165.098 942.826 165.137 942.32 165.137ZM942.013 158.321C941.411 158.321 940.93 158.517 940.57 158.909C940.215 159.301 940.005 159.843 939.941 160.536H943.858C943.858 159.821 943.699 159.274 943.38 158.896C943.061 158.513 942.605 158.321 942.013 158.321ZM950.435 157.371C950.767 157.371 951.066 157.398 951.33 157.453L951.173 158.506C950.863 158.438 950.59 158.403 950.353 158.403C949.746 158.403 949.227 158.649 948.794 159.142C948.366 159.634 948.151 160.247 948.151 160.98V165H947.017V157.508H947.953L948.083 158.896H948.138C948.416 158.408 948.751 158.032 949.143 157.768C949.535 157.503 949.965 157.371 950.435 157.371Z"
          fill="black" fill-opacity="0.8" />
    <path d="M1122 83.1456L1164 56.3718L1206 83.1456V116.854L1164 143.628L1122 116.854V83.1456Z" fill="black" />
    <path d="M1122 83.1456L1164 56.3718L1206 83.1456V116.854L1164 143.628L1122 116.854V83.1456Z" fill="white"
          fill-opacity="0.96" />
    <path d="M1122 83.1456L1164 56.3718L1206 83.1456V116.854L1164 143.628L1122 116.854V83.1456Z" stroke="white"
          stroke-width="4" />
    <path d="M1122 83.1456L1164 56.3718L1206 83.1456V116.854L1164 143.628L1122 116.854V83.1456Z" stroke="black"
          stroke-opacity="0.08" stroke-width="4" />
    <g clip-path="url(#clip0)">
        <path d="M1164.47 105.627V105.503C1163.84 105.496 1163.23 105.461 1162.64 105.412C1162.32 106.237 1161.87 107.005 1161.31 107.691C1162.37 107.864 1163.44 107.961 1164.51 107.975L1164.47 105.627Z"
              fill="black" fill-opacity="0.8" />
        <path fill-rule="evenodd" clip-rule="evenodd"
              d="M1156.94 95.8411C1159.35 96.596 1161.16 98.5906 1161.67 101.042C1161.76 101.499 1161.81 101.97 1161.81 102.434C1161.81 104.381 1160.99 106.23 1159.55 107.539C1156.73 110.101 1152.36 109.9 1149.8 107.082C1147.23 104.263 1147.44 99.8927 1150.25 97.3301C1151.52 96.1805 1153.18 95.5433 1154.9 95.5364C1155.59 95.5364 1156.28 95.6403 1156.94 95.8411ZM1152.55 99.324C1153.18 98.7543 1154.03 98.434 1154.91 98.4333C1155.77 98.4356 1156.6 98.741 1157.22 99.2857C1157.84 99.8303 1158.2 100.572 1158.24 101.356C1158.27 102.14 1157.97 102.905 1157.4 103.491C1156.83 104.077 1156.03 104.44 1155.17 104.502C1155.17 104.502 1154.75 104.526 1154.65 104.542C1154.41 104.572 1154.18 104.668 1154.01 104.818C1153.83 104.967 1153.71 105.163 1153.66 105.378C1153.66 105.378 1153.52 105.965 1153.51 106.013C1153.5 106.069 1153.47 106.121 1153.44 106.168C1153.41 106.215 1153.36 106.256 1153.31 106.287C1153.26 106.318 1153.2 106.34 1153.14 106.35C1153.08 106.361 1153.02 106.36 1152.96 106.348C1152.9 106.336 1152.84 106.314 1152.79 106.281C1152.74 106.249 1152.69 106.208 1152.66 106.16C1152.63 106.112 1152.61 106.059 1152.6 106.003C1152.59 105.948 1152.59 105.891 1152.61 105.836C1152.62 105.788 1153.66 101.367 1153.66 101.367C1153.69 101.262 1153.76 101.17 1153.86 101.113C1153.96 101.055 1154.08 101.036 1154.2 101.059C1154.32 101.082 1154.42 101.145 1154.49 101.236C1154.55 101.326 1154.58 101.437 1154.56 101.544L1154.13 103.361L1154.05 103.714C1154.04 103.72 1154.04 103.726 1154.05 103.732C1154.05 103.737 1154.05 103.742 1154.05 103.747C1154.06 103.751 1154.06 103.754 1154.07 103.755C1154.08 103.756 1154.08 103.756 1154.09 103.755C1154.12 103.751 1154.15 103.745 1154.2 103.739C1154.24 103.731 1154.29 103.723 1154.35 103.714C1154.58 103.682 1155.05 103.658 1155.05 103.658C1155.52 103.633 1155.97 103.485 1156.35 103.231C1156.72 102.978 1157.01 102.63 1157.17 102.231C1157.33 101.831 1157.37 101.397 1157.26 100.981C1157.16 100.566 1156.93 100.187 1156.59 99.8901C1156.25 99.5935 1155.83 99.3925 1155.37 99.3115C1154.91 99.2305 1154.43 99.273 1154 99.4339C1153.57 99.5948 1153.19 99.8671 1152.93 100.218C1152.66 100.568 1152.51 100.981 1152.5 101.407C1152.49 101.673 1152.54 101.937 1152.63 102.187C1152.67 102.294 1152.66 102.41 1152.61 102.511C1152.55 102.611 1152.46 102.689 1152.34 102.726C1152.22 102.761 1152.1 102.753 1151.99 102.703C1151.88 102.654 1151.79 102.566 1151.75 102.46C1151.63 102.141 1151.57 101.808 1151.57 101.472C1151.57 100.666 1151.93 99.8937 1152.55 99.324ZM1154.83 105.453C1154.93 105.415 1155.04 105.406 1155.15 105.426C1155.22 105.44 1155.29 105.466 1155.35 105.504C1155.41 105.541 1155.46 105.589 1155.5 105.646C1155.54 105.702 1155.57 105.764 1155.59 105.83C1155.6 105.896 1155.6 105.964 1155.58 106.029C1155.56 106.128 1155.51 106.218 1155.43 106.288C1155.35 106.359 1155.25 106.406 1155.14 106.425C1155.03 106.443 1154.92 106.432 1154.82 106.393C1154.71 106.353 1154.63 106.287 1154.57 106.203C1154.51 106.119 1154.48 106.02 1154.48 105.919C1154.48 105.819 1154.51 105.721 1154.57 105.638C1154.64 105.555 1154.72 105.49 1154.83 105.453Z"
              fill="black" fill-opacity="0.8" />
        <path d="M1164.45 104.11L1164.41 101.659C1163.98 101.652 1163.56 101.638 1163.16 101.61C1163.18 101.887 1163.19 102.157 1163.19 102.427C1163.19 102.968 1163.14 103.515 1163.03 104.048C1163.49 104.09 1163.97 104.11 1164.45 104.11Z"
              fill="black" fill-opacity="0.8" />
        <path d="M1172.04 92.6484C1171.56 92.8977 1171.05 93.0985 1170.53 93.2509C1168.97 93.7219 1166.93 93.9781 1164.8 93.9781C1162.76 93.9781 1160.81 93.7426 1159.31 93.3063C1158.79 93.1678 1158.29 92.9739 1157.81 92.7315L1157.86 94.6845C1158.64 94.9754 1159.37 95.391 1160.03 95.9104C1160.05 95.9173 1160.06 95.9173 1160.08 95.9242C1161.41 96.2636 1163.09 96.4437 1164.8 96.4437C1166.78 96.4437 1168.72 96.1943 1170.13 95.7719C1171.63 95.3148 1171.97 94.8369 1171.97 94.7469C1171.97 94.6499 1171.96 94.5599 1172.04 94.4629V92.6484Z"
              fill="black" fill-opacity="0.8" />
        <path d="M1170.12 89.8988C1168.72 89.4695 1166.77 89.2271 1164.79 89.2271C1162.8 89.2271 1160.93 89.4695 1159.53 89.8988C1158.07 90.3421 1157.75 90.7784 1157.74 90.9169C1157.74 90.9169 1157.75 90.9169 1157.75 90.9308C1157.78 91.0831 1158.2 91.5541 1159.69 91.9835C1161.07 92.3852 1162.88 92.6068 1164.79 92.6068C1166.77 92.6068 1168.71 92.3644 1170.12 91.9419C1171.62 91.4918 1171.96 91.0139 1171.96 90.9169C1171.96 90.8269 1171.63 90.3559 1170.12 89.8988Z"
              fill="black" fill-opacity="0.8" />
        <path d="M1179.99 109.062V106.985C1179.52 107.22 1179.04 107.421 1178.53 107.573C1176.98 108.044 1174.95 108.3 1172.81 108.3C1170.91 108.3 1169.06 108.086 1167.61 107.705C1167.01 107.552 1166.44 107.345 1165.89 107.075L1165.92 109.083C1165.92 109.09 1165.92 109.09 1165.92 109.097C1165.92 109.201 1166.22 109.665 1167.69 110.115C1169.07 110.537 1170.94 110.773 1172.94 110.773C1174.94 110.773 1176.81 110.531 1178.21 110.094C1179.67 109.637 1179.99 109.159 1179.99 109.062H1179.99V109.062Z"
              fill="black" fill-opacity="0.8" />
        <path d="M1172.02 96.5129C1171.54 96.7553 1171.05 96.9561 1170.53 97.1085C1168.97 97.5794 1166.92 97.8357 1164.78 97.8357C1163.73 97.8357 1162.69 97.7664 1161.65 97.6349C1162.21 98.4105 1162.62 99.2832 1162.89 100.211C1163.48 100.253 1164.13 100.28 1164.79 100.28C1164.81 100.28 1164.84 100.28 1164.86 100.28C1166 99.0339 1169.05 98.4105 1172.02 98.3274V96.5129Z"
              fill="black" fill-opacity="0.8" />
        <path d="M1178.48 103.743C1176.94 104.2 1174.93 104.45 1172.83 104.45C1170.78 104.45 1168.84 104.214 1167.33 103.778C1166.81 103.633 1166.31 103.439 1165.82 103.196L1165.85 104.789L1165.86 105.371C1166.4 106.043 1168.98 106.908 1172.82 106.908C1174.82 106.908 1176.71 106.673 1178.13 106.244C1179.63 105.786 1179.95 105.315 1179.95 105.219C1179.95 105.142 1179.99 105.059 1179.99 104.99H1180V103.155C1179.52 103.397 1179.01 103.605 1178.48 103.743Z"
              fill="black" fill-opacity="0.8" />
        <path d="M1178.16 100.384C1176.74 99.955 1174.81 99.7264 1172.82 99.7264H1172.71C1170.86 99.7264 1169.11 99.9342 1167.77 100.315C1166.34 100.717 1165.84 101.174 1165.78 101.361C1165.77 101.375 1165.77 101.382 1165.77 101.389C1165.77 101.389 1165.77 101.389 1165.79 101.416C1165.83 101.562 1166.24 102.033 1167.73 102.469C1169.11 102.864 1170.92 103.085 1172.83 103.085C1174.81 103.085 1176.68 102.857 1178.1 102.434C1179.63 101.977 1179.98 101.499 1179.99 101.396V101.389C1179.98 101.285 1179.63 100.828 1178.16 100.384Z"
              fill="black" fill-opacity="0.8" />
    </g>
    <path d="M1142 155.006H1144.83C1146.15 155.006 1147.11 155.204 1147.7 155.601C1148.3 155.997 1148.59 156.624 1148.59 157.48C1148.59 158.073 1148.43 158.563 1148.09 158.95C1147.76 159.333 1147.28 159.581 1146.65 159.695V159.764C1148.17 160.023 1148.93 160.821 1148.93 162.156C1148.93 163.049 1148.62 163.747 1148.02 164.248C1147.42 164.749 1146.57 165 1145.49 165H1142V155.006ZM1143.16 159.285H1145.08C1145.9 159.285 1146.49 159.158 1146.85 158.902C1147.21 158.643 1147.39 158.207 1147.39 157.597C1147.39 157.036 1147.19 156.633 1146.79 156.387C1146.39 156.136 1145.75 156.011 1144.87 156.011H1143.16V159.285ZM1143.16 160.27V164.009H1145.25C1146.06 164.009 1146.66 163.854 1147.07 163.544C1147.48 163.229 1147.68 162.74 1147.68 162.074C1147.68 161.454 1147.47 160.999 1147.05 160.707C1146.64 160.415 1146.01 160.27 1145.15 160.27H1143.16ZM1157.38 161.247C1157.38 162.468 1157.07 163.423 1156.45 164.111C1155.84 164.795 1154.99 165.137 1153.9 165.137C1153.23 165.137 1152.64 164.979 1152.12 164.665C1151.6 164.351 1151.2 163.899 1150.92 163.312C1150.63 162.724 1150.49 162.035 1150.49 161.247C1150.49 160.026 1150.8 159.076 1151.41 158.396C1152.02 157.713 1152.87 157.371 1153.95 157.371C1155 157.371 1155.83 157.72 1156.45 158.417C1157.07 159.114 1157.38 160.058 1157.38 161.247ZM1151.67 161.247C1151.67 162.204 1151.86 162.933 1152.24 163.435C1152.62 163.936 1153.19 164.187 1153.93 164.187C1154.67 164.187 1155.24 163.938 1155.62 163.441C1156.01 162.94 1156.2 162.209 1156.2 161.247C1156.2 160.295 1156.01 159.572 1155.62 159.08C1155.24 158.583 1154.67 158.335 1153.92 158.335C1153.17 158.335 1152.61 158.579 1152.24 159.066C1151.86 159.554 1151.67 160.281 1151.67 161.247ZM1160.44 157.508V162.368C1160.44 162.979 1160.58 163.435 1160.86 163.735C1161.13 164.036 1161.57 164.187 1162.16 164.187C1162.94 164.187 1163.52 163.972 1163.88 163.544C1164.24 163.116 1164.42 162.416 1164.42 161.445V157.508H1165.56V165H1164.62L1164.46 163.995H1164.4C1164.16 164.364 1163.84 164.647 1163.43 164.843C1163.02 165.039 1162.55 165.137 1162.02 165.137C1161.11 165.137 1160.42 164.92 1159.97 164.487C1159.52 164.054 1159.29 163.362 1159.29 162.409V157.508H1160.44ZM1173.1 165V160.153C1173.1 159.543 1172.96 159.087 1172.68 158.786C1172.4 158.485 1171.97 158.335 1171.38 158.335C1170.59 158.335 1170.02 158.547 1169.65 158.971C1169.29 159.395 1169.11 160.094 1169.11 161.069V165H1167.97V157.508H1168.89L1169.08 158.533H1169.13C1169.37 158.164 1169.69 157.879 1170.11 157.679C1170.53 157.474 1171 157.371 1171.51 157.371C1172.42 157.371 1173.09 157.59 1173.55 158.027C1174.01 158.46 1174.23 159.155 1174.23 160.112V165H1173.1ZM1178.99 164.2C1179.19 164.2 1179.39 164.187 1179.57 164.159C1179.76 164.127 1179.91 164.095 1180.02 164.063V164.932C1179.89 164.991 1179.71 165.039 1179.47 165.075C1179.23 165.116 1179.02 165.137 1178.83 165.137C1177.38 165.137 1176.65 164.373 1176.65 162.847V158.39H1175.58V157.843L1176.65 157.371L1177.13 155.771H1177.79V157.508H1179.96V158.39H1177.79V162.799C1177.79 163.25 1177.9 163.596 1178.11 163.838C1178.32 164.079 1178.62 164.2 1178.99 164.2ZM1180.33 157.508H1181.55L1183.19 161.78C1183.55 162.756 1183.77 163.46 1183.86 163.893H1183.91C1183.97 163.66 1184.1 163.264 1184.28 162.703C1184.47 162.138 1185.09 160.406 1186.14 157.508H1187.36L1184.14 166.039C1183.82 166.882 1183.45 167.479 1183.02 167.83C1182.59 168.186 1182.07 168.363 1181.45 168.363C1181.11 168.363 1180.76 168.325 1180.43 168.247V167.338C1180.68 167.393 1180.96 167.42 1181.27 167.42C1182.05 167.42 1182.6 166.982 1182.94 166.107L1183.35 165.041L1180.33 157.508Z"
          fill="black" fill-opacity="0.8" />
    <path d="M678 213.146L720 186.372L762 213.146V246.854L720 273.628L678 246.854V213.146Z" fill="black" />
    <path d="M678 213.146L720 186.372L762 213.146V246.854L720 273.628L678 246.854V213.146Z" fill="white"
          fill-opacity="0.96" />
    <path d="M678 213.146L720 186.372L762 213.146V246.854L720 273.628L678 246.854V213.146Z" stroke="white"
          stroke-width="4" />
    <path d="M678 213.146L720 186.372L762 213.146V246.854L720 273.628L678 246.854V213.146Z" stroke="black"
          stroke-opacity="0.08" stroke-width="4" />
    <path d="M725.64 236.36C723.125 234.294 720.413 232.924 719.865 232.65C719.804 232.617 719.761 232.557 719.761 232.486V228.573C720.254 228.245 720.577 227.686 720.577 227.05V222.99C720.577 220.968 718.939 219.335 716.922 219.335H716.484H716.045C714.024 219.335 712.391 220.973 712.391 222.99V227.05C712.391 227.686 712.714 228.245 713.207 228.573V232.491C713.207 232.563 713.169 232.623 713.103 232.656C712.55 232.924 709.837 234.294 707.328 236.365C706.873 236.738 706.61 237.297 706.61 237.883V240.667H715.185H717.777H726.352V237.883C726.352 237.291 726.095 236.732 725.64 236.36Z"
          fill="black" fill-opacity="0.8" />
    <path fill-rule="evenodd" clip-rule="evenodd"
          d="M723.941 220.957C726.1 218.792 729.607 218.792 731.772 220.957C733.931 223.121 733.931 226.623 731.766 228.787C729.947 230.606 727.169 230.897 725.048 229.647L725.037 229.636C724.199 230.266 723.306 230.376 722.681 230.277C722.478 230.244 722.435 229.965 722.621 229.872C723.191 229.592 723.552 229.034 723.761 228.584L723.706 228.54C721.783 226.365 721.859 223.039 723.941 220.957ZM725.55 224.979L726.938 222.189H725.851L724.463 224.979L725.851 227.768H726.938L725.55 224.979ZM730.071 224.979L728.684 222.189H729.771L731.159 224.979L729.771 227.768H728.684L730.071 224.979Z"
          fill="black" fill-opacity="0.8" />
    <path d="M705.932 295H704.77V290.297H699.506V295H698.344V285.006H699.506V289.258H704.77V285.006H705.932V295ZM709.575 287.508V292.368C709.575 292.979 709.714 293.435 709.992 293.735C710.27 294.036 710.705 294.187 711.298 294.187C712.082 294.187 712.654 293.972 713.014 293.544C713.378 293.116 713.561 292.416 713.561 291.445V287.508H714.695V295H713.759L713.595 293.995H713.533C713.301 294.364 712.977 294.647 712.562 294.843C712.152 295.039 711.683 295.137 711.154 295.137C710.243 295.137 709.559 294.92 709.104 294.487C708.652 294.054 708.427 293.362 708.427 292.409V287.508H709.575ZM722.235 295V290.153C722.235 289.543 722.096 289.087 721.818 288.786C721.54 288.485 721.105 288.335 720.513 288.335C719.729 288.335 719.155 288.547 718.79 288.971C718.425 289.395 718.243 290.094 718.243 291.069V295H717.108V287.508H718.031L718.216 288.533H718.271C718.503 288.164 718.829 287.879 719.248 287.679C719.667 287.474 720.134 287.371 720.649 287.371C721.552 287.371 722.231 287.59 722.687 288.027C723.142 288.46 723.37 289.155 723.37 290.112V295H722.235ZM728.128 294.2C728.328 294.2 728.522 294.187 728.709 294.159C728.896 294.127 729.044 294.095 729.153 294.063V294.932C729.03 294.991 728.848 295.039 728.606 295.075C728.369 295.116 728.155 295.137 727.964 295.137C726.515 295.137 725.79 294.373 725.79 292.847V288.39H724.717V287.843L725.79 287.371L726.269 285.771H726.925V287.508H729.099V288.39H726.925V292.799C726.925 293.25 727.032 293.596 727.246 293.838C727.46 294.079 727.754 294.2 728.128 294.2ZM733.822 295.137C732.715 295.137 731.84 294.799 731.197 294.125C730.559 293.451 730.24 292.514 730.24 291.315C730.24 290.108 730.536 289.148 731.129 288.438C731.726 287.727 732.526 287.371 733.528 287.371C734.467 287.371 735.21 287.681 735.757 288.301C736.304 288.916 736.577 289.729 736.577 290.741V291.459H731.416C731.439 292.339 731.66 293.006 732.079 293.462C732.503 293.918 733.098 294.146 733.863 294.146C734.67 294.146 735.467 293.977 736.256 293.64V294.651C735.855 294.825 735.474 294.948 735.114 295.021C734.759 295.098 734.328 295.137 733.822 295.137ZM733.515 288.321C732.913 288.321 732.432 288.517 732.072 288.909C731.717 289.301 731.507 289.843 731.443 290.536H735.36C735.36 289.821 735.201 289.274 734.882 288.896C734.563 288.513 734.107 288.321 733.515 288.321ZM741.937 287.371C742.269 287.371 742.568 287.398 742.832 287.453L742.675 288.506C742.365 288.438 742.091 288.403 741.854 288.403C741.248 288.403 740.729 288.649 740.296 289.142C739.868 289.634 739.653 290.247 739.653 290.98V295H738.519V287.508H739.455L739.585 288.896H739.64C739.918 288.408 740.253 288.032 740.645 287.768C741.036 287.503 741.467 287.371 741.937 287.371Z"
          fill="black" fill-opacity="0.8" />
    <path d="M1326 213.146L1368 186.372L1410 213.146V246.854L1368 273.628L1326 246.854V213.146Z" fill="black" />
    <path d="M1326 213.146L1368 186.372L1410 213.146V246.854L1368 273.628L1326 246.854V213.146Z" fill="white"
          fill-opacity="0.96" />
    <path d="M1326 213.146L1368 186.372L1410 213.146V246.854L1368 273.628L1326 246.854V213.146Z" stroke="white"
          stroke-width="4" />
    <path d="M1326 213.146L1368 186.372L1410 213.146V246.854L1368 273.628L1326 246.854V213.146Z" stroke="black"
          stroke-opacity="0.08" stroke-width="4" />
    <path d="M1373.21 237.505C1371.65 236.507 1371.38 235.193 1371.44 234.256C1371.49 233.514 1371.71 232.862 1372.1 232.315C1371.38 231.909 1370.85 231.643 1370.64 231.538C1370.58 231.508 1370.54 231.443 1370.54 231.373V227.391C1371.04 227.06 1371.37 226.489 1371.37 225.842V221.715C1371.37 219.665 1369.7 218 1367.65 218H1367.21H1366.76C1364.71 218 1363.05 219.665 1363.05 221.715V225.842C1363.05 226.489 1363.38 227.055 1363.88 227.391V231.373C1363.88 231.443 1363.84 231.508 1363.78 231.538C1363.21 231.814 1360.46 233.208 1357.91 235.304C1357.44 235.685 1357.18 236.251 1357.18 236.848V239.676H1365.89L1366.75 235.735C1365.02 233.308 1366.89 233.193 1367.21 233.188C1367.54 233.193 1369.41 233.308 1367.67 235.735L1368.53 239.676H1371.42C1371.44 239.616 1371.45 239.561 1371.46 239.516C1371.55 239.205 1371.63 238.919 1371.72 238.628C1371.77 238.463 1371.85 238.247 1372 238.041C1372.27 237.695 1372.66 237.495 1373.09 237.495C1373.12 237.495 1373.17 237.5 1373.21 237.505Z"
          fill="black" fill-opacity="0.8" />
    <path d="M1377.24 235.885C1376.78 235.63 1376.29 235.434 1375.8 235.233C1375.52 235.118 1375.25 234.978 1375.01 234.787C1374.54 234.411 1374.63 233.804 1375.18 233.564C1375.33 233.499 1375.49 233.473 1375.66 233.463C1376.3 233.428 1376.91 233.544 1377.49 233.824C1377.77 233.965 1377.87 233.92 1377.97 233.619C1378.07 233.303 1378.16 232.982 1378.25 232.661C1378.31 232.446 1378.23 232.305 1378.03 232.215C1377.66 232.054 1377.28 231.934 1376.88 231.874C1376.36 231.794 1376.36 231.789 1376.36 231.267C1376.36 230.525 1376.36 230.525 1375.62 230.53C1375.51 230.53 1375.4 230.525 1375.3 230.53C1374.95 230.54 1374.89 230.6 1374.88 230.946C1374.88 231.102 1374.88 231.257 1374.88 231.418C1374.88 231.879 1374.88 231.874 1374.44 232.034C1373.36 232.426 1372.7 233.153 1372.63 234.326C1372.57 235.359 1373.11 236.061 1373.96 236.567C1374.49 236.883 1375.06 237.069 1375.62 237.309C1375.84 237.405 1376.04 237.515 1376.23 237.665C1376.76 238.106 1376.66 238.839 1376.03 239.114C1375.69 239.265 1375.33 239.3 1374.97 239.255C1374.4 239.185 1373.85 239.034 1373.35 238.768C1373.05 238.613 1372.96 238.653 1372.86 238.979C1372.77 239.26 1372.7 239.541 1372.62 239.826C1372.52 240.207 1372.56 240.298 1372.92 240.473C1373.38 240.699 1373.87 240.814 1374.38 240.894C1374.77 240.954 1374.78 240.975 1374.79 241.386C1374.79 241.571 1374.79 241.757 1374.79 241.942C1374.8 242.178 1374.91 242.313 1375.15 242.318C1375.42 242.323 1375.69 242.323 1375.97 242.318C1376.2 242.313 1376.31 242.193 1376.31 241.962C1376.31 241.707 1376.33 241.451 1376.31 241.2C1376.3 240.939 1376.41 240.809 1376.66 240.744C1377.23 240.588 1377.72 240.283 1378.1 239.821C1379.12 238.558 1378.72 236.703 1377.24 235.885Z"
          fill="black" fill-opacity="0.8" />
    <path d="M1343.01 295H1341.85V285.006H1347.42V286.038H1343.01V289.695H1347.15V290.728H1343.01V295ZM1355.37 291.247C1355.37 292.468 1355.07 293.423 1354.45 294.111C1353.84 294.795 1352.99 295.137 1351.9 295.137C1351.23 295.137 1350.64 294.979 1350.12 294.665C1349.6 294.351 1349.2 293.899 1348.91 293.312C1348.63 292.724 1348.49 292.035 1348.49 291.247C1348.49 290.026 1348.8 289.076 1349.41 288.396C1350.02 287.713 1350.86 287.371 1351.95 287.371C1353 287.371 1353.83 287.72 1354.44 288.417C1355.06 289.114 1355.37 290.058 1355.37 291.247ZM1349.67 291.247C1349.67 292.204 1349.86 292.933 1350.24 293.435C1350.62 293.936 1351.19 294.187 1351.93 294.187C1352.67 294.187 1353.23 293.938 1353.62 293.441C1354 292.94 1354.2 292.209 1354.2 291.247C1354.2 290.295 1354 289.572 1353.62 289.08C1353.23 288.583 1352.67 288.335 1351.92 288.335C1351.17 288.335 1350.61 288.579 1350.23 289.066C1349.86 289.554 1349.67 290.281 1349.67 291.247ZM1358.44 287.508V292.368C1358.44 292.979 1358.58 293.435 1358.85 293.735C1359.13 294.036 1359.57 294.187 1360.16 294.187C1360.94 294.187 1361.51 293.972 1361.88 293.544C1362.24 293.116 1362.42 292.416 1362.42 291.445V287.508H1363.56V295H1362.62L1362.46 293.995H1362.39C1362.16 294.364 1361.84 294.647 1361.42 294.843C1361.01 295.039 1360.54 295.137 1360.02 295.137C1359.1 295.137 1358.42 294.92 1357.96 294.487C1357.51 294.054 1357.29 293.362 1357.29 292.409V287.508H1358.44ZM1371.1 295V290.153C1371.1 289.543 1370.96 289.087 1370.68 288.786C1370.4 288.485 1369.97 288.335 1369.37 288.335C1368.59 288.335 1368.02 288.547 1367.65 288.971C1367.29 289.395 1367.1 290.094 1367.1 291.069V295H1365.97V287.508H1366.89L1367.08 288.533H1367.13C1367.36 288.164 1367.69 287.879 1368.11 287.679C1368.53 287.474 1369 287.371 1369.51 287.371C1370.41 287.371 1371.09 287.59 1371.55 288.027C1372 288.46 1372.23 289.155 1372.23 290.112V295H1371.1ZM1379.67 293.995H1379.61C1379.08 294.756 1378.3 295.137 1377.26 295.137C1376.28 295.137 1375.51 294.802 1374.97 294.132C1374.42 293.462 1374.15 292.509 1374.15 291.274C1374.15 290.039 1374.43 289.08 1374.97 288.396C1375.52 287.713 1376.28 287.371 1377.26 287.371C1378.27 287.371 1379.05 287.74 1379.59 288.479H1379.68L1379.63 287.938L1379.61 287.412V284.363H1380.74V295H1379.82L1379.67 293.995ZM1377.4 294.187C1378.17 294.187 1378.73 293.977 1379.08 293.558C1379.43 293.134 1379.61 292.452 1379.61 291.514V291.274C1379.61 290.213 1379.43 289.456 1379.07 289.005C1378.72 288.549 1378.16 288.321 1377.39 288.321C1376.72 288.321 1376.21 288.581 1375.85 289.101C1375.5 289.616 1375.33 290.345 1375.33 291.288C1375.33 292.245 1375.5 292.967 1375.85 293.455C1376.21 293.943 1376.72 294.187 1377.4 294.187ZM1386.32 295.137C1385.21 295.137 1384.34 294.799 1383.7 294.125C1383.06 293.451 1382.74 292.514 1382.74 291.315C1382.74 290.108 1383.03 289.148 1383.63 288.438C1384.22 287.727 1385.02 287.371 1386.03 287.371C1386.97 287.371 1387.71 287.681 1388.25 288.301C1388.8 288.916 1389.08 289.729 1389.08 290.741V291.459H1383.91C1383.94 292.339 1384.16 293.006 1384.58 293.462C1385 293.918 1385.6 294.146 1386.36 294.146C1387.17 294.146 1387.97 293.977 1388.75 293.64V294.651C1388.35 294.825 1387.97 294.948 1387.61 295.021C1387.26 295.098 1386.83 295.137 1386.32 295.137ZM1386.01 288.321C1385.41 288.321 1384.93 288.517 1384.57 288.909C1384.21 289.301 1384.01 289.843 1383.94 290.536H1387.86C1387.86 289.821 1387.7 289.274 1387.38 288.896C1387.06 288.513 1386.61 288.321 1386.01 288.321ZM1394.43 287.371C1394.77 287.371 1395.07 287.398 1395.33 287.453L1395.17 288.506C1394.86 288.438 1394.59 288.403 1394.35 288.403C1393.75 288.403 1393.23 288.649 1392.79 289.142C1392.37 289.634 1392.15 290.247 1392.15 290.98V295H1391.02V287.508H1391.95L1392.08 288.896H1392.14C1392.42 288.408 1392.75 288.032 1393.14 287.768C1393.53 287.503 1393.97 287.371 1394.43 287.371Z"
          fill="black" fill-opacity="0.8" />
    <path d="M30 213.146L72 186.372L114 213.146V246.854L72 273.628L30 246.854V213.146Z" fill="black" />
    <path d="M30 213.146L72 186.372L114 213.146V246.854L72 273.628L30 246.854V213.146Z" fill="white"
          fill-opacity="0.96" />
    <path d="M30 213.146L72 186.372L114 213.146V246.854L72 273.628L30 246.854V213.146Z" stroke="white"
          stroke-width="4" />
    <path d="M30 213.146L72 186.372L114 213.146V246.854L72 273.628L30 246.854V213.146Z" stroke="black"
          stroke-opacity="0.08" stroke-width="4" />
    <path d="M77.2081 237.505C75.6487 236.507 75.383 235.193 75.4431 234.256C75.4883 233.514 75.7089 232.862 76.1 232.315C75.383 231.909 74.8515 231.643 74.6409 231.538C74.5757 231.508 74.5356 231.443 74.5356 231.373V227.391C75.037 227.06 75.3679 226.489 75.3679 225.842V221.715C75.3679 219.665 73.7032 218 71.6525 218H71.2062H70.765C68.7142 218 67.0495 219.665 67.0495 221.715V225.842C67.0495 226.489 67.3805 227.055 67.8819 227.391V231.373C67.8819 231.443 67.8417 231.508 67.7766 231.538C67.215 231.814 64.4622 233.208 61.9051 235.304C61.4438 235.685 61.178 236.251 61.178 236.848V239.676H69.8925L70.7549 235.735C69.015 233.308 70.8853 233.193 71.2112 233.188C71.5371 233.193 73.4074 233.308 71.6675 235.735L72.5299 239.676H75.4231C75.4381 239.616 75.4532 239.561 75.4632 239.516C75.5484 239.205 75.6286 238.919 75.7189 238.628C75.769 238.463 75.8493 238.247 76.0047 238.041C76.2654 237.695 76.6616 237.495 77.0878 237.495C77.1229 237.495 77.168 237.5 77.2081 237.505Z"
          fill="black" fill-opacity="0.8" />
    <path d="M81.2444 235.885C80.7831 235.63 80.2917 235.434 79.8003 235.233C79.5196 235.118 79.2488 234.978 79.0081 234.787C78.5368 234.411 78.627 233.804 79.1786 233.564C79.334 233.499 79.4945 233.473 79.665 233.463C80.3018 233.428 80.9085 233.544 81.4851 233.824C81.7709 233.965 81.8662 233.92 81.9664 233.619C82.0667 233.303 82.157 232.982 82.2472 232.661C82.3074 232.446 82.2322 232.305 82.0316 232.215C81.6606 232.054 81.2795 231.934 80.8834 231.874C80.3619 231.794 80.3619 231.789 80.3619 231.267C80.3569 230.525 80.3569 230.525 79.6198 230.53C79.5145 230.53 79.4042 230.525 79.2989 230.53C78.953 230.54 78.8928 230.6 78.8828 230.946C78.8778 231.102 78.8828 231.257 78.8828 231.418C78.8828 231.879 78.8778 231.874 78.4365 232.034C77.3635 232.426 76.7016 233.153 76.6314 234.326C76.5662 235.359 77.1078 236.061 77.9602 236.567C78.4867 236.883 79.0633 237.069 79.6198 237.309C79.8354 237.405 80.041 237.515 80.2265 237.665C80.7631 238.106 80.6628 238.839 80.031 239.114C79.69 239.265 79.334 239.3 78.968 239.255C78.4014 239.185 77.8549 239.034 77.3485 238.768C77.0476 238.613 76.9624 238.653 76.8621 238.979C76.7718 239.26 76.6966 239.541 76.6214 239.826C76.5161 240.207 76.5562 240.298 76.9172 240.473C77.3785 240.699 77.8749 240.814 78.3763 240.894C78.7725 240.954 78.7825 240.975 78.7875 241.386C78.7875 241.571 78.7925 241.757 78.7925 241.942C78.7975 242.178 78.9078 242.313 79.1485 242.318C79.4243 242.323 79.6951 242.323 79.9708 242.318C80.1965 242.313 80.3118 242.193 80.3118 241.962C80.3118 241.707 80.3268 241.451 80.3118 241.2C80.3018 240.939 80.4121 240.809 80.6628 240.744C81.2344 240.588 81.7208 240.283 82.0968 239.821C83.1197 238.558 82.7236 236.703 81.2444 235.885Z"
          fill="black" fill-opacity="0.8" />
    <path d="M47.0078 295H45.8457V285.006H51.417V286.038H47.0078V289.695H51.1504V290.728H47.0078V295ZM59.374 291.247C59.374 292.468 59.0664 293.423 58.4512 294.111C57.8359 294.795 56.986 295.137 55.9014 295.137C55.2314 295.137 54.6367 294.979 54.1172 294.665C53.5977 294.351 53.1966 293.899 52.9141 293.312C52.6315 292.724 52.4902 292.035 52.4902 291.247C52.4902 290.026 52.7956 289.076 53.4062 288.396C54.0169 287.713 54.8646 287.371 55.9492 287.371C56.9974 287.371 57.8291 287.72 58.4443 288.417C59.0641 289.114 59.374 290.058 59.374 291.247ZM53.666 291.247C53.666 292.204 53.8574 292.933 54.2402 293.435C54.623 293.936 55.1859 294.187 55.9287 294.187C56.6715 294.187 57.2344 293.938 57.6172 293.441C58.0046 292.94 58.1982 292.209 58.1982 291.247C58.1982 290.295 58.0046 289.572 57.6172 289.08C57.2344 288.583 56.667 288.335 55.915 288.335C55.1722 288.335 54.6117 288.579 54.2334 289.066C53.8551 289.554 53.666 290.281 53.666 291.247ZM62.4365 287.508V292.368C62.4365 292.979 62.5755 293.435 62.8535 293.735C63.1315 294.036 63.5667 294.187 64.1592 294.187C64.943 294.187 65.515 293.972 65.875 293.544C66.2396 293.116 66.4219 292.416 66.4219 291.445V287.508H67.5566V295H66.6201L66.4561 293.995H66.3945C66.1621 294.364 65.8385 294.647 65.4238 294.843C65.0137 295.039 64.5443 295.137 64.0156 295.137C63.1042 295.137 62.4206 294.92 61.9648 294.487C61.5137 294.054 61.2881 293.362 61.2881 292.409V287.508H62.4365ZM75.0967 295V290.153C75.0967 289.543 74.9577 289.087 74.6797 288.786C74.4017 288.485 73.9665 288.335 73.374 288.335C72.5902 288.335 72.016 288.547 71.6514 288.971C71.2868 289.395 71.1045 290.094 71.1045 291.069V295H69.9697V287.508H70.8926L71.0771 288.533H71.1318C71.3643 288.164 71.6901 287.879 72.1094 287.679C72.5286 287.474 72.9958 287.371 73.5107 287.371C74.4131 287.371 75.0921 287.59 75.5479 288.027C76.0036 288.46 76.2314 289.155 76.2314 290.112V295H75.0967ZM83.6689 293.995H83.6074C83.0833 294.756 82.2995 295.137 81.2559 295.137C80.276 295.137 79.5127 294.802 78.9658 294.132C78.4235 293.462 78.1523 292.509 78.1523 291.274C78.1523 290.039 78.4258 289.08 78.9727 288.396C79.5195 287.713 80.2806 287.371 81.2559 287.371C82.2721 287.371 83.0514 287.74 83.5938 288.479H83.6826L83.6348 287.938L83.6074 287.412V284.363H84.7422V295H83.8193L83.6689 293.995ZM81.3994 294.187C82.1742 294.187 82.7347 293.977 83.0811 293.558C83.432 293.134 83.6074 292.452 83.6074 291.514V291.274C83.6074 290.213 83.4297 289.456 83.0742 289.005C82.7233 288.549 82.1605 288.321 81.3857 288.321C80.7204 288.321 80.21 288.581 79.8545 289.101C79.5036 289.616 79.3281 290.345 79.3281 291.288C79.3281 292.245 79.5036 292.967 79.8545 293.455C80.2054 293.943 80.7204 294.187 81.3994 294.187ZM90.3203 295.137C89.2129 295.137 88.3379 294.799 87.6953 294.125C87.0573 293.451 86.7383 292.514 86.7383 291.315C86.7383 290.108 87.0345 289.148 87.627 288.438C88.224 287.727 89.0238 287.371 90.0264 287.371C90.9652 287.371 91.708 287.681 92.2549 288.301C92.8018 288.916 93.0752 289.729 93.0752 290.741V291.459H87.9141C87.9368 292.339 88.1579 293.006 88.5771 293.462C89.001 293.918 89.5957 294.146 90.3613 294.146C91.168 294.146 91.9655 293.977 92.7539 293.64V294.651C92.3529 294.825 91.9723 294.948 91.6123 295.021C91.2568 295.098 90.8262 295.137 90.3203 295.137ZM90.0127 288.321C89.4111 288.321 88.9303 288.517 88.5703 288.909C88.2148 289.301 88.0052 289.843 87.9414 290.536H91.8584C91.8584 289.821 91.6989 289.274 91.3799 288.896C91.0609 288.513 90.6051 288.321 90.0127 288.321ZM98.4346 287.371C98.7673 287.371 99.0658 287.398 99.3301 287.453L99.1729 288.506C98.863 288.438 98.5895 288.403 98.3525 288.403C97.7464 288.403 97.2269 288.649 96.7939 289.142C96.3656 289.634 96.1514 290.247 96.1514 290.98V295H95.0166V287.508H95.9531L96.083 288.896H96.1377C96.4157 288.408 96.7507 288.032 97.1426 287.768C97.5345 287.503 97.9652 287.371 98.4346 287.371Z"
          fill="black" fill-opacity="0.8" />
    <path d="M474 83.1456L516 56.3718L558 83.1456V116.854L516 143.628L474 116.854V83.1456Z" fill="black" />
    <path d="M474 83.1456L516 56.3718L558 83.1456V116.854L516 143.628L474 116.854V83.1456Z" fill="white"
          fill-opacity="0.96" />
    <path d="M474 83.1456L516 56.3718L558 83.1456V116.854L516 143.628L474 116.854V83.1456Z" stroke="white"
          stroke-width="4" />
    <path d="M474 83.1456L516 56.3718L558 83.1456V116.854L516 143.628L474 116.854V83.1456Z" stroke="black"
          stroke-opacity="0.08" stroke-width="4" />
    <g clip-path="url(#clip1)">
        <path d="M516.473 105.627V105.503C515.835 105.496 515.226 105.461 514.637 105.412C514.319 106.237 513.868 107.005 513.307 107.691C514.367 107.864 515.441 107.961 516.514 107.975L516.473 105.627Z"
              fill="black" fill-opacity="0.8" />
        <path fill-rule="evenodd" clip-rule="evenodd"
              d="M508.944 95.8411C511.347 96.596 513.155 98.5906 513.668 101.042C513.758 101.499 513.806 101.97 513.806 102.434C513.813 104.381 512.989 106.23 511.548 107.539C508.73 110.101 504.359 109.9 501.797 107.082C499.234 104.263 499.435 99.8927 502.254 97.3301C503.521 96.1805 505.184 95.5433 506.901 95.5364C507.594 95.5364 508.279 95.6403 508.944 95.8411ZM504.552 99.324C505.177 98.7543 506.026 98.434 506.911 98.4333C507.773 98.4356 508.6 98.741 509.22 99.2857C509.84 99.8303 510.204 100.572 510.238 101.356C510.271 102.14 509.97 102.905 509.397 103.491C508.825 104.077 508.026 104.44 507.167 104.502C507.167 104.502 506.752 104.526 506.646 104.542C506.407 104.572 506.183 104.668 506.006 104.818C505.829 104.967 505.707 105.163 505.657 105.378C505.657 105.378 505.516 105.965 505.507 106.013C505.496 106.069 505.473 106.121 505.439 106.168C505.405 106.215 505.361 106.256 505.31 106.287C505.258 106.318 505.201 106.34 505.14 106.35C505.079 106.361 505.017 106.36 504.956 106.348C504.896 106.336 504.839 106.314 504.788 106.281C504.738 106.249 504.695 106.208 504.662 106.16C504.63 106.112 504.608 106.059 504.598 106.003C504.589 105.948 504.591 105.891 504.606 105.836C504.615 105.788 505.657 101.367 505.657 101.367C505.686 101.262 505.759 101.17 505.861 101.113C505.962 101.055 506.085 101.036 506.201 101.059C506.318 101.082 506.421 101.145 506.488 101.236C506.554 101.326 506.579 101.437 506.558 101.544L506.125 103.361L506.046 103.714C506.044 103.72 506.044 103.726 506.045 103.732C506.047 103.737 506.05 103.742 506.054 103.747C506.059 103.751 506.065 103.754 506.071 103.755C506.077 103.756 506.084 103.756 506.09 103.755C506.119 103.751 506.154 103.745 506.195 103.739C506.241 103.731 506.294 103.723 506.355 103.714C506.584 103.682 507.052 103.658 507.052 103.658C507.52 103.633 507.969 103.485 508.345 103.231C508.722 102.978 509.009 102.63 509.172 102.231C509.335 101.831 509.366 101.397 509.263 100.981C509.159 100.566 508.925 100.187 508.589 99.8901C508.253 99.5935 507.829 99.3925 507.369 99.3115C506.91 99.2305 506.434 99.273 506.001 99.4339C505.567 99.5948 505.194 99.8671 504.928 100.218C504.662 100.568 504.513 100.981 504.5 101.407C504.491 101.673 504.536 101.937 504.633 102.187C504.672 102.294 504.663 102.41 504.608 102.511C504.554 102.611 504.458 102.689 504.341 102.726C504.224 102.761 504.097 102.753 503.986 102.703C503.875 102.654 503.791 102.566 503.75 102.46C503.634 102.141 503.574 101.808 503.573 101.472C503.574 100.666 503.926 99.8937 504.552 99.324ZM506.826 105.453C506.929 105.415 507.041 105.406 507.149 105.426C507.222 105.44 507.29 105.466 507.351 105.504C507.412 105.541 507.464 105.589 507.504 105.646C507.544 105.702 507.572 105.764 507.585 105.83C507.599 105.896 507.598 105.964 507.582 106.029C507.559 106.128 507.505 106.218 507.426 106.288C507.347 106.359 507.247 106.406 507.138 106.425C507.03 106.443 506.917 106.432 506.816 106.393C506.714 106.353 506.628 106.287 506.567 106.203C506.507 106.119 506.475 106.02 506.476 105.919C506.477 105.819 506.511 105.721 506.573 105.638C506.636 105.555 506.724 105.49 506.826 105.453Z"
              fill="black" fill-opacity="0.8" />
        <path d="M516.452 104.11L516.41 101.659C515.981 101.652 515.558 101.638 515.157 101.61C515.177 101.887 515.191 102.157 515.191 102.427C515.191 102.968 515.136 103.515 515.032 104.048C515.489 104.09 515.967 104.11 516.452 104.11Z"
              fill="black" fill-opacity="0.8" />
        <path d="M524.035 92.6484C523.558 92.8977 523.052 93.0985 522.533 93.2509C520.974 93.7219 518.931 93.9781 516.798 93.9781C514.755 93.9781 512.809 93.7426 511.306 93.3063C510.787 93.1678 510.288 92.9739 509.81 92.7315L509.858 94.6845C510.641 94.9754 511.368 95.391 512.026 95.9104C512.047 95.9173 512.061 95.9173 512.082 95.9242C513.411 96.2636 515.087 96.4437 516.798 96.4437C518.779 96.4437 520.725 96.1943 522.131 95.7719C523.634 95.3148 523.966 94.8369 523.966 94.7469C523.966 94.6499 523.959 94.5599 524.035 94.4629V92.6484Z"
              fill="black" fill-opacity="0.8" />
        <path d="M522.124 89.8988C520.718 89.4695 518.772 89.2271 516.791 89.2271C514.796 89.2271 512.927 89.4695 511.528 89.8988C510.066 90.3421 509.748 90.7784 509.741 90.9169C509.741 90.9169 509.748 90.9169 509.748 90.9308C509.782 91.0831 510.198 91.5541 511.687 91.9835C513.065 92.3852 514.88 92.6068 516.791 92.6068C518.772 92.6068 520.711 92.3644 522.117 91.9419C523.62 91.4918 523.959 91.0139 523.959 90.9169C523.959 90.8269 523.627 90.3559 522.124 89.8988Z"
              fill="black" fill-opacity="0.8" />
        <path d="M531.986 109.062V106.985C531.522 107.22 531.037 107.421 530.532 107.573C528.98 108.044 526.951 108.3 524.811 108.3C522.914 108.3 521.064 108.086 519.61 107.705C519.014 107.552 518.439 107.345 517.885 107.075L517.92 109.083C517.92 109.09 517.92 109.09 517.92 109.097C517.92 109.201 518.225 109.665 519.686 110.115C521.071 110.537 522.941 110.773 524.943 110.773C526.937 110.773 528.814 110.531 530.213 110.094C531.675 109.637 531.993 109.159 531.993 109.062H531.986V109.062Z"
              fill="black" fill-opacity="0.8" />
        <path d="M524.022 96.5129C523.544 96.7553 523.045 96.9561 522.526 97.1085C520.967 97.5794 518.924 97.8357 516.784 97.8357C515.731 97.8357 514.686 97.7664 513.647 97.6349C514.208 98.4105 514.623 99.2832 514.887 100.211C515.482 100.253 516.126 100.28 516.791 100.28C516.812 100.28 516.84 100.28 516.86 100.28C517.996 99.0339 521.05 98.4105 524.022 98.3274V96.5129Z"
              fill="black" fill-opacity="0.8" />
        <path d="M530.483 103.743C528.939 104.2 526.93 104.45 524.825 104.45C522.782 104.45 520.836 104.214 519.333 103.778C518.813 103.633 518.308 103.439 517.823 103.196L517.851 104.789L517.858 105.371C518.398 106.043 520.981 106.908 524.818 106.908C526.82 106.908 528.71 106.673 530.13 106.244C531.626 105.786 531.952 105.315 531.952 105.219C531.952 105.142 531.993 105.059 531.993 104.99H532V103.155C531.515 103.397 531.01 103.605 530.483 103.743Z"
              fill="black" fill-opacity="0.8" />
        <path d="M530.158 100.384C528.745 99.955 526.806 99.7264 524.825 99.7264H524.707C522.865 99.7264 521.113 99.9342 519.769 100.315C518.336 100.717 517.844 101.174 517.782 101.361C517.775 101.375 517.775 101.382 517.775 101.389C517.775 101.389 517.775 101.389 517.788 101.416C517.83 101.562 518.239 102.033 519.728 102.469C521.106 102.864 522.92 103.085 524.832 103.085C526.806 103.085 528.676 102.857 530.095 102.434C531.633 101.977 531.979 101.499 531.986 101.396V101.389C531.979 101.285 531.633 100.828 530.158 100.384Z"
              fill="black" fill-opacity="0.8" />
    </g>
    <path d="M494.002 155.006H496.825C498.151 155.006 499.111 155.204 499.703 155.601C500.296 155.997 500.592 156.624 500.592 157.48C500.592 158.073 500.425 158.563 500.093 158.95C499.765 159.333 499.284 159.581 498.65 159.695V159.764C500.168 160.023 500.927 160.821 500.927 162.156C500.927 163.049 500.624 163.747 500.018 164.248C499.416 164.749 498.573 165 497.488 165H494.002V155.006ZM495.164 159.285H497.078C497.898 159.285 498.489 159.158 498.849 158.902C499.209 158.643 499.389 158.207 499.389 157.597C499.389 157.036 499.188 156.633 498.787 156.387C498.386 156.136 497.748 156.011 496.873 156.011H495.164V159.285ZM495.164 160.27V164.009H497.249C498.056 164.009 498.662 163.854 499.067 163.544C499.478 163.229 499.683 162.74 499.683 162.074C499.683 161.454 499.473 160.999 499.054 160.707C498.639 160.415 498.006 160.27 497.153 160.27H495.164ZM509.376 161.247C509.376 162.468 509.068 163.423 508.453 164.111C507.838 164.795 506.988 165.137 505.903 165.137C505.233 165.137 504.639 164.979 504.119 164.665C503.6 164.351 503.199 163.899 502.916 163.312C502.633 162.724 502.492 162.035 502.492 161.247C502.492 160.026 502.798 159.076 503.408 158.396C504.019 157.713 504.867 157.371 505.951 157.371C506.999 157.371 507.831 157.72 508.446 158.417C509.066 159.114 509.376 160.058 509.376 161.247ZM503.668 161.247C503.668 162.204 503.859 162.933 504.242 163.435C504.625 163.936 505.188 164.187 505.931 164.187C506.674 164.187 507.236 163.938 507.619 163.441C508.007 162.94 508.2 162.209 508.2 161.247C508.2 160.295 508.007 159.572 507.619 159.08C507.236 158.583 506.669 158.335 505.917 158.335C505.174 158.335 504.614 158.579 504.235 159.066C503.857 159.554 503.668 160.281 503.668 161.247ZM512.438 157.508V162.368C512.438 162.979 512.577 163.435 512.855 163.735C513.133 164.036 513.569 164.187 514.161 164.187C514.945 164.187 515.517 163.972 515.877 163.544C516.242 163.116 516.424 162.416 516.424 161.445V157.508H517.559V165H516.622L516.458 163.995H516.396C516.164 164.364 515.84 164.647 515.426 164.843C515.016 165.039 514.546 165.137 514.018 165.137C513.106 165.137 512.423 164.92 511.967 164.487C511.516 164.054 511.29 163.362 511.29 162.409V157.508H512.438ZM525.099 165V160.153C525.099 159.543 524.96 159.087 524.682 158.786C524.404 158.485 523.968 158.335 523.376 158.335C522.592 158.335 522.018 158.547 521.653 158.971C521.289 159.395 521.106 160.094 521.106 161.069V165H519.972V157.508H520.895L521.079 158.533H521.134C521.366 158.164 521.692 157.879 522.111 157.679C522.531 157.474 522.998 157.371 523.513 157.371C524.415 157.371 525.094 157.59 525.55 158.027C526.006 158.46 526.233 159.155 526.233 160.112V165H525.099ZM530.991 164.2C531.192 164.2 531.385 164.187 531.572 164.159C531.759 164.127 531.907 164.095 532.017 164.063V164.932C531.894 164.991 531.711 165.039 531.47 165.075C531.233 165.116 531.019 165.137 530.827 165.137C529.378 165.137 528.653 164.373 528.653 162.847V158.39H527.58V157.843L528.653 157.371L529.132 155.771H529.788V157.508H531.962V158.39H529.788V162.799C529.788 163.25 529.895 163.596 530.109 163.838C530.324 164.079 530.618 164.2 530.991 164.2ZM532.331 157.508H533.548L535.188 161.78C535.549 162.756 535.772 163.46 535.858 163.893H535.913C535.972 163.66 536.095 163.264 536.282 162.703C536.474 162.138 537.093 160.406 538.142 157.508H539.358L536.139 166.039C535.82 166.882 535.446 167.479 535.018 167.83C534.594 168.186 534.072 168.363 533.452 168.363C533.106 168.363 532.764 168.325 532.427 168.247V167.338C532.677 167.393 532.958 167.42 533.268 167.42C534.047 167.42 534.603 166.982 534.936 166.107L535.353 165.041L532.331 157.508Z"
          fill="black" fill-opacity="0.8" />
    <path d="M234 83.1456L276 56.3718L318 83.1456V116.854L276 143.628L234 116.854V83.1456Z" fill="black" />
    <path d="M234 83.1456L276 56.3718L318 83.1456V116.854L276 143.628L234 116.854V83.1456Z" fill="white"
          fill-opacity="0.96" />
    <path d="M234 83.1456L276 56.3718L318 83.1456V116.854L276 143.628L234 116.854V83.1456Z" stroke="white"
          stroke-width="4" />
    <path d="M234 83.1456L276 56.3718L318 83.1456V116.854L276 143.628L234 116.854V83.1456Z" stroke="black"
          stroke-opacity="0.08" stroke-width="4" />
    <g clip-path="url(#clip2)">
        <path d="M276.473 105.627V105.503C275.835 105.496 275.226 105.461 274.637 105.412C274.319 106.237 273.868 107.005 273.307 107.691C274.367 107.864 275.441 107.961 276.514 107.975L276.473 105.627Z"
              fill="black" fill-opacity="0.8" />
        <path fill-rule="evenodd" clip-rule="evenodd"
              d="M268.944 95.8411C271.347 96.596 273.155 98.5906 273.668 101.042C273.758 101.499 273.806 101.97 273.806 102.434C273.813 104.381 272.989 106.23 271.548 107.539C268.73 110.101 264.359 109.9 261.797 107.082C259.234 104.263 259.435 99.8927 262.254 97.3301C263.521 96.1805 265.184 95.5433 266.901 95.5364C267.594 95.5364 268.279 95.6403 268.944 95.8411ZM264.552 99.324C265.177 98.7543 266.026 98.434 266.911 98.4333C267.773 98.4356 268.6 98.741 269.22 99.2857C269.84 99.8303 270.204 100.572 270.238 101.356C270.271 102.14 269.97 102.905 269.397 103.491C268.825 104.077 268.026 104.44 267.167 104.502C267.167 104.502 266.752 104.526 266.646 104.542C266.407 104.572 266.183 104.668 266.006 104.818C265.829 104.967 265.707 105.163 265.657 105.378C265.657 105.378 265.516 105.965 265.507 106.013C265.496 106.069 265.473 106.121 265.439 106.168C265.405 106.215 265.361 106.256 265.31 106.287C265.258 106.318 265.201 106.34 265.14 106.35C265.079 106.361 265.017 106.36 264.956 106.348C264.896 106.336 264.839 106.314 264.788 106.281C264.738 106.249 264.695 106.208 264.662 106.16C264.63 106.112 264.608 106.059 264.598 106.003C264.589 105.948 264.591 105.891 264.606 105.836C264.615 105.788 265.657 101.367 265.657 101.367C265.686 101.262 265.759 101.17 265.861 101.113C265.962 101.055 266.085 101.036 266.201 101.059C266.318 101.082 266.421 101.145 266.488 101.236C266.554 101.326 266.579 101.437 266.558 101.544L266.125 103.361L266.046 103.714C266.044 103.72 266.044 103.726 266.045 103.732C266.047 103.737 266.05 103.742 266.054 103.747C266.059 103.751 266.065 103.754 266.071 103.755C266.077 103.756 266.084 103.756 266.09 103.755C266.119 103.751 266.154 103.745 266.195 103.739C266.241 103.731 266.294 103.723 266.355 103.714C266.584 103.682 267.052 103.658 267.052 103.658C267.52 103.633 267.969 103.485 268.345 103.231C268.722 102.978 269.009 102.63 269.172 102.231C269.335 101.831 269.366 101.397 269.263 100.981C269.159 100.566 268.925 100.187 268.589 99.8901C268.253 99.5935 267.829 99.3925 267.369 99.3115C266.91 99.2305 266.434 99.273 266.001 99.4339C265.567 99.5948 265.194 99.8671 264.928 100.218C264.662 100.568 264.513 100.981 264.5 101.407C264.491 101.673 264.536 101.937 264.633 102.187C264.672 102.294 264.663 102.41 264.608 102.511C264.554 102.611 264.458 102.689 264.341 102.726C264.224 102.761 264.097 102.753 263.986 102.703C263.875 102.654 263.791 102.566 263.75 102.46C263.634 102.141 263.574 101.808 263.573 101.472C263.574 100.666 263.926 99.8937 264.552 99.324ZM266.826 105.453C266.929 105.415 267.041 105.406 267.149 105.426C267.222 105.44 267.29 105.466 267.351 105.504C267.412 105.541 267.464 105.589 267.504 105.646C267.544 105.702 267.572 105.764 267.585 105.83C267.599 105.896 267.598 105.964 267.582 106.029C267.559 106.128 267.505 106.218 267.426 106.288C267.347 106.359 267.247 106.406 267.138 106.425C267.03 106.443 266.917 106.432 266.816 106.393C266.714 106.353 266.628 106.287 266.567 106.203C266.507 106.119 266.475 106.02 266.476 105.919C266.477 105.819 266.511 105.721 266.573 105.638C266.636 105.555 266.724 105.49 266.826 105.453Z"
              fill="black" fill-opacity="0.8" />
        <path d="M276.452 104.11L276.41 101.659C275.981 101.652 275.558 101.638 275.157 101.61C275.177 101.887 275.191 102.157 275.191 102.427C275.191 102.968 275.136 103.515 275.032 104.048C275.489 104.09 275.967 104.11 276.452 104.11Z"
              fill="black" fill-opacity="0.8" />
        <path d="M284.035 92.6484C283.558 92.8977 283.052 93.0985 282.533 93.2509C280.974 93.7219 278.931 93.9781 276.798 93.9781C274.755 93.9781 272.809 93.7426 271.306 93.3063C270.787 93.1678 270.288 92.9739 269.81 92.7315L269.858 94.6845C270.641 94.9754 271.368 95.391 272.026 95.9104C272.047 95.9173 272.061 95.9173 272.082 95.9242C273.411 96.2636 275.087 96.4437 276.798 96.4437C278.779 96.4437 280.725 96.1943 282.131 95.7719C283.634 95.3148 283.966 94.8369 283.966 94.7469C283.966 94.6499 283.959 94.5599 284.035 94.4629V92.6484Z"
              fill="black" fill-opacity="0.8" />
        <path d="M282.124 89.8988C280.718 89.4695 278.772 89.2271 276.791 89.2271C274.796 89.2271 272.927 89.4695 271.528 89.8988C270.066 90.3421 269.748 90.7784 269.741 90.9169C269.741 90.9169 269.748 90.9169 269.748 90.9308C269.782 91.0831 270.198 91.5541 271.687 91.9835C273.065 92.3852 274.88 92.6068 276.791 92.6068C278.772 92.6068 280.711 92.3644 282.117 91.9419C283.62 91.4918 283.959 91.0139 283.959 90.9169C283.959 90.8269 283.627 90.3559 282.124 89.8988Z"
              fill="black" fill-opacity="0.8" />
        <path d="M291.986 109.062V106.985C291.522 107.22 291.037 107.421 290.532 107.573C288.98 108.044 286.951 108.3 284.811 108.3C282.914 108.3 281.064 108.086 279.61 107.705C279.014 107.552 278.439 107.345 277.885 107.075L277.92 109.083C277.92 109.09 277.92 109.09 277.92 109.097C277.92 109.201 278.225 109.665 279.686 110.115C281.071 110.537 282.941 110.773 284.943 110.773C286.937 110.773 288.814 110.531 290.213 110.094C291.675 109.637 291.993 109.159 291.993 109.062H291.986V109.062Z"
              fill="black" fill-opacity="0.8" />
        <path d="M284.022 96.5129C283.544 96.7553 283.045 96.9561 282.526 97.1085C280.967 97.5794 278.924 97.8357 276.784 97.8357C275.731 97.8357 274.686 97.7664 273.647 97.6349C274.208 98.4105 274.623 99.2832 274.887 100.211C275.482 100.253 276.126 100.28 276.791 100.28C276.812 100.28 276.84 100.28 276.86 100.28C277.996 99.0339 281.05 98.4105 284.022 98.3274V96.5129Z"
              fill="black" fill-opacity="0.8" />
        <path d="M290.483 103.743C288.939 104.2 286.93 104.45 284.825 104.45C282.782 104.45 280.836 104.214 279.333 103.778C278.813 103.633 278.308 103.439 277.823 103.196L277.851 104.789L277.858 105.371C278.398 106.043 280.981 106.908 284.818 106.908C286.82 106.908 288.71 106.673 290.13 106.244C291.626 105.786 291.952 105.315 291.952 105.219C291.952 105.142 291.993 105.059 291.993 104.99H292V103.155C291.515 103.397 291.01 103.605 290.483 103.743Z"
              fill="black" fill-opacity="0.8" />
        <path d="M290.158 100.384C288.745 99.955 286.806 99.7264 284.825 99.7264H284.707C282.865 99.7264 281.113 99.9342 279.769 100.315C278.336 100.717 277.844 101.174 277.782 101.361C277.775 101.375 277.775 101.382 277.775 101.389C277.775 101.389 277.775 101.389 277.788 101.416C277.83 101.562 278.239 102.033 279.728 102.469C281.106 102.864 282.92 103.085 284.832 103.085C286.806 103.085 288.676 102.857 290.095 102.434C291.633 101.977 291.979 101.499 291.986 101.396V101.389C291.979 101.285 291.633 100.828 290.158 100.384Z"
              fill="black" fill-opacity="0.8" />
    </g>
    <path d="M254.002 155.006H256.825C258.151 155.006 259.111 155.204 259.703 155.601C260.296 155.997 260.592 156.624 260.592 157.48C260.592 158.073 260.425 158.563 260.093 158.95C259.765 159.333 259.284 159.581 258.65 159.695V159.764C260.168 160.023 260.927 160.821 260.927 162.156C260.927 163.049 260.624 163.747 260.018 164.248C259.416 164.749 258.573 165 257.488 165H254.002V155.006ZM255.164 159.285H257.078C257.898 159.285 258.489 159.158 258.849 158.902C259.209 158.643 259.389 158.207 259.389 157.597C259.389 157.036 259.188 156.633 258.787 156.387C258.386 156.136 257.748 156.011 256.873 156.011H255.164V159.285ZM255.164 160.27V164.009H257.249C258.056 164.009 258.662 163.854 259.067 163.544C259.478 163.229 259.683 162.74 259.683 162.074C259.683 161.454 259.473 160.999 259.054 160.707C258.639 160.415 258.006 160.27 257.153 160.27H255.164ZM269.376 161.247C269.376 162.468 269.068 163.423 268.453 164.111C267.838 164.795 266.988 165.137 265.903 165.137C265.233 165.137 264.639 164.979 264.119 164.665C263.6 164.351 263.199 163.899 262.916 163.312C262.633 162.724 262.492 162.035 262.492 161.247C262.492 160.026 262.798 159.076 263.408 158.396C264.019 157.713 264.867 157.371 265.951 157.371C266.999 157.371 267.831 157.72 268.446 158.417C269.066 159.114 269.376 160.058 269.376 161.247ZM263.668 161.247C263.668 162.204 263.859 162.933 264.242 163.435C264.625 163.936 265.188 164.187 265.931 164.187C266.674 164.187 267.236 163.938 267.619 163.441C268.007 162.94 268.2 162.209 268.2 161.247C268.2 160.295 268.007 159.572 267.619 159.08C267.236 158.583 266.669 158.335 265.917 158.335C265.174 158.335 264.614 158.579 264.235 159.066C263.857 159.554 263.668 160.281 263.668 161.247ZM272.438 157.508V162.368C272.438 162.979 272.577 163.435 272.855 163.735C273.133 164.036 273.569 164.187 274.161 164.187C274.945 164.187 275.517 163.972 275.877 163.544C276.242 163.116 276.424 162.416 276.424 161.445V157.508H277.559V165H276.622L276.458 163.995H276.396C276.164 164.364 275.84 164.647 275.426 164.843C275.016 165.039 274.546 165.137 274.018 165.137C273.106 165.137 272.423 164.92 271.967 164.487C271.516 164.054 271.29 163.362 271.29 162.409V157.508H272.438ZM285.099 165V160.153C285.099 159.543 284.96 159.087 284.682 158.786C284.404 158.485 283.968 158.335 283.376 158.335C282.592 158.335 282.018 158.547 281.653 158.971C281.289 159.395 281.106 160.094 281.106 161.069V165H279.972V157.508H280.895L281.079 158.533H281.134C281.366 158.164 281.692 157.879 282.111 157.679C282.531 157.474 282.998 157.371 283.513 157.371C284.415 157.371 285.094 157.59 285.55 158.027C286.006 158.46 286.233 159.155 286.233 160.112V165H285.099ZM290.991 164.2C291.192 164.2 291.385 164.187 291.572 164.159C291.759 164.127 291.907 164.095 292.017 164.063V164.932C291.894 164.991 291.711 165.039 291.47 165.075C291.233 165.116 291.019 165.137 290.827 165.137C289.378 165.137 288.653 164.373 288.653 162.847V158.39H287.58V157.843L288.653 157.371L289.132 155.771H289.788V157.508H291.962V158.39H289.788V162.799C289.788 163.25 289.895 163.596 290.109 163.838C290.324 164.079 290.618 164.2 290.991 164.2ZM292.331 157.508H293.548L295.188 161.78C295.549 162.756 295.772 163.46 295.858 163.893H295.913C295.972 163.66 296.095 163.264 296.282 162.703C296.474 162.138 297.093 160.406 298.142 157.508H299.358L296.139 166.039C295.82 166.882 295.446 167.479 295.018 167.83C294.594 168.186 294.072 168.363 293.452 168.363C293.106 168.363 292.764 168.325 292.427 168.247V167.338C292.677 167.393 292.958 167.42 293.268 167.42C294.047 167.42 294.603 166.982 294.936 166.107L295.353 165.041L292.331 157.508Z"
          fill="black" fill-opacity="0.8" />
    <path d="M474 343.146L516 316.372L558 343.146V376.854L516 403.628L474 376.854V343.146Z" fill="black" />
    <path d="M474 343.146L516 316.372L558 343.146V376.854L516 403.628L474 376.854V343.146Z" fill="white"
          fill-opacity="0.96" />
    <path d="M474 343.146L516 316.372L558 343.146V376.854L516 403.628L474 376.854V343.146Z" stroke="white"
          stroke-width="4" />
    <path d="M474 343.146L516 316.372L558 343.146V376.854L516 403.628L474 376.854V343.146Z" stroke="black"
          stroke-opacity="0.08" stroke-width="4" />
    <g clip-path="url(#clip3)">
        <path d="M516.473 365.627V365.503C515.835 365.496 515.226 365.461 514.637 365.412C514.319 366.237 513.868 367.005 513.307 367.691C514.367 367.864 515.441 367.961 516.514 367.975L516.473 365.627Z"
              fill="black" fill-opacity="0.8" />
        <path fill-rule="evenodd" clip-rule="evenodd"
              d="M508.944 355.841C511.347 356.596 513.155 358.591 513.668 361.042C513.758 361.499 513.806 361.97 513.806 362.434C513.813 364.381 512.989 366.23 511.548 367.539C508.73 370.101 504.359 369.9 501.797 367.082C499.234 364.263 499.435 359.893 502.254 357.33C503.521 356.18 505.184 355.543 506.901 355.536C507.594 355.536 508.279 355.64 508.944 355.841ZM504.552 359.324C505.177 358.754 506.026 358.434 506.911 358.433C507.773 358.436 508.6 358.741 509.22 359.286C509.84 359.83 510.204 360.572 510.238 361.356C510.271 362.14 509.97 362.905 509.397 363.491C508.825 364.077 508.026 364.44 507.167 364.502C507.167 364.502 506.752 364.526 506.646 364.542C506.407 364.572 506.183 364.668 506.006 364.818C505.829 364.967 505.707 365.163 505.657 365.378C505.657 365.378 505.516 365.965 505.507 366.013C505.496 366.069 505.473 366.121 505.439 366.168C505.405 366.215 505.361 366.256 505.31 366.287C505.258 366.318 505.201 366.34 505.14 366.35C505.079 366.361 505.017 366.36 504.956 366.348C504.896 366.336 504.839 366.314 504.788 366.281C504.738 366.249 504.695 366.208 504.662 366.16C504.63 366.112 504.608 366.059 504.598 366.003C504.589 365.948 504.591 365.891 504.606 365.836C504.615 365.788 505.657 361.367 505.657 361.367C505.686 361.262 505.759 361.17 505.861 361.113C505.962 361.055 506.085 361.036 506.201 361.059C506.318 361.082 506.421 361.145 506.488 361.236C506.554 361.326 506.579 361.437 506.558 361.544L506.125 363.361L506.046 363.714C506.044 363.72 506.044 363.726 506.045 363.732C506.047 363.737 506.05 363.742 506.054 363.747C506.059 363.751 506.065 363.754 506.071 363.755C506.077 363.756 506.084 363.756 506.09 363.755C506.119 363.751 506.154 363.745 506.195 363.739C506.241 363.731 506.294 363.723 506.355 363.714C506.584 363.682 507.052 363.658 507.052 363.658C507.52 363.633 507.969 363.485 508.345 363.231C508.722 362.978 509.009 362.63 509.172 362.231C509.335 361.831 509.366 361.397 509.263 360.981C509.159 360.566 508.925 360.187 508.589 359.89C508.253 359.594 507.829 359.392 507.369 359.311C506.91 359.23 506.434 359.273 506.001 359.434C505.567 359.595 505.194 359.867 504.928 360.218C504.662 360.568 504.513 360.981 504.5 361.407C504.491 361.673 504.536 361.937 504.633 362.187C504.672 362.294 504.663 362.41 504.608 362.511C504.554 362.611 504.458 362.689 504.341 362.726C504.224 362.761 504.097 362.753 503.986 362.703C503.875 362.654 503.791 362.566 503.75 362.46C503.634 362.141 503.574 361.808 503.573 361.472C503.574 360.666 503.926 359.894 504.552 359.324ZM506.826 365.453C506.929 365.415 507.041 365.406 507.149 365.426C507.222 365.44 507.29 365.466 507.351 365.504C507.412 365.541 507.464 365.589 507.504 365.646C507.544 365.702 507.572 365.764 507.585 365.83C507.599 365.896 507.598 365.964 507.582 366.029C507.559 366.128 507.505 366.218 507.426 366.288C507.347 366.359 507.247 366.406 507.138 366.425C507.03 366.443 506.917 366.432 506.816 366.393C506.714 366.353 506.628 366.287 506.567 366.203C506.507 366.119 506.475 366.02 506.476 365.919C506.477 365.819 506.511 365.721 506.573 365.638C506.636 365.555 506.724 365.49 506.826 365.453Z"
              fill="black" fill-opacity="0.8" />
        <path d="M516.452 364.11L516.41 361.659C515.981 361.652 515.558 361.638 515.157 361.61C515.177 361.887 515.191 362.157 515.191 362.427C515.191 362.968 515.136 363.515 515.032 364.048C515.489 364.09 515.967 364.11 516.452 364.11Z"
              fill="black" fill-opacity="0.8" />
        <path d="M524.035 352.648C523.558 352.898 523.052 353.099 522.533 353.251C520.974 353.722 518.931 353.978 516.798 353.978C514.755 353.978 512.809 353.743 511.306 353.306C510.787 353.168 510.288 352.974 509.81 352.732L509.858 354.685C510.641 354.975 511.368 355.391 512.026 355.91C512.047 355.917 512.061 355.917 512.082 355.924C513.411 356.264 515.087 356.444 516.798 356.444C518.779 356.444 520.725 356.194 522.131 355.772C523.634 355.315 523.966 354.837 523.966 354.747C523.966 354.65 523.959 354.56 524.035 354.463V352.648Z"
              fill="black" fill-opacity="0.8" />
        <path d="M522.124 349.899C520.718 349.469 518.772 349.227 516.791 349.227C514.796 349.227 512.927 349.469 511.528 349.899C510.066 350.342 509.748 350.778 509.741 350.917C509.741 350.917 509.748 350.917 509.748 350.931C509.782 351.083 510.198 351.554 511.687 351.983C513.065 352.385 514.88 352.607 516.791 352.607C518.772 352.607 520.711 352.364 522.117 351.942C523.62 351.492 523.959 351.014 523.959 350.917C523.959 350.827 523.627 350.356 522.124 349.899Z"
              fill="black" fill-opacity="0.8" />
        <path d="M531.986 369.062V366.985C531.522 367.22 531.037 367.421 530.532 367.573C528.98 368.044 526.951 368.301 524.811 368.301C522.914 368.301 521.064 368.086 519.61 367.705C519.014 367.553 518.439 367.345 517.885 367.075L517.92 369.083C517.92 369.09 517.92 369.09 517.92 369.097C517.92 369.201 518.225 369.665 519.686 370.115C521.071 370.538 522.941 370.773 524.943 370.773C526.937 370.773 528.814 370.531 530.213 370.094C531.675 369.637 531.993 369.159 531.993 369.062H531.986V369.062Z"
              fill="black" fill-opacity="0.8" />
        <path d="M524.022 356.513C523.544 356.755 523.045 356.956 522.526 357.109C520.967 357.58 518.924 357.836 516.784 357.836C515.731 357.836 514.686 357.767 513.647 357.635C514.208 358.411 514.623 359.283 514.887 360.211C515.482 360.253 516.126 360.281 516.791 360.281C516.812 360.281 516.84 360.281 516.86 360.281C517.996 359.034 521.05 358.411 524.022 358.327V356.513Z"
              fill="black" fill-opacity="0.8" />
        <path d="M530.483 363.743C528.939 364.2 526.93 364.45 524.825 364.45C522.782 364.45 520.836 364.214 519.333 363.778C518.813 363.633 518.308 363.439 517.823 363.196L517.851 364.789L517.858 365.371C518.398 366.043 520.981 366.908 524.818 366.908C526.82 366.908 528.71 366.673 530.13 366.244C531.626 365.786 531.952 365.315 531.952 365.219C531.952 365.142 531.993 365.059 531.993 364.99H532V363.155C531.515 363.397 531.01 363.605 530.483 363.743Z"
              fill="black" fill-opacity="0.8" />
        <path d="M530.158 360.384C528.745 359.955 526.806 359.726 524.825 359.726H524.707C522.865 359.726 521.113 359.934 519.769 360.315C518.336 360.717 517.844 361.174 517.782 361.361C517.775 361.375 517.775 361.382 517.775 361.389C517.775 361.389 517.775 361.389 517.788 361.416C517.83 361.562 518.239 362.033 519.728 362.469C521.106 362.864 522.92 363.085 524.832 363.085C526.806 363.085 528.676 362.857 530.095 362.434C531.633 361.977 531.979 361.499 531.986 361.396V361.389C531.979 361.285 531.633 360.828 530.158 360.384Z"
              fill="black" fill-opacity="0.8" />
    </g>
    <path d="M494.002 415.006H496.825C498.151 415.006 499.111 415.204 499.703 415.601C500.296 415.997 500.592 416.624 500.592 417.48C500.592 418.073 500.425 418.563 500.093 418.95C499.765 419.333 499.284 419.581 498.65 419.695V419.764C500.168 420.023 500.927 420.821 500.927 422.156C500.927 423.049 500.624 423.747 500.018 424.248C499.416 424.749 498.573 425 497.488 425H494.002V415.006ZM495.164 419.285H497.078C497.898 419.285 498.489 419.158 498.849 418.902C499.209 418.643 499.389 418.207 499.389 417.597C499.389 417.036 499.188 416.633 498.787 416.387C498.386 416.136 497.748 416.011 496.873 416.011H495.164V419.285ZM495.164 420.27V424.009H497.249C498.056 424.009 498.662 423.854 499.067 423.544C499.478 423.229 499.683 422.74 499.683 422.074C499.683 421.454 499.473 420.999 499.054 420.707C498.639 420.415 498.006 420.27 497.153 420.27H495.164ZM509.376 421.247C509.376 422.468 509.068 423.423 508.453 424.111C507.838 424.795 506.988 425.137 505.903 425.137C505.233 425.137 504.639 424.979 504.119 424.665C503.6 424.351 503.199 423.899 502.916 423.312C502.633 422.724 502.492 422.035 502.492 421.247C502.492 420.026 502.798 419.076 503.408 418.396C504.019 417.713 504.867 417.371 505.951 417.371C506.999 417.371 507.831 417.72 508.446 418.417C509.066 419.114 509.376 420.058 509.376 421.247ZM503.668 421.247C503.668 422.204 503.859 422.933 504.242 423.435C504.625 423.936 505.188 424.187 505.931 424.187C506.674 424.187 507.236 423.938 507.619 423.441C508.007 422.94 508.2 422.209 508.2 421.247C508.2 420.295 508.007 419.572 507.619 419.08C507.236 418.583 506.669 418.335 505.917 418.335C505.174 418.335 504.614 418.579 504.235 419.066C503.857 419.554 503.668 420.281 503.668 421.247ZM512.438 417.508V422.368C512.438 422.979 512.577 423.435 512.855 423.735C513.133 424.036 513.569 424.187 514.161 424.187C514.945 424.187 515.517 423.972 515.877 423.544C516.242 423.116 516.424 422.416 516.424 421.445V417.508H517.559V425H516.622L516.458 423.995H516.396C516.164 424.364 515.84 424.647 515.426 424.843C515.016 425.039 514.546 425.137 514.018 425.137C513.106 425.137 512.423 424.92 511.967 424.487C511.516 424.054 511.29 423.362 511.29 422.409V417.508H512.438ZM525.099 425V420.153C525.099 419.543 524.96 419.087 524.682 418.786C524.404 418.485 523.968 418.335 523.376 418.335C522.592 418.335 522.018 418.547 521.653 418.971C521.289 419.395 521.106 420.094 521.106 421.069V425H519.972V417.508H520.895L521.079 418.533H521.134C521.366 418.164 521.692 417.879 522.111 417.679C522.531 417.474 522.998 417.371 523.513 417.371C524.415 417.371 525.094 417.59 525.55 418.027C526.006 418.46 526.233 419.155 526.233 420.112V425H525.099ZM530.991 424.2C531.192 424.2 531.385 424.187 531.572 424.159C531.759 424.127 531.907 424.095 532.017 424.063V424.932C531.894 424.991 531.711 425.039 531.47 425.075C531.233 425.116 531.019 425.137 530.827 425.137C529.378 425.137 528.653 424.373 528.653 422.847V418.39H527.58V417.843L528.653 417.371L529.132 415.771H529.788V417.508H531.962V418.39H529.788V422.799C529.788 423.25 529.895 423.596 530.109 423.838C530.324 424.079 530.618 424.2 530.991 424.2ZM532.331 417.508H533.548L535.188 421.78C535.549 422.756 535.772 423.46 535.858 423.893H535.913C535.972 423.66 536.095 423.264 536.282 422.703C536.474 422.138 537.093 420.406 538.142 417.508H539.358L536.139 426.039C535.82 426.882 535.446 427.479 535.018 427.83C534.594 428.186 534.072 428.363 533.452 428.363C533.106 428.363 532.764 428.325 532.427 428.247V427.338C532.677 427.393 532.958 427.42 533.268 427.42C534.047 427.42 534.603 426.982 534.936 426.107L535.353 425.041L532.331 417.508Z"
          fill="black" fill-opacity="0.8" />
    <path d="M234 343.146L276 316.372L318 343.146V376.854L276 403.628L234 376.854V343.146Z" fill="black" />
    <path d="M234 343.146L276 316.372L318 343.146V376.854L276 403.628L234 376.854V343.146Z" fill="white"
          fill-opacity="0.96" />
    <path d="M234 343.146L276 316.372L318 343.146V376.854L276 403.628L234 376.854V343.146Z" stroke="white"
          stroke-width="4" />
    <path d="M234 343.146L276 316.372L318 343.146V376.854L276 403.628L234 376.854V343.146Z" stroke="black"
          stroke-opacity="0.08" stroke-width="4" />
    <path d="M281.208 367.505C279.649 366.507 279.383 365.193 279.443 364.256C279.488 363.514 279.709 362.862 280.1 362.315C279.383 361.909 278.851 361.643 278.641 361.538C278.576 361.508 278.536 361.443 278.536 361.373V357.391C279.037 357.06 279.368 356.489 279.368 355.842V351.715C279.368 349.665 277.703 348 275.652 348H275.206H274.765C272.714 348 271.049 349.665 271.049 351.715V355.842C271.049 356.489 271.38 357.055 271.882 357.391V361.373C271.882 361.443 271.842 361.508 271.777 361.538C271.215 361.814 268.462 363.208 265.905 365.304C265.444 365.685 265.178 366.251 265.178 366.848V369.676H273.892L274.755 365.735C273.015 363.308 274.885 363.193 275.211 363.188C275.537 363.193 277.407 363.308 275.667 365.735L276.53 369.676H279.423C279.438 369.616 279.453 369.561 279.463 369.516C279.548 369.205 279.629 368.919 279.719 368.628C279.769 368.463 279.849 368.247 280.005 368.041C280.265 367.695 280.662 367.495 281.088 367.495C281.123 367.495 281.168 367.5 281.208 367.505Z"
          fill="black" fill-opacity="0.8" />
    <path d="M285.244 365.885C284.783 365.63 284.292 365.434 283.8 365.233C283.519 365.118 283.249 364.978 283.008 364.787C282.537 364.411 282.627 363.804 283.179 363.564C283.334 363.499 283.494 363.473 283.665 363.463C284.302 363.428 284.908 363.544 285.485 363.824C285.771 363.965 285.866 363.92 285.966 363.619C286.067 363.303 286.157 362.982 286.247 362.661C286.307 362.446 286.232 362.305 286.032 362.215C285.661 362.054 285.279 361.934 284.883 361.874C284.362 361.794 284.362 361.789 284.362 361.267C284.357 360.525 284.357 360.525 283.62 360.53C283.514 360.53 283.404 360.525 283.299 360.53C282.953 360.54 282.893 360.6 282.883 360.946C282.878 361.102 282.883 361.257 282.883 361.418C282.883 361.879 282.878 361.874 282.436 362.034C281.363 362.426 280.702 363.153 280.631 364.326C280.566 365.359 281.108 366.061 281.96 366.567C282.487 366.883 283.063 367.069 283.62 367.309C283.835 367.405 284.041 367.515 284.226 367.665C284.763 368.106 284.663 368.839 284.031 369.114C283.69 369.265 283.334 369.3 282.968 369.255C282.401 369.185 281.855 369.034 281.348 368.768C281.048 368.613 280.962 368.653 280.862 368.979C280.772 369.26 280.697 369.541 280.621 369.826C280.516 370.207 280.556 370.298 280.917 370.473C281.378 370.699 281.875 370.814 282.376 370.894C282.772 370.954 282.782 370.975 282.787 371.386C282.787 371.571 282.792 371.757 282.792 371.942C282.797 372.178 282.908 372.313 283.148 372.318C283.424 372.323 283.695 372.323 283.971 372.318C284.196 372.313 284.312 372.193 284.312 371.962C284.312 371.707 284.327 371.451 284.312 371.2C284.302 370.939 284.412 370.809 284.663 370.744C285.234 370.588 285.721 370.283 286.097 369.821C287.12 368.558 286.724 366.703 285.244 365.885Z"
          fill="black" fill-opacity="0.8" />
    <path d="M251.008 425H249.846V415.006H255.417V416.038H251.008V419.695H255.15V420.728H251.008V425ZM263.374 421.247C263.374 422.468 263.066 423.423 262.451 424.111C261.836 424.795 260.986 425.137 259.901 425.137C259.231 425.137 258.637 424.979 258.117 424.665C257.598 424.351 257.197 423.899 256.914 423.312C256.632 422.724 256.49 422.035 256.49 421.247C256.49 420.026 256.796 419.076 257.406 418.396C258.017 417.713 258.865 417.371 259.949 417.371C260.997 417.371 261.829 417.72 262.444 418.417C263.064 419.114 263.374 420.058 263.374 421.247ZM257.666 421.247C257.666 422.204 257.857 422.933 258.24 423.435C258.623 423.936 259.186 424.187 259.929 424.187C260.672 424.187 261.234 423.938 261.617 423.441C262.005 422.94 262.198 422.209 262.198 421.247C262.198 420.295 262.005 419.572 261.617 419.08C261.234 418.583 260.667 418.335 259.915 418.335C259.172 418.335 258.612 418.579 258.233 419.066C257.855 419.554 257.666 420.281 257.666 421.247ZM266.437 417.508V422.368C266.437 422.979 266.576 423.435 266.854 423.735C267.132 424.036 267.567 424.187 268.159 424.187C268.943 424.187 269.515 423.972 269.875 423.544C270.24 423.116 270.422 422.416 270.422 421.445V417.508H271.557V425H270.62L270.456 423.995H270.395C270.162 424.364 269.839 424.647 269.424 424.843C269.014 425.039 268.544 425.137 268.016 425.137C267.104 425.137 266.421 424.92 265.965 424.487C265.514 424.054 265.288 423.362 265.288 422.409V417.508H266.437ZM279.097 425V420.153C279.097 419.543 278.958 419.087 278.68 418.786C278.402 418.485 277.966 418.335 277.374 418.335C276.59 418.335 276.016 418.547 275.651 418.971C275.287 419.395 275.104 420.094 275.104 421.069V425H273.97V417.508H274.893L275.077 418.533H275.132C275.364 418.164 275.69 417.879 276.109 417.679C276.529 417.474 276.996 417.371 277.511 417.371C278.413 417.371 279.092 417.59 279.548 418.027C280.004 418.46 280.231 419.155 280.231 420.112V425H279.097ZM287.669 423.995H287.607C287.083 424.756 286.299 425.137 285.256 425.137C284.276 425.137 283.513 424.802 282.966 424.132C282.424 423.462 282.152 422.509 282.152 421.274C282.152 420.039 282.426 419.08 282.973 418.396C283.52 417.713 284.281 417.371 285.256 417.371C286.272 417.371 287.051 417.74 287.594 418.479H287.683L287.635 417.938L287.607 417.412V414.363H288.742V425H287.819L287.669 423.995ZM285.399 424.187C286.174 424.187 286.735 423.977 287.081 423.558C287.432 423.134 287.607 422.452 287.607 421.514V421.274C287.607 420.213 287.43 419.456 287.074 419.005C286.723 418.549 286.16 418.321 285.386 418.321C284.72 418.321 284.21 418.581 283.854 419.101C283.504 419.616 283.328 420.345 283.328 421.288C283.328 422.245 283.504 422.967 283.854 423.455C284.205 423.943 284.72 424.187 285.399 424.187ZM294.32 425.137C293.213 425.137 292.338 424.799 291.695 424.125C291.057 423.451 290.738 422.514 290.738 421.315C290.738 420.108 291.035 419.148 291.627 418.438C292.224 417.727 293.024 417.371 294.026 417.371C294.965 417.371 295.708 417.681 296.255 418.301C296.802 418.916 297.075 419.729 297.075 420.741V421.459H291.914C291.937 422.339 292.158 423.006 292.577 423.462C293.001 423.918 293.596 424.146 294.361 424.146C295.168 424.146 295.965 423.977 296.754 423.64V424.651C296.353 424.825 295.972 424.948 295.612 425.021C295.257 425.098 294.826 425.137 294.32 425.137ZM294.013 418.321C293.411 418.321 292.93 418.517 292.57 418.909C292.215 419.301 292.005 419.843 291.941 420.536H295.858C295.858 419.821 295.699 419.274 295.38 418.896C295.061 418.513 294.605 418.321 294.013 418.321ZM302.435 417.371C302.767 417.371 303.066 417.398 303.33 417.453L303.173 418.506C302.863 418.438 302.59 418.403 302.353 418.403C301.746 418.403 301.227 418.649 300.794 419.142C300.366 419.634 300.151 420.247 300.151 420.98V425H299.017V417.508H299.953L300.083 418.896H300.138C300.416 418.408 300.751 418.032 301.143 417.768C301.535 417.503 301.965 417.371 302.435 417.371Z"
          fill="black" fill-opacity="0.8" />
    <path d="M1122 343.146L1164 316.372L1206 343.146V376.854L1164 403.628L1122 376.854V343.146Z" fill="black" />
    <path d="M1122 343.146L1164 316.372L1206 343.146V376.854L1164 403.628L1122 376.854V343.146Z" fill="white"
          fill-opacity="0.96" />
    <path d="M1122 343.146L1164 316.372L1206 343.146V376.854L1164 403.628L1122 376.854V343.146Z" stroke="white"
          stroke-width="4" />
    <path d="M1122 343.146L1164 316.372L1206 343.146V376.854L1164 403.628L1122 376.854V343.146Z" stroke="black"
          stroke-opacity="0.08" stroke-width="4" />
    <path d="M1169.64 366.36C1167.13 364.294 1164.41 362.924 1163.86 362.65C1163.8 362.617 1163.76 362.557 1163.76 362.486V358.573C1164.25 358.245 1164.58 357.686 1164.58 357.05V352.99C1164.58 350.968 1162.94 349.335 1160.92 349.335H1160.48H1160.05C1158.02 349.335 1156.39 350.973 1156.39 352.99V357.05C1156.39 357.686 1156.71 358.245 1157.21 358.573V362.491C1157.21 362.563 1157.17 362.623 1157.1 362.656C1156.55 362.924 1153.84 364.294 1151.33 366.365C1150.87 366.738 1150.61 367.297 1150.61 367.883V370.667H1159.19H1161.78H1170.35V367.883C1170.35 367.291 1170.09 366.732 1169.64 366.36Z"
          fill="black" fill-opacity="0.8" />
    <path fill-rule="evenodd" clip-rule="evenodd"
          d="M1167.94 350.957C1170.1 348.792 1173.61 348.792 1175.77 350.957C1177.93 353.121 1177.93 356.623 1175.77 358.787C1173.95 360.606 1171.17 360.897 1169.05 359.647L1169.04 359.636C1168.2 360.266 1167.31 360.376 1166.68 360.277C1166.48 360.244 1166.43 359.965 1166.62 359.872C1167.19 359.592 1167.55 359.034 1167.76 358.584L1167.71 358.54C1165.78 356.365 1165.86 353.039 1167.94 350.957ZM1169.55 354.979L1170.94 352.189H1169.85L1168.46 354.979L1169.85 357.768H1170.94L1169.55 354.979ZM1174.07 354.979L1172.68 352.189H1173.77L1175.16 354.979L1173.77 357.768H1172.68L1174.07 354.979Z"
          fill="black" fill-opacity="0.8" />
    <path d="M1149.93 425H1148.77V420.297H1143.51V425H1142.34V415.006H1143.51V419.258H1148.77V415.006H1149.93V425ZM1153.58 417.508V422.368C1153.58 422.979 1153.71 423.435 1153.99 423.735C1154.27 424.036 1154.71 424.187 1155.3 424.187C1156.08 424.187 1156.65 423.972 1157.01 423.544C1157.38 423.116 1157.56 422.416 1157.56 421.445V417.508H1158.7V425H1157.76L1157.59 423.995H1157.53C1157.3 424.364 1156.98 424.647 1156.56 424.843C1156.15 425.039 1155.68 425.137 1155.15 425.137C1154.24 425.137 1153.56 424.92 1153.1 424.487C1152.65 424.054 1152.43 423.362 1152.43 422.409V417.508H1153.58ZM1166.24 425V420.153C1166.24 419.543 1166.1 419.087 1165.82 418.786C1165.54 418.485 1165.11 418.335 1164.51 418.335C1163.73 418.335 1163.15 418.547 1162.79 418.971C1162.43 419.395 1162.24 420.094 1162.24 421.069V425H1161.11V417.508H1162.03L1162.22 418.533H1162.27C1162.5 418.164 1162.83 417.879 1163.25 417.679C1163.67 417.474 1164.13 417.371 1164.65 417.371C1165.55 417.371 1166.23 417.59 1166.69 418.027C1167.14 418.46 1167.37 419.155 1167.37 420.112V425H1166.24ZM1172.13 424.2C1172.33 424.2 1172.52 424.187 1172.71 424.159C1172.9 424.127 1173.04 424.095 1173.15 424.063V424.932C1173.03 424.991 1172.85 425.039 1172.61 425.075C1172.37 425.116 1172.16 425.137 1171.96 425.137C1170.51 425.137 1169.79 424.373 1169.79 422.847V418.39H1168.72V417.843L1169.79 417.371L1170.27 415.771H1170.92V417.508H1173.1V418.39H1170.92V422.799C1170.92 423.25 1171.03 423.596 1171.25 423.838C1171.46 424.079 1171.75 424.2 1172.13 424.2ZM1177.82 425.137C1176.71 425.137 1175.84 424.799 1175.2 424.125C1174.56 423.451 1174.24 422.514 1174.24 421.315C1174.24 420.108 1174.54 419.148 1175.13 418.438C1175.73 417.727 1176.53 417.371 1177.53 417.371C1178.47 417.371 1179.21 417.681 1179.76 418.301C1180.3 418.916 1180.58 419.729 1180.58 420.741V421.459H1175.42C1175.44 422.339 1175.66 423.006 1176.08 423.462C1176.5 423.918 1177.1 424.146 1177.86 424.146C1178.67 424.146 1179.47 423.977 1180.26 423.64V424.651C1179.85 424.825 1179.47 424.948 1179.11 425.021C1178.76 425.098 1178.33 425.137 1177.82 425.137ZM1177.51 418.321C1176.91 418.321 1176.43 418.517 1176.07 418.909C1175.72 419.301 1175.51 419.843 1175.44 420.536H1179.36C1179.36 419.821 1179.2 419.274 1178.88 418.896C1178.56 418.513 1178.11 418.321 1177.51 418.321ZM1185.94 417.371C1186.27 417.371 1186.57 417.398 1186.83 417.453L1186.67 418.506C1186.36 418.438 1186.09 418.403 1185.85 418.403C1185.25 418.403 1184.73 418.649 1184.3 419.142C1183.87 419.634 1183.65 420.247 1183.65 420.98V425H1182.52V417.508H1183.46L1183.58 418.896H1183.64C1183.92 418.408 1184.25 418.032 1184.64 417.768C1185.04 417.503 1185.47 417.371 1185.94 417.371Z"
          fill="black" fill-opacity="0.8" />
    <path d="M882 343.146L924 316.372L966 343.146V376.854L924 403.628L882 376.854V343.146Z" fill="black" />
    <path d="M882 343.146L924 316.372L966 343.146V376.854L924 403.628L882 376.854V343.146Z" fill="white"
          fill-opacity="0.96" />
    <path d="M882 343.146L924 316.372L966 343.146V376.854L924 403.628L882 376.854V343.146Z" stroke="white"
          stroke-width="4" />
    <path d="M882 343.146L924 316.372L966 343.146V376.854L924 403.628L882 376.854V343.146Z" stroke="black"
          stroke-opacity="0.08" stroke-width="4" />
    <path d="M929.208 367.505C927.649 366.507 927.383 365.193 927.443 364.256C927.488 363.514 927.709 362.862 928.1 362.315C927.383 361.909 926.851 361.643 926.641 361.538C926.576 361.508 926.536 361.443 926.536 361.373V357.391C927.037 357.06 927.368 356.489 927.368 355.842V351.715C927.368 349.665 925.703 348 923.652 348H923.206H922.765C920.714 348 919.049 349.665 919.049 351.715V355.842C919.049 356.489 919.38 357.055 919.882 357.391V361.373C919.882 361.443 919.842 361.508 919.777 361.538C919.215 361.814 916.462 363.208 913.905 365.304C913.444 365.685 913.178 366.251 913.178 366.848V369.676H921.892L922.755 365.735C921.015 363.308 922.885 363.193 923.211 363.188C923.537 363.193 925.407 363.308 923.667 365.735L924.53 369.676H927.423C927.438 369.616 927.453 369.561 927.463 369.516C927.548 369.205 927.629 368.919 927.719 368.628C927.769 368.463 927.849 368.247 928.005 368.041C928.265 367.695 928.662 367.495 929.088 367.495C929.123 367.495 929.168 367.5 929.208 367.505Z"
          fill="black" fill-opacity="0.8" />
    <path d="M933.244 365.885C932.783 365.63 932.292 365.434 931.8 365.233C931.519 365.118 931.249 364.978 931.008 364.787C930.537 364.411 930.627 363.804 931.179 363.564C931.334 363.499 931.494 363.473 931.665 363.463C932.302 363.428 932.908 363.544 933.485 363.824C933.771 363.965 933.866 363.92 933.966 363.619C934.067 363.303 934.157 362.982 934.247 362.661C934.307 362.446 934.232 362.305 934.032 362.215C933.661 362.054 933.279 361.934 932.883 361.874C932.362 361.794 932.362 361.789 932.362 361.267C932.357 360.525 932.357 360.525 931.62 360.53C931.514 360.53 931.404 360.525 931.299 360.53C930.953 360.54 930.893 360.6 930.883 360.946C930.878 361.102 930.883 361.257 930.883 361.418C930.883 361.879 930.878 361.874 930.436 362.034C929.363 362.426 928.702 363.153 928.631 364.326C928.566 365.359 929.108 366.061 929.96 366.567C930.487 366.883 931.063 367.069 931.62 367.309C931.835 367.405 932.041 367.515 932.226 367.665C932.763 368.106 932.663 368.839 932.031 369.114C931.69 369.265 931.334 369.3 930.968 369.255C930.401 369.185 929.855 369.034 929.348 368.768C929.048 368.613 928.962 368.653 928.862 368.979C928.772 369.26 928.697 369.541 928.621 369.826C928.516 370.207 928.556 370.298 928.917 370.473C929.378 370.699 929.875 370.814 930.376 370.894C930.772 370.954 930.782 370.975 930.787 371.386C930.787 371.571 930.792 371.757 930.792 371.942C930.797 372.178 930.908 372.313 931.148 372.318C931.424 372.323 931.695 372.323 931.971 372.318C932.196 372.313 932.312 372.193 932.312 371.962C932.312 371.707 932.327 371.451 932.312 371.2C932.302 370.939 932.412 370.809 932.663 370.744C933.234 370.588 933.721 370.283 934.097 369.821C935.12 368.558 934.724 366.703 933.244 365.885Z"
          fill="black" fill-opacity="0.8" />
    <path d="M899.008 425H897.846V415.006H903.417V416.038H899.008V419.695H903.15V420.728H899.008V425ZM911.374 421.247C911.374 422.468 911.066 423.423 910.451 424.111C909.836 424.795 908.986 425.137 907.901 425.137C907.231 425.137 906.637 424.979 906.117 424.665C905.598 424.351 905.197 423.899 904.914 423.312C904.632 422.724 904.49 422.035 904.49 421.247C904.49 420.026 904.796 419.076 905.406 418.396C906.017 417.713 906.865 417.371 907.949 417.371C908.997 417.371 909.829 417.72 910.444 418.417C911.064 419.114 911.374 420.058 911.374 421.247ZM905.666 421.247C905.666 422.204 905.857 422.933 906.24 423.435C906.623 423.936 907.186 424.187 907.929 424.187C908.672 424.187 909.234 423.938 909.617 423.441C910.005 422.94 910.198 422.209 910.198 421.247C910.198 420.295 910.005 419.572 909.617 419.08C909.234 418.583 908.667 418.335 907.915 418.335C907.172 418.335 906.612 418.579 906.233 419.066C905.855 419.554 905.666 420.281 905.666 421.247ZM914.437 417.508V422.368C914.437 422.979 914.576 423.435 914.854 423.735C915.132 424.036 915.567 424.187 916.159 424.187C916.943 424.187 917.515 423.972 917.875 423.544C918.24 423.116 918.422 422.416 918.422 421.445V417.508H919.557V425H918.62L918.456 423.995H918.395C918.162 424.364 917.839 424.647 917.424 424.843C917.014 425.039 916.544 425.137 916.016 425.137C915.104 425.137 914.421 424.92 913.965 424.487C913.514 424.054 913.288 423.362 913.288 422.409V417.508H914.437ZM927.097 425V420.153C927.097 419.543 926.958 419.087 926.68 418.786C926.402 418.485 925.966 418.335 925.374 418.335C924.59 418.335 924.016 418.547 923.651 418.971C923.287 419.395 923.104 420.094 923.104 421.069V425H921.97V417.508H922.893L923.077 418.533H923.132C923.364 418.164 923.69 417.879 924.109 417.679C924.529 417.474 924.996 417.371 925.511 417.371C926.413 417.371 927.092 417.59 927.548 418.027C928.004 418.46 928.231 419.155 928.231 420.112V425H927.097ZM935.669 423.995H935.607C935.083 424.756 934.299 425.137 933.256 425.137C932.276 425.137 931.513 424.802 930.966 424.132C930.424 423.462 930.152 422.509 930.152 421.274C930.152 420.039 930.426 419.08 930.973 418.396C931.52 417.713 932.281 417.371 933.256 417.371C934.272 417.371 935.051 417.74 935.594 418.479H935.683L935.635 417.938L935.607 417.412V414.363H936.742V425H935.819L935.669 423.995ZM933.399 424.187C934.174 424.187 934.735 423.977 935.081 423.558C935.432 423.134 935.607 422.452 935.607 421.514V421.274C935.607 420.213 935.43 419.456 935.074 419.005C934.723 418.549 934.16 418.321 933.386 418.321C932.72 418.321 932.21 418.581 931.854 419.101C931.504 419.616 931.328 420.345 931.328 421.288C931.328 422.245 931.504 422.967 931.854 423.455C932.205 423.943 932.72 424.187 933.399 424.187ZM942.32 425.137C941.213 425.137 940.338 424.799 939.695 424.125C939.057 423.451 938.738 422.514 938.738 421.315C938.738 420.108 939.035 419.148 939.627 418.438C940.224 417.727 941.024 417.371 942.026 417.371C942.965 417.371 943.708 417.681 944.255 418.301C944.802 418.916 945.075 419.729 945.075 420.741V421.459H939.914C939.937 422.339 940.158 423.006 940.577 423.462C941.001 423.918 941.596 424.146 942.361 424.146C943.168 424.146 943.965 423.977 944.754 423.64V424.651C944.353 424.825 943.972 424.948 943.612 425.021C943.257 425.098 942.826 425.137 942.32 425.137ZM942.013 418.321C941.411 418.321 940.93 418.517 940.57 418.909C940.215 419.301 940.005 419.843 939.941 420.536H943.858C943.858 419.821 943.699 419.274 943.38 418.896C943.061 418.513 942.605 418.321 942.013 418.321ZM950.435 417.371C950.767 417.371 951.066 417.398 951.33 417.453L951.173 418.506C950.863 418.438 950.59 418.403 950.353 418.403C949.746 418.403 949.227 418.649 948.794 419.142C948.366 419.634 948.151 420.247 948.151 420.98V425H947.017V417.508H947.953L948.083 418.896H948.138C948.416 418.408 948.751 418.032 949.143 417.768C949.535 417.503 949.965 417.371 950.435 417.371Z"
          fill="black" fill-opacity="0.8" />
    <defs>
        <clipPath id="clip0">
            <rect width="32" height="32" fill="white" transform="translate(1148 84)" />
        </clipPath>
        <clipPath id="clip1">
            <rect width="32" height="32" fill="white" transform="translate(500 84)" />
        </clipPath>
        <clipPath id="clip2">
            <rect width="32" height="32" fill="white" transform="translate(260 84)" />
        </clipPath>
        <clipPath id="clip3">
            <rect width="32" height="32" fill="white" transform="translate(500 344)" />
        </clipPath>
    </defs>
</svg>
