<svg xmlns="http://www.w3.org/2000/svg"
     data-name="Layer 1"
     viewBox="0 0 100 100"
     x="0px" y="0px">
    <title>Law_20Icon</title>
    <path d="M83.62,14.32H40.68A14.17,14.17,0,0,0,26.53,28.47v29.8a11.5,11.5,0,0,0-9.19,11.26V70A11.33,11.33,0,0,0,28.65,81.28H67.47l.52,0,.54,0a1.13,1.13,0,0,0,.48-.11A11.28,11.28,0,0,0,78.78,70V27l0-.25a6.72,6.72,0,0,1,1.32-4.46,5.56,5.56,0,0,1,3.67-1.54,1.22,1.22,0,0,0,1.08-1.21v-4A1.21,1.21,0,0,0,83.62,14.32Zm-1.21,4.14a7.3,7.3,0,0,0-4.13,2.17,9,9,0,0,0-1.93,6.25V70a8.85,8.85,0,0,1-8,8.83l-.21,0H28.65A8.89,8.89,0,0,1,19.76,70v-.44a9,9,0,0,1,8.09-9H72.48V62.1h-4a7.64,7.64,0,0,0-.63,15.26h.2A7.47,7.47,0,0,0,74.9,70a1.21,1.21,0,0,0-2.42,0,5,5,0,0,1-4.49,5,5.22,5.22,0,0,1,.54-10.42h5.16a1.21,1.21,0,0,0,1.21-1.21v-4a1.21,1.21,0,0,0-1.21-1.21H32.83V28.47a7.86,7.86,0,0,1,7.85-7.85,1.21,1.21,0,0,0,0-2.42A10.29,10.29,0,0,0,30.41,28.47V58.11H29V28.47A11.74,11.74,0,0,1,40.68,16.74H82.41Z" />
    <path d="M72.48,52.3a1.21,1.21,0,0,0,2.42,0V27.11a.31.31,0,0,0,0-.1,10.71,10.71,0,0,1,1.9-6.86,1.21,1.21,0,1,0-1.92-1.47,13.16,13.16,0,0,0-2.39,8.47Z" />
    <path d="M53.64,46.66H46.57a1.22,1.22,0,0,0,0,2.43h4.34V51a1.21,1.21,0,1,0,2.42,0V49.09h.31a5.21,5.21,0,0,0,0-10.41H50.57a2.78,2.78,0,1,1,0-5.56h7.06a1.21,1.21,0,0,0,0-2.42h-4.3V28.84a1.21,1.21,0,1,0-2.42,0V30.7h-.34a5.2,5.2,0,1,0,0,10.4h3.07a2.78,2.78,0,0,1,0,5.56Z" />
</svg>
