<svg width="128" height="128" viewBox="0 0 128 128" fill="none" xmlns="http://www.w3.org/2000/svg">
<g clip-path="url(#clip0)">
<path d="M51.1855 27.0288L63.9426 19.6099L76.7901 27.0288L76.7448 41.7763L63.9876 49.1726L51.1401 41.7763L51.1855 27.0288Z" fill="#04D2C5"/>
<path d="M76.6777 56.5417L89.6505 64.0281L76.9041 71.4475L76.8589 86.195L89.6838 93.5911L127.955 71.3569L128 56.6094L89.4802 34.3752L76.723 41.7942L76.6777 56.5417Z" fill="#04D2C5"/>
<path d="M51.0961 56.5417L51.1413 41.7942L38.2934 34.3752L0.0452365 56.6097L0 71.3569L38.5199 93.5912L51.2544 86.195L51.2992 71.4475L38.3325 63.9531L51.0961 56.5417Z" fill="#04D2C5"/>
<path d="M64.0222 78.7898L76.8471 86.2088L76.8023 100.956L64.0677 108.375L51.2202 100.956L51.2651 86.2088L64.0222 78.7898Z" fill="#04D2C5"/>
<path d="M64.0329 34.4254L63.9876 49.1729L51.1401 41.7765L51.1854 27.0291L64.0329 34.4254Z" fill="#04D2C5"/>
<path d="M64.0329 34.4254L63.9876 49.1729L51.1401 41.7765L51.1854 27.0291L64.0329 34.4254Z" fill="black" fill-opacity="0.08"/>
<path d="M102.395 56.6098L102.35 71.3572L76.6777 56.5419L76.723 41.7944L102.395 56.6098Z" fill="#04D2C5"/>
<path d="M102.395 56.6098L102.35 71.3572L76.6777 56.5419L76.723 41.7944L102.395 56.6098Z" fill="black" fill-opacity="0.08"/>
<path d="M89.729 78.8441L89.6838 93.5916L76.8589 86.1952L76.9041 71.4478L89.729 78.8441Z" fill="#04D2C5"/>
<path d="M89.729 78.8441L89.6838 93.5916L76.8589 86.1952L76.9041 71.4478L89.729 78.8441Z" fill="black" fill-opacity="0.16"/>
<path d="M38.5425 78.8439L38.5199 93.5914L0 71.3571L0.0452377 56.6096L38.5425 78.8439Z" fill="#04D2C5"/>
<path d="M38.5425 78.8439L38.5199 93.5914L0 71.3571L0.0452377 56.6096L38.5425 78.8439Z" fill="black" fill-opacity="0.16"/>
<path d="M64.0903 93.628L64.0677 108.375L51.2202 100.956L51.2655 86.209L64.0903 93.628Z" fill="#04D2C5"/>
<path d="M64.0903 93.628L64.0677 108.375L51.2202 100.956L51.2655 86.209L64.0903 93.628Z" fill="black" fill-opacity="0.16"/>
<path d="M76.79 27.0291L76.7448 41.7765L63.9878 49.1729L64.033 34.4254L76.79 27.0291Z" fill="#04D2C5"/>
<path d="M76.79 27.0291L76.7448 41.7765L63.9878 49.1729L64.033 34.4254L76.79 27.0291Z" fill="black" fill-opacity="0.16"/>
<path d="M51.1413 41.7944L51.0961 56.5419L25.582 71.3572L25.6273 56.6098L51.1413 41.7944Z" fill="#04D2C5"/>
<path d="M51.1413 41.7944L51.0961 56.5419L25.582 71.3572L25.6273 56.6098L51.1413 41.7944Z" fill="black" fill-opacity="0.16"/>
<path d="M128 56.6096L127.955 71.3571L89.6836 93.5914L89.7288 78.8439L128 56.6096Z" fill="#04D2C5"/>
<path d="M128 56.6096L127.955 71.3571L89.6836 93.5914L89.7288 78.8439L128 56.6096Z" fill="black" fill-opacity="0.08"/>
<path d="M51.2997 71.4478L51.2544 86.1952L38.52 93.5916L38.5426 78.8441L51.2997 71.4478Z" fill="#04D2C5"/>
<path d="M51.2997 71.4478L51.2544 86.1952L38.52 93.5916L38.5426 78.8441L51.2997 71.4478Z" fill="black" fill-opacity="0.08"/>
<path d="M76.8475 86.209L76.8023 100.956L64.0679 108.375L64.0905 93.628L76.8475 86.209Z" fill="#04D2C5"/>
<path d="M76.8475 86.209L76.8023 100.956L64.0679 108.375L64.0905 93.628L76.8475 86.209Z" fill="black" fill-opacity="0.08"/>
<path d="M64.033 34.4254L76.7901 27.0291L63.9426 19.6101L51.1855 27.0291L64.033 34.4254Z" fill="url(#paint0_linear)"/>
<path d="M25.6268 56.6098L51.1409 41.7945L38.2934 34.3755L0.0449219 56.6098L38.5422 78.8441L51.2992 71.4478L25.6268 56.6098Z" fill="url(#paint1_linear)"/>
<path d="M89.729 78.8441L128 56.6098L89.4802 34.3755L76.7231 41.7945L102.396 56.6098L76.9041 71.4478L89.729 78.8441Z" fill="url(#paint2_linear)"/>
<path d="M76.847 86.209L64.09 93.628L51.2651 86.209L64.0222 78.79L76.847 86.209Z" fill="url(#paint3_linear)"/>
</g>
<defs>
<linearGradient id="paint0_linear" x1="5.90471e-08" y1="94.0001" x2="136.38" y2="72.0366" gradientUnits="userSpaceOnUse">
<stop stop-color="#34DFD4"/>
<stop offset="1" stop-color="#54F3EA"/>
</linearGradient>
<linearGradient id="paint1_linear" x1="5.90471e-08" y1="94.0001" x2="136.38" y2="72.0366" gradientUnits="userSpaceOnUse">
<stop stop-color="#34DFD4"/>
<stop offset="1" stop-color="#54F3EA"/>
</linearGradient>
<linearGradient id="paint2_linear" x1="5.90471e-08" y1="94.0001" x2="136.38" y2="72.0366" gradientUnits="userSpaceOnUse">
<stop stop-color="#34DFD4"/>
<stop offset="1" stop-color="#54F3EA"/>
</linearGradient>
<linearGradient id="paint3_linear" x1="5.90471e-08" y1="94.0001" x2="136.38" y2="72.0366" gradientUnits="userSpaceOnUse">
<stop stop-color="#34DFD4"/>
<stop offset="1" stop-color="#54F3EA"/>
</linearGradient>
<clipPath id="clip0">
<rect width="128" height="128" fill="white"/>
</clipPath>
</defs>
</svg>
