<svg width="128" height="128" viewBox="0 0 128 128" fill="none" xmlns="http://www.w3.org/2000/svg">
<g clip-path="url(#clip0)">
<path d="M76.6552 27.1641L63.8982 34.5605L51.0507 27.1641L63.8077 19.7451L76.6552 27.1641Z" fill="#515151"/>
<path d="M76.6552 27.1641L76.61 41.9115L63.8529 49.3079L63.8982 34.5604L76.6552 27.1641Z" fill="#3E3D3D"/>
<path d="M63.8982 34.5604L63.8529 49.3079L51.0055 41.9115L51.0507 27.1641L63.8982 34.5604Z" fill="#2D2D2D"/>
<path d="M102.395 56.7948L102.35 71.5423L76.6779 56.727L76.7231 41.9795L102.395 56.7948Z" fill="#2D2D2D"/>
<path d="M51.1412 41.9795L51.096 56.727L25.5819 71.5423L25.6271 56.7948L51.1412 41.9795Z" fill="#3E3D3D"/>
<path d="M128 56.7949L89.7289 79.0292L76.904 71.6328L102.395 56.7949L76.7231 41.9795L89.4801 34.5605L128 56.7949Z" fill="#515151"/>
<path d="M128 56.7949L127.955 71.5424L89.6837 93.7767L89.7289 79.0292L128 56.7949Z" fill="#3E3D3D"/>
<path d="M89.729 79.0292L89.6837 93.7767L76.8588 86.3803L76.9041 71.6328L89.729 79.0292Z" fill="#2D2D2D"/>
<path d="M51.2995 71.6328L51.2543 86.3803L38.5199 93.7767L38.5425 79.0292L51.2995 71.6328Z" fill="#3E3D3D"/>
<path d="M38.5425 79.0292L38.5199 93.7767L0 71.5424L0.0452377 56.7949L38.5425 79.0292Z" fill="#2D2D2D"/>
<path d="M51.1412 41.9795L25.6272 56.7949L51.2996 71.6328L38.5425 79.0292L0.0452881 56.7949L38.2937 34.5605L51.1412 41.9795Z" fill="#515151"/>
<path d="M76.9719 86.4483L64.2148 93.8673L51.39 86.4483L64.147 79.0293L76.9719 86.4483Z" fill="#515151"/>
<path d="M76.9719 86.4482L76.9267 101.196L64.1923 108.615L64.2149 93.8672L76.9719 86.4482Z" fill="#3E3D3D"/>
<path d="M64.2149 93.8672L64.1922 108.615L51.3448 101.196L51.39 86.4482L64.2149 93.8672Z" fill="#2D2D2D"/>
</g>
<defs>
<clipPath id="clip0">
<rect width="128" height="88.8694" fill="white" transform="translate(0 19.7451)"/>
</clipPath>
</defs>
</svg>
