<?xml version="1.0" encoding="UTF-8"?>
<svg width="40px" height="40px" viewBox="0 0 40 40" version="1.1" xmlns="http://www.w3.org/2000/svg" xmlns:xlink="http://www.w3.org/1999/xlink">
    <title>open 透明底</title>
    <g id="页面-1" stroke="none" stroke-width="1" fill="none" fill-rule="evenodd">
        <g id="open-透明底" fill="#222222" fill-rule="nonzero">
            <path d="M7.37684211,32.7157895 L8.34105263,16.6357895 L1.60421053,16.2357895 L0.421052632,36.0968421 C0.365280668,37.024675 0.695389552,37.9343143 1.33323664,38.6104322 C1.97108372,39.2865501 2.85996762,39.6690431 3.78947368,39.6673739 L3.98736842,39.6673739 L24.3452632,38.48 L23.9536842,31.7431579 L7.37684211,32.7157895 Z" id="路径"></path>
            <path d="M38.6778947,1.40631579 C37.997998,0.723951001 37.0584941,0.36531491 36.0968421,0.421052632 L16.2357895,1.61684211 L16.6357895,8.35368421 L32.7157895,7.37684211 L31.7473684,23.9536842 L38.4842105,24.3452632 L39.6589474,3.98736842 C39.7157866,3.02635485 39.358719,2.08694503 38.6778947,1.40631579 Z" id="路径"></path>
            <polygon id="路径" points="30.9094737 38.0463158 37.7178947 37.6505263 38.0631579 31.8568421 31.2926316 31.4652632"></polygon>
            <polygon id="路径" points="8.41263158 2.07578947 2.43368421 2.42526316 2.03368421 9.22105263 8.81684211 8.81263158"></polygon>
        </g>
    </g>
</svg>