<svg width="134" height="134" viewBox="0 0 134 134" fill="none" xmlns="http://www.w3.org/2000/svg">
    <g filter="url(#filter0_dd)">
        <rect width="72" height="72" transform="translate(31 27)" fill="white"/>
        <path d="M75.7258 57.9999L70.2726 54.8055L76.8165 50.9722L85.8143 56.243V59.7569L76.8165 65.0277L70.2726 61.1944L75.7258 57.9999Z" fill="url(#paint0_linear)"/>
        <path d="M63.7287 61.1944L58.2755 57.9999L63.7287 54.8055L57.1848 50.9722L48.187 56.243V59.7569L57.1848 65.0277L63.7287 61.1944Z" fill="url(#paint1_linear)"/>
        <path d="M67.0006 64.3888L72.4539 67.5833L67.0006 70.7777L61.5474 67.5833L67.0006 64.3888Z" fill="url(#paint2_linear)"/>
        <path d="M72.4539 48.4166L67.0006 45.2222L61.5474 48.4166L67.0006 51.6111L72.4539 48.4166Z" fill="url(#paint3_linear)"/>
        <path d="M49.5084 80.1111H51.6835C52.8269 80.1111 53.4359 79.5145 53.4359 78.7041C53.4359 77.9509 52.8965 77.496 52.3173 77.4687V77.419C52.8468 77.2996 53.2371 76.9243 53.2371 76.3252C53.2371 75.5621 52.6703 75.0202 51.5467 75.0202H49.5084V80.1111ZM50.5847 79.2311V77.8788H51.4871C52.0041 77.8788 52.3248 78.1771 52.3248 78.5972C52.3248 78.98 52.0638 79.2311 51.4622 79.2311H50.5847ZM50.5847 77.1505V75.8902H51.4026C51.8798 75.8902 52.1508 76.1363 52.1508 76.5042C52.1508 76.9069 51.8227 77.1505 51.3827 77.1505H50.5847ZM58.8146 77.5656C58.8146 75.9001 57.7805 74.9506 56.4307 74.9506C55.0735 74.9506 54.0468 75.9001 54.0468 77.5656C54.0468 79.2237 55.0735 80.1807 56.4307 80.1807C57.7805 80.1807 58.8146 79.2311 58.8146 77.5656ZM57.7233 77.5656C57.7233 78.6445 57.2112 79.2286 56.4307 79.2286C55.6477 79.2286 55.1381 78.6445 55.1381 77.5656C55.1381 76.4868 55.6477 75.9026 56.4307 75.9026C57.2112 75.9026 57.7233 76.4868 57.7233 77.5656ZM62.7564 75.0202V78.2343C62.7564 78.816 62.3488 79.2361 61.7223 79.2361C61.0984 79.2361 60.6883 78.816 60.6883 78.2343V75.0202H59.6119V78.3263C59.6119 79.4399 60.4521 80.1832 61.7223 80.1832C62.9876 80.1832 63.8328 79.4399 63.8328 78.3263V75.0202H62.7564ZM68.9765 75.0202H67.9051V78.2219H67.8604L65.663 75.0202H64.7184V80.1111H65.7947V76.9069H65.832L68.0468 80.1111H68.9765V75.0202ZM69.6719 75.9076H71.2305V80.1111H72.2944V75.9076H73.853V75.0202H69.6719V75.9076ZM75.6179 75.0202H74.5416V80.1111H75.6179V75.0202ZM76.5035 80.1111H79.9438V79.2237H77.5799V78.0081H79.7574V77.1207H77.5799V75.9076H79.9339V75.0202H76.5035V80.1111ZM83.5514 76.4843H84.583C84.568 75.577 83.8223 74.9506 82.6888 74.9506C81.5727 74.9506 80.7548 75.567 80.7598 76.4918C80.7573 77.2425 81.2868 77.6725 82.1469 77.8788L82.7012 78.018C83.2555 78.1523 83.5638 78.3114 83.5663 78.6544C83.5638 79.0273 83.2108 79.2808 82.6639 79.2808C82.1046 79.2808 81.7019 79.0223 81.6671 78.5127H80.6256C80.6529 79.6139 81.4409 80.1832 82.6764 80.1832C83.9193 80.1832 84.6501 79.5891 84.6526 78.6569C84.6501 77.8092 84.0112 77.3593 83.1263 77.1604L82.6689 77.0511C82.2264 76.9492 81.856 76.7851 81.8635 76.4197C81.8635 76.0916 82.1543 75.8504 82.6813 75.8504C83.1959 75.8504 83.5116 76.0841 83.5514 76.4843Z" fill="#2E343D"/>
    </g>
    <defs>
        <filter id="filter0_dd" x="0" y="0" width="134" height="134" filterUnits="userSpaceOnUse" color-interpolation-filters="sRGB">
            <feFlood flood-opacity="0" result="BackgroundImageFix"/>
            <feColorMatrix in="SourceAlpha" type="matrix" values="0 0 0 0 0 0 0 0 0 0 0 0 0 0 0 0 0 0 127 0"/>
            <feOffset dy="0.751293"/>
            <feGaussianBlur stdDeviation="4"/>
            <feColorMatrix type="matrix" values="0 0 0 0 0.101961 0 0 0 0 0.129412 0 0 0 0 0.172549 0 0 0 0.04 0"/>
            <feBlend mode="normal" in2="BackgroundImageFix" result="effect1_dropShadow"/>
            <feColorMatrix in="SourceAlpha" type="matrix" values="0 0 0 0 0 0 0 0 0 0 0 0 0 0 0 0 0 0 127 0"/>
            <feOffset dy="4"/>
            <feGaussianBlur stdDeviation="15.5"/>
            <feColorMatrix type="matrix" values="0 0 0 0 0.101961 0 0 0 0 0.129412 0 0 0 0 0.172549 0 0 0 0.06 0"/>
            <feBlend mode="normal" in2="effect1_dropShadow" result="effect2_dropShadow"/>
            <feBlend mode="normal" in="SourceGraphic" in2="effect2_dropShadow" result="shape"/>
        </filter>
        <linearGradient id="paint0_linear" x1="85.0378" y1="58" x2="48.187" y2="57.9999" gradientUnits="userSpaceOnUse">
            <stop stop-color="#04D2C5"/>
            <stop offset="1" stop-color="#6848FF"/>
        </linearGradient>
        <linearGradient id="paint1_linear" x1="85.0378" y1="58" x2="48.187" y2="57.9999" gradientUnits="userSpaceOnUse">
            <stop stop-color="#04D2C5"/>
            <stop offset="1" stop-color="#6848FF"/>
        </linearGradient>
        <linearGradient id="paint2_linear" x1="85.0378" y1="58" x2="48.187" y2="57.9999" gradientUnits="userSpaceOnUse">
            <stop stop-color="#04D2C5"/>
            <stop offset="1" stop-color="#6848FF"/>
        </linearGradient>
        <linearGradient id="paint3_linear" x1="85.0378" y1="58" x2="48.187" y2="57.9999" gradientUnits="userSpaceOnUse">
            <stop stop-color="#04D2C5"/>
            <stop offset="1" stop-color="#6848FF"/>
        </linearGradient>
    </defs>
</svg>
