<svg width="134" height="134" viewBox="0 0 134 134" fill="none" xmlns="http://www.w3.org/2000/svg">
    <g filter="url(#filter0_dd)">
        <rect width="72" height="72" transform="translate(31 27)" fill="white"/>
        <g clip-path="url(#clip0)">
            <path d="M47.5 74.25C47.5 78.8063 51.1937 82.5 55.75 82.5H78.25C82.8064 82.5 86.5 78.8063 86.5 74.25V51.75C86.5 47.1936 82.8064 43.5 78.25 43.5H55.75C51.1937 43.5 47.5 47.1936 47.5 51.75V74.25Z" fill="url(#paint0_linear)" stroke="#F1F1F1"/>
            <path fill-rule="evenodd" clip-rule="evenodd" d="M66.1964 54.8291C66.5566 54.2175 67.4436 54.2175 67.8038 54.8291L70.9839 60.2305C71.6371 61.34 73.1025 61.7068 74.0032 60.7867C74.638 60.1383 74.6649 59.1414 74.2045 58.3595L72.9902 56.2969L71.0184 52.9481C69.2178 49.8897 64.7824 49.8897 62.9818 52.9481L52.8124 70.2205C52.2913 71.1055 52.5886 72.244 53.4763 72.7635C54.364 73.2829 55.506 72.9866 56.0271 72.1016L66.1964 54.8291ZM79.9989 68.2012C79.4521 67.2724 78.1842 67.098 77.3204 67.7426C76.5873 68.2896 76.3235 69.2997 76.7876 70.088L77.9732 72.1016C78.4942 72.9866 79.6362 73.2829 80.5239 72.7635C81.4116 72.244 81.7089 71.1055 81.1878 70.2205L79.9989 68.2012Z" fill="#2E343D"/>
            <path fill-rule="evenodd" clip-rule="evenodd" d="M77.2616 63.5523C76.6371 62.4916 75.1372 62.3734 74.1662 63.1299C72.1899 64.6694 69.7024 65.5869 66.9999 65.5869C65.8116 65.5869 64.6649 65.4095 63.5849 65.0798C62.6409 64.7917 61.5753 65.1111 61.0902 65.9707C60.5634 66.9045 60.924 68.1005 61.9368 68.4525C63.5223 69.0035 65.226 69.303 66.9999 69.303C70.7959 69.303 74.2706 67.9317 76.9527 65.6588C77.5675 65.1378 77.6705 64.2467 77.2616 63.5523Z" fill="#E6007A"/>
        </g>
    </g>
    <defs>
        <filter id="filter0_dd" x="0" y="0" width="134" height="134" filterUnits="userSpaceOnUse" color-interpolation-filters="sRGB">
            <feFlood flood-opacity="0" result="BackgroundImageFix"/>
            <feColorMatrix in="SourceAlpha" type="matrix" values="0 0 0 0 0 0 0 0 0 0 0 0 0 0 0 0 0 0 127 0"/>
            <feOffset dy="0.751293"/>
            <feGaussianBlur stdDeviation="4"/>
            <feColorMatrix type="matrix" values="0 0 0 0 0.101961 0 0 0 0 0.129412 0 0 0 0 0.172549 0 0 0 0.04 0"/>
            <feBlend mode="normal" in2="BackgroundImageFix" result="effect1_dropShadow"/>
            <feColorMatrix in="SourceAlpha" type="matrix" values="0 0 0 0 0 0 0 0 0 0 0 0 0 0 0 0 0 0 127 0"/>
            <feOffset dy="4"/>
            <feGaussianBlur stdDeviation="15.5"/>
            <feColorMatrix type="matrix" values="0 0 0 0 0.101961 0 0 0 0 0.129412 0 0 0 0 0.172549 0 0 0 0.06 0"/>
            <feBlend mode="normal" in2="effect1_dropShadow" result="effect2_dropShadow"/>
            <feBlend mode="normal" in="SourceGraphic" in2="effect2_dropShadow" result="shape"/>
        </filter>
        <linearGradient id="paint0_linear" x1="67" y1="83" x2="67" y2="43" gradientUnits="userSpaceOnUse">
            <stop stop-color="#EEEEEE"/>
            <stop offset="1" stop-color="white"/>
        </linearGradient>
        <clipPath id="clip0">
            <rect width="40" height="40" fill="white" transform="translate(47 43)"/>
        </clipPath>
    </defs>
</svg>
