<svg width="36" height="36" viewBox="0 0 36 36" fill="none" xmlns="http://www.w3.org/2000/svg">
<g clip-path="url(#clip0_3915_18663)">
<path d="M7.875 35.75H28.125C32.3362 35.75 35.75 32.3362 35.75 28.125V7.875C35.75 3.66383 32.3362 0.25 28.125 0.25H7.875C3.66383 0.25 0.25 3.66383 0.25 7.875V28.125C0.25 32.3362 3.66383 35.75 7.875 35.75Z" fill="url(#paint0_linear_3915_18663)" stroke="#F1F1F1" stroke-width="0.5"/>
<path fill-rule="evenodd" clip-rule="evenodd" d="M17.2767 10.6463C17.6008 10.0958 18.3992 10.0958 18.7233 10.6463L21.5854 15.5075C22.1733 16.5061 23.4922 16.8362 24.3028 16.0081V16.0081C24.8741 15.4246 24.8983 14.5273 24.484 13.8236L23.391 11.9673L21.6165 8.9533C19.9959 6.20079 16.0041 6.20079 14.3835 8.9533L5.23105 24.4985C4.76211 25.295 5.02962 26.3197 5.82856 26.7872C6.6275 27.2547 7.65532 26.988 8.12426 26.1915L17.2767 10.6463ZM29.6989 22.6811C29.2068 21.8452 28.0657 21.6882 27.2883 22.2684V22.2684C26.6284 22.7607 26.3911 23.6698 26.8088 24.3793L27.8757 26.1915C28.3447 26.988 29.3725 27.2547 30.1714 26.7872C30.9704 26.3197 31.2379 25.295 30.7689 24.4985L29.6989 22.6811Z" fill="#34373C"/>
<path fill-rule="evenodd" clip-rule="evenodd" d="M27.2356 18.497C26.6736 17.5424 25.3236 17.4361 24.4497 18.1169C22.6711 19.5025 20.4323 20.3282 18.0001 20.3282C16.9306 20.3282 15.8985 20.1686 14.9266 19.8719C14.077 19.6125 13.1179 19.9 12.6814 20.6736V20.6736C12.2072 21.514 12.5318 22.5905 13.4433 22.9073C14.8702 23.4032 16.4036 23.6727 18.0001 23.6727C21.4164 23.6727 24.5437 22.4385 26.9576 20.3929C27.5109 19.9241 27.6036 19.122 27.2356 18.497V18.497Z" fill="#E6007A"/>
</g>
<defs>
<linearGradient id="paint0_linear_3915_18663" x1="18" y1="36" x2="18" y2="0" gradientUnits="userSpaceOnUse">
<stop stop-color="#EEEEEE"/>
<stop offset="1" stop-color="white"/>
</linearGradient>
<clipPath id="clip0_3915_18663">
<rect width="36" height="36" fill="white"/>
</clipPath>
</defs>
</svg>
