<svg width="36" height="36" viewBox="0 0 36 36" fill="none" xmlns="http://www.w3.org/2000/svg">
<path d="M25.8529 13.5L20.945 10.625L26.8345 7.175L34.9325 11.9188V15.0813L26.8345 19.825L20.945 16.375L25.8529 13.5Z" fill="url(#paint0_linear_3915_18667)"/>
<path d="M15.0555 16.375L10.1476 13.5L15.0555 10.625L9.16604 7.175L1.06799 11.9188V15.0813L9.16604 19.825L15.0555 16.375Z" fill="url(#paint1_linear_3915_18667)"/>
<path d="M18.0003 19.25L22.9082 22.125L18.0003 25L13.0924 22.125L18.0003 19.25Z" fill="url(#paint2_linear_3915_18667)"/>
<path d="M22.9082 4.875L18.0003 2L13.0924 4.875L18.0003 7.75L22.9082 4.875Z" fill="url(#paint3_linear_3915_18667)"/>
<path d="M14.2358 28.8893V33.9997H13.1031V28.8893H14.2358Z" fill="black"/>
<path d="M17.067 33.9997H15.1678V28.8893H17.0827C17.6216 28.8893 18.0855 28.9916 18.4744 29.1962C18.8633 29.3992 19.1624 29.6911 19.3717 30.0721C19.5827 30.453 19.6883 30.9088 19.6883 31.4395C19.6883 31.9718 19.5827 32.4293 19.3717 32.8119C19.1624 33.1945 18.8616 33.4882 18.4692 33.6928C18.0785 33.8974 17.6111 33.9997 17.067 33.9997ZM16.3005 33.0739H17.0199C17.3548 33.0739 17.6364 33.0174 17.8649 32.9043C18.0951 32.7895 18.2678 32.6123 18.3829 32.3728C18.4997 32.1315 18.5581 31.8205 18.5581 31.4395C18.5581 31.0619 18.4997 30.7533 18.3829 30.5138C18.2678 30.2742 18.096 30.0979 17.8675 29.9848C17.639 29.8716 17.3574 29.8151 17.0225 29.8151H16.3005V33.0739Z" fill="black"/>
<path fill-rule="evenodd" clip-rule="evenodd" d="M8.51585 33.9997H7.30201L9.15155 28.8893H10.6113L12.4582 33.9997H11.2444L10.8477 32.8344H8.91328L8.51585 33.9997ZM9.86049 30.0571H9.90235L10.5606 31.991H9.20093L9.86049 30.0571Z" fill="black"/>
<path fill-rule="evenodd" clip-rule="evenodd" d="M3.44141 33.9997V28.8893H5.55516C5.96152 28.8893 6.3077 28.9634 6.59372 29.1114C6.87974 29.2578 7.09774 29.4616 7.24773 29.7228C7.39946 29.9823 7.47532 30.2817 7.47532 30.6211C7.47532 30.9604 7.39859 31.2599 7.24511 31.5194C7.09164 31.7789 6.86928 31.981 6.57803 32.1257C6.28852 32.2704 5.93797 32.3428 5.52638 32.3428H4.57415V33.9997H3.44141ZM5.34326 31.4769H4.57415V29.7727H5.33803C5.55777 29.7727 5.73915 29.8084 5.88216 29.88C6.02517 29.9498 6.13156 30.0488 6.20132 30.1769C6.27282 30.3033 6.30857 30.4514 6.30857 30.6211C6.30857 30.7891 6.27282 30.938 6.20132 31.0677C6.13156 31.1958 6.02517 31.2965 5.88216 31.3696C5.7409 31.4412 5.56126 31.4769 5.34326 31.4769Z" fill="black"/>
<path fill-rule="evenodd" clip-rule="evenodd" d="M27.0746 34.4189H26.0177L25.5865 33.9134C25.2973 34.0175 24.9841 34.0696 24.6469 34.0696C24.1708 34.0696 23.7435 33.9664 23.3651 33.7601C22.9866 33.5539 22.6875 33.2553 22.4678 32.8643C22.248 32.4734 22.1382 32.0001 22.1382 31.4445C22.1382 30.8872 22.248 30.4131 22.4678 30.0222C22.6875 29.6313 22.9866 29.3335 23.3651 29.1289C23.7435 28.9226 24.1708 28.8195 24.6469 28.8195C25.1196 28.8195 25.5451 28.9226 25.9236 29.1289C26.3038 29.3335 26.6037 29.6313 26.8235 30.0222C27.045 30.4131 27.1557 30.8872 27.1557 31.4445C27.1557 32.0018 27.045 32.4759 26.8235 32.8668C26.6837 33.1155 26.5115 33.3268 26.3068 33.5007L27.0746 34.4189ZM25.2172 32.223H24.2545L24.9412 33.0867C24.848 33.1048 24.75 33.1139 24.6469 33.1139C24.3731 33.1139 24.1342 33.0498 23.9302 32.9217C23.7261 32.7936 23.5674 32.6056 23.454 32.3578C23.3424 32.1099 23.2866 31.8055 23.2866 31.4445C23.2866 31.0835 23.3424 30.7791 23.454 30.5312C23.5674 30.2834 23.7261 30.0954 23.9302 29.9673C24.1342 29.8392 24.3731 29.7752 24.6469 29.7752C24.9208 29.7752 25.1597 29.8392 25.3637 29.9673C25.5678 30.0954 25.7256 30.2834 25.8372 30.5312C25.9506 30.7791 26.0073 31.0835 26.0073 31.4445C26.0073 31.8055 25.9506 32.1099 25.8372 32.3578C25.7764 32.4928 25.7019 32.6101 25.6137 32.7095L25.2172 32.223Z" fill="black"/>
<path fill-rule="evenodd" clip-rule="evenodd" d="M28.6161 33.9997H27.4023L29.2518 28.8893H30.7116L32.5585 33.9997H31.3446L30.948 32.8344H29.0135L28.6161 33.9997ZM29.9608 30.0571H30.0026L30.6609 31.991H29.3012L29.9608 30.0571Z" fill="black"/>
<defs>
<linearGradient id="paint0_linear_3915_18667" x1="34.2337" y1="13.5" x2="1.06799" y2="13.5" gradientUnits="userSpaceOnUse">
<stop stop-color="#04D2C5"/>
<stop offset="1" stop-color="#6848FF"/>
</linearGradient>
<linearGradient id="paint1_linear_3915_18667" x1="34.2337" y1="13.5" x2="1.06799" y2="13.5" gradientUnits="userSpaceOnUse">
<stop stop-color="#04D2C5"/>
<stop offset="1" stop-color="#6848FF"/>
</linearGradient>
<linearGradient id="paint2_linear_3915_18667" x1="34.2337" y1="13.5" x2="1.06799" y2="13.5" gradientUnits="userSpaceOnUse">
<stop stop-color="#04D2C5"/>
<stop offset="1" stop-color="#6848FF"/>
</linearGradient>
<linearGradient id="paint3_linear_3915_18667" x1="34.2337" y1="13.5" x2="1.06799" y2="13.5" gradientUnits="userSpaceOnUse">
<stop stop-color="#04D2C5"/>
<stop offset="1" stop-color="#6848FF"/>
</linearGradient>
</defs>
</svg>
