<svg width="36" height="36" viewBox="0 0 36 36" fill="none" xmlns="http://www.w3.org/2000/svg">
<g clip-path="url(#clip0_3915_18665)">
<path d="M7.875 0.25H28.125C32.3362 0.25 35.75 3.66383 35.75 7.875V28.125C35.75 32.3362 32.3362 35.75 28.125 35.75H7.875C3.66383 35.75 0.25 32.3362 0.25 28.125V7.875C0.25 3.66383 3.66383 0.25 7.875 0.25Z" fill="url(#paint0_linear_3915_18665)" stroke="#F1F1F1" stroke-width="0.5"/>
<path d="M25.207 13.2854C24.629 9.30268 21.1614 6.83984 15.2603 6.83984C9.2831 6.83984 5.34396 9.40119 5.35917 13.5669C5.34396 16.8038 7.54927 18.9007 12.112 19.7451L16.1576 20.491C18.1956 20.871 19.1234 21.5606 19.1538 22.6442C19.1234 23.9249 17.6177 24.8397 15.3515 24.8397C13.0397 24.8397 11.5036 23.9249 11.1082 22.1657L4.7356 22.4753C5.34396 26.6129 9.14622 29.1602 15.3363 29.1602C21.3895 29.1602 25.7241 26.3033 25.7393 22.0391C25.7241 18.9148 23.5188 17.043 18.9865 16.1846L14.7584 15.3964C12.5835 14.9602 11.7774 14.2706 11.7926 13.2291C11.7774 11.9344 13.3591 11.09 15.3667 11.09C17.6177 11.09 18.9561 12.2299 19.2754 13.6232L25.207 13.2854Z" fill="#111111"/>
<path d="M33.0481 26.2297C33.0481 27.8481 31.7361 29.1602 30.1176 29.1602C28.4992 29.1602 27.1871 27.8481 27.1871 26.2297C27.1871 24.6112 28.4992 23.2992 30.1176 23.2992C31.7361 23.2992 33.0481 24.6112 33.0481 26.2297Z" fill="#F22279"/>
</g>
<defs>
<linearGradient id="paint0_linear_3915_18665" x1="18" y1="0" x2="18" y2="36" gradientUnits="userSpaceOnUse">
<stop stop-color="#EEEEEE"/>
<stop offset="1" stop-color="white"/>
</linearGradient>
<clipPath id="clip0_3915_18665">
<rect width="36" height="36" fill="white"/>
</clipPath>
</defs>
</svg>
