<svg width="36" height="36" viewBox="0 0 36 36" fill="none" xmlns="http://www.w3.org/2000/svg">
<path d="M25.8529 13.5L20.945 10.625L26.8345 7.175L34.9325 11.9188V15.0813L26.8345 19.825L20.945 16.375L25.8529 13.5Z" fill="url(#paint0_linear_3915_18666)"/>
<path d="M15.0555 16.375L10.1476 13.5L15.0555 10.625L9.16604 7.175L1.06799 11.9188V15.0813L9.16604 19.825L15.0555 16.375Z" fill="url(#paint1_linear_3915_18666)"/>
<path d="M18.0003 19.25L22.9082 22.125L18.0003 25L13.0924 22.125L18.0003 19.25Z" fill="url(#paint2_linear_3915_18666)"/>
<path d="M22.9082 4.875L18.0003 2L13.0924 4.875L18.0003 7.75L22.9082 4.875Z" fill="url(#paint3_linear_3915_18666)"/>
<path d="M0.508423 34H2.68349C3.82696 34 4.43598 33.4034 4.43598 32.593C4.43598 31.8398 3.89656 31.3849 3.31737 31.3576V31.3079C3.84685 31.1886 4.23712 30.8132 4.23712 30.2141C4.23712 29.451 3.67035 28.9091 2.54678 28.9091H0.508423V34ZM1.58477 33.12V31.7677H2.48712C3.00416 31.7677 3.32483 32.066 3.32483 32.4861C3.32483 32.869 3.06382 33.12 2.46226 33.12H1.58477ZM1.58477 31.0394V29.7791H2.4026C2.87987 29.7791 3.15082 30.0252 3.15082 30.3931C3.15082 30.7958 2.8227 31.0394 2.38271 31.0394H1.58477Z" fill="black"/>
<path d="M9.81462 31.4545C9.81462 29.7891 8.78053 28.8395 7.43074 28.8395C6.0735 28.8395 5.04686 29.7891 5.04686 31.4545C5.04686 33.1126 6.0735 34.0696 7.43074 34.0696C8.78053 34.0696 9.81462 33.12 9.81462 31.4545ZM8.72336 31.4545C8.72336 32.5334 8.21128 33.1175 7.43074 33.1175C6.64772 33.1175 6.13813 32.5334 6.13813 31.4545C6.13813 30.3757 6.64772 29.7915 7.43074 29.7915C8.21128 29.7915 8.72336 30.3757 8.72336 31.4545Z" fill="black"/>
<path d="M13.7565 28.9091V32.1232C13.7565 32.7049 13.3488 33.125 12.7224 33.125C12.0984 33.125 11.6883 32.7049 11.6883 32.1232V28.9091H10.6119V32.2152C10.6119 33.3288 11.4521 34.0721 12.7224 34.0721C13.9876 34.0721 14.8328 33.3288 14.8328 32.2152V28.9091H13.7565Z" fill="black"/>
<path d="M19.9766 28.9091H18.9052V32.1108H18.8604L16.663 28.9091H15.7184V34H16.7947V30.7958H16.832L19.0469 34H19.9766V28.9091Z" fill="black"/>
<path d="M20.672 29.7965H22.2305V34H23.2945V29.7965H24.8531V28.9091H20.672V29.7965Z" fill="black"/>
<path d="M26.618 28.9091H25.5416V34H26.618V28.9091Z" fill="black"/>
<path d="M27.5035 34H30.9439V33.1126H28.5799V31.897H30.7574V31.0096H28.5799V29.7965H30.9339V28.9091H27.5035V34Z" fill="black"/>
<path d="M34.5514 30.3732H35.583C35.5681 29.4659 34.8223 28.8395 33.6888 28.8395C32.5727 28.8395 31.7549 29.456 31.7598 30.3807C31.7574 31.1314 32.2868 31.5614 33.1469 31.7677L33.7013 31.9069C34.2556 32.0412 34.5638 32.2003 34.5663 32.5433C34.5638 32.9162 34.2108 33.1697 33.664 33.1697C33.1047 33.1697 32.702 32.9112 32.6672 32.4016H31.6256C31.653 33.5028 32.441 34.0721 33.6764 34.0721C34.9193 34.0721 35.6501 33.478 35.6526 32.5458C35.6501 31.6981 35.0113 31.2482 34.1263 31.0493L33.6689 30.94C33.2265 30.8381 32.8561 30.674 32.8635 30.3086C32.8635 29.9805 33.1544 29.7393 33.6814 29.7393C34.1959 29.7393 34.5116 29.973 34.5514 30.3732Z" fill="black"/>
<defs>
<linearGradient id="paint0_linear_3915_18666" x1="34.2337" y1="13.5" x2="1.06799" y2="13.5" gradientUnits="userSpaceOnUse">
<stop stop-color="#04D2C5"/>
<stop offset="1" stop-color="#6848FF"/>
</linearGradient>
<linearGradient id="paint1_linear_3915_18666" x1="34.2337" y1="13.5" x2="1.06799" y2="13.5" gradientUnits="userSpaceOnUse">
<stop stop-color="#04D2C5"/>
<stop offset="1" stop-color="#6848FF"/>
</linearGradient>
<linearGradient id="paint2_linear_3915_18666" x1="34.2337" y1="13.5" x2="1.06799" y2="13.5" gradientUnits="userSpaceOnUse">
<stop stop-color="#04D2C5"/>
<stop offset="1" stop-color="#6848FF"/>
</linearGradient>
<linearGradient id="paint3_linear_3915_18666" x1="34.2337" y1="13.5" x2="1.06799" y2="13.5" gradientUnits="userSpaceOnUse">
<stop stop-color="#04D2C5"/>
<stop offset="1" stop-color="#6848FF"/>
</linearGradient>
</defs>
</svg>
