<svg width="36" height="36" viewBox="0 0 36 36" fill="none" xmlns="http://www.w3.org/2000/svg">
<path d="M12.2353 8.11764C12.2353 5.84353 10.3918 4 8.11764 4C5.84353 4 4 5.84353 4 8.11764C4 10.3918 5.84353 12.2353 8.11764 12.2353C10.3918 12.2353 12.2353 10.3918 12.2353 8.11764Z" fill="#F23252"/>
<path d="M29.9999 4H25.7646C24.6601 4 23.7646 4.89543 23.7646 6V10.2353C23.7646 11.3399 24.6601 12.2353 25.7646 12.2353H29.9999C31.1045 12.2353 31.9999 11.3399 31.9999 10.2353V6C31.9999 4.89543 31.1045 4 29.9999 4Z" fill="#F2B12F"/>
<path d="M22.1177 18C22.1177 15.7259 20.2742 13.8823 18.0001 13.8823C15.726 13.8823 13.8824 15.7259 13.8824 18C13.8824 20.2741 15.726 22.1176 18.0001 22.1176C20.2742 22.1176 22.1177 20.2741 22.1177 18Z" fill="#F23252"/>
<path d="M10.2353 13.8823H6C4.89543 13.8823 4 14.7778 4 15.8823V20.1176C4 21.2222 4.89543 22.1176 6 22.1176H10.2353C11.3399 22.1176 12.2353 21.2222 12.2353 20.1176V15.8823C12.2353 14.7778 11.3399 13.8823 10.2353 13.8823Z" fill="#F2B12F"/>
<path d="M10.2353 23.7646H6C4.89543 23.7646 4 24.66 4 25.7646V29.9999C4 31.1044 4.89543 31.9999 6 31.9999H10.2353C11.3399 31.9999 12.2353 31.1044 12.2353 29.9999V25.7646C12.2353 24.66 11.3399 23.7646 10.2353 23.7646Z" fill="#F2B12F"/>
<path d="M20.1177 23.7646H15.8824C14.7779 23.7646 13.8824 24.66 13.8824 25.7646V29.9999C13.8824 31.1044 14.7779 31.9999 15.8824 31.9999H20.1177C21.2223 31.9999 22.1177 31.1044 22.1177 29.9999V25.7646C22.1177 24.66 21.2223 23.7646 20.1177 23.7646Z" fill="#F2B12F"/>
<path d="M31.9999 27.8822C31.9999 25.6081 30.1564 23.7646 27.8823 23.7646C25.6082 23.7646 23.7646 25.6081 23.7646 27.8822C23.7646 30.1563 25.6082 31.9999 27.8823 31.9999C30.1564 31.9999 31.9999 30.1563 31.9999 27.8822Z" fill="#F23252"/>
</svg>
