<svg width="36" height="36" viewBox="0 0 36 36" fill="none" xmlns="http://www.w3.org/2000/svg">
<path d="M5.36217 28.9091H4.1665L5.92396 34H7.31104L9.06601 28.9091H7.87283L6.63987 32.777H6.59264L5.36217 28.9091Z" fill="black"/>
<path d="M14.0699 31.4545C14.0699 29.7891 13.0358 28.8395 11.686 28.8395C10.3288 28.8395 9.30216 29.7891 9.30216 31.4545C9.30216 33.1126 10.3288 34.0696 11.686 34.0696C13.0358 34.0696 14.0699 33.12 14.0699 31.4545ZM12.9786 31.4545C12.9786 32.5334 12.4666 33.1175 11.686 33.1175C10.903 33.1175 10.3934 32.5334 10.3934 31.4545C10.3934 30.3757 10.903 29.7915 11.686 29.7915C12.4666 29.7915 12.9786 30.3757 12.9786 31.4545Z" fill="black"/>
<path d="M14.4478 29.7965H16.0063V34H17.0703V29.7965H18.6289V28.9091H14.4478V29.7965Z" fill="black"/>
<path d="M20.3938 28.9091H19.3174V34H20.3938V28.9091Z" fill="black"/>
<path d="M25.5375 28.9091H24.4661V32.1108H24.4214L22.2239 28.9091H21.2793V34H22.3557V30.7958H22.393L24.6078 34H25.5375V28.9091Z" fill="black"/>
<path d="M29.8025 30.5547H30.8963C30.7571 29.5479 29.8696 28.8395 28.7187 28.8395C27.3739 28.8395 26.3373 29.8089 26.3373 31.4595C26.3373 33.0703 27.3068 34.0696 28.7411 34.0696C30.0262 34.0696 30.9435 33.2567 30.9435 31.9169V31.2756H28.8132V32.0859H29.9069C29.892 32.7173 29.462 33.1175 28.746 33.1175C27.9382 33.1175 27.4286 32.5135 27.4286 31.4496C27.4286 30.3906 27.9581 29.7915 28.7361 29.7915C29.2904 29.7915 29.6658 30.0774 29.8025 30.5547Z" fill="black"/>
<path d="M25.8529 13.5L20.945 10.625L26.8345 7.175L34.9325 11.9188V15.0813L26.8345 19.825L20.945 16.375L25.8529 13.5Z" fill="url(#paint0_linear_3915_18668)"/>
<path d="M15.0555 16.375L10.1476 13.5L15.0555 10.625L9.16604 7.175L1.06799 11.9188V15.0813L9.16604 19.825L15.0555 16.375Z" fill="url(#paint1_linear_3915_18668)"/>
<path d="M18.0003 19.25L22.9082 22.125L18.0003 25L13.0924 22.125L18.0003 19.25Z" fill="url(#paint2_linear_3915_18668)"/>
<path d="M22.9082 4.875L18.0003 2L13.0924 4.875L18.0003 7.75L22.9082 4.875Z" fill="url(#paint3_linear_3915_18668)"/>
<defs>
<linearGradient id="paint0_linear_3915_18668" x1="34.2337" y1="13.5" x2="1.06799" y2="13.5" gradientUnits="userSpaceOnUse">
<stop stop-color="#04D2C5"/>
<stop offset="1" stop-color="#6848FF"/>
</linearGradient>
<linearGradient id="paint1_linear_3915_18668" x1="34.2337" y1="13.5" x2="1.06799" y2="13.5" gradientUnits="userSpaceOnUse">
<stop stop-color="#04D2C5"/>
<stop offset="1" stop-color="#6848FF"/>
</linearGradient>
<linearGradient id="paint2_linear_3915_18668" x1="34.2337" y1="13.5" x2="1.06799" y2="13.5" gradientUnits="userSpaceOnUse">
<stop stop-color="#04D2C5"/>
<stop offset="1" stop-color="#6848FF"/>
</linearGradient>
<linearGradient id="paint3_linear_3915_18668" x1="34.2337" y1="13.5" x2="1.06799" y2="13.5" gradientUnits="userSpaceOnUse">
<stop stop-color="#04D2C5"/>
<stop offset="1" stop-color="#6848FF"/>
</linearGradient>
</defs>
</svg>
