<svg width="98" height="24" viewBox="0 0 98 24" fill="none" xmlns="http://www.w3.org/2000/svg">
    <path d="M22.5891 5.30362C22.937 5.58303 24 6.51197 24 6.51197C24 6.51197 22.6059 7.04875 22.3011 7.28895C21.85 7.65906 21.5093 8.14681 21.3101 8.70075C21.0726 9.2939 20.6359 10.5562 20.3479 11.1836C20.06 11.8111 19.5897 12.6298 17.5285 13.7205C15.7888 14.6445 14.9322 15.0048 14.6899 15.6445C14.4403 16.2989 14.5459 17.0392 14.9658 17.5906C15.3113 18.0196 15.9928 18.7843 16.7007 19.0024C17.4085 19.2181 17.4613 19.5 17.4613 19.5C17.0222 19.3701 16.5663 19.2941 16.1056 19.277C15.5969 19.2794 15.0906 19.3554 14.6035 19.5C14.6035 19.2206 15.129 19.0024 15.129 19.0024C15.129 19.0024 15.1098 18.6299 14.0972 17.9436C13.5045 17.5514 13.111 16.9044 13.0318 16.1837C13.0318 16.1837 11.3473 16.071 11.2585 16.071L12.2951 15.7573C10.5747 14.8308 1.73725 18.4142 1.73725 18.4142V18.1642C1.21176 18.4755 0.592681 18.5735 0 18.4338L1.06779 17.5857H0.321536L7.73365 13.6469L6.08278 13.6298C6.08278 13.6298 12.4991 9.44096 14.1116 8.42868C15.7265 7.41641 16.7414 7.13454 17.1398 6.85267C17.5357 6.56835 18.5147 5.58794 19.021 5.25214C19.5273 4.91635 20.2783 4.41634 21.015 4.51193C21.6077 4.60752 22.1524 4.88204 22.5891 5.30362Z" fill="black"/>
    <path d="M33 8.02223V6H41.0692V8.02223H38.2596V16.8889H35.8162V8.02223H33ZM41.4487 9.11111H43.6857V10.0444C43.972 9.71389 44.3049 9.44815 44.6778 9.2537C45.0506 9.05926 45.4634 8.95556 45.9095 8.95556C46.229 8.95556 46.482 8.99445 46.6751 9.0787L46.3888 10.7898L46.2756 10.9C46.0626 10.8481 45.8828 10.8222 45.7297 10.8222C45.2903 10.8222 44.8975 10.9389 44.5446 11.1787C44.1917 11.4185 43.9054 11.762 43.6791 12.2222V16.8889H41.4421L41.4487 9.11111ZM49.3049 16.5389C48.6791 16.2019 48.1931 15.7287 47.8402 15.113C47.4873 14.5037 47.3142 13.7972 47.3142 13C47.3142 12.2093 47.5007 11.5093 47.8802 10.9C48.2597 10.2907 48.759 9.81111 49.3915 9.4676C50.0173 9.12408 50.6964 8.95556 51.4221 8.95556C52.2077 8.95556 52.9068 9.11759 53.5126 9.43519C54.1185 9.75926 54.5912 10.2194 54.9241 10.8222C55.257 11.425 55.4301 12.1315 55.4301 12.9546V13.5315H49.4248C49.478 14.0694 49.6911 14.4972 50.0573 14.8148C50.4234 15.1324 50.8961 15.288 51.4687 15.288C52.3875 15.288 52.9933 14.8861 53.2929 14.0889L55.1638 14.2769L55.277 14.4648C54.9774 15.3269 54.5047 15.9685 53.8455 16.4028C53.1864 16.837 52.3808 17.0509 51.4221 17.0509C50.6365 17.0444 49.9307 16.8759 49.3049 16.5389ZM53.3262 12.1315C53.273 11.6648 53.0732 11.2889 52.7204 11.0102C52.3675 10.7315 51.9348 10.5889 51.4088 10.5889C50.9427 10.5889 50.53 10.7315 50.1704 11.0102C49.8109 11.2889 49.5845 11.6648 49.4913 12.1315H53.3262ZM57.8202 16.7593C57.4341 16.5648 57.1212 16.2926 56.8948 15.9361C56.6684 15.5796 56.5486 15.1583 56.5486 14.6852C56.5486 13.9787 56.8016 13.4148 57.3009 12.9806C57.8002 12.5528 58.486 12.2935 59.3648 12.2093L61.522 11.9889V11.6454C61.522 11.2954 61.4088 11.0167 61.1758 10.8222C60.9494 10.6278 60.6232 10.5241 60.2104 10.5241C59.8375 10.5241 59.5379 10.6213 59.3182 10.8093C59.0919 11.0037 58.9587 11.263 58.9055 11.5935L57.0213 11.438L56.9414 11.3472C57.1012 10.5694 57.4807 9.97315 58.0732 9.56482C58.6658 9.15648 59.3915 8.94908 60.2437 8.94908C61.2556 8.94908 62.0746 9.19537 62.7071 9.68797C63.3329 10.1806 63.6524 10.8741 63.6524 11.762V14.5491C63.6524 14.7889 63.7057 14.9704 63.8056 15.0935C63.9054 15.2167 64.0453 15.2815 64.2317 15.2815C64.3515 15.2815 64.4514 15.2685 64.5379 15.2361L64.6178 15.3269V16.8176C64.2983 16.9213 63.9321 16.9732 63.5126 16.9732C62.6471 16.9732 62.0546 16.6231 61.7217 15.9167H61.6085C61.2357 16.2926 60.8495 16.5713 60.4567 16.7593C60.0639 16.9472 59.6112 17.038 59.0985 17.038C58.6325 17.0444 58.213 16.9472 57.8202 16.7593ZM60.6165 15.113C60.9094 14.925 61.209 14.6398 61.522 14.2574V13.3565L59.7643 13.5769C59.3915 13.6157 59.1052 13.7259 58.9121 13.9009C58.7124 14.0759 58.6192 14.2963 58.6192 14.5556C58.6192 14.8148 58.7124 15.0222 58.8988 15.1713C59.0852 15.3204 59.3249 15.3981 59.6112 15.3981C59.984 15.3981 60.3236 15.3009 60.6165 15.113ZM66.6485 16.4482C66.0493 16.0463 65.6498 15.4889 65.4501 14.763L65.5166 14.562L67.2277 14.063C67.4208 14.9315 67.9934 15.3722 68.9521 15.3722C69.285 15.3722 69.5513 15.3074 69.7643 15.1713C69.9774 15.0352 70.0839 14.8472 70.0839 14.6139C70.0839 14.3676 69.964 14.1732 69.7244 14.0306C69.4847 13.888 69.0186 13.7324 68.3262 13.5574C67.4873 13.363 66.8482 13.0713 66.4221 12.6954C65.996 12.3194 65.7829 11.8139 65.7829 11.1917C65.7829 10.7769 65.9028 10.4009 66.1425 10.0639C66.3822 9.72686 66.7217 9.46111 67.1544 9.26019C67.5939 9.06574 68.0932 8.96204 68.6591 8.96204C69.498 8.96204 70.1904 9.14352 70.7297 9.5C71.269 9.85648 71.6152 10.362 71.7749 11.0167L71.6817 11.1852L69.9907 11.587C69.9174 11.2241 69.7576 10.9454 69.5113 10.7574C69.265 10.5694 68.9654 10.4722 68.6192 10.4722C68.3529 10.4722 68.1265 10.5241 67.9467 10.6343C67.767 10.7444 67.6738 10.8935 67.6738 11.075C67.6738 11.3019 67.8202 11.4898 68.1198 11.6324C68.4194 11.775 68.9587 11.9565 69.751 12.1639C70.5699 12.3843 71.1758 12.6694 71.5619 13.0194C71.9481 13.3694 72.1478 13.862 72.1478 14.4843C72.1478 14.9639 72.0146 15.3981 71.755 15.7935C71.4953 16.1889 71.1225 16.4935 70.6365 16.7204C70.1505 16.9407 69.5912 17.0574 68.9521 17.0574C68.0133 17.0444 67.2477 16.8435 66.6485 16.4482ZM74.3648 16.2796C73.8655 15.7741 73.6125 15.0935 73.6125 14.2444V9.11111H75.8495V13.7907C75.8495 14.238 75.9694 14.5815 76.2024 14.8148C76.4354 15.0546 76.7683 15.1713 77.1944 15.1713C77.5806 15.1713 77.9268 15.0676 78.2463 14.8537C78.5659 14.6398 78.8256 14.3611 79.032 14.0046V9.10463H81.269V16.8824H79.032V15.9167C78.3196 16.662 77.4474 17.038 76.4288 17.038C75.5566 17.0444 74.8708 16.7917 74.3648 16.2796ZM83.253 9.11111H85.49V10.0444C85.7763 9.71389 86.1092 9.44815 86.482 9.2537C86.8549 9.05926 87.2676 8.95556 87.7137 8.95556C88.0333 8.95556 88.2863 8.99445 88.4794 9.0787L88.1931 10.7898L88.0799 10.9C87.8668 10.8481 87.6871 10.8222 87.534 10.8222C87.0945 10.8222 86.7017 10.9389 86.3489 11.1787C85.996 11.4185 85.7097 11.762 85.4834 12.2222V16.8889H83.2463L83.253 9.11111ZM92.5007 16.688L89.2117 9.11111H91.7683L93.3995 12.987L93.4794 14.1213H93.6059L95.6365 9.11111H98L93.4594 20H91.1292L92.5007 16.688Z" fill="black"/>
</svg>
