<svg width="134" height="134" viewBox="0 0 134 134" fill="none" xmlns="http://www.w3.org/2000/svg">
    <g filter="url(#filter0_dd)">
        <rect width="72" height="72" transform="translate(31 27)" fill="white"/>
        <g clip-path="url(#clip0)">
            <path d="M47.5 51.75C47.5 47.1937 51.1937 43.5 55.75 43.5H78.25C82.8064 43.5 86.5 47.1937 86.5 51.75V74.25C86.5 78.8064 82.8064 82.5 78.25 82.5H55.75C51.1937 82.5 47.5 78.8064 47.5 74.25V51.75Z" fill="url(#paint0_linear)" stroke="#F1F1F1"/>
            <path d="M75.0077 57.7616C74.3655 53.3363 70.5126 50.5999 63.9558 50.5999C57.3145 50.5999 52.9377 53.4458 52.9546 58.0744C52.9377 61.6709 55.388 64.0008 60.4577 64.939L64.9528 65.7678C67.2173 66.19 68.2481 66.9562 68.2819 68.1603C68.2481 69.5832 66.5751 70.5997 64.0572 70.5997C61.4885 70.5997 59.7817 69.5833 59.3424 67.6286L52.2617 67.9726C52.9377 72.5699 57.1624 75.4002 64.0403 75.4002C70.7661 75.4002 75.5823 72.2259 75.5992 67.4879C75.5823 64.0165 73.1319 61.9367 68.096 60.9829L63.3981 60.1072C60.9816 59.6224 60.0859 58.8562 60.1028 57.6991C60.0859 56.2605 61.8434 55.3222 64.0741 55.3222C66.5751 55.3222 68.0622 56.5888 68.4171 58.1369L75.0077 57.7616Z" fill="#2E343D"/>
            <path d="M83.7202 72.1442C83.7202 73.9424 82.2624 75.4002 80.4641 75.4002C78.6658 75.4002 77.208 73.9424 77.208 72.1442C77.208 70.3459 78.6658 68.8881 80.4641 68.8881C82.2624 68.8881 83.7202 70.3459 83.7202 72.1442Z" fill="#F22279"/>
        </g>
    </g>
    <defs>
        <filter id="filter0_dd" x="0" y="0" width="134" height="134" filterUnits="userSpaceOnUse" color-interpolation-filters="sRGB">
            <feFlood flood-opacity="0" result="BackgroundImageFix"/>
            <feColorMatrix in="SourceAlpha" type="matrix" values="0 0 0 0 0 0 0 0 0 0 0 0 0 0 0 0 0 0 127 0"/>
            <feOffset dy="0.751293"/>
            <feGaussianBlur stdDeviation="4"/>
            <feColorMatrix type="matrix" values="0 0 0 0 0.101961 0 0 0 0 0.129412 0 0 0 0 0.172549 0 0 0 0.04 0"/>
            <feBlend mode="normal" in2="BackgroundImageFix" result="effect1_dropShadow"/>
            <feColorMatrix in="SourceAlpha" type="matrix" values="0 0 0 0 0 0 0 0 0 0 0 0 0 0 0 0 0 0 127 0"/>
            <feOffset dy="4"/>
            <feGaussianBlur stdDeviation="15.5"/>
            <feColorMatrix type="matrix" values="0 0 0 0 0.101961 0 0 0 0 0.129412 0 0 0 0 0.172549 0 0 0 0.06 0"/>
            <feBlend mode="normal" in2="effect1_dropShadow" result="effect2_dropShadow"/>
            <feBlend mode="normal" in="SourceGraphic" in2="effect2_dropShadow" result="shape"/>
        </filter>
        <linearGradient id="paint0_linear" x1="67" y1="43" x2="67" y2="83" gradientUnits="userSpaceOnUse">
            <stop stop-color="#EEEEEE"/>
            <stop offset="1" stop-color="white"/>
        </linearGradient>
        <clipPath id="clip0">
            <rect width="40" height="40" fill="white" transform="translate(47 43)"/>
        </clipPath>
    </defs>
</svg>
