<svg width="88" height="24" viewBox="0 0 88 24" fill="none" xmlns="http://www.w3.org/2000/svg">
    <path d="M8.24039 18.2999C7.6723 18.1815 7.10421 18.5368 6.98725 19.129C6.87029 19.7044 7.22117 20.2797 7.80597 20.3981C8.37405 20.5166 8.94214 20.1612 9.0591 19.569C9.17606 18.9768 8.82518 18.4184 8.24039 18.2999Z" fill="#F22279"/>
    <path d="M7.78942 3.57874C4.31407 3.57874 1.47363 6.43839 1.47363 9.97489C1.47363 10.6856 1.59059 11.3793 1.8078 12.0562C1.95818 12.513 2.45943 12.7669 2.92727 12.6146C3.37839 12.4623 3.62902 11.9547 3.47865 11.4809C3.29485 10.9563 3.21131 10.3979 3.22802 9.83952C3.29485 7.45365 5.19961 5.49081 7.5555 5.37237C10.1787 5.237 12.3508 7.35213 12.3508 9.97489C12.3508 12.4284 10.4461 14.442 8.05676 14.5774C8.05676 14.5774 7.17121 14.6282 6.73679 14.6959C6.51958 14.7297 6.3525 14.7635 6.23554 14.7805C6.18541 14.7974 6.13529 14.7466 6.15199 14.6959L6.30237 13.9513L7.12108 10.1272C7.22133 9.65339 6.92058 9.1796 6.45275 9.07807C5.98491 8.97655 5.51707 9.28113 5.41682 9.75491C5.41682 9.75491 3.44523 19.0615 3.42852 19.163C3.32827 19.6368 3.62902 20.1106 4.09686 20.2121C4.56469 20.3136 5.03253 20.0091 5.13278 19.5353C5.14949 19.4338 5.41682 18.1985 5.41682 18.1985C5.61732 17.2509 6.38591 16.5572 7.28817 16.4387C7.48867 16.4049 8.27397 16.3541 8.27397 16.3541C11.5321 16.1003 14.1052 13.3422 14.1052 9.97489C14.1052 6.43839 11.2648 3.57874 7.78942 3.57874Z" fill="black"/>
    <path d="M23 8.02223V6H31.0692V8.02223H28.2596V16.8889H25.8162V8.02223H23ZM31.4487 9.11111H33.6857V10.0444C33.972 9.71389 34.3049 9.44815 34.6778 9.2537C35.0506 9.05926 35.4634 8.95556 35.9095 8.95556C36.229 8.95556 36.482 8.99445 36.6751 9.0787L36.3888 10.7898L36.2756 10.9C36.0626 10.8481 35.8828 10.8222 35.7297 10.8222C35.2903 10.8222 34.8975 10.9389 34.5446 11.1787C34.1917 11.4185 33.9054 11.762 33.6791 12.2222V16.8889H31.4421L31.4487 9.11111ZM39.3049 16.5389C38.6791 16.2019 38.1931 15.7287 37.8402 15.113C37.4873 14.5037 37.3142 13.7972 37.3142 13C37.3142 12.2093 37.5007 11.5093 37.8802 10.9C38.2597 10.2907 38.759 9.81111 39.3915 9.4676C40.0173 9.12408 40.6964 8.95556 41.4221 8.95556C42.2077 8.95556 42.9068 9.11759 43.5126 9.43519C44.1185 9.75926 44.5912 10.2194 44.9241 10.8222C45.257 11.425 45.4301 12.1315 45.4301 12.9546V13.5315H39.4248C39.478 14.0694 39.6911 14.4972 40.0573 14.8148C40.4234 15.1324 40.8961 15.288 41.4687 15.288C42.3875 15.288 42.9933 14.8861 43.2929 14.0889L45.1638 14.2769L45.277 14.4648C44.9774 15.3269 44.5047 15.9685 43.8455 16.4028C43.1864 16.837 42.3808 17.0509 41.4221 17.0509C40.6365 17.0444 39.9307 16.8759 39.3049 16.5389ZM43.3262 12.1315C43.273 11.6648 43.0732 11.2889 42.7204 11.0102C42.3675 10.7315 41.9348 10.5889 41.4088 10.5889C40.9427 10.5889 40.53 10.7315 40.1704 11.0102C39.8109 11.2889 39.5845 11.6648 39.4913 12.1315H43.3262ZM47.8202 16.7593C47.4341 16.5648 47.1212 16.2926 46.8948 15.9361C46.6684 15.5796 46.5486 15.1583 46.5486 14.6852C46.5486 13.9787 46.8016 13.4148 47.3009 12.9806C47.8002 12.5528 48.486 12.2935 49.3648 12.2093L51.522 11.9889V11.6454C51.522 11.2954 51.4088 11.0167 51.1758 10.8222C50.9494 10.6278 50.6232 10.5241 50.2104 10.5241C49.8375 10.5241 49.5379 10.6213 49.3182 10.8093C49.0919 11.0037 48.9587 11.263 48.9055 11.5935L47.0213 11.438L46.9414 11.3472C47.1012 10.5694 47.4807 9.97315 48.0732 9.56482C48.6658 9.15648 49.3915 8.94908 50.2437 8.94908C51.2556 8.94908 52.0746 9.19537 52.7071 9.68797C53.3329 10.1806 53.6524 10.8741 53.6524 11.762V14.5491C53.6524 14.7889 53.7057 14.9704 53.8056 15.0935C53.9054 15.2167 54.0453 15.2815 54.2317 15.2815C54.3515 15.2815 54.4514 15.2685 54.5379 15.2361L54.6178 15.3269V16.8176C54.2983 16.9213 53.9321 16.9732 53.5126 16.9732C52.6471 16.9732 52.0546 16.6231 51.7217 15.9167H51.6085C51.2357 16.2926 50.8495 16.5713 50.4567 16.7593C50.0639 16.9472 49.6112 17.038 49.0985 17.038C48.6325 17.0444 48.213 16.9472 47.8202 16.7593ZM50.6165 15.113C50.9094 14.925 51.209 14.6398 51.522 14.2574V13.3565L49.7643 13.5769C49.3915 13.6157 49.1052 13.7259 48.9121 13.9009C48.7124 14.0759 48.6192 14.2963 48.6192 14.5556C48.6192 14.8148 48.7124 15.0222 48.8988 15.1713C49.0852 15.3204 49.3249 15.3981 49.6112 15.3981C49.984 15.3981 50.3236 15.3009 50.6165 15.113ZM56.6485 16.4482C56.0493 16.0463 55.6498 15.4889 55.4501 14.763L55.5166 14.562L57.2277 14.063C57.4208 14.9315 57.9934 15.3722 58.9521 15.3722C59.285 15.3722 59.5513 15.3074 59.7643 15.1713C59.9774 15.0352 60.0839 14.8472 60.0839 14.6139C60.0839 14.3676 59.964 14.1732 59.7244 14.0306C59.4847 13.888 59.0186 13.7324 58.3262 13.5574C57.4873 13.363 56.8482 13.0713 56.4221 12.6954C55.996 12.3194 55.7829 11.8139 55.7829 11.1917C55.7829 10.7769 55.9028 10.4009 56.1425 10.0639C56.3822 9.72686 56.7217 9.46111 57.1544 9.26019C57.5939 9.06574 58.0932 8.96204 58.6591 8.96204C59.498 8.96204 60.1904 9.14352 60.7297 9.5C61.269 9.85648 61.6152 10.362 61.7749 11.0167L61.6817 11.1852L59.9907 11.587C59.9174 11.2241 59.7576 10.9454 59.5113 10.7574C59.265 10.5694 58.9654 10.4722 58.6192 10.4722C58.3529 10.4722 58.1265 10.5241 57.9467 10.6343C57.767 10.7444 57.6738 10.8935 57.6738 11.075C57.6738 11.3019 57.8202 11.4898 58.1198 11.6324C58.4194 11.775 58.9587 11.9565 59.751 12.1639C60.5699 12.3843 61.1758 12.6694 61.5619 13.0194C61.9481 13.3694 62.1478 13.862 62.1478 14.4843C62.1478 14.9639 62.0146 15.3981 61.755 15.7935C61.4953 16.1889 61.1225 16.4935 60.6365 16.7204C60.1505 16.9407 59.5912 17.0574 58.9521 17.0574C58.0133 17.0444 57.2477 16.8435 56.6485 16.4482ZM64.3648 16.2796C63.8655 15.7741 63.6125 15.0935 63.6125 14.2444V9.11111H65.8495V13.7907C65.8495 14.238 65.9694 14.5815 66.2024 14.8148C66.4354 15.0546 66.7683 15.1713 67.1944 15.1713C67.5806 15.1713 67.9268 15.0676 68.2463 14.8537C68.5659 14.6398 68.8256 14.3611 69.032 14.0046V9.10463H71.269V16.8824H69.032V15.9167C68.3196 16.662 67.4474 17.038 66.4288 17.038C65.5566 17.0444 64.8708 16.7917 64.3648 16.2796ZM73.253 9.11111H75.49V10.0444C75.7763 9.71389 76.1092 9.44815 76.482 9.2537C76.8549 9.05926 77.2676 8.95556 77.7137 8.95556C78.0333 8.95556 78.2863 8.99445 78.4794 9.0787L78.1931 10.7898L78.0799 10.9C77.8668 10.8481 77.6871 10.8222 77.534 10.8222C77.0945 10.8222 76.7017 10.9389 76.3489 11.1787C75.996 11.4185 75.7097 11.762 75.4834 12.2222V16.8889H73.2463L73.253 9.11111ZM82.5007 16.688L79.2117 9.11111H81.7683L83.3995 12.987L83.4794 14.1213H83.6059L85.6365 9.11111H88L83.4594 20H81.1292L82.5007 16.688Z" fill="black"/>
</svg>
