<svg width="134" height="134" viewBox="0 0 134 134" fill="none" xmlns="http://www.w3.org/2000/svg">
<g filter="url(#filter0_dd)">
<rect width="72" height="72" transform="translate(31 27)" fill="white"/>
<path fill-rule="evenodd" clip-rule="evenodd" d="M73.6667 51.8889C81.0305 51.8889 87 57.8585 87 65.2222C87 68.6037 85.7413 71.6912 83.6667 74.0417V83L78.8043 77.5298C77.2231 78.1906 75.4875 78.5556 73.6667 78.5556C66.3029 78.5556 60.3334 72.586 60.3334 65.2222C60.3334 57.8585 66.3029 51.8889 73.6667 51.8889Z" fill="url(#paint0_linear)"/>
<g filter="url(#filter1_b)">
<path d="M47 43H78.1111V65.2222H59.2222L51.4444 74.1111V65.2222H47V43Z" fill="url(#paint1_linear)"/>
</g>
</g>
<defs>
<filter id="filter0_dd" x="0" y="0" width="134" height="134" filterUnits="userSpaceOnUse" color-interpolation-filters="sRGB">
<feFlood flood-opacity="0" result="BackgroundImageFix"/>
<feColorMatrix in="SourceAlpha" type="matrix" values="0 0 0 0 0 0 0 0 0 0 0 0 0 0 0 0 0 0 127 0"/>
<feOffset dy="0.751293"/>
<feGaussianBlur stdDeviation="4"/>
<feColorMatrix type="matrix" values="0 0 0 0 0.101961 0 0 0 0 0.129412 0 0 0 0 0.172549 0 0 0 0.04 0"/>
<feBlend mode="normal" in2="BackgroundImageFix" result="effect1_dropShadow"/>
<feColorMatrix in="SourceAlpha" type="matrix" values="0 0 0 0 0 0 0 0 0 0 0 0 0 0 0 0 0 0 127 0"/>
<feOffset dy="4"/>
<feGaussianBlur stdDeviation="15.5"/>
<feColorMatrix type="matrix" values="0 0 0 0 0.101961 0 0 0 0 0.129412 0 0 0 0 0.172549 0 0 0 0.06 0"/>
<feBlend mode="normal" in2="effect1_dropShadow" result="effect2_dropShadow"/>
<feBlend mode="normal" in="SourceGraphic" in2="effect2_dropShadow" result="shape"/>
</filter>
<filter id="filter1_b" x="45" y="41" width="35.1111" height="35.1111" filterUnits="userSpaceOnUse" color-interpolation-filters="sRGB">
<feFlood flood-opacity="0" result="BackgroundImageFix"/>
<feGaussianBlur in="BackgroundImage" stdDeviation="1"/>
<feComposite in2="SourceAlpha" operator="in" result="effect1_backgroundBlur"/>
<feBlend mode="normal" in="SourceGraphic" in2="effect1_backgroundBlur" result="shape"/>
</filter>
<linearGradient id="paint0_linear" x1="73.6667" y1="51.8889" x2="73.6667" y2="83" gradientUnits="userSpaceOnUse">
<stop stop-color="#6848FF"/>
<stop offset="1" stop-color="#6848FF" stop-opacity="0.2"/>
</linearGradient>
<linearGradient id="paint1_linear" x1="62.5556" y1="43" x2="62.5556" y2="73" gradientUnits="userSpaceOnUse">
<stop stop-color="#04D2C5"/>
<stop offset="1" stop-color="#04D2C5" stop-opacity="0.2"/>
</linearGradient>
</defs>
</svg>
