<svg width="44" height="128" viewBox="0 0 44 128" fill="none" xmlns="http://www.w3.org/2000/svg">
    <rect x="25" y="56" width="6" height="6" transform="rotate(90 25 56)" fill="#C0EAF3"/>
    <rect x="25" y="78" width="6" height="6" transform="rotate(90 25 78)" fill="#C0EAF3"/>
    <rect x="25" y="100" width="6" height="6" transform="rotate(90 25 100)" fill="#C0EAF3"/>
    <rect x="25" y="122" width="6" height="6" transform="rotate(90 25 122)" fill="#C0EAF3"/>
    <path d="M41.4773 34.8283L36.3223 43.757L26.0123 43.757L20.8573 34.8283L26.0123 25.8996L36.3223 25.8996L41.4773 34.8283Z" fill="url(#paint0_linear)"/>
    <g filter="url(#filter0_b)">
        <path d="M43.3074 18.8095L32.6537 37.2622L11.3464 37.2622L0.692679 18.8095L11.3464 0.356808L32.6537 0.356809L43.3074 18.8095Z" fill="url(#paint1_linear)"/>
    </g>
    <defs>
        <filter id="filter0_b" x="-1.30737" y="-1.64319" width="46.6147" height="40.9054" filterUnits="userSpaceOnUse" color-interpolation-filters="sRGB">
            <feFlood flood-opacity="0" result="BackgroundImageFix"/>
            <feGaussianBlur in="BackgroundImage" stdDeviation="1"/>
            <feComposite in2="SourceAlpha" operator="in" result="effect1_backgroundBlur"/>
            <feBlend mode="normal" in="SourceGraphic" in2="effect1_backgroundBlur" result="shape"/>
        </filter>
        <linearGradient id="paint0_linear" x1="41.4773" y1="34.8283" x2="20.8573" y2="34.8283" gradientUnits="userSpaceOnUse">
            <stop stop-color="#6848FF"/>
            <stop offset="1" stop-color="#6848FF" stop-opacity="0.2"/>
        </linearGradient>
        <linearGradient id="paint1_linear" x1="22" y1="0.355494" x2="22" y2="37.1606" gradientUnits="userSpaceOnUse">
            <stop stop-color="#04D2C5"/>
            <stop offset="1" stop-color="#04D2C5" stop-opacity="0.2"/>
        </linearGradient>
    </defs>
</svg>
