<?xml version="1.0" encoding="UTF-8"?>
<svg width="198px" height="39px" viewBox="0 0 198 39" version="1.1" xmlns="http://www.w3.org/2000/svg" xmlns:xlink="http://www.w3.org/1999/xlink">
    <title>编组 5</title>
    <g id="页面-1" stroke="none" stroke-width="1" fill="none" fill-rule="evenodd">
        <g id="官网-中文备份" transform="translate(-100.000000, -29.000000)" fill="#222222" fill-rule="nonzero">
            <g id="编组-5" transform="translate(99.999981, 29.000000)">
                <path d="M1.1920044,15.7188289 L7.9445443,16.1162611 L6.97808703,32.0930358 L23.5935555,31.126648 L23.9860469,37.820243 L3.58071539,38.9999946 L3.38235953,38.9999946 C2.45068758,39.0016531 1.55973247,38.6216155 0.920399107,37.9498379 C0.281065747,37.2780603 -0.0498123371,36.3742604 0.00608958281,35.4523838 L0.00608958281,35.4523838 L1.1920044,15.7188289 Z M30.9496037,30.8505372 L37.7359063,31.2396024 L37.3898386,36.9960941 L30.565553,37.3893428 L30.9496037,30.8505372 Z M35.7650087,0.00561459964 C36.7289015,-0.0497653141 37.6705946,0.306568517 38.3520755,0.984552873 C39.0344862,1.66081282 39.3923859,2.59419211 39.3354142,3.54903647 L39.3354142,3.54903647 L38.15794,23.776244 L31.4054001,23.3871787 L32.3760777,6.91675147 L16.2586091,7.88732275 L15.857677,1.19372772 Z M8.01629004,1.64972888 L8.42144243,8.34332391 L1.62247882,8.74912311 L2.02341088,1.99695912 L8.01629004,1.64972888 Z" id="形状结合"></path>
                <path d="M65.2640194,28.336 C67.8560194,28.336 69.9200194,27.496 71.4320194,25.816 C72.8720194,24.184 73.5920194,22.072 73.5920194,19.456 C73.5920194,16.816 72.8720194,14.68 71.4320194,13.072 C69.9200194,11.368 67.8560194,10.528 65.2640194,10.528 C62.6480194,10.528 60.5840194,11.368 59.0960194,13.096 C57.6560194,14.728 56.9600194,16.84 56.9600194,19.456 C56.9600194,22.048 57.6560194,24.16 59.0960194,25.792 C60.5840194,27.472 62.6480194,28.336 65.2640194,28.336 Z M65.2640194,26.032 C63.4400194,26.032 62.0240194,25.408 61.0160194,24.208 C60.0560194,23.032 59.5760194,21.448 59.5760194,19.456 C59.5760194,17.44 60.0560194,15.856 61.0160194,14.68 C62.0240194,13.432 63.4400194,12.832 65.2640194,12.832 C67.0880194,12.832 68.5040194,13.408 69.4880194,14.608 C70.4480194,15.784 70.9520194,17.392 70.9520194,19.456 C70.9520194,21.496 70.4480194,23.104 69.4880194,24.256 C68.5040194,25.432 67.0880194,26.032 65.2640194,26.032 Z M78.7160194,32.752 L78.7160194,26.176 C79.7240194,27.616 80.9720194,28.336 82.5080194,28.336 C84.2840194,28.336 85.7000194,27.688 86.7080194,26.392 C87.6440194,25.192 88.1240194,23.68 88.1240194,21.856 C88.1240194,19.936 87.6440194,18.4 86.6840194,17.2 C85.6280194,15.904 84.2120194,15.256 82.3880194,15.256 C80.7080194,15.256 79.4120194,15.856 78.5480194,17.08 L78.5480194,15.592 L76.1720194,15.592 L76.1720194,32.752 L78.7160194,32.752 Z M81.9320194,26.272 C80.9720194,26.272 80.2040194,25.888 79.6280194,25.144 C78.9560194,24.328 78.6440194,23.248 78.6440194,21.928 L78.6440194,21.712 C78.6440194,20.44 78.9080194,19.408 79.4360194,18.64 C80.0360194,17.752 80.9000194,17.32 82.0040194,17.32 C83.2520194,17.32 84.1640194,17.752 84.7640194,18.664 C85.2440194,19.432 85.5080194,20.488 85.5080194,21.856 C85.5080194,23.224 85.2200194,24.28 84.6920194,25.048 C84.0920194,25.864 83.1800194,26.272 81.9320194,26.272 Z M96.0560194,28.336 C97.7120194,28.336 99.0800194,27.856 100.160019,26.92 C101.024019,26.152 101.576019,25.168 101.864019,24.016 L99.3200194,24.016 C98.9840194,24.736 98.6240194,25.288 98.1920194,25.624 C97.6400194,26.032 96.9200194,26.248 96.0320194,26.248 C95.0240194,26.248 94.2320194,25.912 93.6560194,25.288 C93.0800194,24.64 92.7680194,23.704 92.6720194,22.504 L102.080019,22.504 C102.056019,20.296 101.552019,18.568 100.592019,17.32 C99.5360194,15.928 97.9760194,15.256 95.9600194,15.256 C94.1360194,15.256 92.6720194,15.88 91.6160194,17.152 C90.5120194,18.4 89.9840194,19.936 89.9840194,21.784 C89.9840194,23.824 90.5600194,25.432 91.7120194,26.632 C92.7680194,27.76 94.2320194,28.336 96.0560194,28.336 Z M99.4160194,20.584 L92.7200194,20.584 C92.8640194,19.528 93.2240194,18.736 93.7520194,18.184 C94.3280194,17.608 95.0720194,17.344 96.0320194,17.344 C98.0480194,17.344 99.1760194,18.424 99.4160194,20.584 Z M106.964019,28 L106.964019,20.536 C107.060019,19.528 107.420019,18.736 107.996019,18.16 C108.524019,17.632 109.172019,17.392 109.892019,17.392 C111.812019,17.392 112.796019,18.448 112.796019,20.56 L112.796019,28 L115.340019,28 L115.340019,20.344 C115.340019,16.936 113.780019,15.256 110.708019,15.256 C109.940019,15.256 109.244019,15.4 108.620019,15.736 C107.996019,16.048 107.444019,16.504 106.964019,17.128 L106.964019,15.592 L104.420019,15.592 L104.420019,28 L106.964019,28 Z M124.928019,28.336 C127.088019,28.336 128.768019,27.904 129.968019,27.04 C131.168019,26.152 131.768019,24.952 131.768019,23.416 C131.768019,21.832 131.024019,20.608 129.560019,19.72 C128.888019,19.312 127.376019,18.76 125.072019,18.04 C123.464019,17.56 122.480019,17.2 122.096019,16.984 C121.232019,16.528 120.824019,15.928 120.824019,15.16 C120.824019,14.296 121.184019,13.672 121.928019,13.288 C122.528019,12.952 123.392019,12.784 124.520019,12.784 C125.816019,12.784 126.776019,13.024 127.448019,13.528 C128.120019,14.008 128.552019,14.824 128.792019,15.928 L131.384019,15.928 C131.216019,14.056 130.544019,12.688 129.344019,11.8 C128.216019,10.936 126.656019,10.528 124.664019,10.528 C122.840019,10.528 121.328019,10.936 120.128019,11.752 C118.856019,12.616 118.232019,13.792 118.232019,15.304 C118.232019,16.792 118.880019,17.944 120.200019,18.736 C120.728019,19.024 122.024019,19.48 124.136019,20.152 C126.032019,20.728 127.160019,21.112 127.544019,21.304 C128.624019,21.856 129.176019,22.6 129.176019,23.56 C129.176019,24.328 128.792019,24.928 128.024019,25.36 C127.256019,25.792 126.224019,26.032 124.928019,26.032 C123.488019,26.032 122.432019,25.768 121.736019,25.24 C120.968019,24.664 120.488019,23.68 120.296019,22.336 L117.704019,22.336 C117.848019,24.496 118.616019,26.08 120.032019,27.088 C121.208019,27.904 122.840019,28.336 124.928019,28.336 Z M145.604019,32.752 L145.604019,15.592 L143.228019,15.592 L143.228019,17.08 C142.364019,15.856 141.068019,15.256 139.388019,15.256 C137.564019,15.256 136.124019,15.904 135.092019,17.2 C134.132019,18.4 133.652019,19.936 133.652019,21.856 C133.652019,23.68 134.108019,25.192 135.068019,26.392 C136.076019,27.688 137.468019,28.336 139.268019,28.336 C140.780019,28.336 142.052019,27.616 143.060019,26.176 L143.060019,32.752 L145.604019,32.752 Z M139.844019,26.272 C138.596019,26.272 137.660019,25.864 137.084019,25.048 C136.532019,24.28 136.268019,23.224 136.268019,21.856 C136.268019,20.488 136.508019,19.432 137.012019,18.664 C137.588019,17.752 138.524019,17.32 139.772019,17.32 C140.876019,17.32 141.716019,17.752 142.340019,18.64 C142.868019,19.408 143.132019,20.44 143.132019,21.712 L143.132019,21.928 C143.132019,23.248 142.796019,24.328 142.172019,25.144 C141.548019,25.888 140.780019,26.272 139.844019,26.272 Z M153.152019,28.336 C154.712019,28.336 156.008019,27.664 157.064019,26.32 L157.064019,28 L159.608019,28 L159.608019,15.592 L157.064019,15.592 L157.064019,23.176 C156.848019,24.088 156.440019,24.832 155.864019,25.384 C155.288019,25.912 154.688019,26.2 154.016019,26.2 C153.032019,26.2 152.312019,25.936 151.880019,25.456 C151.424019,24.976 151.208019,24.208 151.208019,23.152 L151.208019,15.592 L148.664019,15.592 L148.664019,23.32 C148.664019,26.656 150.152019,28.336 153.152019,28.336 Z M166.412019,28.336 C167.516019,28.336 168.476019,28.12 169.292019,27.736 C170.012019,27.376 170.612019,26.872 171.092019,26.248 L171.092019,28 L173.444019,28 L173.444019,20.08 C173.444019,18.568 173.060019,17.416 172.316019,16.624 C171.452019,15.712 170.108019,15.256 168.284019,15.256 C166.748019,15.256 165.500019,15.52 164.588019,16.096 C163.532019,16.72 162.860019,17.728 162.596019,19.072 L165.116019,19.288 C165.260019,18.592 165.620019,18.088 166.196019,17.752 C166.676019,17.464 167.324019,17.32 168.116019,17.32 C169.988019,17.32 170.924019,18.184 170.924019,19.912 L170.924019,20.416 L168.140019,20.488 C166.316019,20.536 164.876019,20.896 163.868019,21.616 C162.764019,22.36 162.212019,23.44 162.212019,24.832 C162.212019,25.864 162.596019,26.704 163.388019,27.352 C164.108019,28 165.116019,28.336 166.412019,28.336 Z M166.988019,26.392 C166.340019,26.392 165.812019,26.224 165.428019,25.912 C165.020019,25.6 164.828019,25.216 164.828019,24.736 C164.828019,23.2 165.980019,22.384 168.308019,22.336 L170.924019,22.264 L170.924019,22.984 C170.924019,23.944 170.516019,24.76 169.748019,25.408 C168.980019,26.056 168.068019,26.392 166.988019,26.392 Z M179.072019,28 L179.072019,21.424 C179.072019,20.344 179.384019,19.456 180.032019,18.784 C180.632019,18.16 181.328019,17.848 182.096019,17.848 C182.672019,17.848 183.272019,17.92 183.896019,18.112 L183.896019,15.568 C183.464019,15.352 182.912019,15.256 182.288019,15.256 C181.520019,15.256 180.848019,15.472 180.272019,15.952 C179.792019,16.288 179.384019,16.792 179.072019,17.464 L179.072019,15.592 L176.528019,15.592 L176.528019,28 L179.072019,28 Z M190.988019,28.336 C192.644019,28.336 194.012019,27.856 195.092019,26.92 C195.956019,26.152 196.508019,25.168 196.796019,24.016 L194.252019,24.016 C193.916019,24.736 193.556019,25.288 193.124019,25.624 C192.572019,26.032 191.852019,26.248 190.964019,26.248 C189.956019,26.248 189.164019,25.912 188.588019,25.288 C188.012019,24.64 187.700019,23.704 187.604019,22.504 L197.012019,22.504 C196.988019,20.296 196.484019,18.568 195.524019,17.32 C194.468019,15.928 192.908019,15.256 190.892019,15.256 C189.068019,15.256 187.604019,15.88 186.548019,17.152 C185.444019,18.4 184.916019,19.936 184.916019,21.784 C184.916019,23.824 185.492019,25.432 186.644019,26.632 C187.700019,27.76 189.164019,28.336 190.988019,28.336 Z M194.348019,20.584 L187.652019,20.584 C187.796019,19.528 188.156019,18.736 188.684019,18.184 C189.260019,17.608 190.004019,17.344 190.964019,17.344 C192.980019,17.344 194.108019,18.424 194.348019,20.584 Z" id="OpenSquare"></path>
            </g>
        </g>
    </g>
</svg>