<svg width="718" height="188" viewBox="0 0 718 188" fill="none" xmlns="http://www.w3.org/2000/svg">
<g clip-path="url(#clip0)">
<path d="M112.587 39.8966L93.8505 50.76L74.9807 39.8966L93.7176 29L112.587 39.8966Z" fill="#515151"/>
<path d="M112.587 39.8965L112.521 61.5568L93.7841 72.4203L93.8505 50.7599L112.587 39.8965Z" fill="#3E3D3D"/>
<path d="M93.8505 50.7599L93.7841 72.4203L74.9143 61.5568L74.9807 39.8965L93.8505 50.7599Z" fill="#2D2D2D"/>
<path d="M150.393 83.4163L150.327 105.077L112.621 83.3166L112.687 61.6562L150.393 83.4163Z" fill="#2D2D2D"/>
<path d="M75.1137 61.6562L75.0472 83.3166L37.5735 105.077L37.6399 83.4163L75.1137 61.6562Z" fill="#3E3D3D"/>
<path d="M188 83.4164L131.789 116.073L112.953 105.21L150.393 83.4164L112.687 61.6564L131.424 50.7598L188 83.4164Z" fill="#515151"/>
<path d="M188 83.416L187.934 105.076L131.723 137.733L131.789 116.073L188 83.416Z" fill="#3E3D3D"/>
<path d="M131.789 116.073L131.723 137.734L112.886 126.87L112.953 105.21L131.789 116.073Z" fill="#2D2D2D"/>
<path d="M75.3462 105.21L75.2797 126.87L56.576 137.734L56.6093 116.073L75.3462 105.21Z" fill="#3E3D3D"/>
<path d="M56.6093 116.073L56.5761 137.733L0 105.076L0.0664428 83.416L56.6093 116.073Z" fill="#2D2D2D"/>
<path d="M75.1137 61.6564L37.64 83.4164L75.3463 105.21L56.6094 116.073L0.0665283 83.4164L56.2439 50.7598L75.1137 61.6564Z" fill="#515151"/>
<path d="M113.052 126.97L94.3155 137.866L75.479 126.97L94.2159 116.073L113.052 126.97Z" fill="#515151"/>
<path d="M113.053 126.97L112.986 148.63L94.2823 159.527L94.3156 137.866L113.053 126.97Z" fill="#3E3D3D"/>
<path d="M94.3156 137.866L94.2823 159.527L75.4126 148.63L75.479 126.97L94.3156 137.866Z" fill="#2D2D2D"/>
</g>
<path d="M256.838 122.124C251.326 122.124 246.36 120.928 241.94 118.536C237.52 116.092 234.036 112.738 231.488 108.474C228.992 104.21 227.744 99.452 227.744 94.2C227.744 88.948 228.992 84.19 231.488 79.926C234.036 75.662 237.52 72.334 241.94 69.942C246.36 67.498 251.326 66.276 256.838 66.276C262.298 66.276 267.238 67.498 271.658 69.942C276.078 72.334 279.536 75.662 282.032 79.926C284.528 84.138 285.776 88.896 285.776 94.2C285.776 99.504 284.528 104.288 282.032 108.552C279.536 112.764 276.078 116.092 271.658 118.536C267.238 120.928 262.298 122.124 256.838 122.124ZM256.838 115.182C260.842 115.182 264.43 114.272 267.602 112.452C270.826 110.632 273.348 108.136 275.168 104.964C277.04 101.74 277.976 98.152 277.976 94.2C277.976 90.248 277.04 86.686 275.168 83.514C273.348 80.29 270.826 77.768 267.602 75.948C264.43 74.128 260.842 73.218 256.838 73.218C252.834 73.218 249.194 74.128 245.918 75.948C242.694 77.768 240.146 80.29 238.274 83.514C236.454 86.686 235.544 90.248 235.544 94.2C235.544 98.152 236.454 101.74 238.274 104.964C240.146 108.136 242.694 110.632 245.918 112.452C249.194 114.272 252.834 115.182 256.838 115.182ZM318.524 79.77C322.528 79.77 326.116 80.654 329.288 82.422C332.46 84.19 334.93 86.66 336.698 89.832C338.518 93.004 339.428 96.67 339.428 100.83C339.428 104.99 338.518 108.682 336.698 111.906C334.93 115.078 332.46 117.548 329.288 119.316C326.116 121.084 322.528 121.968 318.524 121.968C315.56 121.968 312.83 121.396 310.334 120.252C307.89 119.108 305.81 117.444 304.094 115.26V136.632H296.606V80.16H303.782V86.712C305.446 84.424 307.552 82.708 310.1 81.564C312.648 80.368 315.456 79.77 318.524 79.77ZM317.9 115.416C320.552 115.416 322.918 114.818 324.998 113.622C327.13 112.374 328.794 110.658 329.99 108.474C331.238 106.238 331.862 103.69 331.862 100.83C331.862 97.97 331.238 95.448 329.99 93.264C328.794 91.028 327.13 89.312 324.998 88.116C322.918 86.92 320.552 86.322 317.9 86.322C315.3 86.322 312.934 86.946 310.802 88.194C308.722 89.39 307.058 91.08 305.81 93.264C304.614 95.448 304.016 97.97 304.016 100.83C304.016 103.69 304.614 106.238 305.81 108.474C307.006 110.658 308.67 112.374 310.802 113.622C312.934 114.818 315.3 115.416 317.9 115.416ZM387.136 101.064C387.136 101.636 387.084 102.39 386.98 103.326H353.44C353.908 106.966 355.494 109.904 358.198 112.14C360.954 114.324 364.36 115.416 368.416 115.416C373.356 115.416 377.334 113.752 380.35 110.424L384.484 115.26C382.612 117.444 380.272 119.108 377.464 120.252C374.708 121.396 371.614 121.968 368.182 121.968C363.814 121.968 359.94 121.084 356.56 119.316C353.18 117.496 350.554 114.974 348.682 111.75C346.862 108.526 345.952 104.886 345.952 100.83C345.952 96.826 346.836 93.212 348.604 89.988C350.424 86.764 352.894 84.268 356.014 82.5C359.186 80.68 362.748 79.77 366.7 79.77C370.652 79.77 374.162 80.68 377.23 82.5C380.35 84.268 382.768 86.764 384.484 89.988C386.252 93.212 387.136 96.904 387.136 101.064ZM366.7 86.088C363.112 86.088 360.096 87.18 357.652 89.364C355.26 91.548 353.856 94.408 353.44 97.944H379.96C379.544 94.46 378.114 91.626 375.67 89.442C373.278 87.206 370.288 86.088 366.7 86.088ZM419.608 79.77C424.86 79.77 429.02 81.304 432.088 84.372C435.208 87.388 436.768 91.834 436.768 97.71V121.5H429.28V98.568C429.28 94.564 428.318 91.548 426.394 89.52C424.47 87.492 421.714 86.478 418.126 86.478C414.07 86.478 410.872 87.674 408.532 90.066C406.192 92.406 405.022 95.786 405.022 100.206V121.5H397.534V80.16H404.71V86.4C406.218 84.268 408.246 82.63 410.794 81.486C413.394 80.342 416.332 79.77 419.608 79.77ZM467.395 121.89C463.391 121.89 459.569 121.214 455.929 119.862C452.341 118.458 449.533 116.664 447.505 114.48L449.299 111.516C451.223 113.544 453.797 115.208 457.021 116.508C460.297 117.756 463.729 118.38 467.317 118.38C472.517 118.38 476.443 117.392 479.095 115.416C481.747 113.44 483.073 110.866 483.073 107.694C483.073 105.25 482.371 103.3 480.967 101.844C479.563 100.388 477.821 99.27 475.741 98.49C473.661 97.71 470.853 96.904 467.317 96.072C463.313 95.084 460.089 94.122 457.645 93.186C455.253 92.25 453.199 90.82 451.483 88.896C449.819 86.92 448.987 84.294 448.987 81.018C448.987 78.366 449.689 75.948 451.093 73.764C452.497 71.528 454.629 69.76 457.489 68.46C460.401 67.16 464.015 66.51 468.331 66.51C471.347 66.51 474.311 66.952 477.223 67.836C480.135 68.72 482.657 69.916 484.789 71.424L483.307 74.622C481.123 73.114 478.705 71.97 476.053 71.19C473.453 70.41 470.879 70.02 468.331 70.02C463.287 70.02 459.465 71.034 456.865 73.062C454.265 75.09 452.965 77.716 452.965 80.94C452.965 83.384 453.667 85.334 455.071 86.79C456.475 88.246 458.217 89.364 460.297 90.144C462.377 90.924 465.211 91.756 468.799 92.64C472.803 93.628 476.001 94.59 478.393 95.526C480.785 96.462 482.813 97.892 484.477 99.816C486.193 101.688 487.051 104.236 487.051 107.46C487.051 110.112 486.323 112.53 484.867 114.714C483.463 116.898 481.279 118.64 478.315 119.94C475.351 121.24 471.711 121.89 467.395 121.89ZM535.519 80.784V136.632H531.619V112.062C529.955 115.13 527.667 117.522 524.755 119.238C521.895 120.954 518.645 121.812 515.005 121.812C511.209 121.812 507.777 120.954 504.709 119.238C501.641 117.47 499.223 115.026 497.455 111.906C495.739 108.734 494.881 105.146 494.881 101.142C494.881 97.138 495.739 93.576 497.455 90.456C499.223 87.336 501.641 84.892 504.709 83.124C507.777 81.356 511.209 80.472 515.005 80.472C518.697 80.472 521.999 81.33 524.911 83.046C527.823 84.762 530.085 87.206 531.697 90.378V80.784H535.519ZM515.239 118.302C518.359 118.302 521.141 117.574 523.585 116.118C526.081 114.662 528.031 112.634 529.435 110.034C530.891 107.434 531.619 104.47 531.619 101.142C531.619 97.814 530.891 94.85 529.435 92.25C528.031 89.65 526.081 87.622 523.585 86.166C521.141 84.71 518.359 83.982 515.239 83.982C512.119 83.982 509.311 84.71 506.815 86.166C504.371 87.622 502.421 89.65 500.965 92.25C499.561 94.85 498.859 97.814 498.859 101.142C498.859 104.47 499.561 107.434 500.965 110.034C502.421 112.634 504.371 114.662 506.815 116.118C509.311 117.574 512.119 118.302 515.239 118.302ZM587.607 80.784V121.5H583.863V112.764C582.511 115.624 580.509 117.86 577.857 119.472C575.205 121.032 572.085 121.812 568.497 121.812C563.193 121.812 559.033 120.33 556.017 117.366C553.001 114.402 551.493 110.138 551.493 104.574V80.784H555.393V104.262C555.393 108.838 556.563 112.322 558.903 114.714C561.243 117.106 564.545 118.302 568.809 118.302C573.385 118.302 576.999 116.872 579.651 114.012C582.355 111.152 583.707 107.304 583.707 102.468V80.784H587.607ZM617.867 80.472C622.911 80.472 626.785 81.772 629.489 84.372C632.193 86.92 633.545 90.69 633.545 95.682V121.5H629.801V114.246C628.501 116.638 626.603 118.51 624.107 119.862C621.611 121.162 618.621 121.812 615.137 121.812C610.613 121.812 607.025 120.746 604.373 118.614C601.773 116.482 600.473 113.674 600.473 110.19C600.473 106.81 601.669 104.08 604.061 102C606.505 99.868 610.379 98.802 615.683 98.802H629.645V95.526C629.645 91.73 628.605 88.844 626.525 86.868C624.497 84.892 621.507 83.904 617.555 83.904C614.851 83.904 612.251 84.372 609.755 85.308C607.311 86.244 605.231 87.492 603.515 89.052L601.565 86.244C603.593 84.424 606.037 83.02 608.897 82.032C611.757 80.992 614.747 80.472 617.867 80.472ZM615.683 118.614C619.063 118.614 621.923 117.834 624.263 116.274C626.655 114.714 628.449 112.452 629.645 109.488V101.844H615.761C611.757 101.844 608.845 102.572 607.025 104.028C605.257 105.484 604.373 107.486 604.373 110.034C604.373 112.686 605.361 114.792 607.337 116.352C609.313 117.86 612.095 118.614 615.683 118.614ZM653.358 89.676C654.606 86.712 656.556 84.45 659.208 82.89C661.86 81.278 665.084 80.472 668.88 80.472V84.294L667.944 84.216C663.42 84.216 659.884 85.646 657.336 88.506C654.788 91.314 653.514 95.24 653.514 100.284V121.5H649.614V80.784H653.358V89.676ZM713.643 102.078H678.621C678.725 105.25 679.531 108.084 681.039 110.58C682.547 113.024 684.575 114.922 687.123 116.274C689.723 117.626 692.635 118.302 695.859 118.302C698.511 118.302 700.955 117.834 703.191 116.898C705.479 115.91 707.377 114.48 708.885 112.608L711.147 115.182C709.379 117.314 707.143 118.952 704.439 120.096C701.787 121.24 698.901 121.812 695.781 121.812C691.725 121.812 688.111 120.928 684.939 119.16C681.767 117.392 679.271 114.948 677.451 111.828C675.683 108.708 674.799 105.146 674.799 101.142C674.799 97.19 675.631 93.654 677.295 90.534C679.011 87.362 681.351 84.892 684.315 83.124C687.279 81.356 690.607 80.472 694.299 80.472C697.991 80.472 701.293 81.356 704.205 83.124C707.169 84.84 709.483 87.258 711.147 90.378C712.863 93.498 713.721 97.034 713.721 100.986L713.643 102.078ZM694.299 83.904C691.439 83.904 688.865 84.554 686.577 85.854C684.289 87.102 682.443 88.896 681.039 91.236C679.687 93.524 678.907 96.124 678.699 99.036H709.899C709.743 96.124 708.963 93.524 707.559 91.236C706.155 88.948 704.309 87.154 702.021 85.854C699.733 84.554 697.159 83.904 694.299 83.904Z" fill="#222222"/>
<defs>
<clipPath id="clip0">
<rect width="188" height="130.527" fill="white" transform="translate(0 29)"/>
</clipPath>
</defs>
</svg>
