<svg width="500" height="128" viewBox="0 0 500 128" fill="none" xmlns="http://www.w3.org/2000/svg">
<g clip-path="url(#clip0)">
<path d="M51.1855 27.0288L63.9426 19.6099L76.7901 27.0288L76.7448 41.7763L63.9876 49.1726L51.1401 41.7763L51.1855 27.0288Z" fill="#04D2C5"/>
<path d="M76.6777 56.5417L89.6505 64.0281L76.9041 71.4475L76.8589 86.195L89.6838 93.5911L127.955 71.3569L128 56.6094L89.4802 34.3752L76.723 41.7942L76.6777 56.5417Z" fill="#04D2C5"/>
<path d="M51.0961 56.5417L51.1413 41.7942L38.2934 34.3752L0.0452365 56.6097L0 71.3569L38.5199 93.5912L51.2544 86.195L51.2992 71.4475L38.3325 63.9531L51.0961 56.5417Z" fill="#04D2C5"/>
<path d="M64.0222 78.7898L76.8471 86.2088L76.8023 100.956L64.0677 108.375L51.2202 100.956L51.2651 86.2088L64.0222 78.7898Z" fill="#04D2C5"/>
<path d="M64.0329 34.4254L63.9876 49.1729L51.1401 41.7765L51.1854 27.0291L64.0329 34.4254Z" fill="#04D2C5"/>
<path d="M64.0329 34.4254L63.9876 49.1729L51.1401 41.7765L51.1854 27.0291L64.0329 34.4254Z" fill="black" fill-opacity="0.08"/>
<path d="M102.395 56.6098L102.35 71.3572L76.6777 56.5419L76.723 41.7944L102.395 56.6098Z" fill="#04D2C5"/>
<path d="M102.395 56.6098L102.35 71.3572L76.6777 56.5419L76.723 41.7944L102.395 56.6098Z" fill="black" fill-opacity="0.08"/>
<path d="M89.729 78.8441L89.6838 93.5916L76.8589 86.1952L76.9041 71.4478L89.729 78.8441Z" fill="#04D2C5"/>
<path d="M89.729 78.8441L89.6838 93.5916L76.8589 86.1952L76.9041 71.4478L89.729 78.8441Z" fill="black" fill-opacity="0.16"/>
<path d="M38.5425 78.8439L38.5199 93.5914L0 71.3571L0.0452377 56.6096L38.5425 78.8439Z" fill="#04D2C5"/>
<path d="M38.5425 78.8439L38.5199 93.5914L0 71.3571L0.0452377 56.6096L38.5425 78.8439Z" fill="black" fill-opacity="0.16"/>
<path d="M64.0903 93.628L64.0677 108.375L51.2202 100.956L51.2655 86.209L64.0903 93.628Z" fill="#04D2C5"/>
<path d="M64.0903 93.628L64.0677 108.375L51.2202 100.956L51.2655 86.209L64.0903 93.628Z" fill="black" fill-opacity="0.16"/>
<path d="M76.79 27.0291L76.7448 41.7765L63.9878 49.1729L64.033 34.4254L76.79 27.0291Z" fill="#04D2C5"/>
<path d="M76.79 27.0291L76.7448 41.7765L63.9878 49.1729L64.033 34.4254L76.79 27.0291Z" fill="black" fill-opacity="0.16"/>
<path d="M51.1413 41.7944L51.0961 56.5419L25.582 71.3572L25.6273 56.6098L51.1413 41.7944Z" fill="#04D2C5"/>
<path d="M51.1413 41.7944L51.0961 56.5419L25.582 71.3572L25.6273 56.6098L51.1413 41.7944Z" fill="black" fill-opacity="0.16"/>
<path d="M128 56.6096L127.955 71.3571L89.6836 93.5914L89.7288 78.8439L128 56.6096Z" fill="#04D2C5"/>
<path d="M128 56.6096L127.955 71.3571L89.6836 93.5914L89.7288 78.8439L128 56.6096Z" fill="black" fill-opacity="0.08"/>
<path d="M51.2997 71.4478L51.2544 86.1952L38.52 93.5916L38.5426 78.8441L51.2997 71.4478Z" fill="#04D2C5"/>
<path d="M51.2997 71.4478L51.2544 86.1952L38.52 93.5916L38.5426 78.8441L51.2997 71.4478Z" fill="black" fill-opacity="0.08"/>
<path d="M76.8475 86.209L76.8023 100.956L64.0679 108.375L64.0905 93.628L76.8475 86.209Z" fill="#04D2C5"/>
<path d="M76.8475 86.209L76.8023 100.956L64.0679 108.375L64.0905 93.628L76.8475 86.209Z" fill="black" fill-opacity="0.08"/>
<path d="M64.033 34.4254L76.7901 27.0291L63.9426 19.6101L51.1855 27.0291L64.033 34.4254Z" fill="url(#paint0_linear)"/>
<path d="M25.6268 56.6098L51.1409 41.7945L38.2934 34.3755L0.0449219 56.6098L38.5422 78.8441L51.2992 71.4478L25.6268 56.6098Z" fill="url(#paint1_linear)"/>
<path d="M89.729 78.8441L128 56.6098L89.4802 34.3755L76.7231 41.7945L102.396 56.6098L76.9041 71.4478L89.729 78.8441Z" fill="url(#paint2_linear)"/>
<path d="M76.847 86.209L64.09 93.628L51.2651 86.209L64.0222 78.79L76.847 86.209Z" fill="url(#paint3_linear)"/>
</g>
<path d="M184.115 82.102C180.304 82.102 176.871 81.286 173.815 79.6541C170.759 77.9867 168.35 75.6984 166.589 72.7894C164.863 69.8803 164 66.6341 164 63.051C164 59.4678 164.863 56.2217 166.589 53.3126C168.35 50.4035 170.759 48.133 173.815 46.5011C176.871 44.8337 180.304 44 184.115 44C187.89 44 191.306 44.8337 194.362 46.5011C197.418 48.133 199.809 50.4035 201.534 53.3126C203.26 56.1863 204.123 59.4324 204.123 63.051C204.123 66.6696 203.26 69.9335 201.534 72.8426C199.809 75.7162 197.418 77.9867 194.362 79.6541C191.306 81.286 187.89 82.102 184.115 82.102ZM184.115 77.3659C186.884 77.3659 189.364 76.745 191.557 75.5033C193.787 74.2616 195.53 72.5588 196.789 70.3947C198.083 68.1951 198.73 65.7472 198.73 63.051C198.73 60.3548 198.083 57.9246 196.789 55.7605C195.53 53.561 193.787 51.8404 191.557 50.5987C189.364 49.357 186.884 48.7361 184.115 48.7361C181.347 48.7361 178.83 49.357 176.565 50.5987C174.336 51.8404 172.575 53.561 171.28 55.7605C170.022 57.9246 169.393 60.3548 169.393 63.051C169.393 65.7472 170.022 68.1951 171.28 70.3947C172.575 72.5588 174.336 74.2616 176.565 75.5033C178.83 76.745 181.347 77.3659 184.115 77.3659Z" fill="#1D253C"/>
<path d="M226.764 53.2062C229.533 53.2062 232.013 53.8093 234.207 55.0155C236.4 56.2217 238.107 57.9069 239.33 60.071C240.588 62.235 241.217 64.7361 241.217 67.5743C241.217 70.4124 240.588 72.9313 239.33 75.1308C238.107 77.2949 236.4 78.98 234.207 80.1863C232.013 81.3925 229.533 81.9956 226.764 81.9956C224.715 81.9956 222.828 81.6053 221.102 80.8248C219.412 80.0443 217.974 78.9091 216.788 77.4191V92H211.61V53.4723H216.572V57.9424C217.722 56.3814 219.178 55.2106 220.94 54.4302C222.702 53.6142 224.643 53.2062 226.764 53.2062ZM226.333 77.5255C228.167 77.5255 229.802 77.1175 231.24 76.3016C232.714 75.4501 233.865 74.2794 234.692 72.7894C235.555 71.2639 235.986 69.5255 235.986 67.5743C235.986 65.6231 235.555 63.9024 234.692 62.4124C233.865 60.8869 232.714 59.7162 231.24 58.9002C229.802 58.0843 228.167 57.6763 226.333 57.6763C224.535 57.6763 222.9 58.102 221.425 58.9534C219.987 59.7694 218.837 60.9224 217.974 62.4124C217.147 63.9024 216.734 65.6231 216.734 67.5743C216.734 69.5255 217.147 71.2639 217.974 72.7894C218.801 74.2794 219.951 75.4501 221.425 76.3016C222.9 77.1175 224.535 77.5255 226.333 77.5255Z" fill="#1D253C"/>
<path d="M274.202 67.7339C274.202 68.1242 274.166 68.6386 274.094 69.2772H250.905C251.229 71.7605 252.325 73.765 254.195 75.2905C256.1 76.7805 258.455 77.5255 261.259 77.5255C264.675 77.5255 267.425 76.3902 269.51 74.1197L272.369 77.4191C271.074 78.9091 269.456 80.0443 267.515 80.8248C265.609 81.6053 263.47 81.9956 261.097 81.9956C258.077 81.9956 255.399 81.3925 253.062 80.1863C250.725 78.9446 248.91 77.2239 247.615 75.0244C246.357 72.8248 245.728 70.3415 245.728 67.5743C245.728 64.8426 246.339 62.3769 247.561 60.1774C248.82 57.9778 250.527 56.2749 252.685 55.0687C254.878 53.8271 257.34 53.2062 260.073 53.2062C262.805 53.2062 265.232 53.8271 267.353 55.0687C269.51 56.2749 271.182 57.9778 272.369 60.1774C273.591 62.3769 274.202 64.8958 274.202 67.7339ZM260.073 57.5166C257.592 57.5166 255.507 58.2616 253.817 59.7517C252.163 61.2417 251.193 63.1929 250.905 65.6053H269.241C268.953 63.2284 267.964 61.2949 266.275 59.8049C264.621 58.2794 262.554 57.5166 260.073 57.5166Z" fill="#1D253C"/>
<path d="M296.653 53.2062C300.284 53.2062 303.16 54.2528 305.281 56.3459C307.439 58.4035 308.517 61.4368 308.517 65.4457V81.6763H303.34V66.031C303.34 63.2993 302.675 61.2417 301.345 59.8581C300.014 58.4745 298.109 57.7827 295.628 57.7827C292.824 57.7827 290.613 58.5987 288.995 60.2306C287.377 61.8271 286.568 64.133 286.568 67.1486V81.6763H281.391V53.4723H286.352V57.7295C287.395 56.2749 288.797 55.1574 290.559 54.3769C292.356 53.5965 294.388 53.2062 296.653 53.2062Z" fill="#1D253C"/>
<path d="M329.693 81.9423C326.925 81.9423 324.282 81.4812 321.765 80.5588C319.285 79.6009 317.343 78.3769 315.941 76.8869L317.181 74.8647C318.512 76.2483 320.291 77.3836 322.52 78.2705C324.785 79.122 327.158 79.5477 329.639 79.5477C333.234 79.5477 335.949 78.8736 337.782 77.5255C339.616 76.1774 340.533 74.4213 340.533 72.2572C340.533 70.5898 340.047 69.2594 339.076 68.2661C338.106 67.2727 336.901 66.51 335.463 65.9778C334.025 65.4457 332.084 64.8958 329.639 64.3282C326.871 63.6541 324.642 62.9978 322.952 62.3592C321.298 61.7206 319.878 60.745 318.691 59.4324C317.541 58.0843 316.966 56.2927 316.966 54.0576C316.966 52.2483 317.451 50.5987 318.422 49.1086C319.393 47.5831 320.867 46.3769 322.844 45.49C324.857 44.6031 327.356 44.1596 330.34 44.1596C332.425 44.1596 334.475 44.4612 336.488 45.0643C338.501 45.6674 340.245 46.4834 341.719 47.5122L340.694 49.694C339.184 48.6652 337.513 47.8847 335.679 47.3525C333.881 46.8204 332.102 46.5543 330.34 46.5543C326.853 46.5543 324.21 47.2461 322.413 48.6297C320.615 50.0133 319.716 51.8049 319.716 54.0044C319.716 55.6718 320.201 57.0022 321.172 57.9956C322.143 58.9889 323.347 59.7517 324.785 60.2838C326.223 60.816 328.183 61.3836 330.664 61.9867C333.432 62.6608 335.643 63.3171 337.297 63.9557C338.951 64.5942 340.353 65.5698 341.503 66.8825C342.69 68.1596 343.283 69.898 343.283 72.0976C343.283 73.9069 342.78 75.5565 341.773 77.0466C340.802 78.5366 339.292 79.7251 337.243 80.612C335.194 81.4989 332.677 81.9423 329.693 81.9423Z" fill="#1D253C"/>
<path d="M376.793 53.898V92H374.096V75.2372C372.946 77.3304 371.364 78.9623 369.351 80.133C367.373 81.3038 365.126 81.8891 362.609 81.8891C359.985 81.8891 357.612 81.3038 355.491 80.133C353.37 78.9268 351.698 77.2594 350.476 75.1308C349.289 72.9667 348.696 70.5188 348.696 67.7871C348.696 65.0554 349.289 62.6253 350.476 60.4967C351.698 58.3681 353.37 56.7007 355.491 55.4945C357.612 54.2882 359.985 53.6851 362.609 53.6851C365.162 53.6851 367.445 54.2705 369.458 55.4412C371.472 56.612 373.036 58.2794 374.15 60.4435V53.898H376.793ZM362.771 79.4945C364.928 79.4945 366.852 78.9978 368.542 78.0044C370.267 77.0111 371.616 75.6275 372.586 73.8537C373.593 72.0798 374.096 70.0576 374.096 67.7871C374.096 65.5166 373.593 63.4945 372.586 61.7206C371.616 59.9468 370.267 58.5632 368.542 57.5698C366.852 56.5765 364.928 56.0798 362.771 56.0798C360.614 56.0798 358.673 56.5765 356.947 57.5698C355.257 58.5632 353.909 59.9468 352.902 61.7206C351.932 63.4945 351.446 65.5166 351.446 67.7871C351.446 70.0576 351.932 72.0798 352.902 73.8537C353.909 75.6275 355.257 77.0111 356.947 78.0044C358.673 78.9978 360.614 79.4945 362.771 79.4945Z" fill="#1D253C"/>
<path d="M412.806 53.898V81.6763H410.218V75.7162C409.283 77.6674 407.899 79.1929 406.065 80.2927C404.232 81.357 402.075 81.8891 399.594 81.8891C395.927 81.8891 393.051 80.8781 390.965 78.8559C388.88 76.8337 387.838 73.9246 387.838 70.1286V53.898H390.534V69.9157C390.534 73.0377 391.343 75.4146 392.961 77.0466C394.579 78.6785 396.862 79.4945 399.81 79.4945C402.973 79.4945 405.472 78.5188 407.306 76.5676C409.175 74.6164 410.11 71.9911 410.11 68.6918V53.898H412.806Z" fill="#1D253C"/>
<path d="M433.728 53.6851C437.215 53.6851 439.894 54.5721 441.763 56.3459C443.633 58.0843 444.567 60.6563 444.567 64.0621V81.6763H441.979V76.7273C441.08 78.3592 439.768 79.6364 438.042 80.5588C436.316 81.4457 434.249 81.8891 431.84 81.8891C428.712 81.8891 426.232 81.1619 424.398 79.7073C422.6 78.2528 421.702 76.337 421.702 73.9601C421.702 71.6541 422.529 69.7916 424.182 68.3725C425.872 66.918 428.551 66.1907 432.218 66.1907H441.871V63.9557C441.871 61.3659 441.152 59.3969 439.714 58.0488C438.312 56.7007 436.244 56.0266 433.512 56.0266C431.642 56.0266 429.845 56.3459 428.119 56.9845C426.429 57.6231 424.991 58.4745 423.805 59.5388L422.457 57.6231C423.859 56.3814 425.549 55.4235 427.526 54.7494C429.503 54.0399 431.571 53.6851 433.728 53.6851ZM432.218 79.7073C434.555 79.7073 436.532 79.1752 438.15 78.1109C439.804 77.0466 441.044 75.5033 441.871 73.4812V68.2661H432.272C429.503 68.2661 427.49 68.7627 426.232 69.7561C425.009 70.7494 424.398 72.1153 424.398 73.8537C424.398 75.663 425.081 77.0998 426.447 78.1641C427.814 79.1929 429.737 79.7073 432.218 79.7073Z" fill="#1D253C"/>
<path d="M458.266 59.9645C459.129 57.9423 460.477 56.3991 462.31 55.3348C464.144 54.235 466.373 53.6851 468.997 53.6851V56.2927L468.35 56.2395C465.222 56.2395 462.778 57.2151 461.016 59.1663C459.254 61.082 458.374 63.7605 458.374 67.2018V81.6763H455.677V53.898H458.266V59.9645Z" fill="#1D253C"/>
<path d="M499.946 68.4257H475.732C475.804 70.5898 476.361 72.5233 477.404 74.2262C478.447 75.8936 479.849 77.1885 481.61 78.1109C483.408 79.0333 485.421 79.4945 487.65 79.4945C489.484 79.4945 491.174 79.1752 492.72 78.5366C494.302 77.8625 495.614 76.8869 496.656 75.6098L498.22 77.3659C496.998 78.8204 495.452 79.9379 493.583 80.7184C491.749 81.4989 489.754 81.8891 487.596 81.8891C484.792 81.8891 482.293 81.286 480.1 80.0798C477.907 78.8736 476.182 77.2062 474.923 75.0776C473.701 72.949 473.09 70.5188 473.09 67.7871C473.09 65.0909 473.665 62.6785 474.815 60.5499C476.002 58.3858 477.62 56.7007 479.669 55.4945C481.718 54.2882 484.019 53.6851 486.572 53.6851C489.124 53.6851 491.407 54.2882 493.421 55.4945C495.47 56.6652 497.07 58.3149 498.22 60.4435C499.407 62.5721 500 64.9845 500 67.6807L499.946 68.4257ZM486.572 56.0266C484.594 56.0266 482.815 56.4701 481.233 57.357C479.651 58.2084 478.375 59.4324 477.404 61.0288C476.469 62.5898 475.93 64.3636 475.786 66.3503H497.358C497.25 64.3636 496.71 62.5898 495.74 61.0288C494.769 59.4678 493.493 58.2439 491.911 57.357C490.329 56.4701 488.549 56.0266 486.572 56.0266Z" fill="#1D253C"/>
<defs>
<linearGradient id="paint0_linear" x1="5.90471e-08" y1="94.0001" x2="136.38" y2="72.0366" gradientUnits="userSpaceOnUse">
<stop stop-color="#34DFD4"/>
<stop offset="1" stop-color="#54F3EA"/>
</linearGradient>
<linearGradient id="paint1_linear" x1="5.90471e-08" y1="94.0001" x2="136.38" y2="72.0366" gradientUnits="userSpaceOnUse">
<stop stop-color="#34DFD4"/>
<stop offset="1" stop-color="#54F3EA"/>
</linearGradient>
<linearGradient id="paint2_linear" x1="5.90471e-08" y1="94.0001" x2="136.38" y2="72.0366" gradientUnits="userSpaceOnUse">
<stop stop-color="#34DFD4"/>
<stop offset="1" stop-color="#54F3EA"/>
</linearGradient>
<linearGradient id="paint3_linear" x1="5.90471e-08" y1="94.0001" x2="136.38" y2="72.0366" gradientUnits="userSpaceOnUse">
<stop stop-color="#34DFD4"/>
<stop offset="1" stop-color="#54F3EA"/>
</linearGradient>
<clipPath id="clip0">
<rect width="128" height="128" fill="white"/>
</clipPath>
</defs>
</svg>
