<svg width="226" height="80" viewBox="0 0 226 80" fill="none" xmlns="http://www.w3.org/2000/svg">
    <path d="M43.8581 40L35.1971 35L45.5903 29L59.881 37.25V42.75L45.5903 51L35.1971 45L43.8581 40Z" fill="url(#paint0_linear)"/>
    <path d="M24.8039 45L16.1429 40L24.8039 35L14.4107 29L0.119995 37.25V42.75L14.4107 51L24.8039 45Z" fill="url(#paint1_linear)"/>
    <path d="M30.0005 50L38.6615 55L30.0005 60L21.3395 55L30.0005 50Z" fill="url(#paint2_linear)"/>
    <path d="M38.6615 25L30.0005 20L21.3395 25L30.0005 30L38.6615 25Z" fill="url(#paint3_linear)"/>
    <path d="M86.048 48.24C84.336 48.24 82.792 47.872 81.416 47.136C80.04 46.384 78.96 45.352 78.176 44.04C77.392 42.712 77 41.232 77 39.6C77 37.968 77.392 36.496 78.176 35.184C78.96 33.856 80.04 32.824 81.416 32.088C82.792 31.336 84.336 30.96 86.048 30.96C87.76 30.96 89.304 31.336 90.68 32.088C92.056 32.824 93.136 33.848 93.92 35.16C94.704 36.472 95.096 37.952 95.096 39.6C95.096 41.248 94.704 42.728 93.92 44.04C93.136 45.352 92.056 46.384 90.68 47.136C89.304 47.872 87.76 48.24 86.048 48.24ZM86.048 45.504C87.168 45.504 88.176 45.256 89.072 44.76C89.968 44.248 90.672 43.544 91.184 42.648C91.696 41.736 91.952 40.72 91.952 39.6C91.952 38.48 91.696 37.472 91.184 36.576C90.672 35.664 89.968 34.96 89.072 34.464C88.176 33.952 87.168 33.696 86.048 33.696C84.928 33.696 83.92 33.952 83.024 34.464C82.128 34.96 81.424 35.664 80.912 36.576C80.4 37.472 80.144 38.48 80.144 39.6C80.144 40.72 80.4 41.736 80.912 42.648C81.424 43.544 82.128 44.248 83.024 44.76C83.92 45.256 84.928 45.504 86.048 45.504Z" fill="#2E343D"/>
    <path d="M104.739 35.04C105.987 35.04 107.099 35.312 108.075 35.856C109.067 36.4 109.843 37.168 110.403 38.16C110.963 39.152 111.243 40.296 111.243 41.592C111.243 42.888 110.963 44.04 110.403 45.048C109.843 46.04 109.067 46.808 108.075 47.352C107.099 47.896 105.987 48.168 104.739 48.168C103.011 48.168 101.643 47.592 100.635 46.44V52.656H97.6351V35.184H100.491V36.864C100.987 36.256 101.595 35.8 102.315 35.496C103.051 35.192 103.859 35.04 104.739 35.04ZM104.403 45.6C105.507 45.6 106.411 45.232 107.115 44.496C107.835 43.76 108.195 42.792 108.195 41.592C108.195 40.392 107.835 39.424 107.115 38.688C106.411 37.952 105.507 37.584 104.403 37.584C103.683 37.584 103.035 37.752 102.459 38.088C101.883 38.408 101.427 38.872 101.091 39.48C100.755 40.088 100.587 40.792 100.587 41.592C100.587 42.392 100.755 43.096 101.091 43.704C101.427 44.312 101.883 44.784 102.459 45.12C103.035 45.44 103.683 45.6 104.403 45.6Z" fill="#2E343D"/>
    <path d="M125.656 41.664C125.656 41.872 125.64 42.168 125.608 42.552H115.552C115.728 43.496 116.184 44.248 116.92 44.808C117.672 45.352 118.6 45.624 119.704 45.624C121.112 45.624 122.272 45.16 123.184 44.232L124.792 46.08C124.216 46.768 123.488 47.288 122.608 47.64C121.728 47.992 120.736 48.168 119.632 48.168C118.224 48.168 116.984 47.888 115.912 47.328C114.84 46.768 114.008 45.992 113.416 45C112.84 43.992 112.552 42.856 112.552 41.592C112.552 40.344 112.832 39.224 113.392 38.232C113.968 37.224 114.76 36.44 115.768 35.88C116.776 35.32 117.912 35.04 119.176 35.04C120.424 35.04 121.536 35.32 122.512 35.88C123.504 36.424 124.272 37.2 124.816 38.208C125.376 39.2 125.656 40.352 125.656 41.664ZM119.176 37.44C118.216 37.44 117.4 37.728 116.728 38.304C116.072 38.864 115.672 39.616 115.528 40.56H122.8C122.672 39.632 122.28 38.88 121.624 38.304C120.968 37.728 120.152 37.44 119.176 37.44Z" fill="#2E343D"/>
    <path d="M135.33 35.04C136.946 35.04 138.242 35.512 139.218 36.456C140.194 37.4 140.682 38.8 140.682 40.656V48H137.682V41.04C137.682 39.92 137.418 39.08 136.89 38.52C136.362 37.944 135.61 37.656 134.634 37.656C133.53 37.656 132.658 37.992 132.018 38.664C131.378 39.32 131.058 40.272 131.058 41.52V48H128.058V35.184H130.914V36.84C131.41 36.248 132.034 35.8 132.786 35.496C133.538 35.192 134.386 35.04 135.33 35.04Z" fill="#2E343D"/>
    <path d="M149.504 48.24C148.208 48.24 146.952 48.056 145.736 47.688C144.536 47.32 143.584 46.832 142.88 46.224L143.96 43.8C144.648 44.344 145.488 44.792 146.48 45.144C147.488 45.48 148.496 45.648 149.504 45.648C150.752 45.648 151.68 45.448 152.288 45.048C152.912 44.648 153.224 44.12 153.224 43.464C153.224 42.984 153.048 42.592 152.696 42.288C152.36 41.968 151.928 41.72 151.4 41.544C150.872 41.368 150.152 41.168 149.24 40.944C147.96 40.64 146.92 40.336 146.12 40.032C145.336 39.728 144.656 39.256 144.08 38.616C143.52 37.96 143.24 37.08 143.24 35.976C143.24 35.048 143.488 34.208 143.984 33.456C144.496 32.688 145.256 32.08 146.264 31.632C147.288 31.184 148.536 30.96 150.008 30.96C151.032 30.96 152.04 31.088 153.032 31.344C154.024 31.6 154.88 31.968 155.6 32.448L154.616 34.872C153.88 34.44 153.112 34.112 152.312 33.888C151.512 33.664 150.736 33.552 149.984 33.552C148.752 33.552 147.832 33.76 147.224 34.176C146.632 34.592 146.336 35.144 146.336 35.832C146.336 36.312 146.504 36.704 146.84 37.008C147.192 37.312 147.632 37.552 148.16 37.728C148.688 37.904 149.408 38.104 150.32 38.328C151.568 38.616 152.592 38.92 153.392 39.24C154.192 39.544 154.872 40.016 155.432 40.656C156.008 41.296 156.296 42.16 156.296 43.248C156.296 44.176 156.04 45.016 155.528 45.768C155.032 46.52 154.272 47.12 153.248 47.568C152.224 48.016 150.976 48.24 149.504 48.24Z" fill="#2E343D"/>
    <path d="M171.149 35.184V52.656H168.149V46.44C167.141 47.592 165.773 48.168 164.045 48.168C162.797 48.168 161.677 47.896 160.685 47.352C159.709 46.808 158.941 46.04 158.381 45.048C157.837 44.056 157.565 42.904 157.565 41.592C157.565 40.296 157.845 39.152 158.405 38.16C158.965 37.168 159.733 36.4 160.709 35.856C161.685 35.312 162.797 35.04 164.045 35.04C164.925 35.04 165.725 35.192 166.445 35.496C167.181 35.8 167.797 36.256 168.293 36.864V35.184H171.149ZM164.381 45.6C165.485 45.6 166.397 45.232 167.117 44.496C167.837 43.76 168.197 42.792 168.197 41.592C168.197 40.392 167.837 39.424 167.117 38.688C166.397 37.952 165.485 37.584 164.381 37.584C163.277 37.584 162.365 37.952 161.645 38.688C160.941 39.424 160.589 40.392 160.589 41.592C160.589 42.792 160.941 43.76 161.645 44.496C162.365 45.232 163.277 45.6 164.381 45.6Z" fill="#2E343D"/>
    <path d="M187.003 35.184V48H184.146V46.368C183.666 46.944 183.067 47.392 182.347 47.712C181.627 48.016 180.851 48.168 180.019 48.168C178.307 48.168 176.954 47.696 175.963 46.752C174.987 45.792 174.499 44.376 174.499 42.504V35.184H177.499V42.096C177.499 43.248 177.755 44.112 178.267 44.688C178.795 45.248 179.539 45.528 180.499 45.528C181.571 45.528 182.419 45.2 183.043 44.544C183.683 43.872 184.003 42.912 184.003 41.664V35.184H187.003Z" fill="#2E343D"/>
    <path d="M195.346 35.04C197.234 35.04 198.674 35.496 199.666 36.408C200.674 37.304 201.178 38.664 201.178 40.488V48H198.346V46.44C197.978 47 197.45 47.432 196.762 47.736C196.09 48.024 195.274 48.168 194.314 48.168C193.354 48.168 192.514 48.008 191.794 47.688C191.074 47.352 190.514 46.896 190.114 46.32C189.73 45.728 189.538 45.064 189.538 44.328C189.538 43.176 189.962 42.256 190.81 41.568C191.674 40.864 193.026 40.512 194.866 40.512H198.178V40.32C198.178 39.424 197.906 38.736 197.362 38.256C196.834 37.776 196.042 37.536 194.986 37.536C194.266 37.536 193.554 37.648 192.85 37.872C192.162 38.096 191.578 38.408 191.098 38.808L189.922 36.624C190.594 36.112 191.402 35.72 192.346 35.448C193.29 35.176 194.29 35.04 195.346 35.04ZM194.938 45.984C195.69 45.984 196.354 45.816 196.93 45.48C197.522 45.128 197.938 44.632 198.178 43.992V42.504H195.082C193.354 42.504 192.49 43.072 192.49 44.208C192.49 44.752 192.706 45.184 193.138 45.504C193.57 45.824 194.17 45.984 194.938 45.984Z" fill="#2E343D"/>
    <path d="M207.405 37.056C208.269 35.712 209.789 35.04 211.965 35.04V37.896C211.709 37.848 211.477 37.824 211.269 37.824C210.101 37.824 209.189 38.168 208.533 38.856C207.877 39.528 207.549 40.504 207.549 41.784V48H204.549V35.184H207.405V37.056Z" fill="#2E343D"/>
    <path d="M225.96 41.664C225.96 41.872 225.944 42.168 225.912 42.552H215.856C216.032 43.496 216.488 44.248 217.224 44.808C217.976 45.352 218.904 45.624 220.008 45.624C221.416 45.624 222.576 45.16 223.488 44.232L225.096 46.08C224.52 46.768 223.792 47.288 222.912 47.64C222.032 47.992 221.04 48.168 219.936 48.168C218.528 48.168 217.288 47.888 216.216 47.328C215.144 46.768 214.312 45.992 213.72 45C213.144 43.992 212.856 42.856 212.856 41.592C212.856 40.344 213.136 39.224 213.696 38.232C214.272 37.224 215.064 36.44 216.072 35.88C217.08 35.32 218.216 35.04 219.48 35.04C220.728 35.04 221.84 35.32 222.816 35.88C223.808 36.424 224.576 37.2 225.12 38.208C225.68 39.2 225.96 40.352 225.96 41.664ZM219.48 37.44C218.52 37.44 217.704 37.728 217.032 38.304C216.376 38.864 215.976 39.616 215.832 40.56H223.104C222.976 39.632 222.584 38.88 221.928 38.304C221.272 37.728 220.456 37.44 219.48 37.44Z" fill="#2E343D"/>
    <defs>
        <linearGradient id="paint0_linear" x1="58.6478" y1="40" x2="0.119994" y2="40" gradientUnits="userSpaceOnUse">
            <stop stop-color="#04D2C5"/>
            <stop offset="1" stop-color="#6848FF"/>
        </linearGradient>
        <linearGradient id="paint1_linear" x1="58.6478" y1="40" x2="0.119994" y2="40" gradientUnits="userSpaceOnUse">
            <stop stop-color="#04D2C5"/>
            <stop offset="1" stop-color="#6848FF"/>
        </linearGradient>
        <linearGradient id="paint2_linear" x1="58.6478" y1="40" x2="0.119994" y2="40" gradientUnits="userSpaceOnUse">
            <stop stop-color="#04D2C5"/>
            <stop offset="1" stop-color="#6848FF"/>
        </linearGradient>
        <linearGradient id="paint3_linear" x1="58.6478" y1="40" x2="0.119994" y2="40" gradientUnits="userSpaceOnUse">
            <stop stop-color="#04D2C5"/>
            <stop offset="1" stop-color="#6848FF"/>
        </linearGradient>
    </defs>
</svg>
