<svg width="24" height="24" viewBox="0 0 24 24" fill="none" xmlns="http://www.w3.org/2000/svg">
    <path d="M12.8081 3.19836C12.5566 3.06785 12.2802 3 12 3C11.7199 3 11.4435 3.06785 11.192 3.19836C8.81868 4.43881 4.57093 6.65733 2.80466 7.57977C2.30947 7.83839 2 8.35024 2.00001 8.90889L2.00007 19.5C2.00008 20.3284 2.67165 21 3.50007 21H20.5C21.3285 21 22 20.3284 22 19.5L22.0002 8.90891C22.0002 8.35025 21.6907 7.83839 21.1955 7.57977C19.4292 6.65732 15.1813 4.43877 12.8081 3.19836ZM11.8384 4.54999C11.8887 4.52389 11.944 4.51032 12 4.51032C12.0561 4.51032 12.1113 4.52389 12.1616 4.54999L19.7232 8.50098L12.0447 12.5152C11.9944 12.5413 11.9391 12.5549 11.8831 12.5549C11.827 12.5549 11.7718 12.5413 11.7215 12.5152L4.15851 8.56379L11.8384 4.54999Z"
          fill="rgba(255, 255, 255, 0.72)" />
</svg>
