<svg width="24" height="24" viewBox="0 0 24 24" fill="none" xmlns="http://www.w3.org/2000/svg">
    <path d="M22.5 12.2909C22.5 14.5836 21.8015 16.7767 20.5042 18.571C19.2068 20.3653 17.4106 21.7609 15.3149 22.4587C15.1154 22.5584 14.9158 22.4587 14.816 22.359C14.7162 22.2593 14.6164 22.06 14.6164 21.9603V18.9697C14.7162 18.272 14.4168 17.4745 13.9178 16.976C14.4168 16.976 14.816 16.8764 15.3149 16.677C15.7141 16.5773 16.2131 16.3779 16.6122 16.1786C17.0114 15.9792 17.4106 15.5805 17.71 15.2814C18.0093 14.8827 18.3087 14.3842 18.4085 13.7861C18.6081 13.0883 18.7079 12.3906 18.7079 11.6928C18.7079 10.5962 18.3087 9.59938 17.6102 8.8019C17.9095 7.90474 17.9095 6.80821 17.5104 5.91105C17.1112 5.81136 16.712 5.91105 16.4127 6.11042C16.0135 6.30979 15.5145 6.50916 15.1154 6.70853L14.6164 7.00758C12.9199 6.50916 11.1237 6.50916 9.42719 7.00758C9.2276 7.00758 9.02802 6.80821 8.82843 6.70853C8.42926 6.50916 8.03009 6.30979 7.73071 6.11042C7.33155 6.01073 6.93238 5.91105 6.53321 6.01073C6.13404 6.9079 6.03424 7.90474 6.43341 8.8019C5.73487 9.59938 5.3357 10.5962 5.3357 11.6928C5.3357 12.3906 5.43549 13.0883 5.63507 13.7861C5.73487 14.2846 6.03424 14.783 6.33362 15.2814C6.633 15.6801 7.03217 15.9792 7.43134 16.1786C7.83051 16.3779 8.22968 16.5773 8.72864 16.677C9.2276 16.7767 9.62677 16.8764 10.1257 16.976C9.72656 17.3748 9.52698 17.8732 9.42719 18.4713C9.2276 18.571 9.02802 18.6707 8.82843 18.6707C8.52906 18.7704 8.32947 18.7704 8.03009 18.7704C7.73072 18.7704 7.43134 18.6707 7.13196 18.4713C6.83258 18.272 6.53321 17.9729 6.33362 17.5742C6.13404 17.2751 5.93445 17.0757 5.63507 16.8764C5.53528 16.677 5.3357 16.5773 5.03632 16.4776H4.73694C4.63715 16.4776 4.43756 16.4776 4.33777 16.5773C4.23798 16.5773 4.23798 16.677 4.23798 16.7767C4.23798 16.8764 4.33777 16.8764 4.33777 16.976C4.53736 16.8764 4.53736 16.976 4.63715 16.976L4.73694 17.0757C4.93653 17.1754 5.13611 17.3748 5.3357 17.5742C5.53528 17.7735 5.63507 18.0726 5.73487 18.2719L5.83466 18.571C5.93445 18.8701 6.13404 19.1691 6.43341 19.4682C6.73279 19.6675 7.03217 19.8669 7.33155 19.8669C7.63092 19.9666 7.9303 19.9666 8.32947 19.9666C8.62885 19.9666 8.82843 19.9666 9.12781 19.9666L9.42719 19.8669C9.42719 20.2656 9.42719 20.6644 9.42719 21.0631V21.8606C9.42719 22.06 9.32739 22.1597 9.2276 22.2593C9.12781 22.4587 8.92822 22.4587 8.72864 22.4587C6.633 21.7609 4.83673 20.3653 3.53943 18.571C0.0466963 13.6865 1.14441 6.9079 6.03424 3.41893C6.23383 3.21956 6.53321 3.11988 6.73279 2.92051C9.92615 1.0265 14.0176 1.0265 17.211 2.92051C18.8077 3.81767 20.105 5.21326 21.0031 6.80821C22.001 8.50285 22.5 10.3969 22.5 12.2909Z"
          fill="rgba(255, 255, 255, 0.72)" />
</svg>
