<svg width="24" height="24" viewBox="0 0 24 24" fill="none" xmlns="http://www.w3.org/2000/svg">
<path fill-rule="evenodd" clip-rule="evenodd" d="M22 12C22 17.5229 17.5229 22 12 22C6.47715 22 2 17.5229 2 12C2 6.47715 6.47715 2 12 2C17.5229 2 22 6.47715 22 12ZM11.9659 4.13259C9.92247 4.13259 8.26592 5.78913 8.26592 7.83259V10.2326C8.26592 12.2761 9.92247 13.9326 11.9659 13.9326C12.2527 13.9326 12.5319 13.8999 12.8 13.8382C12.961 13.8011 13.0061 13.6024 12.8867 13.4883L12.8667 13.4692L10.7351 11.4333C10.4046 11.1123 10.1993 10.6631 10.1993 10.1659V7.89925C10.1993 6.92355 10.9902 6.13259 11.9659 6.13259C12.9416 6.13259 13.7326 6.92355 13.7326 7.89925V8.66667C13.7326 8.81393 13.852 8.93333 13.9993 8.93333H15.3993C15.5465 8.93333 15.6659 8.81393 15.6659 8.66667V7.83259C15.6659 5.78913 14.0094 4.13259 11.9659 4.13259ZM15.6667 15.9667C15.6667 18.0101 14.0101 19.6667 11.9667 19.6667C9.9232 19.6667 8.26667 18.0101 8.26667 15.9667V15.1333C8.26667 14.9861 8.38606 14.8667 8.53333 14.8667H9.93333C10.0806 14.8667 10.2 14.9861 10.2 15.1333V15.9C10.2 16.8757 10.9909 17.6667 11.9667 17.6667C12.9424 17.6667 13.7333 16.8757 13.7333 15.9V13.6333C13.7333 13.1361 13.5279 12.6869 13.1974 12.3659L11.0659 10.3301L11.0459 10.3109C10.9264 10.1968 10.9716 9.99813 11.1326 9.96107C11.4007 9.89933 11.6799 9.86667 11.9667 9.86667C14.0101 9.86667 15.6667 11.5232 15.6667 13.5667V15.9667Z" fill="white" fill-opacity="0.65"/>
</svg>
