<svg width="24" height="24" viewBox="0 0 24 24" fill="none" xmlns="http://www.w3.org/2000/svg">
<path d="M23.25 5.14633C22.4355 5.55227 21.5192 5.75524 20.6029 5.85672C21.5192 5.24781 22.2319 4.33444 22.6391 3.31958C21.7228 3.82701 20.7048 4.23296 19.6867 4.43593C17.9559 2.60919 15.0034 2.5077 13.1708 4.23296C11.9491 5.3493 11.44 6.97308 11.8473 8.59685C8.18212 8.39387 4.72059 6.66861 2.37897 3.82701C1.15725 5.95821 1.7681 8.59683 3.8043 9.91615C3.09163 9.91615 2.37895 9.71319 1.66628 9.30724C1.66628 9.30724 1.66628 9.30723 1.66628 9.40872C1.66628 11.6414 3.19344 13.4682 5.33145 13.8741C4.61878 14.0771 3.90611 14.0771 3.29525 13.9756C3.90611 15.8023 5.63689 17.1216 7.57128 17.1216C5.94232 18.4409 3.90611 19.0499 1.86992 19.0499C1.46268 19.0499 1.15724 19.0499 0.75 18.9484C6.8586 22.8048 14.9016 21.0796 18.7704 14.9904C20.0939 12.8592 20.8066 10.4236 20.8066 7.98793C20.8066 7.78495 20.8066 7.58198 20.8066 7.37901C21.8247 6.87158 22.6391 6.0597 23.25 5.14633Z" fill="rgba(255, 255, 255, 0.72)"/>
</svg>
