<svg width="345" height="440" viewBox="0 0 345 440" fill="none" xmlns="http://www.w3.org/2000/svg">
<path d="M505.482 220.876L507.075 220L505.482 219.124L407.075 165L525 100.141L689 190.341V249.659L525 339.859L407.075 275L505.482 220.876ZM184.518 220.876L282.925 275L165 339.859L1 249.659V190.341L165 100.141L282.925 165L184.518 219.124L182.925 220L184.518 220.876ZM247.075 385L345 331.141L442.925 385L345 438.859L247.075 385ZM345 1.14128L442.925 55L345 108.859L247.075 55L345 1.14128Z" stroke="url(#paint0_linear_2987:21927)" stroke-width="2"/>
<defs>
<linearGradient id="paint0_linear_2987:21927" x1="690" y1="3.93459e-05" x2="291.063" y2="625.606" gradientUnits="userSpaceOnUse">
<stop stop-color="#04D2C5"/>
<stop offset="1" stop-color="#6848FF"/>
</linearGradient>
</defs>
</svg>
