<svg width="32" height="32" viewBox="0 0 32 32" fill="none" xmlns="http://www.w3.org/2000/svg">
<path d="M19.224 19.5094L17.011 24.1594C16.9691 24.2473 16.9065 24.3237 16.8285 24.382C16.7505 24.4403 16.6594 24.4788 16.5633 24.494C16.4671 24.5093 16.3686 24.5009 16.2764 24.4696C16.1842 24.4383 16.101 24.385 16.034 24.3144L12.492 20.5754C12.3973 20.4756 12.2713 20.4113 12.135 20.3934L7.02797 19.7254C6.93149 19.7127 6.83954 19.6767 6.76006 19.6205C6.68058 19.5643 6.61596 19.4897 6.57177 19.403C6.52758 19.3162 6.50514 19.2201 6.5064 19.1228C6.50765 19.0255 6.53256 18.9299 6.57897 18.8444L9.04097 14.3204C9.10642 14.1994 9.12831 14.0596 9.10297 13.9244L8.15997 8.86137C8.14207 8.76554 8.14778 8.66679 8.17662 8.57366C8.20546 8.48053 8.25656 8.39584 8.3255 8.3269C8.39444 8.25796 8.47913 8.20686 8.57226 8.17802C8.66539 8.14918 8.76414 8.14347 8.85997 8.16137L13.923 9.10437C14.0582 9.12971 14.198 9.10782 14.319 9.04237L18.843 6.58037C18.9286 6.53395 19.0242 6.50906 19.1216 6.50786C19.219 6.50666 19.3152 6.52918 19.4019 6.57348C19.4887 6.61778 19.5633 6.68253 19.6194 6.76213C19.6755 6.84173 19.7114 6.9338 19.724 7.03037L20.392 12.1364C20.4099 12.2727 20.4742 12.3987 20.574 12.4934L24.313 16.0354C24.3836 16.1024 24.4369 16.1856 24.4682 16.2778C24.4995 16.37 24.5079 16.4685 24.4926 16.5647C24.4774 16.6608 24.4389 16.7519 24.3806 16.8299C24.3223 16.9079 24.2459 16.9705 24.158 17.0124L19.508 19.2254C19.3835 19.2846 19.2832 19.3849 19.224 19.5094Z" fill="#4440DF"/>
<path opacity="0.5" d="M20.021 21.4365L21.435 20.0225L25.678 24.2645L24.263 25.6795L20.021 21.4365Z" fill="#4440DF"/>
</svg>
