<svg width="72" height="62" viewBox="0 0 72 62" fill="none" xmlns="http://www.w3.org/2000/svg">
<path d="M51.5 4L51.4369 22.0365L67 31L51.4369 39.9633L51.5 58L36 48.9267L20.5 58L20.5631 39.9633L5 31L20.5631 22.0365L20.5 4L36 13.0732L51.5 4Z" fill="#4440DF" fill-opacity="0.08"/>
<path d="M52.5 4.0035L52.5061 2.25232L50.9948 3.13699L36 11.9145L21.0052 3.13699L19.4939 2.25232L19.5 4.0035L19.5611 21.4596L4.50091 30.1334L2.99632 31L4.50092 31.8666L19.5611 40.5402L19.5 57.9965L19.4939 59.7477L21.0052 58.863L36 50.0854L50.9948 58.863L52.5061 59.7477L52.5 57.9965L52.4389 40.5402L67.4991 31.8666L69.0037 31L67.4991 30.1334L52.4389 21.4596L52.5 4.0035Z" stroke="#4440DF" stroke-opacity="0.12" stroke-width="2"/>
<path d="M38.6866 33.9245L36.8425 37.7995C36.8076 37.8727 36.7554 37.9364 36.6904 37.985C36.6254 38.0336 36.5495 38.0656 36.4694 38.0783C36.3892 38.0911 36.3072 38.0841 36.2304 38.058C36.1535 38.0319 36.0842 37.9875 36.0283 37.9286L33.0766 34.8128C32.9978 34.7297 32.8928 34.6761 32.7791 34.6611L28.5233 34.1045C28.4429 34.0939 28.3663 34.0639 28.3001 34.0171C28.2338 33.9703 28.18 33.9081 28.1431 33.8358C28.1063 33.7635 28.0876 33.6834 28.0887 33.6023C28.0897 33.5212 28.1105 33.4416 28.1491 33.3703L30.2008 29.6003C30.2554 29.4995 30.2736 29.383 30.2525 29.2703L29.4666 25.0511C29.4517 24.9713 29.4565 24.889 29.4805 24.8114C29.5046 24.7338 29.5471 24.6632 29.6046 24.6058C29.662 24.5483 29.7326 24.5057 29.8102 24.4817C29.8878 24.4576 29.9701 24.4529 30.05 24.4678L34.2691 25.2536C34.3818 25.2748 34.4983 25.2565 34.5991 25.202L38.3691 23.1503C38.4405 23.1116 38.5202 23.0909 38.6013 23.0899C38.6825 23.0889 38.7627 23.1077 38.8349 23.1446C38.9072 23.1815 38.9694 23.2354 39.0162 23.3018C39.0629 23.3681 39.0928 23.4448 39.1033 23.5253L39.66 27.7803C39.6749 27.8939 39.7285 27.999 39.8116 28.0778L42.9275 31.0295C42.9864 31.0853 43.0307 31.1547 43.0568 31.2315C43.0829 31.3084 43.0899 31.3904 43.0772 31.4706C43.0645 31.5507 43.0324 31.6266 42.9838 31.6916C42.9353 31.7566 42.8716 31.8088 42.7983 31.8436L38.9233 33.6878C38.8196 33.7372 38.736 33.8207 38.6866 33.9245Z" fill="#4440DF"/>
<path opacity="0.5" d="M39.3508 35.5304L40.5292 34.3521L44.065 37.8871L42.8858 39.0662L39.3508 35.5304Z" fill="#4440DF"/>
</svg>
