<svg width="72" height="62" viewBox="0 0 72 62" fill="none" xmlns="http://www.w3.org/2000/svg">
<path d="M51.5 4L51.4369 22.0365L67 31L51.4369 39.9633L51.5 58L36 48.9267L20.5 58L20.5631 39.9633L5 31L20.5631 22.0365L20.5 4L36 13.0732L51.5 4Z" fill="#04D2C5" fill-opacity="0.12"/>
<path d="M52.5 4.0035L52.5061 2.25232L50.9948 3.13699L36 11.9145L21.0052 3.13699L19.4939 2.25232L19.5 4.0035L19.5611 21.4596L4.50091 30.1334L2.99632 31L4.50092 31.8666L19.5611 40.5402L19.5 57.9965L19.4939 59.7477L21.0052 58.863L36 50.0854L50.9948 58.863L52.5061 59.7477L52.5 57.9965L52.4389 40.5402L67.4991 31.8666L69.0037 31L67.4991 30.1334L52.4389 21.4596L52.5 4.0035Z" stroke="#04D2C5" stroke-opacity="0.2" stroke-width="2"/>
<path opacity="0.5" d="M40.375 23.0833C41.3143 23.0833 42.2152 23.4564 42.8794 24.1206C43.5436 24.7848 43.9167 25.6856 43.9167 26.6249C43.9167 27.5642 43.5436 28.4651 42.8794 29.1293C42.2152 29.7934 41.3143 30.1666 40.375 30.1666H36.8334V26.6249C36.8334 25.6856 37.2065 24.7848 37.8707 24.1206C38.5349 23.4564 39.4357 23.0833 40.375 23.0833Z" fill="#04D2C5"/>
<path d="M31.625 23.0833C32.0901 23.0833 32.5507 23.1749 32.9804 23.3528C33.4101 23.5308 33.8005 23.7917 34.1294 24.1206C34.4583 24.4495 34.7191 24.8399 34.8971 25.2696C35.0751 25.6993 35.1667 26.1598 35.1667 26.6249V30.1666H31.625C30.6857 30.1666 29.7849 29.7934 29.1207 29.1293C28.4565 28.4651 28.0834 27.5642 28.0834 26.6249C28.0834 25.6856 28.4565 24.7848 29.1207 24.1206C29.7849 23.4564 30.6857 23.0833 31.625 23.0833ZM31.625 31.8333H35.1667V35.3749C35.1667 36.0754 34.959 36.7601 34.5698 37.3426C34.1807 37.925 33.6275 38.3789 32.9804 38.647C32.3332 38.9151 31.6211 38.9852 30.9341 38.8485C30.2471 38.7119 29.616 38.3746 29.1207 37.8793C28.6254 37.3839 28.2881 36.7529 28.1514 36.0659C28.0148 35.3788 28.0849 34.6667 28.353 34.0196C28.621 33.3724 29.075 32.8193 29.6574 32.4301C30.2398 32.041 30.9246 31.8333 31.625 31.8333ZM36.8334 31.8333H40.375C41.0755 31.8333 41.7603 32.041 42.3427 32.4301C42.9251 32.8193 43.3791 33.3724 43.6471 34.0196C43.9152 34.6667 43.9853 35.3788 43.8487 36.0659C43.712 36.7529 43.3747 37.3839 42.8794 37.8793C42.3841 38.3746 41.753 38.7119 41.066 38.8485C40.379 38.9852 39.6669 38.9151 39.0197 38.647C38.3726 38.3789 37.8194 37.925 37.4303 37.3426C37.0411 36.7601 36.8334 36.0754 36.8334 35.3749V31.8333Z" fill="#04D2C5"/>
</svg>
