<svg width="32" height="32" viewBox="0 0 32 32" fill="none" xmlns="http://www.w3.org/2000/svg">
<path opacity="0.5" d="M21.25 6.5C22.3772 6.5 23.4582 6.94777 24.2552 7.7448C25.0522 8.54183 25.5 9.62283 25.5 10.75C25.5 11.8772 25.0522 12.9582 24.2552 13.7552C23.4582 14.5522 22.3772 15 21.25 15H17V10.75C17 9.62283 17.4478 8.54183 18.2448 7.7448C19.0418 6.94777 20.1228 6.5 21.25 6.5Z" fill="#04D2C5"/>
<path d="M10.75 6.5C11.3081 6.5 11.8608 6.60993 12.3764 6.82351C12.892 7.03709 13.3606 7.35015 13.7552 7.7448C14.1499 8.13945 14.4629 8.60796 14.6765 9.1236C14.8901 9.63923 15 10.1919 15 10.75V15H10.75C9.62283 15 8.54183 14.5522 7.7448 13.7552C6.94777 12.9582 6.5 11.8772 6.5 10.75C6.5 9.62283 6.94777 8.54183 7.7448 7.7448C8.54183 6.94777 9.62283 6.5 10.75 6.5ZM10.75 17H15V21.25C15 22.0906 14.7507 22.9123 14.2837 23.6112C13.8168 24.3101 13.153 24.8548 12.3764 25.1765C11.5998 25.4982 10.7453 25.5823 9.92087 25.4183C9.09645 25.2544 8.33917 24.8496 7.7448 24.2552C7.15042 23.6608 6.74565 22.9036 6.58166 22.0791C6.41768 21.2547 6.50184 20.4002 6.82351 19.6236C7.14519 18.847 7.68992 18.1833 8.38883 17.7163C9.08774 17.2493 9.90943 17 10.75 17ZM17 17H21.25C22.0906 17 22.9123 17.2493 23.6112 17.7163C24.3101 18.1833 24.8548 18.847 25.1765 19.6236C25.4982 20.4002 25.5823 21.2547 25.4183 22.0791C25.2544 22.9036 24.8496 23.6608 24.2552 24.2552C23.6608 24.8496 22.9036 25.2544 22.0791 25.4183C21.2547 25.5823 20.4002 25.4982 19.6236 25.1765C18.847 24.8548 18.1833 24.3101 17.7163 23.6112C17.2493 22.9123 17 22.0906 17 21.25V17Z" fill="#04D2C5"/>
</svg>
