<svg width="72" height="62" viewBox="0 0 72 62" fill="none" xmlns="http://www.w3.org/2000/svg">
<path d="M51.5 4L51.4369 22.0365L67 31L51.4369 39.9633L51.5 58L36 48.9267L20.5 58L20.5631 39.9633L5 31L20.5631 22.0365L20.5 4L36 13.0732L51.5 4Z" fill="#F29F53" fill-opacity="0.12"/>
<path d="M52.5 4.0035L52.5061 2.25232L50.9948 3.13699L36 11.9145L21.0052 3.13699L19.4939 2.25232L19.5 4.0035L19.5611 21.4596L4.50091 30.1334L2.99632 31L4.50092 31.8666L19.5611 40.5402L19.5 57.9965L19.4939 59.7477L21.0052 58.863L36 50.0854L50.9948 58.863L52.5061 59.7477L52.5 57.9965L52.4389 40.5402L67.4991 31.8666L69.0037 31L67.4991 30.1334L52.4389 21.4596L52.5 4.0035Z" stroke="#F29F53" stroke-opacity="0.2" stroke-width="2"/>
<path d="M39.7008 23.9056L33.832 29.7728L33.8384 33.1704L37.2288 33.1648L43.0936 27.2992C43.6907 28.4413 44.0017 29.7112 44 31C44 35.4184 40.4184 39 36 39C31.5816 39 28 35.4184 28 31C28 26.5816 31.5816 23 36 23C37.3352 23 38.5936 23.3272 39.7008 23.9056Z" fill="#F29F53"/>
<path opacity="0.5" d="M43.9192 24.2121L36.5656 31.5657L35.436 31.5681L35.4344 30.4345L42.788 23.0801L43.9192 24.2121Z" fill="#F29F53"/>
</svg>
